<svg width="366" height="132" viewBox="0 0 366 132" fill="none" xmlns="http://www.w3.org/2000/svg">
<path d="M143.195 122.76V91.2604H147.695V122.76H143.195ZM145.49 122.76V118.44H163.22V122.76H145.49ZM174.044 123.39C171.794 123.39 169.799 122.895 168.059 121.905C166.349 120.885 165.014 119.475 164.054 117.675C163.094 115.875 162.614 113.79 162.614 111.42C162.614 109.05 163.079 106.98 164.009 105.21C164.969 103.41 166.289 102.015 167.969 101.025C169.679 100.005 171.644 99.4954 173.864 99.4954C176.054 99.4954 177.959 100.005 179.579 101.025C181.229 102.045 182.504 103.485 183.404 105.345C184.334 107.175 184.799 109.32 184.799 111.78V112.455L184.124 113.13H164.909V109.17H182.639L180.344 110.07C180.284 108.72 179.954 107.565 179.354 106.605C178.784 105.645 178.019 104.91 177.059 104.4C176.129 103.86 175.079 103.59 173.909 103.59C172.649 103.59 171.494 103.89 170.444 104.49C169.394 105.09 168.569 105.93 167.969 107.01C167.399 108.06 167.114 109.29 167.114 110.7V112.05C167.114 113.43 167.414 114.675 168.014 115.785C168.614 116.865 169.439 117.72 170.489 118.35C171.539 118.98 172.724 119.295 174.044 119.295C175.304 119.295 176.414 118.98 177.374 118.35C178.364 117.69 179.144 116.82 179.714 115.74H180.254L183.899 117.315C183.029 119.205 181.739 120.69 180.029 121.77C178.319 122.85 176.324 123.39 174.044 123.39ZM195.231 122.76C193.161 122.76 191.481 122.1 190.191 120.78C188.931 119.46 188.301 117.675 188.301 115.425V94.1404H192.801V115.02C192.801 116.25 193.086 117.165 193.656 117.765C194.256 118.335 195.171 118.62 196.401 118.62H198.921L199.146 119.115V122.76H195.231ZM184.431 104.265V100.125H199.146V104.265H184.431ZM200.882 103.68V100.395C201.992 100.185 202.847 99.7354 203.447 99.0454C204.077 98.3254 204.392 97.5004 204.392 96.5704C204.392 96.0004 204.317 95.4604 204.167 94.9504L206.147 93.7804C206.207 94.0204 206.252 94.2454 206.282 94.4554C206.312 94.6354 206.327 94.8304 206.327 95.0404C206.327 95.5504 206.192 95.9704 205.922 96.3004C205.652 96.6004 205.322 96.8254 204.932 96.9754C204.572 97.1254 204.242 97.2004 203.942 97.2004C203.012 97.2004 202.232 96.8854 201.602 96.2554C201.002 95.6254 200.702 94.8904 200.702 94.0504C200.702 93.1204 201.002 92.3404 201.602 91.7104C202.232 91.0804 203.012 90.7654 203.942 90.7654C204.722 90.7654 205.382 91.0054 205.922 91.4854C206.492 91.9354 206.912 92.5354 207.182 93.2854C207.482 94.0354 207.632 94.8604 207.632 95.7604C207.632 96.4804 207.512 97.2604 207.272 98.1004C207.062 98.9404 206.687 99.7504 206.147 100.53C205.637 101.31 204.947 101.985 204.077 102.555C203.237 103.125 202.172 103.5 200.882 103.68ZM216.677 123.39C214.247 123.39 212.192 122.82 210.512 121.68C208.832 120.51 207.722 118.905 207.182 116.865L211.277 115.83L211.817 115.965C212.117 117.015 212.732 117.84 213.662 118.44C214.622 119.01 215.732 119.295 216.992 119.295C218.222 119.295 219.272 119.025 220.142 118.485C221.012 117.945 221.447 117.225 221.447 116.325C221.447 115.575 221.192 114.99 220.682 114.57C220.172 114.12 219.407 113.775 218.387 113.535L214.157 112.59C212.027 112.11 210.437 111.33 209.387 110.25C208.337 109.14 207.812 107.805 207.812 106.245C207.812 104.895 208.187 103.725 208.937 102.735C209.687 101.715 210.707 100.92 211.997 100.35C213.317 99.7804 214.802 99.4954 216.452 99.4954C218.792 99.4954 220.772 100.08 222.392 101.25C224.012 102.39 225.077 104.01 225.587 106.11L221.627 106.965L221.132 106.875C220.862 105.855 220.262 105.06 219.332 104.49C218.432 103.89 217.412 103.59 216.272 103.59C215.162 103.59 214.217 103.83 213.437 104.31C212.687 104.76 212.312 105.36 212.312 106.11C212.312 106.71 212.552 107.235 213.032 107.685C213.512 108.105 214.247 108.42 215.237 108.63L219.512 109.62C221.672 110.1 223.277 110.865 224.327 111.915C225.407 112.965 225.947 114.345 225.947 116.055C225.947 117.555 225.542 118.86 224.732 119.97C223.952 121.05 222.857 121.89 221.447 122.49C220.067 123.09 218.477 123.39 216.677 123.39ZM243.155 122.76V91.2604H247.655V122.76H243.155ZM233.57 95.5804V91.2604H257.24V95.5804H233.57ZM260.973 123.39C259.443 123.39 258.063 123.09 256.833 122.49C255.633 121.89 254.688 121.065 253.998 120.015C253.308 118.935 252.963 117.705 252.963 116.325C252.963 114.255 253.683 112.605 255.123 111.375C256.563 110.115 258.603 109.38 261.243 109.17L269.973 108.45V112.32L262.008 112.95C260.478 113.07 259.353 113.4 258.633 113.94C257.913 114.48 257.553 115.215 257.553 116.145C257.553 117.045 257.943 117.795 258.723 118.395C259.503 118.965 260.493 119.25 261.693 119.25C262.953 119.25 264.093 118.95 265.113 118.35C266.163 117.75 266.988 116.955 267.588 115.965C268.188 114.945 268.488 113.85 268.488 112.68V108.99C268.488 107.4 267.978 106.095 266.958 105.075C265.968 104.055 264.648 103.545 262.998 103.545C261.618 103.545 260.463 103.875 259.533 104.535C258.633 105.195 258.033 106.065 257.733 107.145H257.238L253.368 106.065C253.968 104.055 255.108 102.45 256.788 101.25C258.468 100.05 260.538 99.4504 262.998 99.4504C266.148 99.4504 268.593 100.38 270.333 102.24C272.073 104.07 272.943 106.65 272.943 109.98V122.76H268.803V116.19L270.423 116.685C270.063 117.915 269.418 119.04 268.488 120.06C267.588 121.08 266.493 121.89 265.203 122.49C263.913 123.09 262.503 123.39 260.973 123.39ZM277.065 122.76V90.3604L281.43 89.8204L281.565 90.1804V122.76H277.065ZM288.144 118.575V112.545L300.519 100.125H306.009V100.485L288.144 118.575ZM285.714 122.76V90.3604L290.079 89.8204L290.214 90.1804V122.76H285.714ZM301.059 122.76L293.049 111.24L296.154 108.315L306.054 122.4V122.76H301.059Z" fill="#C21F1F"/>
<path d="M1.77539 1.76041L121.775 122.76M121.775 122.76L121.775 1.76042M121.775 122.76L1.77539 122.76" stroke="#C21F1F" stroke-width="5" stroke-linejoin="round"/>
</svg>
