<svg width="623" height="709" viewBox="0 0 623 709" fill="none" xmlns="http://www.w3.org/2000/svg">
<path d="M341.337 123.08L341.337 4.08006L346.437 4.08006L346.437 123.08L341.337 123.08ZM344.227 65.9601L344.227 61.2001L406.957 61.2001L406.957 65.9601L344.227 65.9601ZM344.227 8.84006L344.227 4.08006L410.357 4.08005L410.357 8.84005L344.227 8.84006ZM427.426 123.08L427.426 39.4401L432.526 39.4401L432.526 123.08L427.426 123.08ZM429.976 15.8101C428.502 15.8101 427.256 15.3001 426.236 14.2801C425.216 13.2601 424.706 12.0134 424.706 10.5401C424.706 9.06672 425.216 7.82006 426.236 6.80006C427.256 5.78006 428.502 5.27006 429.976 5.27006C431.449 5.27006 432.696 5.78006 433.716 6.80006C434.736 7.82006 435.246 9.06672 435.246 10.54C435.246 12.0134 434.736 13.2601 433.716 14.2801C432.696 15.3001 431.449 15.8101 429.976 15.8101ZM454.619 123.08L454.619 39.4401L459.719 39.4401L459.719 60.5201L457.169 61.0301C458.869 55.8167 461.419 51.5101 464.819 48.1101C468.332 44.7101 472.299 42.2167 476.719 40.6301C481.139 38.9301 485.616 38.0801 490.149 38.0801C496.382 38.0801 501.766 39.3834 506.299 41.9901C510.946 44.4834 514.516 48.2234 517.009 53.2101C519.502 58.1967 520.749 64.2601 520.749 71.4001L520.749 123.08L515.649 123.08L515.649 72.0801C515.649 65.3934 514.572 59.8967 512.419 55.5901C510.379 51.2834 507.376 48.1101 503.409 46.0701C499.556 43.9167 494.852 42.8401 489.299 42.8401C484.199 42.8401 479.382 44.0867 474.849 46.5801C470.316 48.9601 466.632 52.4167 463.799 56.9501C461.079 61.4834 459.719 66.9234 459.719 73.2701L459.719 123.08L454.619 123.08ZM575.056 124.44C567.349 124.44 560.493 122.627 554.486 119C548.479 115.373 543.776 110.33 540.376 103.87C536.976 97.2967 535.276 89.7601 535.276 81.2601C535.276 72.6467 536.976 65.1101 540.376 58.6501C543.776 52.1901 548.479 47.1467 554.486 43.5201C560.493 39.8934 567.349 38.0801 575.056 38.0801C581.629 38.0801 587.523 39.4401 592.736 42.1601C597.949 44.7667 602.256 48.4501 605.656 53.2101C609.169 57.97 611.606 63.6367 612.966 70.21L612.966 92.3101C611.606 98.8834 609.169 104.55 605.656 109.31C602.256 114.07 597.949 117.81 592.736 120.53C587.523 123.137 581.629 124.44 575.056 124.44ZM575.056 119.68C581.856 119.68 587.863 118.093 593.076 114.92C598.289 111.633 602.369 107.1 605.316 101.32C608.263 95.5401 609.736 88.8534 609.736 81.2601C609.736 73.5534 608.263 66.8667 605.316 61.2C602.369 55.42 598.289 50.9434 593.076 47.7701C587.863 44.4834 581.856 42.84 575.056 42.84C568.369 42.84 562.363 44.4834 557.036 47.7701C551.823 50.9434 547.743 55.4201 544.796 61.2001C541.849 66.8667 540.376 73.5534 540.376 81.2601C540.376 88.8534 541.849 95.5401 544.796 101.32C547.743 107.1 551.823 111.633 557.036 114.92C562.363 118.093 568.369 119.68 575.056 119.68ZM609.396 123.08L609.396 95.0301L611.776 81.2601L609.396 67.49L609.396 0.680048L613.986 4.61223e-05L614.496 1.36005L614.496 123.08L609.396 123.08ZM79.883 265.44C71.723 265.44 64.5263 263.967 58.293 261.02C52.173 257.96 47.1864 253.767 43.333 248.44C39.4797 243.113 36.8164 236.993 35.343 230.08L38.743 229.23L40.443 229.57C41.803 236.143 44.353 241.753 48.093 246.4C51.833 251.047 56.423 254.617 61.863 257.11C67.4163 259.49 73.3663 260.68 79.713 260.68C86.7397 260.68 92.973 259.547 98.413 257.28C103.853 255.013 108.103 251.84 111.163 247.76C114.336 243.567 115.923 238.693 115.923 233.14C115.923 225.887 113.656 220.39 109.123 216.65C104.703 212.91 98.6397 210.02 90.9331 207.98L67.6431 201.69C59.0297 199.31 52.4564 195.627 47.9231 190.64C43.3898 185.653 41.1231 179.76 41.1231 172.96C41.1231 167.18 42.6531 162.137 45.7131 157.83C48.8865 153.41 53.1931 149.953 58.6331 147.46C64.1865 144.967 70.4765 143.72 77.5031 143.72C84.5298 143.72 90.8198 145.08 96.3731 147.8C102.04 150.52 106.686 154.373 110.313 159.36C113.94 164.233 116.32 170.013 117.453 176.7L114.223 177.38L112.523 177.04C110.823 168.2 106.8 161.23 100.453 156.13C94.2198 151.03 86.5698 148.48 77.5031 148.48C68.2098 148.48 60.6731 150.747 54.8931 155.28C49.1131 159.7 46.2231 165.65 46.2231 173.13C46.2231 179.023 48.3198 184.01 52.5131 188.09C56.7064 192.057 62.9397 195.173 71.2131 197.44L94.5031 203.73C102.89 205.883 109.406 209.453 114.053 214.44C118.7 219.313 121.023 225.32 121.023 232.46C121.023 239.033 119.266 244.813 115.753 249.8C112.353 254.673 107.536 258.527 101.303 261.36C95.183 264.08 88.043 265.44 79.883 265.44ZM204.137 180.44L204.137 264.08L199.037 264.08L199.037 243L201.587 242.49C199.887 247.703 197.28 252.01 193.767 255.41C190.367 258.81 186.457 261.36 182.037 263.06C177.617 264.647 173.14 265.44 168.607 265.44C162.374 265.44 156.934 264.193 152.287 261.7C147.754 259.093 144.24 255.297 141.747 250.31C139.254 245.323 138.007 239.26 138.007 232.12L138.007 180.44L143.107 180.44L143.107 231.44C143.107 238.127 144.127 243.623 146.167 247.93C148.32 252.237 151.38 255.467 155.347 257.62C159.314 259.66 164.017 260.68 169.457 260.68C174.67 260.68 179.487 259.49 183.907 257.11C188.44 254.617 192.067 251.103 194.787 246.57C197.62 241.923 199.037 236.483 199.037 230.25L199.037 180.44L204.137 180.44ZM226.314 264.08L226.314 180.44L231.414 180.44L231.414 201.52L228.864 202.03C231.131 194.663 234.928 189.223 240.254 185.71C245.694 182.197 251.588 180.44 257.934 180.44L265.244 180.44L265.244 185.2L257.594 185.2C252.834 185.2 248.471 186.333 244.504 188.6C240.538 190.867 237.364 194.097 234.984 198.29C232.604 202.37 231.414 207.3 231.414 213.08L231.414 264.08L226.314 264.08ZM296.351 264.08L297.881 258.64L330.522 180.44L335.282 180.44L335.282 181.8L300.771 264.08L296.351 264.08ZM296.351 264.08L261.842 181.8L261.842 180.44L266.602 180.44L299.241 258.64L300.771 264.08L296.351 264.08ZM344.617 264.08L344.617 180.44L349.717 180.44L349.717 264.08L344.617 264.08ZM347.167 156.81C345.694 156.81 344.447 156.3 343.427 155.28C342.407 154.26 341.897 153.013 341.897 151.54C341.897 150.067 342.407 148.82 343.427 147.8C344.447 146.78 345.694 146.27 347.167 146.27C348.64 146.27 349.887 146.78 350.907 147.8C351.927 148.82 352.437 150.067 352.437 151.54C352.437 153.013 351.927 154.26 350.907 155.28C349.887 156.3 348.64 156.81 347.167 156.81ZM390.25 264.08L391.78 258.64L424.42 180.44L429.18 180.44L429.18 181.8L394.67 264.08L390.25 264.08ZM390.25 264.08L355.74 181.8L355.74 180.44L360.5 180.44L393.14 258.64L394.67 264.08L390.25 264.08ZM438.515 264.08L438.515 180.44L443.615 180.44L443.615 264.08L438.515 264.08ZM441.065 156.81C439.592 156.81 438.345 156.3 437.325 155.28C436.305 154.26 435.795 153.013 435.795 151.54C435.795 150.067 436.305 148.82 437.325 147.8C438.345 146.78 439.592 146.27 441.065 146.27C442.539 146.27 443.785 146.78 444.805 147.8C445.825 148.82 446.335 150.067 446.335 151.54C446.335 153.013 445.825 154.26 444.805 155.28C443.785 156.3 442.539 156.81 441.065 156.81ZM465.709 264.08L465.709 180.44L470.809 180.44L470.809 201.52L468.259 202.03C469.959 196.817 472.509 192.51 475.909 189.11C479.422 185.71 483.389 183.217 487.809 181.63C492.229 179.93 496.705 179.08 501.239 179.08C507.472 179.08 512.855 180.383 517.389 182.99C522.035 185.483 525.605 189.223 528.099 194.21C530.592 199.197 531.839 205.26 531.839 212.4L531.839 264.08L526.739 264.08L526.739 213.08C526.739 206.393 525.662 200.897 523.509 196.59C521.469 192.283 518.465 189.11 514.499 187.07C510.645 184.917 505.942 183.84 500.389 183.84C495.289 183.84 490.472 185.087 485.939 187.58C481.405 189.96 477.722 193.417 474.889 197.95C472.169 202.483 470.809 207.923 470.809 214.27L470.809 264.08L465.709 264.08ZM574.795 298.08C564.935 298.08 557.172 295.927 551.505 291.62C545.839 287.313 543.005 281.76 543.005 274.96C543.006 269.747 544.309 265.27 546.916 261.53C549.636 257.79 552.809 255.127 556.436 253.54L562.216 256.09C557.682 257.223 554.169 259.603 551.676 263.23C549.296 266.857 548.106 270.483 548.105 274.11C548.105 280.003 550.429 284.65 555.075 288.05C559.722 291.563 566.295 293.32 574.795 293.32L584.825 293.32C592.759 293.32 598.992 291.677 603.525 288.39C608.172 285.217 610.495 280.683 610.495 274.79C610.496 269.803 608.569 265.837 604.716 262.89C600.976 259.943 596.216 258.47 590.436 258.47L568.166 258.47C564.086 258.47 560.516 257.847 557.456 256.6C554.509 255.353 552.186 253.597 550.486 251.33C548.899 249.063 548.106 246.457 548.106 243.51C548.106 239.543 549.352 236.257 551.846 233.65C554.452 230.93 557.796 229.117 561.876 228.21L566.976 231.44C563.122 231.893 559.836 233.14 557.116 235.18C554.509 237.22 553.206 239.827 553.206 243C553.206 246.513 554.566 249.177 557.286 250.99C560.006 252.803 563.859 253.71 568.846 253.71L590.946 253.71C598.312 253.71 604.262 255.693 608.796 259.66C613.329 263.627 615.596 268.727 615.595 274.96C615.595 281.987 612.819 287.597 607.265 291.79C601.712 295.983 594.232 298.08 584.825 298.08L574.795 298.08ZM579.896 235.18C573.776 235.18 568.336 233.99 563.576 231.61C558.929 229.23 555.302 225.943 552.696 221.75C550.089 217.557 548.786 212.683 548.786 207.13C548.786 201.577 550.089 196.703 552.696 192.51C555.302 188.317 558.929 185.03 563.576 182.65C568.336 180.27 573.776 179.08 579.896 179.08C586.129 179.08 591.569 180.27 596.216 182.65C600.862 185.03 604.489 188.317 607.096 192.51C609.702 196.703 611.006 201.577 611.006 207.13C611.006 212.683 609.702 217.557 607.096 221.75C604.489 225.943 600.862 229.23 596.216 231.61C591.569 233.99 586.129 235.18 579.896 235.18ZM579.896 230.42C587.602 230.42 593.836 228.267 598.596 223.96C603.469 219.653 605.906 214.043 605.906 207.13C605.906 200.217 603.469 194.607 598.596 190.3C593.836 185.993 587.602 183.84 579.896 183.84C572.189 183.84 565.899 185.993 561.026 190.3C556.266 194.607 553.886 200.217 553.886 207.13C553.886 214.043 556.266 219.653 561.026 223.96C565.899 228.267 572.189 230.42 579.896 230.42ZM600.976 187.24L597.066 184.52C597.066 181.347 597.746 178.4 599.106 175.68C600.579 172.847 602.506 170.58 604.886 168.88C607.379 167.18 610.099 166.33 613.046 166.33C614.066 166.33 615.029 166.387 615.936 166.5C616.842 166.5 617.522 166.613 617.976 166.84L617.976 170.58L617.296 172.28C616.162 171.94 614.802 171.77 613.216 171.77C609.362 171.77 606.359 173.3 604.206 176.36C602.052 179.307 600.976 182.933 600.976 187.24ZM232.252 406.44C224.092 406.44 216.895 404.967 210.662 402.02C204.542 398.96 199.555 394.767 195.702 389.44C191.849 384.113 189.185 377.993 187.712 371.08L191.112 370.23L192.812 370.57C194.172 377.143 196.722 382.753 200.462 387.4C204.202 392.047 208.792 395.617 214.232 398.11C219.785 400.49 225.735 401.68 232.082 401.68C239.109 401.68 245.342 400.547 250.782 398.28C256.222 396.013 260.472 392.84 263.532 388.76C266.705 384.567 268.292 379.693 268.292 374.14C268.292 366.887 266.025 361.39 261.492 357.65C257.072 353.91 251.009 351.02 243.302 348.98L220.012 342.69C211.399 340.31 204.825 336.627 200.292 331.64C195.759 326.653 193.492 320.76 193.492 313.96C193.492 308.18 195.022 303.137 198.082 298.83C201.255 294.41 205.562 290.953 211.002 288.46C216.555 285.967 222.845 284.72 229.872 284.72C236.899 284.72 243.189 286.08 248.742 288.8C254.409 291.52 259.055 295.373 262.682 300.36C266.309 305.233 268.689 311.013 269.822 317.7L266.592 318.38L264.892 318.04C263.192 309.2 259.169 302.23 252.822 297.13C246.589 292.03 238.939 289.48 229.872 289.48C220.579 289.48 213.042 291.747 207.262 296.28C201.482 300.7 198.592 306.65 198.592 314.13C198.592 320.023 200.689 325.01 204.882 329.09C209.075 333.057 215.309 336.173 223.582 338.44L246.872 344.73C255.259 346.883 261.775 350.453 266.422 355.44C271.069 360.313 273.392 366.32 273.392 373.46C273.392 380.033 271.635 385.813 268.122 390.8C264.722 395.673 259.905 399.527 253.672 402.36C247.552 405.08 240.412 406.44 232.252 406.44ZM292.926 405.08L292.926 286.08L298.026 286.08L298.026 405.08L292.926 405.08ZM322.756 405.08L322.756 282.68L327.346 282L327.856 283.36L327.856 405.08L322.756 405.08ZM350.759 405.08L350.759 321.44L355.859 321.44L355.859 405.08L350.759 405.08ZM353.309 297.81C351.836 297.81 350.589 297.3 349.569 296.28C348.549 295.26 348.039 294.013 348.039 292.54C348.039 291.067 348.549 289.82 349.569 288.8C350.589 287.78 351.836 287.27 353.309 287.27C354.783 287.27 356.029 287.78 357.049 288.8C358.069 289.82 358.579 291.067 358.579 292.54C358.579 294.013 358.069 295.26 357.049 296.28C356.029 297.3 354.783 297.81 353.309 297.81ZM410.423 406.44C402.603 406.44 395.746 404.627 389.853 401C383.959 397.373 379.369 392.33 376.083 385.87C372.796 379.297 371.153 371.76 371.153 363.26C371.153 354.647 372.796 347.11 376.083 340.65C379.369 334.19 383.959 329.147 389.853 325.52C395.746 321.893 402.603 320.08 410.423 320.08C417.109 320.08 422.776 321.27 427.423 323.65C432.183 326.03 436.093 329.147 439.153 333C442.213 336.853 444.649 341.047 446.463 345.58L443.573 346.77L441.703 346.77C439.209 340.877 435.469 335.777 430.483 331.47C425.496 327.05 418.809 324.84 410.423 324.84C403.283 324.84 397.163 326.54 392.063 329.94C386.963 333.34 383.053 337.93 380.333 343.71C377.613 349.49 376.253 356.007 376.253 363.26C376.253 370.4 377.613 376.917 380.333 382.81C383.053 388.59 386.963 393.18 392.063 396.58C397.163 399.98 403.283 401.68 410.423 401.68C416.316 401.68 421.303 400.66 425.383 398.62C429.576 396.58 433.033 393.917 435.753 390.63C438.586 387.23 440.796 383.603 442.383 379.75L444.253 379.75L447.143 380.94C445.329 385.36 442.893 389.553 439.833 393.52C436.773 397.373 432.806 400.49 427.933 402.87C423.173 405.25 417.336 406.44 410.423 406.44ZM494.741 406.44C487.035 406.44 480.121 404.627 474.001 401C467.995 397.373 463.291 392.33 459.891 385.87C456.491 379.297 454.791 371.76 454.791 363.26C454.791 354.647 456.491 347.11 459.891 340.65C463.291 334.19 467.995 329.147 474.001 325.52C480.121 321.893 487.035 320.08 494.741 320.08C502.561 320.08 509.475 321.893 515.481 325.52C521.488 329.147 526.191 334.19 529.591 340.65C532.991 347.11 534.691 354.647 534.691 363.26C534.691 371.76 532.991 379.297 529.591 385.87C526.191 392.33 521.488 397.373 515.481 401C509.475 404.627 502.561 406.44 494.741 406.44ZM494.911 401.68C501.598 401.68 507.548 400.093 512.761 396.92C517.975 393.633 522.055 389.1 525.001 383.32C528.061 377.54 529.591 370.853 529.591 363.26C529.591 355.553 528.061 348.867 525.001 343.2C522.055 337.42 517.975 332.943 512.761 329.77C507.548 326.483 501.541 324.84 494.741 324.84C488.055 324.84 482.048 326.483 476.721 329.77C471.508 332.943 467.371 337.42 464.311 343.2C461.365 348.867 459.891 355.553 459.891 363.26C459.891 370.853 461.365 377.54 464.311 383.32C467.371 389.1 471.508 393.633 476.721 396.92C482.048 400.093 488.111 401.68 494.911 401.68ZM550.044 405.08L550.045 321.44L555.145 321.44L555.144 342.52L552.594 343.03C554.294 337.817 556.844 333.51 560.245 330.11C563.758 326.71 567.725 324.217 572.145 322.63C576.565 320.93 581.041 320.08 585.575 320.08C591.808 320.08 597.191 321.383 601.725 323.99C606.371 326.483 609.941 330.223 612.434 335.21C614.928 340.197 616.174 346.26 616.174 353.4L616.174 405.08L611.074 405.08L611.074 354.08C611.074 347.393 609.998 341.897 607.844 337.59C605.805 333.283 602.801 330.11 598.835 328.07C594.981 325.917 590.278 324.84 584.725 324.84C579.625 324.84 574.808 326.087 570.275 328.58C565.741 330.96 562.058 334.417 559.224 338.95C556.504 343.483 555.144 348.923 555.144 355.27L555.144 405.08L550.044 405.08ZM283.887 546.08L285.587 543.7L330.637 427.08L335.397 427.08L335.397 428.44L289.837 546.08L283.887 546.08ZM283.887 546.08L238.327 428.44L238.327 427.08L243.257 427.08L288.307 543.7L289.837 546.08L283.887 546.08ZM359.44 547.44C353.886 547.44 348.956 546.363 344.65 544.21C340.456 541.943 337.113 538.997 334.62 535.37C332.24 531.63 331.05 527.493 331.05 522.96C331.05 516.953 333.146 511.683 337.34 507.15C341.646 502.617 348.276 500.01 357.23 499.33L393.78 496.61L393.78 501.54L358.93 504.09C350.883 504.657 345.046 506.753 341.42 510.38C337.906 513.893 336.15 517.973 336.15 522.62C336.15 528.74 338.416 533.613 342.95 537.24C347.596 540.867 353.15 542.68 359.61 542.68C365.276 542.68 370.546 541.207 375.42 538.26C380.293 535.313 384.26 531.403 387.32 526.53C390.38 521.657 391.91 516.33 391.91 510.55L391.91 497.12C391.91 487.373 389.586 479.723 384.94 474.17C380.293 468.617 373.55 465.84 364.71 465.84C358.25 465.84 352.753 467.483 348.22 470.77C343.686 473.943 340.23 478.42 337.85 484.2L335.98 484.2L332.75 483.01C335.356 475.983 339.436 470.6 344.99 466.86C350.656 463.007 357.286 461.08 364.88 461.08C374.967 461.08 382.843 464.31 388.51 470.77C394.176 477.117 397.01 486.183 397.01 497.97L397.01 546.08L391.91 546.08L391.91 521.6L393.44 523.3C392.08 527.72 389.756 531.743 386.47 535.37C383.183 538.997 379.216 541.943 374.57 544.21C369.923 546.363 364.88 547.44 359.44 547.44ZM420.804 546.08L420.805 423.68L425.395 423L425.905 424.36L425.904 546.08L420.804 546.08ZM449.658 546.08L449.658 423.68L454.248 423L454.758 424.36L454.758 546.08L449.658 546.08ZM510.131 547.44C502.311 547.44 495.455 545.627 489.561 542C483.668 538.373 479.078 533.33 475.791 526.87C472.505 520.297 470.861 512.76 470.862 504.26C470.862 495.647 472.448 488.11 475.622 481.65C478.908 475.19 483.385 470.147 489.052 466.52C494.832 462.893 501.462 461.08 508.942 461.08C516.422 461.08 522.938 462.837 528.492 466.35C534.158 469.863 538.522 474.68 541.582 480.8C544.755 486.807 546.342 493.777 546.342 501.71L546.342 503.24L543.962 505.45L473.242 505.45L473.242 500.69L543.282 500.69L541.242 502.56C541.242 494.513 539.768 487.77 536.822 482.33C533.988 476.89 530.135 472.81 525.262 470.09C520.388 467.257 514.948 465.84 508.942 465.84C502.708 465.84 497.098 467.427 492.112 470.6C487.125 473.773 483.158 478.193 480.212 483.86C477.378 489.413 475.962 495.76 475.962 502.9L475.962 505.11C475.961 512.477 477.378 518.993 480.211 524.66C483.158 530.327 487.181 534.747 492.281 537.92C497.495 541.093 503.445 542.68 510.131 542.68C517.158 542.68 523.051 541.093 527.811 537.92C532.571 534.747 536.311 530.44 539.031 525L540.901 525L543.791 526.7C540.845 532.933 536.538 537.977 530.871 541.83C525.318 545.57 518.405 547.44 510.131 547.44ZM566.302 580.08L566.302 578.72L580.072 546.08L582.452 540.64L615.092 462.44L619.682 462.44L619.682 463.8L570.892 580.08L566.302 580.08ZM580.072 546.08L545.562 463.8L545.562 462.44L550.322 462.44L582.962 540.64L582.962 546.08L580.072 546.08ZM486.241 688.44C478.534 688.44 471.621 686.627 465.501 683C459.494 679.373 454.791 674.33 451.391 667.87C447.991 661.297 446.291 653.76 446.291 645.26C446.291 636.647 447.991 629.11 451.391 622.65C454.791 616.19 459.494 611.147 465.501 607.52C471.621 603.893 478.534 602.08 486.241 602.08C494.061 602.08 500.974 603.893 506.981 607.52C512.988 611.147 517.691 616.19 521.091 622.65C524.491 629.11 526.191 636.647 526.191 645.26C526.191 653.76 524.491 661.297 521.091 667.87C517.691 674.33 512.988 679.373 506.981 683C500.974 686.627 494.061 688.44 486.241 688.44ZM486.411 683.68C493.098 683.68 499.048 682.093 504.261 678.92C509.474 675.633 513.554 671.1 516.501 665.32C519.561 659.54 521.091 652.853 521.091 645.26C521.091 637.553 519.561 630.867 516.501 625.2C513.554 619.42 509.474 614.943 504.261 611.77C499.048 608.483 493.041 606.84 486.241 606.84C479.554 606.84 473.548 608.483 468.221 611.77C463.008 614.943 458.871 619.42 455.811 625.2C452.864 630.867 451.391 637.553 451.391 645.26C451.391 652.853 452.864 659.54 455.811 665.32C458.871 671.1 463.008 675.633 468.221 678.92C473.548 682.093 479.611 683.68 486.411 683.68ZM541.544 687.08L541.544 603.44L546.644 603.44L546.644 624.52L544.094 625.03C545.794 619.817 548.344 615.51 551.744 612.11C555.258 608.71 559.224 606.217 563.644 604.63C568.064 602.93 572.541 602.08 577.074 602.08C583.308 602.08 588.691 603.383 593.224 605.99C597.871 608.483 601.441 612.223 603.934 617.21C606.428 622.197 607.674 628.26 607.674 635.4L607.674 687.08L602.574 687.08L602.574 636.08C602.574 629.393 601.498 623.897 599.344 619.59C597.304 615.283 594.301 612.11 590.334 610.07C586.481 607.917 581.778 606.84 576.224 606.84C571.124 606.84 566.308 608.087 561.774 610.58C557.241 612.96 553.558 616.417 550.724 620.95C548.004 625.483 546.644 630.923 546.644 637.27L546.644 687.08L541.544 687.08Z" fill="#F4F3EF"/>
</svg>
