<svg width="64" height="68" viewBox="0 0 64 68" fill="none" xmlns="http://www.w3.org/2000/svg">
<path d="M31.5114 3.51221C36.7246 3.51221 37.342 3.53507 39.3922 3.62649C41.2976 3.71029 42.3266 4.03028 43.0125 4.29693C43.9195 4.64739 44.5749 5.07404 45.2533 5.7521C45.9392 6.43778 46.3584 7.08537 46.709 7.99199C46.9758 8.67767 47.2959 9.71381 47.3797 11.6109C47.4712 13.6679 47.494 14.285 47.494 19.4886C47.494 24.6997 47.4712 25.3169 47.3797 27.3663C47.2959 29.271 46.9758 30.2995 46.709 30.9852C46.3584 31.8918 45.9316 32.547 45.2533 33.225C44.5673 33.9107 43.9195 34.3298 43.0125 34.6802C42.3266 34.9469 41.29 35.2668 39.3922 35.3507C37.3344 35.4421 36.717 35.4649 31.5114 35.4649C26.2982 35.4649 25.6809 35.4421 23.6306 35.3507C21.7252 35.2668 20.6963 34.9469 20.0104 34.6802C19.1034 34.3298 18.4479 33.9031 17.7696 33.225C17.0836 32.5394 16.6645 31.8918 16.3139 30.9852C16.0471 30.2995 15.727 29.2633 15.6432 27.3663C15.5517 25.3092 15.5288 24.6921 15.5288 19.4886C15.5288 14.2774 15.5517 13.6603 15.6432 11.6109C15.727 9.70619 16.0471 8.67767 16.3139 7.99199C16.6645 7.08537 17.0913 6.43016 17.7696 5.7521C18.4555 5.06642 19.1034 4.64739 20.0104 4.29693C20.6963 4.03028 21.7329 3.71029 23.6306 3.62649C25.6809 3.53507 26.2982 3.51221 31.5114 3.51221ZM31.5114 0C26.2144 0 25.5513 0.022856 23.4706 0.11428C21.3975 0.205704 19.9722 0.540926 18.7375 1.0209C17.4495 1.52374 16.3596 2.18656 15.2773 3.27603C14.1874 4.35788 13.5243 5.44735 13.0213 6.72729C12.5411 7.96914 12.2058 9.38621 12.1143 11.4585C12.0229 13.546 12 14.2088 12 19.5038C12 24.7988 12.0229 25.4616 12.1143 27.5415C12.2058 29.6138 12.5411 31.0385 13.0213 32.2727C13.5243 33.5603 14.1874 34.6497 15.2773 35.7316C16.3596 36.8134 17.4495 37.4839 18.7299 37.9791C19.9722 38.4591 21.3899 38.7943 23.463 38.8857C25.5437 38.9771 26.2068 39 31.5038 39C36.8009 39 37.4639 38.9771 39.5447 38.8857C41.6177 38.7943 43.043 38.4591 44.2777 37.9791C45.5581 37.4839 46.648 36.8134 47.7303 35.7316C48.8126 34.6497 49.4833 33.5603 49.9787 32.2803C50.4589 31.0385 50.7942 29.6214 50.8857 27.5491C50.9771 25.4692 51 24.8064 51 19.5114C51 14.2164 50.9771 13.5536 50.8857 11.4737C50.7942 9.40145 50.4589 7.97675 49.9787 6.74253C49.4985 5.44735 48.8355 4.35788 47.7456 3.27603C46.6633 2.19418 45.5734 1.52374 44.2929 1.02852C43.0506 0.548545 41.633 0.213323 39.5599 0.121899C37.4716 0.022856 36.8085 0 31.5114 0Z" fill="#F4F3EF"/>
<path d="M31.5114 9.48525C25.9781 9.48525 21.489 13.9727 21.489 19.5038C21.489 25.035 25.9781 29.5224 31.5114 29.5224C37.0448 29.5224 41.5339 25.035 41.5339 19.5038C41.5339 13.9727 37.0448 9.48525 31.5114 9.48525ZM31.5114 26.0025C27.9216 26.0025 25.0102 23.0922 25.0102 19.5038C25.0102 15.9154 27.9216 13.0051 31.5114 13.0051C35.1012 13.0051 38.0127 15.9154 38.0127 19.5038C38.0127 23.0922 35.1012 26.0025 31.5114 26.0025Z" fill="#F4F3EF"/>
<path d="M44.2701 9.08901C44.2701 10.3842 43.2183 11.4279 41.9302 11.4279C40.6346 11.4279 39.5904 10.3766 39.5904 9.08901C39.5904 7.79383 40.6422 6.75007 41.9302 6.75007C43.2183 6.75007 44.2701 7.80145 44.2701 9.08901Z" fill="#F4F3EF"/>
<path d="M5.256 64.74C4.6 64.74 3.984 64.62 3.408 64.38C2.84 64.14 2.34 63.804 1.908 63.372C1.484 62.948 1.152 62.452 0.912 61.884C0.672 61.308 0.552 60.688 0.552 60.024C0.552 59.36 0.672 58.744 0.912 58.176C1.152 57.6 1.488 57.1 1.92 56.676C2.352 56.244 2.852 55.908 3.42 55.668C3.996 55.428 4.612 55.308 5.268 55.308C5.932 55.308 6.548 55.428 7.116 55.668C7.692 55.908 8.192 56.244 8.616 56.676C9.048 57.1 9.384 57.596 9.624 58.164C9.872 58.732 9.996 59.348 9.996 60.012C9.996 60.516 9.916 60.968 9.756 61.368C9.604 61.768 9.384 62.084 9.096 62.316C8.808 62.548 8.468 62.664 8.076 62.664C7.676 62.664 7.34 62.528 7.068 62.256C6.796 61.984 6.632 61.616 6.576 61.152L7.068 61.236C6.964 61.532 6.8 61.796 6.576 62.028C6.36 62.26 6.104 62.44 5.808 62.568C5.512 62.688 5.196 62.748 4.86 62.748C4.516 62.748 4.204 62.676 3.924 62.532C3.652 62.388 3.436 62.192 3.276 61.944C3.116 61.696 3.036 61.412 3.036 61.092C3.036 60.612 3.2 60.228 3.528 59.94C3.856 59.652 4.312 59.48 4.896 59.424L6.864 59.256V60.228L5.076 60.372C4.772 60.396 4.54 60.468 4.38 60.588C4.22 60.7 4.14 60.856 4.14 61.056C4.14 61.248 4.22 61.408 4.38 61.536C4.548 61.664 4.764 61.728 5.028 61.728C5.284 61.728 5.52 61.66 5.736 61.524C5.96 61.388 6.14 61.212 6.276 60.996C6.412 60.78 6.48 60.54 6.48 60.276V59.388C6.48 59.06 6.364 58.788 6.132 58.572C5.908 58.356 5.624 58.248 5.28 58.248C5.016 58.248 4.78 58.32 4.572 58.464C4.372 58.6 4.24 58.788 4.176 59.028H4.068L3.096 58.74C3.24 58.268 3.508 57.896 3.9 57.624C4.292 57.352 4.756 57.216 5.292 57.216C6.004 57.216 6.56 57.436 6.96 57.876C7.368 58.308 7.572 58.912 7.572 59.688V60.6C7.572 60.928 7.62 61.176 7.716 61.344C7.82 61.512 7.972 61.596 8.172 61.596C8.412 61.596 8.604 61.464 8.748 61.2C8.892 60.928 8.964 60.532 8.964 60.012C8.964 59.5 8.868 59.024 8.676 58.584C8.492 58.136 8.232 57.744 7.896 57.408C7.56 57.072 7.168 56.812 6.72 56.628C6.272 56.436 5.792 56.34 5.28 56.34C4.768 56.34 4.288 56.436 3.84 56.628C3.4 56.812 3.012 57.072 2.676 57.408C2.348 57.744 2.092 58.136 1.908 58.584C1.724 59.032 1.632 59.512 1.632 60.024C1.632 60.536 1.724 61.016 1.908 61.464C2.092 61.912 2.348 62.304 2.676 62.64C3.012 62.976 3.396 63.236 3.828 63.42C4.268 63.612 4.74 63.708 5.244 63.708C5.492 63.708 5.732 63.684 5.964 63.636C6.196 63.596 6.42 63.528 6.636 63.432C6.852 63.344 7.056 63.24 7.248 63.12H7.392L7.956 63.9C7.556 64.172 7.124 64.38 6.66 64.524C6.204 64.668 5.736 64.74 5.256 64.74ZM11.4352 61.884V60.276L14.7352 56.964H16.1992V57.06L11.4352 61.884ZM10.7872 63V54.36L11.9512 54.216L11.9872 54.312V63H10.7872ZM14.8792 63L12.7432 59.928L13.5712 59.148L16.2112 62.904V63H14.8792ZM16.3029 63V56.964H17.4429V58.536L17.2029 58.308C17.3229 57.996 17.4949 57.728 17.7189 57.504C17.9429 57.28 18.2029 57.108 18.4989 56.988C18.8029 56.86 19.1309 56.796 19.4829 56.796C19.9949 56.796 20.4429 56.94 20.8269 57.228C21.2189 57.516 21.4789 57.936 21.6069 58.488L21.1749 58.476C21.2949 58.132 21.4749 57.836 21.7149 57.588C21.9629 57.332 22.2549 57.136 22.5909 57C22.9349 56.864 23.2989 56.796 23.6829 56.796C24.0909 56.796 24.4629 56.888 24.7989 57.072C25.1349 57.256 25.3989 57.532 25.5909 57.9C25.7909 58.26 25.8909 58.712 25.8909 59.256V63H24.6909V59.544C24.6909 59.144 24.6309 58.828 24.5109 58.596C24.3989 58.356 24.2429 58.184 24.0429 58.08C23.8509 57.968 23.6269 57.912 23.3709 57.912C23.1309 57.912 22.8789 57.98 22.6149 58.116C22.3589 58.244 22.1429 58.452 21.9669 58.74C21.7909 59.028 21.7029 59.408 21.7029 59.88V63H20.5029V59.544C20.5029 59.144 20.4429 58.828 20.3229 58.596C20.2029 58.356 20.0429 58.184 19.8429 58.08C19.6509 57.968 19.4309 57.912 19.1829 57.912C18.9349 57.912 18.6789 57.98 18.4149 58.116C18.1589 58.252 17.9429 58.464 17.7669 58.752C17.5909 59.032 17.5029 59.408 17.5029 59.88V63H16.3029ZM29.5603 63.168C28.9523 63.168 28.4163 63.036 27.9523 62.772C27.4883 62.5 27.1243 62.124 26.8603 61.644C26.6043 61.164 26.4763 60.608 26.4763 59.976C26.4763 59.344 26.6043 58.792 26.8603 58.32C27.1243 57.84 27.4883 57.468 27.9523 57.204C28.4163 56.932 28.9523 56.796 29.5603 56.796C30.0323 56.796 30.4523 56.876 30.8203 57.036C31.1963 57.196 31.5163 57.432 31.7803 57.744C32.0443 58.048 32.2403 58.424 32.3683 58.872L31.3483 59.16H31.2163C31.0883 58.768 30.8723 58.46 30.5683 58.236C30.2723 58.012 29.9363 57.9 29.5603 57.9C29.1763 57.9 28.8443 57.988 28.5643 58.164C28.2843 58.34 28.0643 58.584 27.9043 58.896C27.7523 59.2 27.6763 59.56 27.6763 59.976C27.6763 60.392 27.7523 60.756 27.9043 61.068C28.0643 61.38 28.2843 61.624 28.5643 61.8C28.8443 61.968 29.1763 62.052 29.5603 62.052C29.8323 62.052 30.0803 62.004 30.3043 61.908C30.5283 61.812 30.7203 61.672 30.8803 61.488C31.0483 61.296 31.1763 61.068 31.2643 60.804H31.3963L32.4283 61.092C32.2843 61.54 32.0763 61.92 31.8043 62.232C31.5323 62.544 31.2083 62.78 30.8323 62.94C30.4643 63.092 30.0403 63.168 29.5603 63.168ZM36.5249 63L32.3129 57.06V56.964H33.6689L37.8809 62.904V63H36.5249ZM32.2649 63V62.904L34.7129 59.448L35.4329 60.384L33.5969 63H32.2649ZM35.4929 60.42L34.7729 59.472L36.5129 56.964H37.8209V57.06L35.4929 60.42ZM38.1645 63V54.36L39.3285 54.216L39.3645 54.312V63H38.1645ZM45.8708 56.964V63H44.7308V61.38L45.0548 61.476C44.9348 61.82 44.7548 62.12 44.5148 62.376C44.2748 62.624 43.9908 62.82 43.6628 62.964C43.3428 63.1 42.9948 63.168 42.6188 63.168C42.1948 63.168 41.8108 63.076 41.4668 62.892C41.1228 62.7 40.8508 62.424 40.6508 62.064C40.4508 61.696 40.3508 61.244 40.3508 60.708V56.964H41.5508V60.372C41.5508 60.772 41.6068 61.096 41.7188 61.344C41.8388 61.592 42.0028 61.772 42.2108 61.884C42.4188 61.988 42.6588 62.04 42.9308 62.04C43.2028 62.04 43.4708 61.972 43.7348 61.836C44.0068 61.7 44.2308 61.488 44.4068 61.2C44.5828 60.912 44.6708 60.54 44.6708 60.084V56.964H45.8708ZM49.59 63.168C48.982 63.168 48.446 63.036 47.982 62.772C47.518 62.5 47.154 62.124 46.89 61.644C46.634 61.164 46.506 60.608 46.506 59.976C46.506 59.344 46.634 58.792 46.89 58.32C47.154 57.84 47.518 57.468 47.982 57.204C48.446 56.932 48.982 56.796 49.59 56.796C50.062 56.796 50.482 56.876 50.85 57.036C51.226 57.196 51.546 57.432 51.81 57.744C52.074 58.048 52.27 58.424 52.398 58.872L51.378 59.16H51.246C51.118 58.768 50.902 58.46 50.598 58.236C50.302 58.012 49.966 57.9 49.59 57.9C49.206 57.9 48.874 57.988 48.594 58.164C48.314 58.34 48.094 58.584 47.934 58.896C47.782 59.2 47.706 59.56 47.706 59.976C47.706 60.392 47.782 60.756 47.934 61.068C48.094 61.38 48.314 61.624 48.594 61.8C48.874 61.968 49.206 62.052 49.59 62.052C49.862 62.052 50.11 62.004 50.334 61.908C50.558 61.812 50.75 61.672 50.91 61.488C51.078 61.296 51.206 61.068 51.294 60.804H51.426L52.458 61.092C52.314 61.54 52.106 61.92 51.834 62.232C51.562 62.544 51.238 62.78 50.862 62.94C50.494 63.092 50.07 63.168 49.59 63.168ZM54.9226 63.168C54.5146 63.168 54.1466 63.088 53.8186 62.928C53.4986 62.768 53.2466 62.548 53.0626 62.268C52.8786 61.98 52.7866 61.652 52.7866 61.284C52.7866 60.732 52.9786 60.292 53.3626 59.964C53.7466 59.628 54.2906 59.432 54.9946 59.376L57.3226 59.184V60.216L55.1986 60.384C54.7906 60.416 54.4906 60.504 54.2986 60.648C54.1066 60.792 54.0106 60.988 54.0106 61.236C54.0106 61.476 54.1146 61.676 54.3226 61.836C54.5306 61.988 54.7946 62.064 55.1146 62.064C55.4506 62.064 55.7546 61.984 56.0266 61.824C56.3066 61.664 56.5266 61.452 56.6866 61.188C56.8466 60.916 56.9266 60.624 56.9266 60.312V59.328C56.9266 58.904 56.7906 58.556 56.5186 58.284C56.2546 58.012 55.9026 57.876 55.4626 57.876C55.0946 57.876 54.7866 57.964 54.5386 58.14C54.2986 58.316 54.1386 58.548 54.0586 58.836H53.9266L52.8946 58.548C53.0546 58.012 53.3586 57.584 53.8066 57.264C54.2546 56.944 54.8066 56.784 55.4626 56.784C56.3026 56.784 56.9546 57.032 57.4186 57.528C57.8826 58.016 58.1146 58.704 58.1146 59.592V63H57.0106V61.248L57.4426 61.38C57.3466 61.708 57.1746 62.008 56.9266 62.28C56.6866 62.552 56.3946 62.768 56.0506 62.928C55.7066 63.088 55.3306 63.168 54.9226 63.168ZM61.1125 63.168C60.4645 63.168 59.9165 63.016 59.4685 62.712C59.0205 62.4 58.7245 61.972 58.5805 61.428L59.6725 61.152L59.8165 61.188C59.8965 61.468 60.0605 61.688 60.3085 61.848C60.5645 62 60.8605 62.076 61.1965 62.076C61.5245 62.076 61.8045 62.004 62.0365 61.86C62.2685 61.716 62.3845 61.524 62.3845 61.284C62.3845 61.084 62.3165 60.928 62.1805 60.816C62.0445 60.696 61.8405 60.604 61.5685 60.54L60.4405 60.288C59.8725 60.16 59.4485 59.952 59.1685 59.664C58.8885 59.368 58.7485 59.012 58.7485 58.596C58.7485 58.236 58.8485 57.924 59.0485 57.66C59.2485 57.388 59.5205 57.176 59.8645 57.024C60.2165 56.872 60.6125 56.796 61.0525 56.796C61.6765 56.796 62.2045 56.952 62.6365 57.264C63.0685 57.568 63.3525 58 63.4885 58.56L62.4325 58.788L62.3005 58.764C62.2285 58.492 62.0685 58.28 61.8205 58.128C61.5805 57.968 61.3085 57.888 61.0045 57.888C60.7085 57.888 60.4565 57.952 60.2485 58.08C60.0485 58.2 59.9485 58.36 59.9485 58.56C59.9485 58.72 60.0125 58.86 60.1405 58.98C60.2685 59.092 60.4645 59.176 60.7285 59.232L61.8685 59.496C62.4445 59.624 62.8725 59.828 63.1525 60.108C63.4405 60.388 63.5845 60.756 63.5845 61.212C63.5845 61.612 63.4765 61.96 63.2605 62.256C63.0525 62.544 62.7605 62.768 62.3845 62.928C62.0165 63.088 61.5925 63.168 61.1125 63.168Z" fill="#F4F3EF"/>
</svg>
