<svg width="95" height="144" viewBox="0 0 95 144" fill="none" xmlns="http://www.w3.org/2000/svg">
<path d="M5.76 135V130.815H15.345C17.175 130.815 18.555 130.35 19.485 129.42C20.445 128.46 20.925 127.155 20.925 125.505C20.925 123.885 20.415 122.625 19.395 121.725C18.405 120.795 17.055 120.33 15.345 120.33H5.76V116.28H14.625C15.615 116.28 16.47 116.1 17.19 115.74C17.94 115.35 18.51 114.84 18.9 114.21C19.32 113.55 19.53 112.8 19.53 111.96C19.53 110.67 19.095 109.635 18.225 108.855C17.385 108.075 16.185 107.685 14.625 107.685H5.76V103.5H14.625C17.565 103.5 19.86 104.28 21.51 105.84C23.16 107.37 23.985 109.35 23.985 111.78C23.985 112.86 23.73 113.88 23.22 114.84C22.71 115.8 22.02 116.61 21.15 117.27C20.28 117.93 19.305 118.365 18.225 118.575V117.495C19.575 117.615 20.79 118.065 21.87 118.845C22.98 119.625 23.85 120.6 24.48 121.77C25.14 122.94 25.47 124.245 25.47 125.685C25.47 128.505 24.6 130.77 22.86 132.48C21.12 134.16 18.705 135 15.615 135H5.76ZM3.42 135V103.5H7.83V135H3.42ZM34.8103 135.63C33.2803 135.63 31.9003 135.33 30.6703 134.73C29.4703 134.13 28.5253 133.305 27.8353 132.255C27.1453 131.175 26.8003 129.945 26.8003 128.565C26.8003 126.495 27.5203 124.845 28.9603 123.615C30.4003 122.355 32.4403 121.62 35.0803 121.41L43.8103 120.69V124.56L35.8453 125.19C34.3153 125.31 33.1903 125.64 32.4703 126.18C31.7503 126.72 31.3903 127.455 31.3903 128.385C31.3903 129.285 31.7803 130.035 32.5603 130.635C33.3403 131.205 34.3303 131.49 35.5303 131.49C36.7903 131.49 37.9303 131.19 38.9503 130.59C40.0003 129.99 40.8253 129.195 41.4253 128.205C42.0253 127.185 42.3253 126.09 42.3253 124.92V121.23C42.3253 119.64 41.8153 118.335 40.7953 117.315C39.8053 116.295 38.4853 115.785 36.8353 115.785C35.4553 115.785 34.3003 116.115 33.3703 116.775C32.4703 117.435 31.8703 118.305 31.5703 119.385H31.0753L27.2053 118.305C27.8053 116.295 28.9453 114.69 30.6253 113.49C32.3053 112.29 34.3753 111.69 36.8353 111.69C39.9853 111.69 42.4303 112.62 44.1703 114.48C45.9103 116.31 46.7803 118.89 46.7803 122.22V135H42.6403V128.43L44.2603 128.925C43.9003 130.155 43.2553 131.28 42.3253 132.3C41.4253 133.32 40.3303 134.13 39.0403 134.73C37.7503 135.33 36.3403 135.63 34.8103 135.63ZM60.5426 135.63C58.2626 135.63 56.2526 135.135 54.5126 134.145C52.7726 133.125 51.4076 131.715 50.4176 129.915C49.4576 128.115 48.9776 126.03 48.9776 123.66C48.9776 121.29 49.4576 119.22 50.4176 117.45C51.4076 115.65 52.7726 114.255 54.5126 113.265C56.2526 112.245 58.2626 111.735 60.5426 111.735C62.3126 111.735 63.8876 112.035 65.2676 112.635C66.6776 113.235 67.8776 114.12 68.8676 115.29C69.8576 116.43 70.5926 117.84 71.0726 119.52L67.2476 120.6H66.7526C66.2726 119.13 65.4626 117.975 64.3226 117.135C63.2126 116.295 61.9526 115.875 60.5426 115.875C59.1026 115.875 57.8576 116.205 56.8076 116.865C55.7576 117.525 54.9326 118.44 54.3326 119.61C53.7626 120.75 53.4776 122.1 53.4776 123.66C53.4776 125.22 53.7626 126.585 54.3326 127.755C54.9326 128.925 55.7576 129.84 56.8076 130.5C57.8576 131.13 59.1026 131.445 60.5426 131.445C61.5626 131.445 62.4926 131.265 63.3326 130.905C64.1726 130.545 64.8926 130.02 65.4926 129.33C66.1226 128.61 66.6026 127.755 66.9326 126.765H67.4276L71.2976 127.845C70.7576 129.525 69.9776 130.95 68.9576 132.12C67.9376 133.29 66.7226 134.175 65.3126 134.775C63.9326 135.345 62.3426 135.63 60.5426 135.63ZM76.1748 130.815V124.785L88.5498 112.365H94.0398V112.725L76.1748 130.815ZM73.7448 135V102.6L78.1098 102.06L78.2448 102.42V135H73.7448ZM89.0898 135L81.0798 123.48L84.1848 120.555L94.0848 134.64V135H89.0898Z" fill="#F4F3EF"/>
<path d="M92 88.5L6 2.50001M6 2.50001L92 2.5M6 2.50001L6 88.5" stroke="#F4F3EF" stroke-width="5" stroke-linejoin="round"/>
</svg>
