<svg width="112" height="63" viewBox="0 0 112 63" fill="none" xmlns="http://www.w3.org/2000/svg">
<path d="M74.6115 6.04166C74.6115 6.04166 74.2307 3.29686 73.0576 2.09164C71.5723 0.505415 69.9117 0.497639 69.15 0.404332C63.6961 -2.22462e-07 55.5076 0 55.5076 0H55.4924C55.4924 0 47.3039 -2.22462e-07 41.85 0.404332C41.0883 0.497639 39.4277 0.505415 37.9424 2.09164C36.7693 3.29686 36.3961 6.04166 36.3961 6.04166C36.3961 6.04166 36 9.26854 36 12.4876V15.5046C36 18.7237 36.3885 21.9506 36.3885 21.9506C36.3885 21.9506 36.7693 24.6954 37.9348 25.9006C39.4201 27.4868 41.3701 27.4324 42.2385 27.6034C45.3615 27.9067 55.5 28 55.5 28C55.5 28 63.6961 27.9844 69.15 27.5879C69.9117 27.4946 71.5723 27.4868 73.0576 25.9006C74.2307 24.6954 74.6115 21.9506 74.6115 21.9506C74.6115 21.9506 75 18.7315 75 15.5046V12.4876C75 9.26854 74.6115 6.04166 74.6115 6.04166ZM51.4705 19.1669V7.97778L62.0051 13.5918L51.4705 19.1669Z" fill="#F4F3EF"/>
<path d="M5.256 59.74C4.6 59.74 3.984 59.62 3.408 59.38C2.84 59.14 2.34 58.804 1.908 58.372C1.484 57.948 1.152 57.452 0.912 56.884C0.672 56.308 0.552 55.688 0.552 55.024C0.552 54.36 0.672 53.744 0.912 53.176C1.152 52.6 1.488 52.1 1.92 51.676C2.352 51.244 2.852 50.908 3.42 50.668C3.996 50.428 4.612 50.308 5.268 50.308C5.932 50.308 6.548 50.428 7.116 50.668C7.692 50.908 8.192 51.244 8.616 51.676C9.048 52.1 9.384 52.596 9.624 53.164C9.872 53.732 9.996 54.348 9.996 55.012C9.996 55.516 9.916 55.968 9.756 56.368C9.604 56.768 9.384 57.084 9.096 57.316C8.808 57.548 8.468 57.664 8.076 57.664C7.676 57.664 7.34 57.528 7.068 57.256C6.796 56.984 6.632 56.616 6.576 56.152L7.068 56.236C6.964 56.532 6.8 56.796 6.576 57.028C6.36 57.26 6.104 57.44 5.808 57.568C5.512 57.688 5.196 57.748 4.86 57.748C4.516 57.748 4.204 57.676 3.924 57.532C3.652 57.388 3.436 57.192 3.276 56.944C3.116 56.696 3.036 56.412 3.036 56.092C3.036 55.612 3.2 55.228 3.528 54.94C3.856 54.652 4.312 54.48 4.896 54.424L6.864 54.256V55.228L5.076 55.372C4.772 55.396 4.54 55.468 4.38 55.588C4.22 55.7 4.14 55.856 4.14 56.056C4.14 56.248 4.22 56.408 4.38 56.536C4.548 56.664 4.764 56.728 5.028 56.728C5.284 56.728 5.52 56.66 5.736 56.524C5.96 56.388 6.14 56.212 6.276 55.996C6.412 55.78 6.48 55.54 6.48 55.276V54.388C6.48 54.06 6.364 53.788 6.132 53.572C5.908 53.356 5.624 53.248 5.28 53.248C5.016 53.248 4.78 53.32 4.572 53.464C4.372 53.6 4.24 53.788 4.176 54.028H4.068L3.096 53.74C3.24 53.268 3.508 52.896 3.9 52.624C4.292 52.352 4.756 52.216 5.292 52.216C6.004 52.216 6.56 52.436 6.96 52.876C7.368 53.308 7.572 53.912 7.572 54.688V55.6C7.572 55.928 7.62 56.176 7.716 56.344C7.82 56.512 7.972 56.596 8.172 56.596C8.412 56.596 8.604 56.464 8.748 56.2C8.892 55.928 8.964 55.532 8.964 55.012C8.964 54.5 8.868 54.024 8.676 53.584C8.492 53.136 8.232 52.744 7.896 52.408C7.56 52.072 7.168 51.812 6.72 51.628C6.272 51.436 5.792 51.34 5.28 51.34C4.768 51.34 4.288 51.436 3.84 51.628C3.4 51.812 3.012 52.072 2.676 52.408C2.348 52.744 2.092 53.136 1.908 53.584C1.724 54.032 1.632 54.512 1.632 55.024C1.632 55.536 1.724 56.016 1.908 56.464C2.092 56.912 2.348 57.304 2.676 57.64C3.012 57.976 3.396 58.236 3.828 58.42C4.268 58.612 4.74 58.708 5.244 58.708C5.492 58.708 5.732 58.684 5.964 58.636C6.196 58.596 6.42 58.528 6.636 58.432C6.852 58.344 7.056 58.24 7.248 58.12H7.392L7.956 58.9C7.556 59.172 7.124 59.38 6.66 59.524C6.204 59.668 5.736 59.74 5.256 59.74ZM12.8032 58.168C12.1552 58.168 11.6072 58.016 11.1592 57.712C10.7112 57.4 10.4152 56.972 10.2712 56.428L11.3632 56.152L11.5072 56.188C11.5872 56.468 11.7512 56.688 11.9992 56.848C12.2552 57 12.5512 57.076 12.8872 57.076C13.2152 57.076 13.4952 57.004 13.7272 56.86C13.9592 56.716 14.0752 56.524 14.0752 56.284C14.0752 56.084 14.0072 55.928 13.8712 55.816C13.7352 55.696 13.5312 55.604 13.2592 55.54L12.1312 55.288C11.5632 55.16 11.1392 54.952 10.8592 54.664C10.5792 54.368 10.4392 54.012 10.4392 53.596C10.4392 53.236 10.5392 52.924 10.7392 52.66C10.9392 52.388 11.2112 52.176 11.5552 52.024C11.9072 51.872 12.3032 51.796 12.7432 51.796C13.3672 51.796 13.8952 51.952 14.3272 52.264C14.7592 52.568 15.0432 53 15.1792 53.56L14.1232 53.788L13.9912 53.764C13.9192 53.492 13.7592 53.28 13.5112 53.128C13.2712 52.968 12.9992 52.888 12.6952 52.888C12.3992 52.888 12.1472 52.952 11.9392 53.08C11.7392 53.2 11.6392 53.36 11.6392 53.56C11.6392 53.72 11.7032 53.86 11.8312 53.98C11.9592 54.092 12.1552 54.176 12.4192 54.232L13.5592 54.496C14.1352 54.624 14.5632 54.828 14.8432 55.108C15.1312 55.388 15.2752 55.756 15.2752 56.212C15.2752 56.612 15.1672 56.96 14.9512 57.256C14.7432 57.544 14.4512 57.768 14.0752 57.928C13.7072 58.088 13.2832 58.168 12.8032 58.168ZM21.3176 51.964V58H20.1776V56.38L20.5016 56.476C20.3816 56.82 20.2016 57.12 19.9616 57.376C19.7216 57.624 19.4376 57.82 19.1096 57.964C18.7896 58.1 18.4416 58.168 18.0656 58.168C17.6416 58.168 17.2576 58.076 16.9136 57.892C16.5696 57.7 16.2976 57.424 16.0976 57.064C15.8976 56.696 15.7976 56.244 15.7976 55.708V51.964H16.9976V55.372C16.9976 55.772 17.0536 56.096 17.1656 56.344C17.2856 56.592 17.4496 56.772 17.6576 56.884C17.8656 56.988 18.1056 57.04 18.3776 57.04C18.6496 57.04 18.9176 56.972 19.1816 56.836C19.4536 56.7 19.6776 56.488 19.8536 56.2C20.0296 55.912 20.1176 55.54 20.1176 55.084V51.964H21.3176ZM22.2889 58V51.964H23.4289V53.584L23.1049 53.476C23.2649 53.012 23.5369 52.644 23.9209 52.372C24.3129 52.1 24.7609 51.964 25.2649 51.964H25.8529V53.068H25.0729C24.7529 53.068 24.4729 53.144 24.2329 53.296C24.0009 53.44 23.8169 53.644 23.6809 53.908C23.5529 54.172 23.4889 54.484 23.4889 54.844V58H22.2889ZM28.062 58L28.146 57.268L30.258 51.964H31.494V52.06L29.058 58H28.062ZM27.882 58L25.446 52.06V51.964H26.682L28.794 57.268L28.878 58H27.882ZM31.7764 58V51.964H32.9764V58H31.7764ZM32.3764 50.956C32.1524 50.956 31.9644 50.88 31.8124 50.728C31.6604 50.568 31.5844 50.38 31.5844 50.164C31.5844 49.94 31.6604 49.752 31.8124 49.6C31.9644 49.448 32.1524 49.372 32.3764 49.372C32.5924 49.372 32.7764 49.448 32.9284 49.6C33.0884 49.752 33.1684 49.94 33.1684 50.164C33.1684 50.38 33.0884 50.568 32.9284 50.728C32.7764 50.88 32.5924 50.956 32.3764 50.956ZM35.6511 58L35.7351 57.268L37.8471 51.964H39.0831V52.06L36.6471 58H35.6511ZM35.4711 58L33.0351 52.06V51.964H34.2711L36.3831 57.268L36.4671 58H35.4711ZM39.3654 58V51.964H40.5654V58H39.3654ZM39.9654 50.956C39.7414 50.956 39.5534 50.88 39.4014 50.728C39.2494 50.568 39.1734 50.38 39.1734 50.164C39.1734 49.94 39.2494 49.752 39.4014 49.6C39.5534 49.448 39.7414 49.372 39.9654 49.372C40.1814 49.372 40.3654 49.448 40.5174 49.6C40.6774 49.752 40.7574 49.94 40.7574 50.164C40.7574 50.38 40.6774 50.568 40.5174 50.728C40.3654 50.88 40.1814 50.956 39.9654 50.956ZM41.5545 58V51.964H42.6945V53.584L42.3705 53.476C42.4905 53.132 42.6705 52.836 42.9105 52.588C43.1505 52.332 43.4305 52.136 43.7505 52C44.0785 51.864 44.4265 51.796 44.7945 51.796C45.2265 51.796 45.6145 51.888 45.9585 52.072C46.3025 52.256 46.5745 52.532 46.7745 52.9C46.9745 53.26 47.0745 53.712 47.0745 54.256V58H45.8745V54.592C45.8745 54.184 45.8145 53.86 45.6945 53.62C45.5745 53.372 45.4105 53.192 45.2025 53.08C45.0025 52.968 44.7665 52.912 44.4945 52.912C44.2225 52.912 43.9505 52.98 43.6785 53.116C43.4145 53.252 43.1945 53.464 43.0185 53.752C42.8425 54.04 42.7545 54.416 42.7545 54.88V58H41.5545ZM49.9326 60.4C49.1326 60.4 48.5086 60.24 48.0606 59.92C47.6126 59.6 47.3886 59.168 47.3886 58.624C47.3886 58.264 47.4766 57.952 47.6526 57.688C47.8366 57.416 48.1046 57.208 48.4566 57.064L49.0566 57.604C48.8886 57.676 48.7566 57.788 48.6606 57.94C48.5646 58.084 48.5166 58.244 48.5166 58.42C48.5166 58.684 48.6206 58.908 48.8286 59.092C49.0446 59.284 49.3686 59.38 49.8006 59.38H50.6406C51.0806 59.38 51.4206 59.308 51.6606 59.164C51.9086 59.028 52.0326 58.824 52.0326 58.552C52.0326 58.344 51.9486 58.18 51.7806 58.06C51.6206 57.948 51.3846 57.892 51.0726 57.892H49.5126C49.1766 57.892 48.8726 57.836 48.6006 57.724C48.3366 57.604 48.1286 57.44 47.9766 57.232C47.8246 57.024 47.7486 56.784 47.7486 56.512C47.7486 56.224 47.8326 55.968 48.0006 55.744C48.1766 55.512 48.4366 55.328 48.7806 55.192L49.4286 55.744C49.2286 55.768 49.0766 55.84 48.9726 55.96C48.8766 56.08 48.8286 56.208 48.8286 56.344C48.8286 56.52 48.8966 56.656 49.0326 56.752C49.1766 56.848 49.3806 56.896 49.6446 56.896H51.1686C51.7766 56.896 52.2566 57.048 52.6086 57.352C52.9686 57.648 53.1486 58.044 53.1486 58.54C53.1486 59.108 52.9206 59.56 52.4646 59.896C52.0086 60.232 51.3966 60.4 50.6286 60.4H49.9326ZM50.3166 56.092C49.8286 56.092 49.4006 56 49.0326 55.816C48.6646 55.632 48.3766 55.38 48.1686 55.06C47.9686 54.732 47.8686 54.36 47.8686 53.944C47.8686 53.52 47.9686 53.148 48.1686 52.828C48.3766 52.5 48.6646 52.248 49.0326 52.072C49.4006 51.888 49.8286 51.796 50.3166 51.796C50.8046 51.796 51.2286 51.888 51.5886 52.072C51.9566 52.248 52.2446 52.5 52.4526 52.828C52.6606 53.148 52.7646 53.52 52.7646 53.944C52.7646 54.36 52.6606 54.732 52.4526 55.06C52.2446 55.38 51.9566 55.632 51.5886 55.816C51.2286 56 50.8046 56.092 50.3166 56.092ZM50.3166 55.096C50.7086 55.096 51.0246 54.992 51.2646 54.784C51.5126 54.568 51.6366 54.288 51.6366 53.944C51.6366 53.6 51.5126 53.324 51.2646 53.116C51.0246 52.9 50.7086 52.792 50.3166 52.792C49.9166 52.792 49.5966 52.9 49.3566 53.116C49.1166 53.324 48.9966 53.6 48.9966 53.944C48.9966 54.288 49.1166 54.568 49.3566 54.784C49.5966 54.992 49.9166 55.096 50.3166 55.096ZM52.0206 52.78L51.2406 52.36C51.2406 52.032 51.3086 51.74 51.4446 51.484C51.5806 51.22 51.7606 51.016 51.9846 50.872C52.2166 50.72 52.4726 50.644 52.7526 50.644C52.8326 50.644 52.9086 50.648 52.9806 50.656C53.0606 50.656 53.1206 50.664 53.1606 50.68V51.724L53.1006 51.856C53.0206 51.832 52.9206 51.82 52.8006 51.82C52.5446 51.82 52.3486 51.912 52.2126 52.096C52.0846 52.272 52.0206 52.5 52.0206 52.78ZM55.6493 58.168C55.0013 58.168 54.4533 58.016 54.0053 57.712C53.5573 57.4 53.2613 56.972 53.1173 56.428L54.2093 56.152L54.3533 56.188C54.4333 56.468 54.5973 56.688 54.8453 56.848C55.1013 57 55.3973 57.076 55.7333 57.076C56.0613 57.076 56.3413 57.004 56.5733 56.86C56.8053 56.716 56.9213 56.524 56.9213 56.284C56.9213 56.084 56.8533 55.928 56.7173 55.816C56.5813 55.696 56.3773 55.604 56.1053 55.54L54.9773 55.288C54.4093 55.16 53.9853 54.952 53.7053 54.664C53.4253 54.368 53.2853 54.012 53.2853 53.596C53.2853 53.236 53.3853 52.924 53.5853 52.66C53.7853 52.388 54.0573 52.176 54.4013 52.024C54.7533 51.872 55.1493 51.796 55.5893 51.796C56.2133 51.796 56.7413 51.952 57.1733 52.264C57.6053 52.568 57.8893 53 58.0253 53.56L56.9693 53.788L56.8373 53.764C56.7653 53.492 56.6053 53.28 56.3573 53.128C56.1173 52.968 55.8453 52.888 55.5413 52.888C55.2453 52.888 54.9933 52.952 54.7853 53.08C54.5853 53.2 54.4853 53.36 54.4853 53.56C54.4853 53.72 54.5493 53.86 54.6773 53.98C54.8053 54.092 55.0013 54.176 55.2653 54.232L56.4053 54.496C56.9813 54.624 57.4093 54.828 57.6893 55.108C57.9773 55.388 58.1213 55.756 58.1213 56.212C58.1213 56.612 58.0133 56.96 57.7973 57.256C57.5893 57.544 57.2973 57.768 56.9213 57.928C56.5533 58.088 56.1293 58.168 55.6493 58.168ZM58.7037 58V51.964H59.9037V58H58.7037ZM59.3037 50.956C59.0797 50.956 58.8917 50.88 58.7397 50.728C58.5877 50.568 58.5117 50.38 58.5117 50.164C58.5117 49.94 58.5877 49.752 58.7397 49.6C58.8917 49.448 59.0797 49.372 59.3037 49.372C59.5197 49.372 59.7037 49.448 59.8557 49.6C60.0157 49.752 60.0957 49.94 60.0957 50.164C60.0957 50.38 60.0157 50.568 59.8557 50.728C59.7037 50.88 59.5197 50.956 59.3037 50.956ZM61.07 58V49.36L62.234 49.216L62.27 49.312V58H61.07ZM63.3162 58V51.964H64.5162V58H63.3162ZM63.9162 50.956C63.6922 50.956 63.5042 50.88 63.3522 50.728C63.2002 50.568 63.1242 50.38 63.1242 50.164C63.1242 49.94 63.2002 49.752 63.3522 49.6C63.5042 49.448 63.6922 49.372 63.9162 49.372C64.1322 49.372 64.3162 49.448 64.4682 49.6C64.6282 49.752 64.7082 49.94 64.7082 50.164C64.7082 50.38 64.6282 50.568 64.4682 50.728C64.3162 50.88 64.1322 50.956 63.9162 50.956ZM68.2533 58.168C67.6453 58.168 67.1093 58.036 66.6453 57.772C66.1813 57.5 65.8173 57.124 65.5533 56.644C65.2973 56.164 65.1693 55.608 65.1693 54.976C65.1693 54.344 65.2973 53.792 65.5533 53.32C65.8173 52.84 66.1813 52.468 66.6453 52.204C67.1093 51.932 67.6453 51.796 68.2533 51.796C68.7253 51.796 69.1453 51.876 69.5133 52.036C69.8893 52.196 70.2093 52.432 70.4733 52.744C70.7373 53.048 70.9333 53.424 71.0613 53.872L70.0413 54.16H69.9093C69.7813 53.768 69.5653 53.46 69.2613 53.236C68.9653 53.012 68.6293 52.9 68.2533 52.9C67.8693 52.9 67.5373 52.988 67.2573 53.164C66.9773 53.34 66.7573 53.584 66.5973 53.896C66.4453 54.2 66.3693 54.56 66.3693 54.976C66.3693 55.392 66.4453 55.756 66.5973 56.068C66.7573 56.38 66.9773 56.624 67.2573 56.8C67.5373 56.968 67.8693 57.052 68.2533 57.052C68.5253 57.052 68.7733 57.004 68.9973 56.908C69.2213 56.812 69.4133 56.672 69.5733 56.488C69.7413 56.296 69.8693 56.068 69.9573 55.804H70.0893L71.1213 56.092C70.9773 56.54 70.7693 56.92 70.4973 57.232C70.2253 57.544 69.9013 57.78 69.5253 57.94C69.1573 58.092 68.7333 58.168 68.2533 58.168ZM74.4259 58.168C73.8259 58.168 73.2979 58.032 72.8419 57.76C72.3859 57.488 72.0259 57.116 71.7619 56.644C71.5059 56.164 71.3779 55.608 71.3779 54.976C71.3779 54.352 71.5059 53.8 71.7619 53.32C72.0259 52.84 72.3859 52.468 72.8419 52.204C73.2979 51.932 73.8259 51.796 74.4259 51.796C75.0259 51.796 75.5539 51.932 76.0099 52.204C76.4659 52.468 76.8219 52.84 77.0779 53.32C77.3419 53.8 77.4739 54.352 77.4739 54.976C77.4739 55.608 77.3419 56.164 77.0779 56.644C76.8219 57.124 76.4659 57.5 76.0099 57.772C75.5539 58.036 75.0259 58.168 74.4259 58.168ZM74.4259 57.052C74.7939 57.052 75.1139 56.968 75.3859 56.8C75.6659 56.632 75.8819 56.392 76.0339 56.08C76.1939 55.768 76.2739 55.404 76.2739 54.988C76.2739 54.556 76.1939 54.188 76.0339 53.884C75.8819 53.572 75.6659 53.332 75.3859 53.164C75.1139 52.988 74.7939 52.9 74.4259 52.9C74.0579 52.9 73.7339 52.988 73.4539 53.164C73.1819 53.332 72.9659 53.572 72.8059 53.884C72.6539 54.188 72.5779 54.552 72.5779 54.976C72.5779 55.4 72.6539 55.768 72.8059 56.08C72.9659 56.392 73.1819 56.632 73.4539 56.8C73.7339 56.968 74.0579 57.052 74.4259 57.052ZM78.1217 58V51.964H79.2617V53.584L78.9377 53.476C79.0577 53.132 79.2377 52.836 79.4777 52.588C79.7177 52.332 79.9977 52.136 80.3177 52C80.6457 51.864 80.9937 51.796 81.3617 51.796C81.7937 51.796 82.1817 51.888 82.5257 52.072C82.8697 52.256 83.1417 52.532 83.3417 52.9C83.5417 53.26 83.6417 53.712 83.6417 54.256V58H82.4417V54.592C82.4417 54.184 82.3817 53.86 82.2617 53.62C82.1417 53.372 81.9777 53.192 81.7697 53.08C81.5697 52.968 81.3337 52.912 81.0617 52.912C80.7897 52.912 80.5177 52.98 80.2457 53.116C79.9817 53.252 79.7617 53.464 79.5857 53.752C79.4097 54.04 79.3217 54.416 79.3217 54.88V58H78.1217ZM86.2386 58L86.3226 57.268L88.4346 51.964H89.6706V52.06L87.2346 58H86.2386ZM86.0586 58L83.6226 52.06V51.964H84.8586L86.9706 57.268L87.0546 58H86.0586ZM91.5906 58.168C91.1826 58.168 90.8146 58.088 90.4866 57.928C90.1666 57.768 89.9146 57.548 89.7306 57.268C89.5466 56.98 89.4546 56.652 89.4546 56.284C89.4546 55.732 89.6466 55.292 90.0306 54.964C90.4146 54.628 90.9586 54.432 91.6626 54.376L93.9906 54.184V55.216L91.8666 55.384C91.4586 55.416 91.1586 55.504 90.9666 55.648C90.7746 55.792 90.6786 55.988 90.6786 56.236C90.6786 56.476 90.7826 56.676 90.9906 56.836C91.1986 56.988 91.4626 57.064 91.7826 57.064C92.1186 57.064 92.4226 56.984 92.6946 56.824C92.9746 56.664 93.1946 56.452 93.3546 56.188C93.5146 55.916 93.5946 55.624 93.5946 55.312V54.328C93.5946 53.904 93.4586 53.556 93.1866 53.284C92.9226 53.012 92.5706 52.876 92.1306 52.876C91.7626 52.876 91.4546 52.964 91.2066 53.14C90.9666 53.316 90.8066 53.548 90.7266 53.836H90.5946L89.5626 53.548C89.7226 53.012 90.0266 52.584 90.4746 52.264C90.9226 51.944 91.4746 51.784 92.1306 51.784C92.9706 51.784 93.6226 52.032 94.0866 52.528C94.5506 53.016 94.7826 53.704 94.7826 54.592V58H93.6786V56.248L94.1106 56.38C94.0146 56.708 93.8426 57.008 93.5946 57.28C93.3546 57.552 93.0626 57.768 92.7186 57.928C92.3746 58.088 91.9986 58.168 91.5906 58.168ZM95.8817 58V49.36L97.0457 49.216L97.0817 49.312V58H95.8817ZM98.1879 58V49.36L99.3519 49.216L99.3879 49.312V58H98.1879ZM103.146 58.168C102.546 58.168 102.014 58.036 101.55 57.772C101.094 57.5 100.738 57.124 100.482 56.644C100.226 56.164 100.098 55.608 100.098 54.976C100.098 54.344 100.222 53.792 100.47 53.32C100.726 52.84 101.078 52.468 101.526 52.204C101.982 51.932 102.506 51.796 103.098 51.796C103.682 51.796 104.19 51.932 104.622 52.204C105.062 52.476 105.402 52.86 105.642 53.356C105.89 53.844 106.014 54.416 106.014 55.072V55.252L105.834 55.432H100.71V54.376H105.438L104.826 54.616C104.81 54.256 104.722 53.948 104.562 53.692C104.41 53.436 104.206 53.24 103.95 53.104C103.702 52.96 103.422 52.888 103.11 52.888C102.774 52.888 102.466 52.968 102.186 53.128C101.906 53.288 101.686 53.512 101.526 53.8C101.374 54.08 101.298 54.408 101.298 54.784V55.144C101.298 55.512 101.378 55.844 101.538 56.14C101.698 56.428 101.918 56.656 102.198 56.824C102.478 56.992 102.794 57.076 103.146 57.076C103.482 57.076 103.778 56.992 104.034 56.824C104.298 56.648 104.506 56.416 104.658 56.128H104.802L105.774 56.548C105.542 57.052 105.198 57.448 104.742 57.736C104.286 58.024 103.754 58.168 103.146 58.168ZM107.164 60.4V60.304L108.148 58L108.58 57.076L110.656 51.964H111.892V52.06L108.388 60.4H107.164ZM108.148 58L105.736 52.06V51.964H106.972L109.06 57.268V58H108.148Z" fill="#F4F3EF"/>
</svg>
