<svg width="57" height="65" viewBox="0 0 57 65" fill="none" xmlns="http://www.w3.org/2000/svg">
<g clip-path="url(#clip0_973_677)">
<path d="M17.4413 0H42.4405C44.8219 0 46.9376 2.06789 47 4.44656V29.4472C46.9726 30.6474 46.483 31.7908 45.6333 32.6389C44.7837 33.4871 43.6395 33.9747 42.4392 34H17.4492C16.2673 33.945 15.1503 33.4432 14.3243 32.596C13.4984 31.7488 13.025 30.6195 13 29.4366V4.45719C13.0571 2.1157 15.0998 0.0664062 17.4413 0ZM19.6632 12.1444C19.6459 14.7834 19.6552 17.4237 19.642 20.064C19.6523 20.106 19.6527 20.1499 19.6432 20.1922C19.6336 20.2344 19.6143 20.2739 19.5869 20.3074C19.5594 20.3409 19.5245 20.3676 19.485 20.3853C19.4455 20.4029 19.4023 20.4112 19.3591 20.4093C19.0416 20.4279 18.7229 20.4173 18.4041 20.4199C18.618 20.9512 18.8491 21.4638 19.0881 21.9778C19.6884 21.9579 20.3738 22.0827 20.8864 21.6896C21.3473 21.347 21.4947 20.7373 21.4854 20.1888C21.4854 17.5073 21.4854 14.8245 21.4734 12.143C20.8705 12.1404 20.2662 12.1391 19.6632 12.1444ZM27.1113 12.0248C26.6615 13.0581 26.2029 14.087 25.7354 15.1114C25.6026 15.4182 25.4419 15.8246 25.7208 16.1022C26.078 16.4262 26.6027 16.3014 27.0409 16.3306C26.7368 17.0983 26.337 17.8274 26.0807 18.6137C25.9386 19.0015 26.2932 19.3959 26.681 19.3999C27.3836 19.4477 28.0888 19.3999 28.7927 19.4185C29.0225 18.9045 29.2536 18.3919 29.4794 17.8752C29.069 17.8752 28.6546 17.9045 28.2509 17.8234C28.6878 16.7264 29.2058 15.6652 29.6693 14.5815C29.1022 14.5151 28.4607 14.6997 27.9427 14.4792C28.1951 13.6292 28.6546 12.8496 28.9787 12.0222C28.3545 12.0195 27.7329 12.0155 27.1113 12.0248ZM36.7734 12.0315V12.7234C36.367 12.7234 35.9606 12.7234 35.5542 12.7234C35.5542 13.3432 35.5542 13.9599 35.5542 14.5735C35.962 14.5735 36.3684 14.5735 36.7748 14.5815C36.7854 15.1127 36.7854 15.6475 36.7748 16.1859C36.1638 16.1978 35.5516 16.1859 34.9406 16.1952C34.9327 16.8114 34.934 17.4263 34.9406 18.0413C35.5529 18.0479 36.1665 18.0413 36.7788 18.0413C36.7788 19.3508 36.7788 20.6616 36.7788 21.9712C37.3923 21.9712 38.0046 21.9712 38.6182 21.9712C38.6182 20.6616 38.6182 19.3526 38.6182 18.0439C39.5134 18.0439 40.4072 18.0306 41.3023 18.0439C41.6171 18.0173 41.977 18.2378 41.9664 18.5845C41.991 19.0747 41.991 19.5658 41.9664 20.056C41.9711 20.1354 41.9441 20.2135 41.8913 20.273C41.8385 20.3325 41.7643 20.3686 41.6848 20.3734C41.1735 20.4106 40.6609 20.3734 40.1482 20.3907C40.374 20.922 40.5931 21.4532 40.8495 21.9778C41.6928 21.934 42.7234 22.1465 43.3663 21.4466C43.9772 20.8808 43.7939 19.9856 43.8191 19.2472C43.7806 18.4702 43.9705 17.5923 43.4884 16.9123C43.078 16.3359 42.3383 16.1792 41.6716 16.1673C41.6317 15.2376 41.8535 14.1498 41.1695 13.3941C40.532 12.6796 39.5054 12.677 38.6235 12.7115V12.0209C37.9993 12.0275 37.3857 12.0288 36.7734 12.0315ZM30.2098 12.7248C30.2098 13.3446 30.2098 13.9608 30.2098 14.5735C30.595 14.5735 30.9788 14.5735 31.364 14.5735C31.364 16.4209 31.364 18.2697 31.364 20.1171C30.8128 20.1264 30.2603 20.1171 29.7091 20.1237C29.4236 20.7373 29.1447 21.3536 28.8671 21.9698C30.923 21.9778 32.9843 21.9698 35.0349 21.9698C35.0349 21.3554 35.0349 20.74 35.0349 20.1237C34.4439 20.1237 33.8516 20.1238 33.2605 20.1171C33.2605 18.2684 33.2605 16.4192 33.2605 14.5695C33.647 14.5695 34.0322 14.5695 34.4187 14.5695C34.4187 13.9533 34.4187 13.3357 34.4187 12.7195C33.0188 12.7221 31.615 12.7195 30.2098 12.7248ZM42.3423 12.8948C41.827 13.2852 41.9956 13.9998 41.973 14.5563C42.317 14.5563 42.6623 14.5748 43.0063 14.5443C43.5588 14.4938 43.9745 13.8497 43.7527 13.3291C43.5787 12.758 42.8071 12.5096 42.3423 12.8948ZM16.5859 14.5722C16.493 15.7834 16.3987 16.9934 16.311 18.2046C16.2907 18.4798 16.2316 18.7507 16.1357 19.0095C16.4465 19.72 16.7573 20.4305 17.0893 21.1345C17.833 20.1397 18.1093 18.8859 18.1863 17.668C18.2514 16.6321 18.367 15.5975 18.4041 14.5602C17.7945 14.5815 17.1889 14.5669 16.5859 14.5722ZM22.7126 14.5722C22.8011 15.6958 22.8897 16.8189 22.9782 17.9416C23.0752 19.0679 23.366 20.2154 24.054 21.1291C24.382 20.4266 24.6955 19.7173 25.0062 19.0041C24.9055 18.7449 24.8429 18.4725 24.8203 18.1953C24.7327 16.988 24.637 15.7808 24.5441 14.5735C23.9314 14.57 23.3195 14.5695 22.7086 14.5722H22.7126ZM24.9916 21.8357C25.932 22.1133 26.928 21.9234 27.8936 21.9752C28.1778 21.3602 28.4607 20.744 28.737 20.1251C27.7714 20.0879 26.7886 20.226 25.8416 19.983C25.5521 20.5983 25.2674 21.2159 24.9877 21.8357H24.9916Z" fill="#F4F3EF"/>
<path d="M38.6016 14.5789C39 14.636 39.5313 14.4169 39.8354 14.7383C39.8859 15.2231 39.8487 15.7105 39.854 16.1992C39.4409 16.1992 39.0266 16.1992 38.6135 16.1992C38.6055 15.6591 38.6016 15.119 38.6016 14.5789Z" fill="#F4F3EF"/>
<path d="M19.6634 12.1443C20.2663 12.1443 20.8706 12.1443 21.4736 12.1443C21.4909 14.8258 21.4842 17.5086 21.4855 20.1901C21.4948 20.7386 21.3527 21.3482 20.8866 21.6909C20.3739 22.0893 19.6912 21.9565 19.0883 21.9791C18.8492 21.4651 18.6181 20.9471 18.4043 20.4212C18.723 20.4212 19.0418 20.4291 19.3592 20.4105C19.4025 20.4124 19.4456 20.4042 19.4852 20.3865C19.5247 20.3688 19.5596 20.3422 19.587 20.3086C19.6145 20.2751 19.6338 20.2357 19.6433 20.1934C19.6529 20.1512 19.6525 20.1073 19.6421 20.0652C19.6554 17.4236 19.6408 14.7833 19.6634 12.1443Z" fill="#201D13"/>
<path d="M27.1123 12.0249C27.7338 12.0156 28.3554 12.0249 28.9717 12.0249C28.6476 12.8523 28.1881 13.6319 27.9357 14.4819C28.4563 14.7024 29.0978 14.5178 29.6623 14.5842C29.1988 15.6679 28.6808 16.7291 28.2438 17.8261C28.6423 17.9071 29.062 17.8779 29.4724 17.8779C29.2466 18.3946 29.0155 18.9072 28.7857 19.4212C28.0818 19.4093 27.3766 19.4504 26.674 19.4026C26.2862 19.4026 25.9316 19.0042 26.0737 18.6164C26.33 17.8301 26.7298 17.101 27.0339 16.3333C26.5956 16.3041 26.071 16.4289 25.7138 16.1049C25.4349 15.8273 25.5969 15.4209 25.7284 15.1141C26.1985 14.087 26.6598 13.0573 27.1123 12.0249Z" fill="#201D13"/>
<path d="M36.7725 12.0315C37.3848 12.0315 37.9984 12.0315 38.6106 12.0315V12.7221C39.4925 12.6876 40.5191 12.6902 41.1566 13.4048C41.8406 14.1605 41.6188 15.2509 41.6587 16.1779C42.3227 16.1899 43.0652 16.3466 43.4755 16.923C43.9577 17.603 43.7677 18.4809 43.8063 19.2578C43.781 19.9976 43.9643 20.8914 43.3534 21.4572C42.7105 22.1518 41.6799 21.9393 40.8366 21.9884C40.5802 21.4692 40.3611 20.9339 40.1353 20.4013C40.648 20.3867 41.1606 20.4213 41.672 20.3841C41.7514 20.3793 41.8256 20.3432 41.8784 20.2836C41.9312 20.2241 41.9582 20.1461 41.9535 20.0667C41.9781 19.5764 41.9781 19.0853 41.9535 18.5951C41.9628 18.2484 41.6029 18.028 41.2895 18.0545C40.3943 18.0413 39.5005 18.0545 38.6053 18.0545C38.6053 19.3641 38.6053 20.6732 38.6053 21.9818C37.9917 21.9818 37.3795 21.9818 36.7659 21.9818C36.7659 20.6723 36.7659 19.3614 36.7659 18.0519C36.1536 18.0519 35.54 18.0519 34.9277 18.0519C34.9277 17.437 34.9277 16.822 34.9277 16.2058C35.5387 16.2058 36.1509 16.2058 36.7619 16.1965C36.7734 15.6652 36.7734 15.1305 36.7619 14.5921C36.3555 14.5855 35.9491 14.5802 35.5413 14.5842C35.5413 13.9644 35.5413 13.3477 35.5413 12.7341C35.9477 12.7341 36.3541 12.7341 36.7605 12.7341L36.7725 12.0315ZM38.6013 14.5788C38.6013 15.1189 38.6053 15.659 38.6133 16.1992C39.0263 16.1992 39.4407 16.1992 39.8538 16.1992C39.8538 15.7131 39.8856 15.2256 39.8352 14.7382C39.531 14.4168 38.9998 14.6359 38.6013 14.5788Z" fill="#201D13"/>
<path d="M30.2098 12.7249C31.615 12.7249 33.0188 12.7249 34.4227 12.7249C34.4227 13.3411 34.4227 13.9587 34.4227 14.5749C34.0362 14.5749 33.651 14.5749 33.2645 14.5749C33.2645 16.4246 33.2645 18.2738 33.2645 20.1225C33.8555 20.1292 34.4479 20.1225 35.0389 20.1292C35.0389 20.7436 35.0389 21.359 35.0389 21.9752C32.983 21.9752 30.9217 21.9752 28.8711 21.9752C29.1487 21.359 29.4276 20.7427 29.7131 20.1292C30.2643 20.1292 30.8168 20.1292 31.368 20.1225C31.368 18.2751 31.368 16.4263 31.368 14.5789C30.9828 14.5789 30.599 14.5789 30.2138 14.5789C30.2085 13.9591 30.2072 13.3411 30.2098 12.7249Z" fill="#201D13"/>
<path d="M42.3432 12.8948C42.8081 12.5097 43.5797 12.762 43.7537 13.3291C43.9755 13.8498 43.5598 14.4939 43.0073 14.5444C42.6633 14.5749 42.318 14.5577 41.974 14.5563C41.9966 13.9998 41.8279 13.2813 42.3432 12.8948Z" fill="#201D13"/>
<path d="M16.585 14.5722C17.192 14.5722 17.7976 14.5815 18.4032 14.5576C18.366 15.5949 18.2505 16.6295 18.1854 17.6654C18.1084 18.8833 17.8321 20.1371 17.0884 21.1318C16.7563 20.4306 16.4455 19.72 16.1348 19.0068C16.2307 18.7481 16.2897 18.4772 16.3101 18.202C16.3938 17 16.488 15.7835 16.585 14.5722Z" fill="#201D13"/>
<path d="M22.709 14.5723C23.3208 14.5723 23.9331 14.5723 24.5458 14.5723C24.6387 15.7795 24.7344 16.9868 24.822 18.1941C24.8404 18.4734 24.8995 18.7486 24.9973 19.0109C24.6866 19.7214 24.3731 20.4306 24.0451 21.1359C23.3571 20.2181 23.0662 19.0706 22.9693 17.9484C22.8723 16.8261 22.798 15.6959 22.709 14.5723Z" fill="#201D13"/>
<path d="M24.9883 21.8356C25.269 21.2159 25.5523 20.5983 25.8383 19.9829C26.7852 20.226 27.768 20.0878 28.7336 20.125C28.4573 20.7439 28.1744 21.3602 27.8902 21.9751C26.9247 21.9233 25.9286 22.1132 24.9883 21.8356Z" fill="#201D13"/>
</g>
<path d="M5.256 61.74C4.6 61.74 3.984 61.62 3.408 61.38C2.84 61.14 2.34 60.804 1.908 60.372C1.484 59.948 1.152 59.452 0.912 58.884C0.672 58.308 0.552 57.688 0.552 57.024C0.552 56.36 0.672 55.744 0.912 55.176C1.152 54.6 1.488 54.1 1.92 53.676C2.352 53.244 2.852 52.908 3.42 52.668C3.996 52.428 4.612 52.308 5.268 52.308C5.932 52.308 6.548 52.428 7.116 52.668C7.692 52.908 8.192 53.244 8.616 53.676C9.048 54.1 9.384 54.596 9.624 55.164C9.872 55.732 9.996 56.348 9.996 57.012C9.996 57.516 9.916 57.968 9.756 58.368C9.604 58.768 9.384 59.084 9.096 59.316C8.808 59.548 8.468 59.664 8.076 59.664C7.676 59.664 7.34 59.528 7.068 59.256C6.796 58.984 6.632 58.616 6.576 58.152L7.068 58.236C6.964 58.532 6.8 58.796 6.576 59.028C6.36 59.26 6.104 59.44 5.808 59.568C5.512 59.688 5.196 59.748 4.86 59.748C4.516 59.748 4.204 59.676 3.924 59.532C3.652 59.388 3.436 59.192 3.276 58.944C3.116 58.696 3.036 58.412 3.036 58.092C3.036 57.612 3.2 57.228 3.528 56.94C3.856 56.652 4.312 56.48 4.896 56.424L6.864 56.256V57.228L5.076 57.372C4.772 57.396 4.54 57.468 4.38 57.588C4.22 57.7 4.14 57.856 4.14 58.056C4.14 58.248 4.22 58.408 4.38 58.536C4.548 58.664 4.764 58.728 5.028 58.728C5.284 58.728 5.52 58.66 5.736 58.524C5.96 58.388 6.14 58.212 6.276 57.996C6.412 57.78 6.48 57.54 6.48 57.276V56.388C6.48 56.06 6.364 55.788 6.132 55.572C5.908 55.356 5.624 55.248 5.28 55.248C5.016 55.248 4.78 55.32 4.572 55.464C4.372 55.6 4.24 55.788 4.176 56.028H4.068L3.096 55.74C3.24 55.268 3.508 54.896 3.9 54.624C4.292 54.352 4.756 54.216 5.292 54.216C6.004 54.216 6.56 54.436 6.96 54.876C7.368 55.308 7.572 55.912 7.572 56.688V57.6C7.572 57.928 7.62 58.176 7.716 58.344C7.82 58.512 7.972 58.596 8.172 58.596C8.412 58.596 8.604 58.464 8.748 58.2C8.892 57.928 8.964 57.532 8.964 57.012C8.964 56.5 8.868 56.024 8.676 55.584C8.492 55.136 8.232 54.744 7.896 54.408C7.56 54.072 7.168 53.812 6.72 53.628C6.272 53.436 5.792 53.34 5.28 53.34C4.768 53.34 4.288 53.436 3.84 53.628C3.4 53.812 3.012 54.072 2.676 54.408C2.348 54.744 2.092 55.136 1.908 55.584C1.724 56.032 1.632 56.512 1.632 57.024C1.632 57.536 1.724 58.016 1.908 58.464C2.092 58.912 2.348 59.304 2.676 59.64C3.012 59.976 3.396 60.236 3.828 60.42C4.268 60.612 4.74 60.708 5.244 60.708C5.492 60.708 5.732 60.684 5.964 60.636C6.196 60.596 6.42 60.528 6.636 60.432C6.852 60.344 7.056 60.24 7.248 60.12H7.392L7.956 60.9C7.556 61.172 7.124 61.38 6.66 61.524C6.204 61.668 5.736 61.74 5.256 61.74ZM17.5072 55.344H18.9352V60.384H17.5072V55.344ZM15.3112 56.532H21.1192V57.84H15.3112V56.532ZM14.7112 59.34H21.5632V60.672H14.7112V59.34ZM17.5432 49.848H18.9712V54.36H17.5432V49.848ZM15.4912 51.24H20.9632V52.524H15.4912V51.24ZM15.0712 53.784H21.4072V55.092H15.0712V53.784ZM10.3672 50.34H15.0232V51.636H10.3672V50.34ZM11.8792 54.072H14.6512V59.604H11.8792V58.356H13.4512V55.332H11.8792V54.072ZM11.8552 51.012L13.1752 51.3C13.0312 52.068 12.8472 52.828 12.6232 53.58C12.3992 54.332 12.1272 55.04 11.8072 55.704C11.4952 56.368 11.1312 56.948 10.7152 57.444C10.6992 57.316 10.6592 57.144 10.5952 56.928C10.5392 56.704 10.4752 56.48 10.4032 56.256C10.3312 56.024 10.2592 55.84 10.1872 55.704C10.6192 55.136 10.9672 54.44 11.2312 53.616C11.5032 52.792 11.7112 51.924 11.8552 51.012ZM11.1592 54.072H12.3712V60.504H11.1592V54.072ZM24.3832 59.388H30.2632V60.636H24.3832V59.388ZM23.8672 56.088H30.8632V61.068H29.3152V57.348H25.3432V61.08H23.8672V56.088ZM27.3112 53.532C26.9912 54.004 26.5832 54.484 26.0872 54.972C25.5992 55.46 25.0552 55.932 24.4552 56.388C23.8632 56.836 23.2472 57.236 22.6072 57.588C22.5192 57.42 22.3872 57.224 22.2112 57C22.0432 56.776 21.8832 56.588 21.7312 56.436C22.4032 56.108 23.0472 55.704 23.6632 55.224C24.2872 54.736 24.8472 54.224 25.3432 53.688C25.8392 53.152 26.2352 52.636 26.5312 52.14H27.9832C28.3032 52.604 28.6592 53.044 29.0512 53.46C29.4432 53.868 29.8552 54.256 30.2872 54.624C30.7272 54.984 31.1792 55.308 31.6432 55.596C32.1152 55.884 32.5872 56.128 33.0592 56.328C32.8832 56.504 32.7152 56.708 32.5552 56.94C32.4032 57.164 32.2592 57.384 32.1232 57.6C31.5312 57.272 30.9272 56.884 30.3112 56.436C29.7032 55.98 29.1352 55.5 28.6072 54.996C28.0872 54.492 27.6552 54.004 27.3112 53.532ZM28.1752 50.712L29.3032 49.944C29.6712 50.208 30.0592 50.508 30.4672 50.844C30.8752 51.172 31.2632 51.508 31.6312 51.852C31.9992 52.188 32.2952 52.496 32.5192 52.776L31.2952 53.652C31.0872 53.372 30.8112 53.06 30.4672 52.716C30.1232 52.364 29.7472 52.012 29.3392 51.66C28.9392 51.308 28.5512 50.992 28.1752 50.712ZM25.0072 50.004L26.4352 50.508C26.1632 50.916 25.8432 51.324 25.4752 51.732C25.1072 52.14 24.7232 52.52 24.3232 52.872C23.9312 53.224 23.5432 53.528 23.1592 53.784C23.0792 53.688 22.9672 53.576 22.8232 53.448C22.6792 53.32 22.5312 53.192 22.3792 53.064C22.2352 52.928 22.1072 52.82 21.9952 52.74C22.3792 52.524 22.7592 52.272 23.1352 51.984C23.5112 51.688 23.8592 51.372 24.1792 51.036C24.4992 50.692 24.7752 50.348 25.0072 50.004ZM33.3472 57.348H44.1352V58.584H33.3472V57.348ZM37.9672 52.98H39.4552V61.08H37.9672V52.98ZM37.5352 57.864L38.7112 58.368C38.4392 58.664 38.1232 58.944 37.7632 59.208C37.4112 59.464 37.0272 59.704 36.6112 59.928C36.1952 60.152 35.7672 60.348 35.3272 60.516C34.8872 60.684 34.4472 60.828 34.0072 60.948C33.9352 60.82 33.8472 60.68 33.7432 60.528C33.6392 60.376 33.5232 60.224 33.3952 60.072C33.2752 59.928 33.1632 59.808 33.0592 59.712C33.4832 59.632 33.9112 59.532 34.3432 59.412C34.7752 59.284 35.1872 59.14 35.5792 58.98C35.9792 58.82 36.3432 58.648 36.6712 58.464C37.0072 58.272 37.2952 58.072 37.5352 57.864ZM39.8992 57.84C40.1232 58.056 40.3952 58.264 40.7152 58.464C41.0432 58.656 41.4032 58.828 41.7952 58.98C42.1952 59.132 42.6112 59.268 43.0432 59.388C43.4832 59.5 43.9272 59.592 44.3752 59.664C44.2632 59.768 44.1472 59.892 44.0272 60.036C43.9152 60.188 43.8032 60.344 43.6912 60.504C43.5872 60.664 43.5032 60.804 43.4392 60.924C42.9752 60.82 42.5192 60.684 42.0712 60.516C41.6232 60.348 41.1952 60.152 40.7872 59.928C40.3792 59.696 39.9992 59.444 39.6472 59.172C39.3032 58.9 38.9992 58.608 38.7352 58.296L39.8992 57.84ZM36.0712 55.176V55.788H41.5192V55.176H36.0712ZM36.0712 53.58V54.18H41.5192V53.58H36.0712ZM34.5952 52.512H43.0792V56.856H34.5952V52.512ZM35.7592 49.8L37.2952 50.196C37.0392 50.38 36.7952 50.552 36.5632 50.712C36.3312 50.864 36.1072 51.012 35.8912 51.156C36.1712 51.316 36.4392 51.488 36.6952 51.672C36.9592 51.848 37.1712 52.012 37.3312 52.164L35.9512 52.62C35.7592 52.42 35.4912 52.196 35.1472 51.948C34.8112 51.692 34.4432 51.436 34.0432 51.18C34.3632 50.948 34.6792 50.712 34.9912 50.472C35.3032 50.224 35.5592 50 35.7592 49.8ZM38.6512 49.8L40.1872 50.196C39.9312 50.38 39.6872 50.552 39.4552 50.712C39.2232 50.864 38.9952 51.012 38.7712 51.156C39.0592 51.308 39.3392 51.476 39.6112 51.66C39.8832 51.836 40.1032 51.996 40.2712 52.14L38.8912 52.62C38.6832 52.412 38.4032 52.184 38.0512 51.936C37.6992 51.68 37.3192 51.428 36.9112 51.18C37.2392 50.948 37.5592 50.708 37.8712 50.46C38.1832 50.212 38.4432 49.992 38.6512 49.8ZM41.6272 49.8L43.1992 50.208C42.9352 50.4 42.6832 50.572 42.4432 50.724C42.2112 50.876 41.9832 51.024 41.7592 51.168C42.0632 51.328 42.3552 51.5 42.6352 51.684C42.9152 51.86 43.1432 52.02 43.3192 52.164L41.9512 52.668C41.7272 52.46 41.4272 52.228 41.0512 51.972C40.6832 51.708 40.2832 51.452 39.8512 51.204C40.1872 50.972 40.5152 50.732 40.8352 50.484C41.1552 50.228 41.4192 50 41.6272 49.8ZM49.6432 52.284H55.3552V53.592H49.6432V52.284ZM49.4152 55.272H55.7032V56.568H49.4152V55.272ZM51.6232 53.4H53.0872V55.164C53.0872 55.596 53.0512 56.068 52.9792 56.58C52.9072 57.092 52.7632 57.62 52.5472 58.164C52.3392 58.7 52.0232 59.228 51.5992 59.748C51.1832 60.268 50.6272 60.756 49.9312 61.212C49.8192 61.06 49.6592 60.884 49.4512 60.684C49.2432 60.484 49.0472 60.32 48.8632 60.192C49.5112 59.816 50.0192 59.404 50.3872 58.956C50.7632 58.508 51.0392 58.056 51.2152 57.6C51.3912 57.144 51.5032 56.708 51.5512 56.292C51.5992 55.868 51.6232 55.484 51.6232 55.14V53.4ZM52.9552 56.472C53.2032 57.24 53.5712 57.924 54.0592 58.524C54.5472 59.124 55.1592 59.572 55.8952 59.868C55.7832 59.956 55.6672 60.068 55.5472 60.204C55.4272 60.348 55.3152 60.496 55.2112 60.648C55.1072 60.8 55.0192 60.94 54.9472 61.068C54.1312 60.668 53.4632 60.096 52.9432 59.352C52.4312 58.6 52.0312 57.728 51.7432 56.736L52.9552 56.472ZM53.5912 50.016L55.0432 50.388C54.8272 50.82 54.5992 51.244 54.3592 51.66C54.1192 52.076 53.8912 52.432 53.6752 52.728L52.5112 52.368C52.6392 52.152 52.7712 51.908 52.9072 51.636C53.0432 51.364 53.1712 51.088 53.2912 50.808C53.4112 50.52 53.5112 50.256 53.5912 50.016ZM49.8352 50.544L50.9872 49.992C51.2272 50.256 51.4592 50.552 51.6832 50.88C51.9072 51.208 52.0712 51.5 52.1752 51.756L50.9752 52.404C50.8712 52.14 50.7112 51.836 50.4952 51.492C50.2872 51.14 50.0672 50.824 49.8352 50.544ZM44.6272 50.256H49.3072V51.54H44.6272V50.256ZM45.9232 52.812H48.0832V53.988H45.9232V52.812ZM45.9232 55.26H48.0832V56.436H45.9232V55.26ZM45.1432 50.94H46.4032V58.476H45.1432V50.94ZM47.6512 50.94H48.8632V61.08H47.6512V50.94ZM44.4712 58.176C44.9192 58.12 45.4272 58.052 45.9952 57.972C46.5712 57.884 47.1752 57.788 47.8072 57.684C48.4472 57.58 49.0792 57.48 49.7032 57.384L49.7992 58.62C48.9192 58.78 48.0312 58.94 47.1352 59.1C46.2472 59.252 45.4552 59.388 44.7592 59.508L44.4712 58.176Z" fill="#F4F3EF"/>
<defs>
<clipPath id="clip0_973_677">
<rect width="34" height="34" fill="white" transform="translate(13)"/>
</clipPath>
</defs>
</svg>
