<svg width="141" height="17" viewBox="0 0 141 17" fill="none" xmlns="http://www.w3.org/2000/svg">
<path d="M59.0811 6.26024V6.32923C59.0236 6.3369 58.7963 6.57455 58.6913 6.64355C57.5395 7.38717 56.3402 8.15891 55.2333 8.90764L51.5854 6.36245V1.17241L59.0811 6.26024Z" fill="#929EC6"/>
<path d="M59.0818 6.32781C59.1517 6.31759 59.2392 6.36869 59.3016 6.40703C60.5309 7.29375 61.8227 8.13704 63.062 8.97266C64.2788 9.7955 65.5131 10.5928 66.7099 11.4488V16.6389L59.1492 11.5511C59.1292 10.1865 59.1692 8.81167 59.1517 7.44452C59.1517 7.30653 59.0918 7.18387 59.0893 7.04843C59.0843 6.844 59.2067 6.59102 59.0843 6.32781" fill="#929EC6"/>
<path d="M59.0818 6.26023L59.3416 6.15546L66.7099 1.17241V6.36245C65.5856 7.19296 64.3688 7.88803 63.2519 8.72876C63.1595 8.79776 63.052 8.82076 63.062 8.97408C61.8227 8.13591 60.5309 7.29518 59.3016 6.40845C59.2417 6.37012 59.1542 6.31901 59.0818 6.32923V6.26023Z" fill="#929EC6"/>
<path d="M59.1461 11.5501L51.5854 16.6379V11.4479C52.7947 10.5918 54.009 9.7332 55.2333 8.90269C56.3402 8.15396 57.5395 7.38222 58.6913 6.6386C58.7963 6.5696 59.0237 6.33195 59.0811 6.32428C59.2035 6.58749 59.0811 6.84048 59.0886 7.04491C59.0911 7.18035 59.1511 7.30556 59.1511 7.441C59.1661 8.80814 59.1286 10.183 59.1486 11.5475" fill="#929EC6"/>
<path d="M19.3944 0.586207L22.9031 7.51953L26.5321 0.586207H30.3781V16.3381L30.3051 16.4138H26.4592V9.0527C26.4592 9.00348 26.4282 8.94481 26.4592 8.87667L23.0161 14.1197L22.9031 14.203L19.4436 8.92588V16.3381L19.3707 16.4138H15.5485L15.4756 16.3381V0.586207H19.3944Z" fill="#929EC6"/>
<path d="M4.02225 0.586207V6.11318L8.66561 0.586207H13.6083L8.14553 7.19208L13.7561 16.4138L9.12396 16.3665L5.46278 10.3833L4.02225 12.0679V16.3627H0L0 0.586207H4.02225Z" fill="#929EC6"/>
<path d="M140.043 5.74227C139.081 4.88496 137.974 4.13105 136.74 3.77195C135.763 3.48618 133.385 3.16845 132.902 4.41118C132.521 5.39258 133.143 5.9848 134.002 6.17657C134.939 6.38714 135.97 6.38526 136.933 6.61463C139.84 7.30462 141.753 10.0589 140.714 13.1554C139.959 15.4077 137.763 16.171 135.664 16.3741C133.242 16.6072 131.218 15.7819 129.083 14.7272V10.5853L130.439 11.4427C131.966 12.3282 134.256 13.2645 136.014 12.7963C137.671 12.3564 137.492 10.3917 135.754 10.1416C134.532 9.9668 133.394 10.0439 132.17 9.63779C127.878 8.21457 127.911 2.14569 132.17 0.502504C134.784 -0.505217 137.873 0.0362449 140.043 1.82608V5.74415V5.74227Z" fill="#929EC6"/>
<path d="M88.6982 0.586207V10.8129C88.6982 12.517 90.8194 13.5125 92.1048 12.4795C92.427 12.2208 92.9514 11.4915 92.9514 11.0622V0.586207H96.8659V10.8147C96.6055 14.4836 93.9582 16.5027 90.5098 16.4108C87.5275 16.3321 85.0824 14.1724 84.8293 11.0622L84.8293 0.586207H88.6982Z" fill="#929EC6"/>
<path d="M112.913 6.26427H108.495L108.427 6.17873C108.334 5.17887 107.886 4.06496 106.804 3.77792C105.808 3.5137 104.576 3.77222 104.068 4.71696C103.535 5.70922 103.566 8.40656 103.611 9.5718C103.671 11.1704 103.729 13.1607 105.81 13.3279C107.11 13.4325 107.917 12.7824 108.291 11.6152C108.336 11.4765 108.411 10.8074 108.548 10.8074H112.835C112.934 10.8758 112.866 11.0583 112.852 11.178C112.453 14.3962 110.254 16.683 106.894 16.9643C102.877 17.3008 99.6698 15.2497 99.2747 11.1856C99.0976 9.3703 99.0684 5.93922 99.5841 4.22083C101.048 -0.65492 108.729 -1.43998 111.613 2.56517C112.411 3.67148 112.757 4.93176 112.915 6.26427" fill="#929EC6"/>
<path d="M46.425 6.26857H42.1529C42.0705 4.98215 41.4904 3.79834 40.0926 3.69383C38.9474 3.60832 38.0567 4.10426 37.7554 5.25957C37.4073 6.5916 37.4055 10.3919 37.746 11.7278C38.2962 13.8883 41.2322 13.8921 41.9564 11.7943C42.0181 11.6157 42.136 10.8632 42.2258 10.8214L46.4025 10.8556C46.4661 10.9506 46.3408 11.5644 46.3108 11.7259C45.6072 15.5034 42.6076 17.2934 38.9511 16.9609C36.3968 16.729 34.1064 14.9486 33.5357 12.3719C33.1708 10.7226 33.167 6.92793 33.4197 5.24057C34.0465 1.02028 38.2101 -0.788692 42.0275 0.319111C44.7352 1.10578 46.2659 3.47341 46.4268 6.26667" fill="#929EC6"/>
<path d="M127.244 16.4138L123.034 16.4081L122.18 14.2968H117.407L116.552 16.4043L112.341 16.3607L118.26 0.586207L121.346 0.612741L127.242 16.41L127.244 16.4138ZM120.829 10.7791L119.743 7.96079L118.756 10.7791H120.829Z" fill="#929EC6"/>
<path d="M75.777 0.586207V12.9048H83.6829V16.4138H71.6463V0.586207H75.777Z" fill="#929EC6"/>
</svg>
