<svg width="1351" height="732" viewBox="0 0 1351 732" fill="none" xmlns="http://www.w3.org/2000/svg">
<path d="M598 288H323.815C539.698 499.3 527.184 678.75 285.685 732H0V381.375H83.5264C47.7344 338.25 30.4957 311.18 9.68457 252.75C-15.7364 107.25 73.8431 5.62517 242.711 0H598V288Z" fill="#FF281B"/>
<path d="M953.303 254.625H846.166C1017.53 465.925 1064.76 732 705.399 732H507.461V474H744.314C715.904 430.875 637.659 337.875 615.559 249.75C594.9 90.3751 676.093 0 764.493 0H953.303V254.625Z" fill="#FF281B"/>
<path d="M1350.82 97.125H1311.9L1221.58 728.625H1105.32L1006.83 97.125H965.031V0H1186.99C1186.99 38.5218 1188.71 69.75 1190.83 69.75C1192.96 69.746 1194.68 38.5194 1194.68 0H1350.82V97.125Z" fill="#FF281B"/>
</svg>
