<svg width="1440" height="807" viewBox="0 0 1440 807" fill="none" xmlns="http://www.w3.org/2000/svg">
<path d="M1470 851C1470 853.761 1467.76 856 1465 856H-26C-28.7614 856 -31 853.761 -31 851V133.125H-20.001C-17.2396 133.125 -15.001 130.886 -15.001 128.125V41C-15.001 38.2386 -17.2396 36 -20.001 36H-31V-43C-31 -45.7614 -28.7614 -48 -26 -48H1465C1467.76 -48 1470 -45.7614 1470 -43V851ZM-425.827 319C-425.827 321.761 -428.066 324 -430.827 324H-586.029C-589.965 324 -592.325 328.402 -590.258 331.752C-462.271 539.288 -471.338 714.742 -617.806 767.702C-618.345 767.897 -618.928 768 -619.501 768H-790C-792.761 768 -795 765.761 -795 763V422.375C-795 419.614 -792.761 417.375 -790 417.375H-751.616C-747.877 417.375 -745.463 413.416 -747.142 410.075C-766.765 371.028 -776.914 343.815 -789.021 288.75C-804.715 143.25 -749.414 41.6253 -645.164 36H-430.827C-428.066 36 -425.827 38.2386 -425.827 41V319ZM-210 130.277C-210 131.85 -208.725 133.125 -207.152 133.125V41C-207.152 38.2386 -204.914 36 -202.152 36H-102.809C-100.047 36 -97.8091 38.2445 -97.8036 41.0059C-97.7322 77.1864 -96.8921 105.742 -95.8662 105.75C-94.8401 105.75 -93.9993 77.1913 -93.9278 41.0059C-93.9223 38.2445 -91.6843 36 -88.9229 36H-31V133.125C-33.0688 133.125 -34.7864 134.723 -34.9356 136.786L-79.9888 759.985C-80.1779 762.6 -82.3542 764.625 -84.9758 764.625H-134.469C-137.078 764.625 -139.249 762.619 -139.454 760.018L-188.51 137.732C-188.715 135.131 -190.885 133.125 -193.494 133.125H-207.152V285.625C-207.152 288.386 -209.391 290.625 -212.152 290.625H-264.801C-268.514 290.625 -270.937 294.523 -269.313 297.861C-167.13 507.948 -141.289 768 -359.223 768H-475.643C-478.404 768 -480.643 765.761 -480.643 763V515C-480.643 512.239 -478.404 510 -475.643 510H-342.765C-339.22 510 -336.794 506.452 -338.177 503.188C-357.478 457.617 -401.452 369.483 -414.333 285.75C-427.005 126.375 -377.2 36.0003 -322.974 36H-215C-212.239 36 -210 38.2386 -210 41V130.277ZM291.711 36C123.007 41.6197 33.4374 143.053 58.611 288.327C58.6591 288.605 58.7341 288.889 58.829 289.155C78.2218 343.511 94.5521 370.688 125.766 409.143C128.434 412.431 126.113 417.375 121.879 417.375H54C51.2386 417.375 49 419.614 49 422.375V763C49 765.761 51.2386 768 54 768H334.14C334.502 768 334.876 767.958 335.229 767.88C572.878 715.217 588.152 540.067 381.615 332.722C378.453 329.548 380.592 324 385.072 324H642C644.761 324 647 321.761 647 319V41C647 38.2386 644.761 36 642 36H291.711ZM813.494 36C725.094 36 643.901 126.375 664.56 285.75C685.429 368.969 756.368 456.536 788.126 502.344C790.394 505.616 788.015 510 784.034 510H561.462C558.7 510 556.462 512.239 556.462 515V763C556.462 765.761 558.7 768 561.462 768H754.4C1109.12 768 1067.68 508.753 901.743 298.838C899.134 295.537 901.451 290.625 905.659 290.625H997.304C1000.07 290.625 1002.3 288.386 1002.3 285.625V41C1002.3 38.2386 1000.07 36 997.304 36H813.494ZM1019.03 36C1016.27 36 1014.03 38.2386 1014.03 41V128.125C1014.03 130.886 1016.27 133.125 1019.03 133.125H1051.55C1054.01 133.125 1056.11 134.92 1056.49 137.355L1153.66 760.396C1154.04 762.83 1156.13 764.625 1158.6 764.625H1266.25C1268.73 764.625 1270.84 762.796 1271.19 760.333L1360.29 137.417C1360.64 134.954 1362.75 133.125 1365.24 133.125H1394.82C1397.58 133.125 1399.82 130.886 1399.82 128.125V41C1399.82 38.2386 1397.58 36 1394.82 36H1248.68C1245.92 36 1243.68 38.2445 1243.67 41.0059C1243.53 77.1888 1241.86 105.746 1239.83 105.75C1237.8 105.75 1236.14 77.1913 1236 41.0059C1235.99 38.2445 1233.75 36 1230.99 36H1019.03ZM-300.798 586.221C-304.92 572.706 -309.247 562.235 -310.461 562.835C-311.674 563.436 -309.316 574.878 -305.194 588.393C-301.072 601.906 -296.747 612.376 -295.532 611.778C-294.318 611.179 -296.675 599.736 -300.798 586.221ZM-629.753 240.472C-634.979 226.957 -640.464 216.487 -642.003 217.085C-643.542 217.684 -640.553 229.127 -635.326 242.643C-630.099 256.158 -624.614 266.628 -623.075 266.028C-621.536 265.428 -624.526 253.986 -629.753 240.472Z" fill="#FF281B"/>
</svg>
