<svg width="341" height="112" viewBox="0 0 341 112" fill="none" xmlns="http://www.w3.org/2000/svg">
<path d="M74.508 99V75.9H77.808V99H74.508ZM76.191 99V95.832H89.523V99H76.191ZM76.191 88.869V85.701H88.698V88.869H76.191ZM76.191 79.068V75.9H89.523V79.068H76.191ZM101.178 99L89.5947 82.665V82.401H93.3237L104.907 98.736V99H101.178ZM89.4627 99V98.736L96.1947 89.232L98.1747 91.806L93.1257 99H89.4627ZM98.3397 91.905L96.3597 89.298L101.145 82.401H104.742V82.665L98.3397 91.905ZM112.756 99.462C111.084 99.462 109.61 99.099 108.334 98.373C107.058 97.625 106.057 96.591 105.331 95.271C104.627 93.951 104.275 92.422 104.275 90.684C104.275 88.946 104.627 87.428 105.331 86.13C106.057 84.81 107.058 83.787 108.334 83.061C109.61 82.313 111.084 81.939 112.756 81.939C114.054 81.939 115.209 82.159 116.221 82.599C117.255 83.039 118.135 83.688 118.861 84.546C119.587 85.382 120.126 86.416 120.478 87.648L117.673 88.44H117.31C116.958 87.362 116.364 86.515 115.528 85.899C114.714 85.283 113.79 84.975 112.756 84.975C111.7 84.975 110.787 85.217 110.017 85.701C109.247 86.185 108.642 86.856 108.202 87.714C107.784 88.55 107.575 89.54 107.575 90.684C107.575 91.828 107.784 92.829 108.202 93.687C108.642 94.545 109.247 95.216 110.017 95.7C110.787 96.162 111.7 96.393 112.756 96.393C113.504 96.393 114.186 96.261 114.802 95.997C115.418 95.733 115.946 95.348 116.386 94.842C116.848 94.314 117.2 93.687 117.442 92.961H117.805L120.643 93.753C120.247 94.985 119.675 96.03 118.927 96.888C118.179 97.746 117.288 98.395 116.254 98.835C115.242 99.253 114.076 99.462 112.756 99.462ZM122.438 99V75.24L125.639 74.844L125.738 75.108V99H122.438ZM143.63 82.401V99H140.495V94.545L141.386 94.809C141.056 95.755 140.561 96.58 139.901 97.284C139.241 97.966 138.46 98.505 137.558 98.901C136.678 99.275 135.721 99.462 134.687 99.462C133.521 99.462 132.465 99.209 131.519 98.703C130.573 98.175 129.825 97.416 129.275 96.426C128.725 95.414 128.45 94.171 128.45 92.697V82.401H131.75V91.773C131.75 92.873 131.904 93.764 132.212 94.446C132.542 95.128 132.993 95.623 133.565 95.931C134.137 96.217 134.797 96.36 135.545 96.36C136.293 96.36 137.03 96.173 137.756 95.799C138.504 95.425 139.12 94.842 139.604 94.05C140.088 93.258 140.33 92.235 140.33 90.981V82.401H143.63ZM152.01 99.462C150.228 99.462 148.721 99.044 147.489 98.208C146.257 97.35 145.443 96.173 145.047 94.677L148.05 93.918L148.446 94.017C148.666 94.787 149.117 95.392 149.799 95.832C150.503 96.25 151.317 96.459 152.241 96.459C153.143 96.459 153.913 96.261 154.551 95.865C155.189 95.469 155.508 94.941 155.508 94.281C155.508 93.731 155.321 93.302 154.947 92.994C154.573 92.664 154.012 92.411 153.264 92.235L150.162 91.542C148.6 91.19 147.434 90.618 146.664 89.826C145.894 89.012 145.509 88.033 145.509 86.889C145.509 85.899 145.784 85.041 146.334 84.315C146.884 83.567 147.632 82.984 148.578 82.566C149.546 82.148 150.635 81.939 151.845 81.939C153.561 81.939 155.013 82.368 156.201 83.226C157.389 84.062 158.17 85.25 158.544 86.79L155.64 87.417L155.277 87.351C155.079 86.603 154.639 86.02 153.957 85.602C153.297 85.162 152.549 84.942 151.713 84.942C150.899 84.942 150.206 85.118 149.634 85.47C149.084 85.8 148.809 86.24 148.809 86.79C148.809 87.23 148.985 87.615 149.337 87.945C149.689 88.253 150.228 88.484 150.954 88.638L154.089 89.364C155.673 89.716 156.85 90.277 157.62 91.047C158.412 91.817 158.808 92.829 158.808 94.083C158.808 95.183 158.511 96.14 157.917 96.954C157.345 97.746 156.542 98.362 155.508 98.802C154.496 99.242 153.33 99.462 152.01 99.462ZM160.41 99V82.401H163.71V99H160.41ZM162.06 79.629C161.444 79.629 160.927 79.42 160.509 79.002C160.091 78.562 159.882 78.045 159.882 77.451C159.882 76.835 160.091 76.318 160.509 75.9C160.927 75.482 161.444 75.273 162.06 75.273C162.654 75.273 163.16 75.482 163.578 75.9C164.018 76.318 164.238 76.835 164.238 77.451C164.238 78.045 164.018 78.562 163.578 79.002C163.16 79.42 162.654 79.629 162.06 79.629ZM171.065 99L171.296 96.987L177.104 82.401H180.503V82.665L173.804 99H171.065ZM170.57 99L163.871 82.665V82.401H167.27L173.078 96.987L173.309 99H170.57ZM188.093 99.462C186.443 99.462 184.98 99.099 183.704 98.373C182.45 97.625 181.471 96.591 180.767 95.271C180.063 93.951 179.711 92.422 179.711 90.684C179.711 88.946 180.052 87.428 180.734 86.13C181.438 84.81 182.406 83.787 183.638 83.061C184.892 82.313 186.333 81.939 187.961 81.939C189.567 81.939 190.964 82.313 192.152 83.061C193.362 83.809 194.297 84.865 194.957 86.229C195.639 87.571 195.98 89.144 195.98 90.948V91.443L195.485 91.938H181.394V89.034H194.396L192.713 89.694C192.669 88.704 192.427 87.857 191.987 87.153C191.569 86.449 191.008 85.91 190.304 85.536C189.622 85.14 188.852 84.942 187.994 84.942C187.07 84.942 186.223 85.162 185.453 85.602C184.683 86.042 184.078 86.658 183.638 87.45C183.22 88.22 183.011 89.122 183.011 90.156V91.146C183.011 92.158 183.231 93.071 183.671 93.885C184.111 94.677 184.716 95.304 185.486 95.766C186.256 96.228 187.125 96.459 188.093 96.459C189.017 96.459 189.831 96.228 190.535 95.766C191.261 95.282 191.833 94.644 192.251 93.852H192.647L195.32 95.007C194.682 96.393 193.736 97.482 192.482 98.274C191.228 99.066 189.765 99.462 188.093 99.462ZM212.108 99.462C210.524 99.462 209.094 99.176 207.818 98.604C206.542 98.032 205.475 97.229 204.617 96.195C203.781 95.161 203.22 93.951 202.934 92.565L205.937 91.806L206.3 91.872C206.586 92.73 207.004 93.5 207.554 94.182C208.126 94.842 208.808 95.37 209.6 95.766C210.392 96.14 211.25 96.327 212.174 96.327C213.12 96.327 213.945 96.173 214.649 95.865C215.375 95.557 215.947 95.139 216.365 94.611C216.783 94.061 216.992 93.434 216.992 92.73C216.992 91.806 216.728 91.091 216.2 90.585C215.672 90.079 214.902 89.694 213.89 89.43L209.6 88.242C207.708 87.736 206.267 86.922 205.277 85.8C204.287 84.656 203.792 83.336 203.792 81.84C203.792 80.586 204.111 79.486 204.749 78.54C205.409 77.572 206.322 76.813 207.488 76.263C208.654 75.713 209.996 75.438 211.514 75.438C212.988 75.438 214.308 75.713 215.474 76.263C216.662 76.791 217.641 77.539 218.411 78.507C219.203 79.475 219.72 80.63 219.962 81.972L217.058 82.599L216.695 82.533C216.409 81.301 215.804 80.333 214.88 79.629C213.956 78.925 212.823 78.573 211.481 78.573C210.205 78.573 209.182 78.881 208.412 79.497C207.642 80.091 207.257 80.872 207.257 81.84C207.257 82.654 207.532 83.325 208.082 83.853C208.654 84.381 209.468 84.799 210.524 85.107L214.814 86.262C216.64 86.746 218.037 87.527 219.005 88.605C219.995 89.683 220.49 91.003 220.49 92.565C220.49 93.951 220.138 95.161 219.434 96.195C218.73 97.229 217.751 98.032 216.497 98.604C215.243 99.176 213.78 99.462 212.108 99.462ZM230.067 99.462C228.395 99.462 226.921 99.099 225.645 98.373C224.369 97.625 223.368 96.591 222.642 95.271C221.938 93.951 221.586 92.422 221.586 90.684C221.586 88.946 221.938 87.428 222.642 86.13C223.368 84.81 224.369 83.787 225.645 83.061C226.921 82.313 228.395 81.939 230.067 81.939C231.365 81.939 232.52 82.159 233.532 82.599C234.566 83.039 235.446 83.688 236.172 84.546C236.898 85.382 237.437 86.416 237.789 87.648L234.984 88.44H234.621C234.269 87.362 233.675 86.515 232.839 85.899C232.025 85.283 231.101 84.975 230.067 84.975C229.011 84.975 228.098 85.217 227.328 85.701C226.558 86.185 225.953 86.856 225.513 87.714C225.095 88.55 224.886 89.54 224.886 90.684C224.886 91.828 225.095 92.829 225.513 93.687C225.953 94.545 226.558 95.216 227.328 95.7C228.098 96.162 229.011 96.393 230.067 96.393C230.815 96.393 231.497 96.261 232.113 95.997C232.729 95.733 233.257 95.348 233.697 94.842C234.159 94.314 234.511 93.687 234.753 92.961H235.116L237.954 93.753C237.558 94.985 236.986 96.03 236.238 96.888C235.49 97.746 234.599 98.395 233.565 98.835C232.553 99.253 231.387 99.462 230.067 99.462ZM239.584 99V82.401H242.719V86.856L241.828 86.559C242.268 85.283 243.016 84.271 244.072 83.523C245.15 82.775 246.382 82.401 247.768 82.401H249.385V85.437H247.24C246.36 85.437 245.59 85.646 244.93 86.064C244.292 86.46 243.786 87.021 243.412 87.747C243.06 88.473 242.884 89.331 242.884 90.321V99H239.584ZM256.994 99.462C255.344 99.462 253.881 99.099 252.605 98.373C251.351 97.625 250.372 96.591 249.668 95.271C248.964 93.951 248.612 92.422 248.612 90.684C248.612 88.946 248.953 87.428 249.635 86.13C250.339 84.81 251.307 83.787 252.539 83.061C253.793 82.313 255.234 81.939 256.862 81.939C258.468 81.939 259.865 82.313 261.053 83.061C262.263 83.809 263.198 84.865 263.858 86.229C264.54 87.571 264.881 89.144 264.881 90.948V91.443L264.386 91.938H250.295V89.034H263.297L261.614 89.694C261.57 88.704 261.328 87.857 260.888 87.153C260.47 86.449 259.909 85.91 259.205 85.536C258.523 85.14 257.753 84.942 256.895 84.942C255.971 84.942 255.124 85.162 254.354 85.602C253.584 86.042 252.979 86.658 252.539 87.45C252.121 88.22 251.912 89.122 251.912 90.156V91.146C251.912 92.158 252.132 93.071 252.572 93.885C253.012 94.677 253.617 95.304 254.387 95.766C255.157 96.228 256.026 96.459 256.994 96.459C257.918 96.459 258.732 96.228 259.436 95.766C260.162 95.282 260.734 94.644 261.152 93.852H261.548L264.221 95.007C263.583 96.393 262.637 97.482 261.383 98.274C260.129 99.066 258.666 99.462 256.994 99.462ZM274.132 99.462C272.482 99.462 271.019 99.099 269.743 98.373C268.489 97.625 267.51 96.591 266.806 95.271C266.102 93.951 265.75 92.422 265.75 90.684C265.75 88.946 266.091 87.428 266.773 86.13C267.477 84.81 268.445 83.787 269.677 83.061C270.931 82.313 272.372 81.939 274 81.939C275.606 81.939 277.003 82.313 278.191 83.061C279.401 83.809 280.336 84.865 280.996 86.229C281.678 87.571 282.019 89.144 282.019 90.948V91.443L281.524 91.938H267.433V89.034H280.435L278.752 89.694C278.708 88.704 278.466 87.857 278.026 87.153C277.608 86.449 277.047 85.91 276.343 85.536C275.661 85.14 274.891 84.942 274.033 84.942C273.109 84.942 272.262 85.162 271.492 85.602C270.722 86.042 270.117 86.658 269.677 87.45C269.259 88.22 269.05 89.122 269.05 90.156V91.146C269.05 92.158 269.27 93.071 269.71 93.885C270.15 94.677 270.755 95.304 271.525 95.766C272.295 96.228 273.164 96.459 274.132 96.459C275.056 96.459 275.87 96.228 276.574 95.766C277.3 95.282 277.872 94.644 278.29 93.852H278.686L281.359 95.007C280.721 96.393 279.775 97.482 278.521 98.274C277.267 99.066 275.804 99.462 274.132 99.462ZM283.812 99V82.401H286.947V86.856L286.056 86.559C286.386 85.613 286.881 84.799 287.541 84.117C288.201 83.413 288.971 82.874 289.851 82.5C290.753 82.126 291.71 81.939 292.722 81.939C293.91 81.939 294.977 82.192 295.923 82.698C296.869 83.204 297.617 83.963 298.167 84.975C298.717 85.965 298.992 87.208 298.992 88.704V99H295.692V89.628C295.692 88.506 295.527 87.615 295.197 86.955C294.867 86.273 294.416 85.778 293.844 85.47C293.294 85.162 292.645 85.008 291.897 85.008C291.149 85.008 290.401 85.195 289.653 85.569C288.927 85.943 288.322 86.526 287.838 87.318C287.354 88.11 287.112 89.144 287.112 90.42V99H283.812ZM301.498 99V82.401H304.798V99H301.498ZM303.148 79.629C302.532 79.629 302.015 79.42 301.597 79.002C301.179 78.562 300.97 78.045 300.97 77.451C300.97 76.835 301.179 76.318 301.597 75.9C302.015 75.482 302.532 75.273 303.148 75.273C303.742 75.273 304.248 75.482 304.666 75.9C305.106 76.318 305.326 76.835 305.326 77.451C305.326 78.045 305.106 78.562 304.666 79.002C304.248 79.42 303.742 79.629 303.148 79.629ZM307.518 99V82.401H310.653V86.856L309.762 86.559C310.092 85.613 310.587 84.799 311.247 84.117C311.907 83.413 312.677 82.874 313.557 82.5C314.459 82.126 315.416 81.939 316.428 81.939C317.616 81.939 318.683 82.192 319.629 82.698C320.575 83.204 321.323 83.963 321.873 84.975C322.423 85.965 322.698 87.208 322.698 88.704V99H319.398V89.628C319.398 88.506 319.233 87.615 318.903 86.955C318.573 86.273 318.122 85.778 317.55 85.47C317 85.162 316.351 85.008 315.603 85.008C314.855 85.008 314.107 85.195 313.359 85.569C312.633 85.943 312.028 86.526 311.544 87.318C311.06 88.11 310.818 89.144 310.818 90.42V99H307.518ZM330.557 105.6C328.357 105.6 326.641 105.16 325.409 104.28C324.177 103.4 323.561 102.212 323.561 100.716C323.561 99.726 323.803 98.868 324.287 98.142C324.793 97.394 325.53 96.822 326.498 96.426L328.148 97.911C327.686 98.109 327.323 98.417 327.059 98.835C326.795 99.231 326.663 99.671 326.663 100.155C326.663 100.881 326.949 101.497 327.521 102.003C328.115 102.531 329.006 102.795 330.194 102.795H332.504C333.714 102.795 334.649 102.597 335.309 102.201C335.991 101.827 336.332 101.266 336.332 100.518C336.332 99.946 336.101 99.495 335.639 99.165C335.199 98.857 334.55 98.703 333.692 98.703H329.402C328.478 98.703 327.642 98.549 326.894 98.241C326.168 97.911 325.596 97.46 325.178 96.888C324.76 96.316 324.551 95.656 324.551 94.908C324.551 94.116 324.782 93.412 325.244 92.796C325.728 92.158 326.443 91.652 327.389 91.278L329.171 92.796C328.621 92.862 328.203 93.06 327.917 93.39C327.653 93.72 327.521 94.072 327.521 94.446C327.521 94.93 327.708 95.304 328.082 95.568C328.478 95.832 329.039 95.964 329.765 95.964H333.956C335.628 95.964 336.948 96.382 337.916 97.218C338.906 98.032 339.401 99.121 339.401 100.485C339.401 102.047 338.774 103.29 337.52 104.214C336.266 105.138 334.583 105.6 332.471 105.6H330.557ZM331.613 93.753C330.271 93.753 329.094 93.5 328.082 92.994C327.07 92.488 326.278 91.795 325.706 90.915C325.156 90.013 324.881 88.99 324.881 87.846C324.881 86.68 325.156 85.657 325.706 84.777C326.278 83.875 327.07 83.182 328.082 82.698C329.094 82.192 330.271 81.939 331.613 81.939C332.955 81.939 334.121 82.192 335.111 82.698C336.123 83.182 336.915 83.875 337.487 84.777C338.059 85.657 338.345 86.68 338.345 87.846C338.345 88.99 338.059 90.013 337.487 90.915C336.915 91.795 336.123 92.488 335.111 92.994C334.121 93.5 332.955 93.753 331.613 93.753ZM331.613 91.014C332.691 91.014 333.56 90.728 334.22 90.156C334.902 89.562 335.243 88.792 335.243 87.846C335.243 86.9 334.902 86.141 334.22 85.569C333.56 84.975 332.691 84.678 331.613 84.678C330.513 84.678 329.633 84.975 328.973 85.569C328.313 86.141 327.983 86.9 327.983 87.846C327.983 88.792 328.313 89.562 328.973 90.156C329.633 90.728 330.513 91.014 331.613 91.014ZM336.299 84.645L334.154 83.49C334.154 82.588 334.341 81.785 334.715 81.081C335.089 80.355 335.584 79.794 336.2 79.398C336.838 78.98 337.542 78.771 338.312 78.771C338.532 78.771 338.741 78.782 338.939 78.804C339.159 78.804 339.324 78.826 339.434 78.87V81.741L339.269 82.104C339.049 82.038 338.774 82.005 338.444 82.005C337.74 82.005 337.201 82.258 336.827 82.764C336.475 83.248 336.299 83.875 336.299 84.645Z" fill="#FF281B"/>
<circle cx="40.8342" cy="40.8341" r="29" transform="rotate(-50.3406 40.8342 40.8341)" fill="#FF281B"/>
<path d="M60.7426 44.6206L20.1631 37.7138M20.1631 37.7138L36.9994 61.4569M20.1631 37.7138L43.9063 20.8774" stroke="#FF281B" stroke-width="2" stroke-linejoin="round"/>
</svg>
