<svg width="191" height="115" viewBox="0 0 191 115" fill="none" xmlns="http://www.w3.org/2000/svg">
<path d="M68.747 32L61.553 8.9H64.919L71.684 31.307L71.981 32H68.747ZM68.747 32L68.912 31.307L75.347 8.9H78.746V9.164L71.981 32H68.747ZM54.491 32L47.726 9.164V8.9H51.125L57.56 31.307L57.725 32H54.491ZM54.491 32L54.755 31.307L61.553 8.9H64.919L57.725 32H54.491ZM86.8258 32.462C85.1758 32.462 83.7238 32.088 82.4698 31.34C81.2158 30.592 80.2258 29.569 79.4998 28.271C78.7958 26.951 78.4438 25.422 78.4438 23.684C78.4438 21.968 78.7958 20.45 79.4998 19.13C80.2258 17.81 81.2158 16.787 82.4698 16.061C83.7238 15.313 85.1758 14.939 86.8258 14.939C88.4758 14.939 89.9278 15.313 91.1818 16.061C92.4358 16.787 93.4148 17.81 94.1188 19.13C94.8448 20.45 95.2078 21.968 95.2078 23.684C95.2078 25.422 94.8448 26.951 94.1188 28.271C93.4148 29.591 92.4358 30.625 91.1818 31.373C89.9278 32.099 88.4758 32.462 86.8258 32.462ZM86.8258 29.393C87.8378 29.393 88.7178 29.162 89.4658 28.7C90.2358 28.238 90.8298 27.578 91.2478 26.72C91.6878 25.862 91.9078 24.861 91.9078 23.717C91.9078 22.529 91.6878 21.517 91.2478 20.681C90.8298 19.823 90.2358 19.163 89.4658 18.701C88.7178 18.217 87.8378 17.975 86.8258 17.975C85.8138 17.975 84.9228 18.217 84.1528 18.701C83.4048 19.163 82.8108 19.823 82.3708 20.681C81.9528 21.517 81.7438 22.518 81.7438 23.684C81.7438 24.85 81.9528 25.862 82.3708 26.72C82.8108 27.578 83.4048 28.238 84.1528 28.7C84.9228 29.162 85.8138 29.393 86.8258 29.393ZM96.9893 32V15.401H100.124V19.856L99.2333 19.559C99.6733 18.283 100.421 17.271 101.477 16.523C102.555 15.775 103.787 15.401 105.173 15.401H106.79V18.437H104.645C103.765 18.437 102.995 18.646 102.335 19.064C101.697 19.46 101.191 20.021 100.817 20.747C100.465 21.473 100.289 22.331 100.289 23.321V32H96.9893ZM109.532 28.931V24.509L118.607 15.401H122.633V15.665L109.532 28.931ZM107.75 32V8.24L110.951 7.844L111.05 8.108V32H107.75ZM119.003 32L113.129 23.552L115.406 21.407L122.666 31.736V32H119.003ZM128.628 32.462C126.846 32.462 125.339 32.044 124.107 31.208C122.875 30.35 122.061 29.173 121.665 27.677L124.668 26.918L125.064 27.017C125.284 27.787 125.735 28.392 126.417 28.832C127.121 29.25 127.935 29.459 128.859 29.459C129.761 29.459 130.531 29.261 131.169 28.865C131.807 28.469 132.126 27.941 132.126 27.281C132.126 26.731 131.939 26.302 131.565 25.994C131.191 25.664 130.63 25.411 129.882 25.235L126.78 24.542C125.218 24.19 124.052 23.618 123.282 22.826C122.512 22.012 122.127 21.033 122.127 19.889C122.127 18.899 122.402 18.041 122.952 17.315C123.502 16.567 124.25 15.984 125.196 15.566C126.164 15.148 127.253 14.939 128.463 14.939C130.179 14.939 131.631 15.368 132.819 16.226C134.007 17.062 134.788 18.25 135.162 19.79L132.258 20.417L131.895 20.351C131.697 19.603 131.257 19.02 130.575 18.602C129.915 18.162 129.167 17.942 128.331 17.942C127.517 17.942 126.824 18.118 126.252 18.47C125.702 18.8 125.427 19.24 125.427 19.79C125.427 20.23 125.603 20.615 125.955 20.945C126.307 21.253 126.846 21.484 127.572 21.638L130.707 22.364C132.291 22.716 133.468 23.277 134.238 24.047C135.03 24.817 135.426 25.829 135.426 27.083C135.426 28.183 135.129 29.14 134.535 29.954C133.963 30.746 133.16 31.362 132.126 31.802C131.114 32.242 129.948 32.462 128.628 32.462ZM137.193 32V8.24L140.394 7.844L140.493 8.108V19.856L139.437 19.559C139.767 18.613 140.262 17.799 140.922 17.117C141.582 16.413 142.352 15.874 143.232 15.5C144.134 15.126 145.091 14.939 146.103 14.939C147.291 14.939 148.358 15.192 149.304 15.698C150.25 16.204 150.998 16.963 151.548 17.975C152.098 18.965 152.373 20.208 152.373 21.704V32H149.073V22.628C149.073 21.506 148.908 20.615 148.578 19.955C148.248 19.273 147.797 18.778 147.225 18.47C146.675 18.162 146.026 18.008 145.278 18.008C144.53 18.008 143.782 18.195 143.034 18.569C142.308 18.943 141.703 19.526 141.219 20.318C140.735 21.11 140.493 22.144 140.493 23.42V32H137.193ZM162.333 32.462C160.683 32.462 159.231 32.088 157.977 31.34C156.723 30.592 155.733 29.569 155.007 28.271C154.303 26.951 153.951 25.422 153.951 23.684C153.951 21.968 154.303 20.45 155.007 19.13C155.733 17.81 156.723 16.787 157.977 16.061C159.231 15.313 160.683 14.939 162.333 14.939C163.983 14.939 165.435 15.313 166.689 16.061C167.943 16.787 168.922 17.81 169.626 19.13C170.352 20.45 170.715 21.968 170.715 23.684C170.715 25.422 170.352 26.951 169.626 28.271C168.922 29.591 167.943 30.625 166.689 31.373C165.435 32.099 163.983 32.462 162.333 32.462ZM162.333 29.393C163.345 29.393 164.225 29.162 164.973 28.7C165.743 28.238 166.337 27.578 166.755 26.72C167.195 25.862 167.415 24.861 167.415 23.717C167.415 22.529 167.195 21.517 166.755 20.681C166.337 19.823 165.743 19.163 164.973 18.701C164.225 18.217 163.345 17.975 162.333 17.975C161.321 17.975 160.43 18.217 159.66 18.701C158.912 19.163 158.318 19.823 157.878 20.681C157.46 21.517 157.251 22.518 157.251 23.684C157.251 24.85 157.46 25.862 157.878 26.72C158.318 27.578 158.912 28.238 159.66 28.7C160.43 29.162 161.321 29.393 162.333 29.393ZM181.307 32.462C180.119 32.462 179.041 32.22 178.073 31.736C177.105 31.252 176.291 30.603 175.631 29.789C174.971 28.975 174.498 28.073 174.212 27.083V20.285C174.498 19.273 174.971 18.371 175.631 17.579C176.291 16.765 177.105 16.127 178.073 15.665C179.041 15.181 180.119 14.939 181.307 14.939C182.803 14.939 184.145 15.313 185.333 16.061C186.521 16.809 187.467 17.843 188.171 19.163C188.875 20.483 189.227 21.99 189.227 23.684C189.227 25.378 188.875 26.885 188.171 28.205C187.467 29.525 186.521 30.57 185.333 31.34C184.145 32.088 182.803 32.462 181.307 32.462ZM172.496 38.6V15.401H175.631V20.912L174.971 23.684L175.796 26.456V38.6H172.496ZM180.911 29.393C181.901 29.393 182.77 29.151 183.518 28.667C184.266 28.183 184.849 27.512 185.267 26.654C185.707 25.796 185.927 24.806 185.927 23.684C185.927 22.562 185.707 21.572 185.267 20.714C184.849 19.856 184.266 19.196 183.518 18.734C182.77 18.25 181.901 18.008 180.911 18.008C179.921 18.008 179.03 18.25 178.238 18.734C177.468 19.196 176.852 19.856 176.39 20.714C175.95 21.572 175.73 22.562 175.73 23.684C175.73 24.806 175.95 25.796 176.39 26.654C176.852 27.512 177.468 28.183 178.238 28.667C179.03 29.151 179.921 29.393 180.911 29.393Z" fill="#FF281B"/>
<circle cx="40.6521" cy="73.6506" r="29" transform="rotate(-127.387 40.6521 73.6506)" fill="#FF281B"/>
<path d="M48.8036 55.098L32.9762 93.0966M32.9762 93.0966L59.8892 82.011M32.9762 93.0966L21.8906 66.1836" stroke="#FF281B" stroke-width="2" stroke-linejoin="round"/>
</svg>
