<svg width="506" height="304" viewBox="0 0 506 304" fill="none" xmlns="http://www.w3.org/2000/svg">
<path d="M89.4203 121.21L46.4103 5.77996L45.2203 2.20995H59.6703L104.89 119.85V121.21H89.4203ZM0.000312532 121.21V119.85L45.2203 2.20995H59.6703L58.4803 5.77996L15.4703 121.21H0.000312532ZM17.5103 90.61L22.6103 76.5H83.9803L89.0803 90.61H17.5103ZM118.32 121.21V107.27H154.87C162.124 107.27 167.62 105.4 171.36 101.66C175.1 97.8066 176.97 92.48 176.97 85.68C176.97 79.22 174.987 74.1766 171.02 70.55C167.054 66.81 161.67 64.94 154.87 64.94H118.32V51.34H151.98C155.947 51.34 159.404 50.6033 162.35 49.13C165.297 47.5433 167.564 45.4466 169.15 42.84C170.737 40.2333 171.53 37.1733 171.53 33.66C171.53 28.4466 169.83 24.2533 166.43 21.08C163.144 17.7933 158.327 16.15 151.98 16.15H118.32V2.20995H151.98C162.86 2.20995 171.36 5.15662 177.48 11.05C183.6 16.83 186.66 24.2533 186.66 33.32C186.66 37.2866 185.697 41.0833 183.77 44.71C181.844 48.3366 179.294 51.3966 176.12 53.89C172.947 56.3833 169.377 58.14 165.41 59.16V55.08C170.397 55.76 174.874 57.5733 178.84 60.52C182.92 63.4666 186.15 67.15 188.53 71.57C191.024 75.99 192.27 80.8066 192.27 86.02C192.27 96.6733 188.984 105.23 182.41 111.69C175.95 118.037 166.884 121.21 155.21 121.21H118.32ZM110.33 121.21V2.20995H124.78V121.21H110.33ZM254.772 123.42C243.892 123.42 234.145 120.87 225.532 115.77C217.032 110.557 210.345 103.303 205.472 94.01C200.712 84.7166 198.332 73.95 198.332 61.71C198.332 49.47 200.712 38.7033 205.472 29.41C210.345 20.1166 217.032 12.92 225.532 7.81995C234.145 2.60662 243.892 -4.91142e-05 254.772 -4.91142e-05C265.765 -4.91142e-05 275.512 2.60662 284.012 7.81995C292.512 12.92 299.142 20.1166 303.902 29.41C308.775 38.7033 311.212 49.47 311.212 61.71C311.212 73.95 308.775 84.7166 303.902 94.01C299.142 103.303 292.512 110.557 284.012 115.77C275.512 120.87 265.765 123.42 254.772 123.42ZM254.772 109.31C262.705 109.31 269.789 107.383 276.022 103.53C282.369 99.5633 287.355 94.01 290.982 86.87C294.609 79.73 296.422 71.3433 296.422 61.71C296.422 51.9633 294.609 43.52 290.982 36.38C287.355 29.24 282.369 23.7433 276.022 19.89C269.789 16.0366 262.705 14.11 254.772 14.11C246.839 14.11 239.755 16.0366 233.522 19.89C227.289 23.7433 222.302 29.24 218.562 36.38C214.935 43.52 213.122 51.9633 213.122 61.71C213.122 71.3433 214.935 79.73 218.562 86.87C222.302 94.01 227.289 99.5633 233.522 103.53C239.755 107.383 246.839 109.31 254.772 109.31ZM366.252 123.42C357.185 123.42 349.365 121.607 342.792 117.98C336.219 114.24 331.175 108.97 327.662 102.17C324.149 95.2566 322.392 87.04 322.392 77.52V2.20995H336.842V77.86C336.842 87.9466 339.335 95.71 344.322 101.15C349.422 106.59 356.732 109.31 366.252 109.31C375.659 109.31 382.855 106.59 387.842 101.15C392.942 95.71 395.492 87.9466 395.492 77.86V2.20995H409.942V77.52C409.942 87.04 408.185 95.2566 404.672 102.17C401.159 108.97 396.115 114.24 389.542 117.98C383.082 121.607 375.319 123.42 366.252 123.42ZM454.034 121.21V2.20995H468.654V121.21H454.034ZM417.144 16.15V2.20995H505.374V16.15H417.144ZM54.7403 303.42C45.6736 303.42 37.8536 301.607 31.2803 297.98C24.707 294.24 19.6636 288.97 16.1503 282.17C12.637 275.257 10.8803 267.04 10.8803 257.52V182.21H25.3303V257.86C25.3303 267.947 27.8236 275.71 32.8103 281.15C37.9103 286.59 45.2203 289.31 54.7403 289.31C64.147 289.31 71.3436 286.59 76.3303 281.15C81.4303 275.71 83.9803 267.947 83.9803 257.86V182.21H98.4303V257.52C98.4303 267.04 96.6736 275.257 93.1603 282.17C89.647 288.97 84.6037 294.24 78.0303 297.98C71.5703 301.607 63.807 303.42 54.7403 303.42ZM155.443 303.42C147.509 303.42 140.256 301.947 133.683 299C127.223 296.053 121.783 291.917 117.363 286.59C113.056 281.263 110.166 275.087 108.693 268.06L122.123 264.83L123.993 265.17C125.239 269.703 127.393 273.84 130.453 277.58C133.513 281.207 137.196 284.097 141.503 286.25C145.923 288.403 150.569 289.48 155.443 289.48C160.769 289.48 165.416 288.63 169.383 286.93C173.463 285.23 176.636 282.85 178.903 279.79C181.283 276.73 182.473 273.217 182.473 269.25C182.473 263.923 180.943 259.843 177.883 257.01C174.936 254.177 170.799 252.023 165.473 250.55L142.523 244.26C133.116 241.653 125.976 237.517 121.103 231.85C116.229 226.183 113.793 219.667 113.793 212.3C113.793 205.953 115.436 200.4 118.723 195.64C122.009 190.767 126.543 186.97 132.323 184.25C138.216 181.417 145.016 180 152.723 180C160.089 180 166.776 181.417 172.783 184.25C178.903 186.97 183.889 190.823 187.743 195.81C191.709 200.797 194.316 206.69 195.563 213.49L182.473 216.38L180.603 216.04C179.129 209.24 175.843 203.857 170.743 199.89C165.756 195.923 159.693 193.94 152.553 193.94C145.526 193.94 139.859 195.64 135.553 199.04C131.246 202.327 129.093 206.747 129.093 212.3C129.093 216.72 130.623 220.403 133.683 223.35C136.743 226.297 141.163 228.563 146.943 230.15L169.723 236.44C178.676 238.933 185.589 242.9 190.463 248.34C195.336 253.78 197.773 260.467 197.773 268.4C197.773 275.427 196.016 281.547 192.503 286.76C188.989 291.973 184.059 296.053 177.713 299C171.366 301.947 163.943 303.42 155.443 303.42Z" fill="#645D45"/>
</svg>
