<svg width="359" height="132" viewBox="0 0 359 132" fill="none" xmlns="http://www.w3.org/2000/svg">
<path d="M5.76 123V118.815H15.345C17.175 118.815 18.555 118.35 19.485 117.42C20.445 116.46 20.925 115.155 20.925 113.505C20.925 111.885 20.415 110.625 19.395 109.725C18.405 108.795 17.055 108.33 15.345 108.33H5.76V104.28H14.625C15.615 104.28 16.47 104.1 17.19 103.74C17.94 103.35 18.51 102.84 18.9 102.21C19.32 101.55 19.53 100.8 19.53 99.96C19.53 98.67 19.095 97.635 18.225 96.855C17.385 96.075 16.185 95.685 14.625 95.685H5.76V91.5H14.625C17.565 91.5 19.86 92.28 21.51 93.84C23.16 95.37 23.985 97.35 23.985 99.78C23.985 100.86 23.73 101.88 23.22 102.84C22.71 103.8 22.02 104.61 21.15 105.27C20.28 105.93 19.305 106.365 18.225 106.575V105.495C19.575 105.615 20.79 106.065 21.87 106.845C22.98 107.625 23.85 108.6 24.48 109.77C25.14 110.94 25.47 112.245 25.47 113.685C25.47 116.505 24.6 118.77 22.86 120.48C21.12 122.16 18.705 123 15.615 123H5.76ZM3.42 123V91.5H7.83V123H3.42ZM34.8103 123.63C33.2803 123.63 31.9003 123.33 30.6703 122.73C29.4703 122.13 28.5253 121.305 27.8353 120.255C27.1453 119.175 26.8003 117.945 26.8003 116.565C26.8003 114.495 27.5203 112.845 28.9603 111.615C30.4003 110.355 32.4403 109.62 35.0803 109.41L43.8103 108.69V112.56L35.8453 113.19C34.3153 113.31 33.1903 113.64 32.4703 114.18C31.7503 114.72 31.3903 115.455 31.3903 116.385C31.3903 117.285 31.7803 118.035 32.5603 118.635C33.3403 119.205 34.3303 119.49 35.5303 119.49C36.7903 119.49 37.9303 119.19 38.9503 118.59C40.0003 117.99 40.8253 117.195 41.4253 116.205C42.0253 115.185 42.3253 114.09 42.3253 112.92V109.23C42.3253 107.64 41.8153 106.335 40.7953 105.315C39.8053 104.295 38.4853 103.785 36.8353 103.785C35.4553 103.785 34.3003 104.115 33.3703 104.775C32.4703 105.435 31.8703 106.305 31.5703 107.385H31.0753L27.2053 106.305C27.8053 104.295 28.9453 102.69 30.6253 101.49C32.3053 100.29 34.3753 99.69 36.8353 99.69C39.9853 99.69 42.4303 100.62 44.1703 102.48C45.9103 104.31 46.7803 106.89 46.7803 110.22V123H42.6403V116.43L44.2603 116.925C43.9003 118.155 43.2553 119.28 42.3253 120.3C41.4253 121.32 40.3303 122.13 39.0403 122.73C37.7503 123.33 36.3403 123.63 34.8103 123.63ZM60.5426 123.63C58.2626 123.63 56.2526 123.135 54.5126 122.145C52.7726 121.125 51.4076 119.715 50.4176 117.915C49.4576 116.115 48.9776 114.03 48.9776 111.66C48.9776 109.29 49.4576 107.22 50.4176 105.45C51.4076 103.65 52.7726 102.255 54.5126 101.265C56.2526 100.245 58.2626 99.735 60.5426 99.735C62.3126 99.735 63.8876 100.035 65.2676 100.635C66.6776 101.235 67.8776 102.12 68.8676 103.29C69.8576 104.43 70.5926 105.84 71.0726 107.52L67.2476 108.6H66.7526C66.2726 107.13 65.4626 105.975 64.3226 105.135C63.2126 104.295 61.9526 103.875 60.5426 103.875C59.1026 103.875 57.8576 104.205 56.8076 104.865C55.7576 105.525 54.9326 106.44 54.3326 107.61C53.7626 108.75 53.4776 110.1 53.4776 111.66C53.4776 113.22 53.7626 114.585 54.3326 115.755C54.9326 116.925 55.7576 117.84 56.8076 118.5C57.8576 119.13 59.1026 119.445 60.5426 119.445C61.5626 119.445 62.4926 119.265 63.3326 118.905C64.1726 118.545 64.8926 118.02 65.4926 117.33C66.1226 116.61 66.6026 115.755 66.9326 114.765H67.4276L71.2976 115.845C70.7576 117.525 69.9776 118.95 68.9576 120.12C67.9376 121.29 66.7226 122.175 65.3126 122.775C63.9326 123.345 62.3426 123.63 60.5426 123.63ZM76.1748 118.815V112.785L88.5498 100.365H94.0398V100.725L76.1748 118.815ZM73.7448 123V90.6L78.1098 90.06L78.2448 90.42V123H73.7448ZM89.0898 123L81.0798 111.48L84.1848 108.555L94.0848 122.64V123H89.0898ZM109.453 123V91.5H113.953V123H109.453ZM99.868 95.82V91.5H123.538V95.82H99.868ZM131.212 123.63C128.962 123.63 126.982 123.12 125.272 122.1C123.562 121.08 122.212 119.685 121.222 117.915C120.262 116.115 119.782 114.03 119.782 111.66C119.782 109.32 120.262 107.25 121.222 105.45C122.212 103.65 123.562 102.255 125.272 101.265C126.982 100.245 128.962 99.735 131.212 99.735C133.462 99.735 135.442 100.245 137.152 101.265C138.862 102.255 140.197 103.65 141.157 105.45C142.147 107.25 142.642 109.32 142.642 111.66C142.642 114.03 142.147 116.115 141.157 117.915C140.197 119.715 138.862 121.125 137.152 122.145C135.442 123.135 133.462 123.63 131.212 123.63ZM131.212 119.445C132.592 119.445 133.792 119.13 134.812 118.5C135.862 117.87 136.672 116.97 137.242 115.8C137.842 114.63 138.142 113.265 138.142 111.705C138.142 110.085 137.842 108.705 137.242 107.565C136.672 106.395 135.862 105.495 134.812 104.865C133.792 104.205 132.592 103.875 131.212 103.875C129.832 103.875 128.617 104.205 127.567 104.865C126.547 105.495 125.737 106.395 125.137 107.565C124.567 108.705 124.282 110.07 124.282 111.66C124.282 113.25 124.567 114.63 125.137 115.8C125.737 116.97 126.547 117.87 127.567 118.5C128.617 119.13 129.832 119.445 131.212 119.445ZM160.096 123V91.5H164.596V123H160.096ZM150.511 95.82V91.5H174.181V95.82H150.511ZM181.855 123.63C179.605 123.63 177.625 123.12 175.915 122.1C174.205 121.08 172.855 119.685 171.865 117.915C170.905 116.115 170.425 114.03 170.425 111.66C170.425 109.32 170.905 107.25 171.865 105.45C172.855 103.65 174.205 102.255 175.915 101.265C177.625 100.245 179.605 99.735 181.855 99.735C184.105 99.735 186.085 100.245 187.795 101.265C189.505 102.255 190.84 103.65 191.8 105.45C192.79 107.25 193.285 109.32 193.285 111.66C193.285 114.03 192.79 116.115 191.8 117.915C190.84 119.715 189.505 121.125 187.795 122.145C186.085 123.135 184.105 123.63 181.855 123.63ZM181.855 119.445C183.235 119.445 184.435 119.13 185.455 118.5C186.505 117.87 187.315 116.97 187.885 115.8C188.485 114.63 188.785 113.265 188.785 111.705C188.785 110.085 188.485 108.705 187.885 107.565C187.315 106.395 186.505 105.495 185.455 104.865C184.435 104.205 183.235 103.875 181.855 103.875C180.475 103.875 179.26 104.205 178.21 104.865C177.19 105.495 176.38 106.395 175.78 107.565C175.21 108.705 174.925 110.07 174.925 111.66C174.925 113.25 175.21 114.63 175.78 115.8C176.38 116.97 177.19 117.87 178.21 118.5C179.26 119.13 180.475 119.445 181.855 119.445ZM207.729 123.63C206.109 123.63 204.639 123.3 203.319 122.64C201.999 121.98 200.889 121.095 199.989 119.985C199.089 118.875 198.444 117.645 198.054 116.295V107.025C198.444 105.645 199.089 104.415 199.989 103.335C200.889 102.225 201.999 101.355 203.319 100.725C204.639 100.065 206.109 99.735 207.729 99.735C209.769 99.735 211.599 100.245 213.219 101.265C214.839 102.285 216.129 103.695 217.089 105.495C218.049 107.295 218.529 109.35 218.529 111.66C218.529 113.97 218.049 116.025 217.089 117.825C216.129 119.625 214.839 121.05 213.219 122.1C211.599 123.12 209.769 123.63 207.729 123.63ZM195.714 132V100.365H199.989V107.88L199.089 111.66L200.214 115.44V132H195.714ZM207.189 119.445C208.539 119.445 209.724 119.115 210.744 118.455C211.764 117.795 212.559 116.88 213.129 115.71C213.729 114.54 214.029 113.19 214.029 111.66C214.029 110.13 213.729 108.78 213.129 107.61C212.559 106.44 211.764 105.54 210.744 104.91C209.724 104.25 208.539 103.92 207.189 103.92C205.839 103.92 204.624 104.25 203.544 104.91C202.494 105.54 201.654 106.44 201.024 107.61C200.424 108.78 200.124 110.13 200.124 111.66C200.124 113.19 200.424 114.54 201.024 115.71C201.654 116.88 202.494 117.795 203.544 118.455C204.624 119.115 205.839 119.445 207.189 119.445Z" fill="#F4F3EF"/>
<path d="M236 123.5L356 2.50001M356 2.50001L356 123.5M356 2.50001L236 2.50001" stroke="#F4F3EF" stroke-width="5" stroke-linejoin="round"/>
</svg>
