<svg preserveAspectRatio="none" width="100%" height="100%" overflow="visible" style="display: block;" viewBox="0 0 94 128" fill="none" xmlns="http://www.w3.org/2000/svg">
<path id="BETA" d="M6 122V6H45.3333C57.1111 6 66.3333 8.65143 73 13.9543C79.7778 19.2571 83.1667 26.5486 83.1667 35.8286C83.1667 42.7886 81.2222 48.6438 77.3333 53.3943C73.4444 58.0343 67.7778 61.2933 60.3333 63.1714V63.8343C69.3333 65.2705 76.1667 68.4743 80.8333 73.4457C85.6111 78.3067 88 84.5486 88 92.1714C88 98.3581 86.4444 103.716 83.3333 108.246C80.3333 112.665 76 116.09 70.3333 118.52C64.6667 120.84 57.9444 122 50.1667 122H6ZM50.1667 118.686C61.0556 118.686 69.5 116.366 75.5 111.726C81.6111 106.975 84.6667 100.457 84.6667 92.1714C84.6667 83.8857 81.5556 77.4229 75.3333 72.7829C69.2222 68.0324 60.8333 65.6571 50.1667 65.6571H9.33333V118.686H50.1667ZM45.3333 62.3429C56.2222 62.3429 64.6667 60.0229 70.6667 55.3829C76.7778 50.6324 79.8333 44.1143 79.8333 35.8286C79.8333 27.5429 76.7778 21.08 70.6667 16.44C64.6667 11.6895 56.2222 9.31429 45.3333 9.31429H9.33333V62.3429H45.3333Z" fill="var(--fill-0, #645D45)" stroke="var(--stroke-0, #645D45)" stroke-width="12"/>
</svg>
