<svg preserveAspectRatio="none" width="100%" height="100%" overflow="visible" style="display: block;" viewBox="0 0 119.876 156" fill="none" xmlns="http://www.w3.org/2000/svg">
<path id="Lucas" d="M64.3928 149.5C53.8124 149.5 44.4076 147.541 36.1784 143.623C27.9491 139.705 21.3527 134.221 16.3891 127.168C11.5561 120.116 8.55176 111.954 7.37616 102.682H11.0989C12.4051 111.301 15.3441 118.876 19.9159 125.405C24.4877 131.805 30.5616 136.767 38.1377 140.293C45.7138 143.819 54.4655 145.582 64.3928 145.582C78.6306 145.582 89.6682 142.774 97.5055 137.159C105.473 131.413 109.457 123.381 109.457 113.064C109.457 105.49 107.302 99.4826 102.992 95.0425C98.6811 90.6023 93.2603 87.4027 86.7292 85.4438C80.198 83.3543 71.9036 81.4607 61.8456 79.763H61.6497C51.0693 78.0653 42.3829 76.1717 35.5906 74.0822C28.7982 71.9927 22.9855 68.5973 18.1525 63.8959C13.4501 59.1945 11.0989 52.6648 11.0989 44.3068C11.0989 36.7324 13.1235 30.0721 17.1728 24.326C21.2221 18.5799 26.8389 14.205 34.0231 11.2014C41.338 8.06712 49.7631 6.5 59.2985 6.5C69.2258 6.5 77.9775 8.39361 85.5536 12.1808C93.1297 15.8374 99.2036 21.1265 103.775 28.0479C108.478 34.9694 111.286 43.1315 112.201 52.5342H108.282C106.714 39.3443 101.555 29.0274 92.8031 21.5836C84.182 14.1397 73.0139 10.4178 59.2985 10.4178C50.5468 10.4178 42.8401 11.789 36.1784 14.5315C29.5166 17.274 24.2918 21.2571 20.5037 26.4808C16.8463 31.574 15.0176 37.516 15.0176 44.3068C15.0176 51.3589 17.0422 56.9091 21.0915 60.9575C25.1408 65.0059 30.1697 68.0096 36.1784 69.9685C42.3176 71.7968 50.2202 73.5598 59.8863 75.2575C60.1475 75.3881 60.4741 75.4534 60.8659 75.4534C61.2578 75.4534 61.5844 75.5187 61.8456 75.6493C62.1069 75.7799 62.3681 75.8452 62.6294 75.8452C62.8906 75.8452 63.1518 75.9105 63.4131 76.0411C74.3853 78 83.1371 80.0895 89.6682 82.3096C96.33 84.3991 101.947 87.9251 106.518 92.8877C111.09 97.7196 113.376 104.445 113.376 113.064C113.376 120.769 111.417 127.364 107.498 132.849C103.579 138.204 97.9627 142.317 90.6479 145.19C83.333 148.063 74.5813 149.5 64.3928 149.5Z" fill="var(--fill-0, #C21F1F)" stroke="var(--stroke-0, #C21F1F)" stroke-width="13"/>
</svg>
