<svg preserveAspectRatio="none" width="100%" height="100%" overflow="visible" style="display: block;" viewBox="0 0 173 323" fill="none" xmlns="http://www.w3.org/2000/svg">
<path id="C1" d="M169 319C137.352 319 108.93 312.384 83.7346 299.151C58.8463 285.63 39.3352 266.932 25.2011 243.055C11.067 219.178 4 191.993 4 161.5C4 131.007 11.067 103.822 25.2011 79.9452C39.3352 56.0685 58.8463 37.5137 83.7346 24.2808C108.93 10.7603 137.352 4 169 4V12.6301C138.888 12.6301 112.003 18.9589 88.3436 31.6164C64.6844 43.9863 46.2486 61.5342 33.0363 84.2603C19.824 106.699 13.2179 132.445 13.2179 161.5C13.2179 190.267 19.824 216.014 33.0363 238.74C46.2486 261.178 64.6844 278.726 88.3436 291.384C112.003 304.041 138.888 310.37 169 310.37V319Z" fill="var(--fill-0, #C21F1F)" stroke="var(--stroke-0, #C21F1F)" stroke-width="8"/>
</svg>
