<svg preserveAspectRatio="none" width="100%" height="100%" overflow="visible" style="display: block;" viewBox="0 0 87 156" fill="none" xmlns="http://www.w3.org/2000/svg">
<path id="C" d="M80.5 149.5C66.3063 149.5 53.5596 146.496 42.2598 140.489C31.0978 134.351 22.3473 125.863 16.0084 115.023C9.66945 104.184 6.5 91.8429 6.5 78C6.5 64.1571 9.66945 51.816 16.0084 40.9767C22.3473 30.1374 31.0978 21.7142 42.2598 15.7068C53.5596 9.56895 66.3063 6.5 80.5 6.5V10.4178C66.9953 10.4178 54.9376 13.2909 44.3268 19.037C33.716 24.6525 25.4479 32.6187 19.5223 42.9356C13.5968 53.1219 10.6341 64.81 10.6341 78C10.6341 91.0594 13.5968 102.747 19.5223 113.064C25.4479 123.251 33.716 131.217 44.3268 136.963C54.9376 142.709 66.9953 145.582 80.5 145.582V149.5Z" fill="var(--fill-0, #C21F1F)" stroke="var(--stroke-0, #C21F1F)" stroke-width="13"/>
</svg>
