<svg preserveAspectRatio="none" width="100%" height="100%" overflow="visible" style="display: block;" viewBox="0 0 218 218" fill="none" xmlns="http://www.w3.org/2000/svg">
<g id="Union">
<path d="M109.496 108.496H209.5V109.496H109.496V209.5H108.496V109.496H8.5V108.496H108.496V8.5H109.496V108.496Z" fill="var(--fill-0, #C21F1F)"/>
<path d="M109.496 108.496H100.996V116.996H109.496V108.496ZM209.5 108.496H218V99.9961H209.5V108.496ZM209.5 109.496V117.996H218V109.496H209.5ZM109.496 109.496V100.996H100.996V109.496H109.496ZM109.496 209.5V218H117.996V209.5H109.496ZM108.496 209.5H99.9961V218H108.496V209.5ZM108.496 109.496H116.996V100.996H108.496V109.496ZM8.5 109.496H0V117.996H8.5V109.496ZM8.5 108.496V99.9961H0V108.496H8.5ZM108.496 108.496V116.996H116.996V108.496H108.496ZM108.496 8.5V0H99.9961V8.5H108.496ZM109.496 8.5H117.996V0H109.496V8.5ZM109.496 108.496V116.996H209.5V108.496V99.9961H109.496V108.496ZM209.5 108.496H201V109.496H209.5H218V108.496H209.5ZM209.5 109.496V100.996H109.496V109.496V117.996H209.5V109.496ZM109.496 109.496H100.996V209.5H109.496H117.996V109.496H109.496ZM109.496 209.5V201H108.496V209.5V218H109.496V209.5ZM108.496 209.5H116.996V109.496H108.496H99.9961V209.5H108.496ZM108.496 109.496V100.996H8.5V109.496V117.996H108.496V109.496ZM8.5 109.496H17V108.496H8.5H0V109.496H8.5ZM8.5 108.496V116.996H108.496V108.496V99.9961H8.5V108.496ZM108.496 108.496H116.996V8.5H108.496H99.9961V108.496H108.496ZM108.496 8.5V17H109.496V8.5V0H108.496V8.5ZM109.496 8.5H100.996V108.496H109.496H117.996V8.5H109.496Z" fill="var(--stroke-0, #C21F1F)"/>
</g>
</svg>
