<svg preserveAspectRatio="none" width="100%" height="100%" overflow="visible" style="display: block;" viewBox="0 0 372.008 18.6" fill="none" xmlns="http://www.w3.org/2000/svg">
<g id="Media Production Company">
<mask id="path-1-outside-1_0_165" maskUnits="userSpaceOnUse" x="-0.2" y="-0.2" width="373" height="19" fill="black">
<rect fill="white" x="-0.2" y="-0.2" width="373" height="19"/>
<path d="M0.8 14.0618V1.60105H1.36545L6.94923 13.7414L12.5153 1.60105H13.0631V14.0618H12.7097V1.99267L7.16127 14.0618H6.70185L1.1534 1.99267V14.0618H0.8Z"/>
<path d="M26.3446 14.2398C25.5082 14.2398 24.7425 14.038 24.0475 13.6346C23.3525 13.2192 22.8047 12.6614 22.4042 11.9613C22.0036 11.2492 21.8034 10.466 21.8034 9.61152C21.8034 8.75707 22.0036 7.97976 22.4042 7.27958C22.8047 6.56754 23.3525 6.00977 24.0475 5.60628C24.7425 5.19093 25.5082 4.98325 26.3446 4.98325C27.181 4.98325 27.9467 5.19093 28.6418 5.60628C29.3368 6.00977 29.8787 6.56754 30.2674 7.27958C30.6679 7.97976 30.8682 8.75707 30.8682 9.61152C30.8682 9.63525 30.8682 9.66492 30.8682 9.70052C30.8682 9.73613 30.8682 9.76579 30.8682 9.78953H22.1568C22.1803 10.5609 22.3806 11.2611 22.7576 11.8901C23.1345 12.5072 23.6352 12.9937 24.2595 13.3497C24.8839 13.7058 25.5789 13.8838 26.3446 13.8838C27.2517 13.8838 28.0469 13.6702 28.7301 13.2429C29.4251 12.8038 29.8963 12.2283 30.1437 11.5162H30.5148C30.3499 12.0621 30.0613 12.5428 29.649 12.9581C29.2484 13.3616 28.7596 13.6761 28.1823 13.9016C27.6169 14.1271 27.0043 14.2398 26.3446 14.2398ZM30.5148 9.43351C30.4912 8.66213 30.291 7.96789 29.914 7.35079C29.5488 6.72182 29.0482 6.22932 28.412 5.8733C27.7877 5.51728 27.0986 5.33927 26.3446 5.33927C25.5789 5.33927 24.8839 5.51728 24.2595 5.8733C23.6352 6.22932 23.1345 6.72182 22.7576 7.35079C22.3806 7.96789 22.1803 8.66213 22.1568 9.43351H30.5148Z"/>
<path d="M42.4097 14.2398C41.5969 14.2398 40.8548 14.038 40.1833 13.6346C39.5118 13.2192 38.9817 12.6614 38.593 11.9613C38.216 11.2492 38.0275 10.466 38.0275 9.61152C38.0275 8.75707 38.216 7.97976 38.593 7.27958C38.9817 6.56754 39.5118 6.00977 40.1833 5.60628C40.8548 5.19093 41.5969 4.98325 42.4097 4.98325C43.3757 4.98325 44.218 5.24433 44.9366 5.76649C45.6669 6.28866 46.1912 6.9829 46.5092 7.84922V1.42304H46.8626V14.0618H46.5092V11.3738C46.1912 12.2401 45.6669 12.9344 44.9366 13.4565C44.218 13.9787 43.3757 14.2398 42.4097 14.2398ZM42.4451 13.8838C43.199 13.8838 43.8823 13.6998 44.4948 13.3319C45.1192 12.9522 45.608 12.436 45.9614 11.7832C46.3266 11.1305 46.5092 10.4066 46.5092 9.61152C46.5092 8.81641 46.3266 8.0925 45.9614 7.43979C45.608 6.78709 45.1192 6.27679 44.4948 5.9089C43.8823 5.52915 43.199 5.33927 42.4451 5.33927C41.6911 5.33927 41.002 5.52915 40.3777 5.9089C39.7651 6.27679 39.2762 6.78709 38.911 7.43979C38.5576 8.0925 38.3809 8.81641 38.3809 9.61152C38.3809 10.4066 38.5576 11.1305 38.911 11.7832C39.2762 12.436 39.7651 12.9522 40.3777 13.3319C41.002 13.6998 41.6911 13.8838 42.4451 13.8838Z"/>
<path d="M56.0518 14.0618V5.16126H56.4052V14.0618H56.0518ZM56.0518 2.22408L55.9635 0.8H56.4936L56.4052 2.22408H56.0518Z"/>
<path d="M67.5416 14.2754C66.6227 14.2754 65.9218 14.0677 65.4388 13.6524C64.9559 13.237 64.7144 12.6792 64.7144 11.9791C64.7144 11.3026 64.9441 10.7745 65.4035 10.3948C65.8747 10.0031 66.4402 9.73613 67.0998 9.59372C67.7595 9.43944 68.5135 9.33264 69.3616 9.2733C70.1862 9.22583 70.8106 9.14276 71.2347 9.02408C71.6705 8.90541 71.8885 8.69773 71.8885 8.40105C71.8885 7.49913 71.5881 6.76335 70.9873 6.19372C70.3983 5.62408 69.6326 5.33927 68.6902 5.33927C67.7713 5.33927 67.0115 5.60035 66.4107 6.12251C65.8217 6.64468 65.4447 7.36859 65.2798 8.29424H64.9264C65.0324 7.6178 65.2504 7.03037 65.5802 6.53194C65.9218 6.03351 66.3577 5.65375 66.8878 5.39267C67.4179 5.11972 68.0187 4.98325 68.6902 4.98325C69.397 4.98325 70.0154 5.13159 70.5455 5.42827C71.0874 5.71309 71.5056 6.12251 71.8001 6.65655C72.0946 7.19058 72.2419 7.80768 72.2419 8.50785V13.7058H73.6555V14.0618H71.9061V11.4806C71.5998 12.3232 71.0462 12.9997 70.2451 13.5099C69.4441 14.0202 68.5429 14.2754 67.5416 14.2754ZM67.5416 13.9194C68.3662 13.9194 69.1084 13.7414 69.768 13.3853C70.4277 13.0293 70.9461 12.5487 71.323 11.9435C71.7 11.3382 71.8885 10.6736 71.8885 9.94974L71.9061 9.05969C71.7177 9.21396 71.4408 9.33264 71.0756 9.41571C70.7105 9.49878 70.2275 9.55812 69.6267 9.59372C69.5913 9.59372 69.5501 9.59965 69.503 9.61152C69.4676 9.61152 69.4264 9.61152 69.3793 9.61152C67.8714 9.71832 66.7759 9.96161 66.0926 10.3414C65.4094 10.7093 65.0678 11.2551 65.0678 11.9791C65.0678 12.5962 65.2857 13.0768 65.7216 13.4209C66.1692 13.7532 66.7759 13.9194 67.5416 13.9194Z"/>
<path d="M91.8637 14.0618V1.60105H94.9913C96.3813 1.60105 97.471 1.92147 98.2603 2.5623C99.0613 3.19127 99.4618 4.05759 99.4618 5.16126C99.4618 6.26492 99.0613 7.13717 98.2603 7.77801C97.471 8.40698 96.3813 8.72147 94.9913 8.72147H92.2171V14.0618H91.8637ZM94.9913 8.36545C96.2871 8.36545 97.2943 8.08063 98.0129 7.511C98.7433 6.94136 99.1084 6.15812 99.1084 5.16126C99.1084 4.1644 98.7433 3.38115 98.0129 2.81152C97.2943 2.24189 96.2871 1.95707 94.9913 1.95707H92.2171V8.36545H94.9913Z"/>
<path d="M107.592 14.0618V5.16126H107.946V7.72461C108.217 6.90576 108.652 6.24712 109.253 5.74869C109.854 5.23839 110.537 4.98325 111.303 4.98325C111.916 4.98325 112.44 5.10785 112.876 5.35707C113.311 5.60628 113.641 5.97417 113.865 6.46073C114.101 6.93543 114.219 7.511 114.219 8.18744V8.54346H113.865V8.18744C113.865 7.27365 113.641 6.57347 113.194 6.08691C112.758 5.58848 112.128 5.33927 111.303 5.33927C110.69 5.33927 110.125 5.52321 109.607 5.8911C109.1 6.25899 108.694 6.75742 108.387 7.38639C108.093 8.00349 107.946 8.68586 107.946 9.43351V14.0618H107.592Z"/>
<path d="M125.437 14.2398C124.589 14.2398 123.811 14.038 123.105 13.6346C122.41 13.2192 121.856 12.6614 121.444 11.9613C121.043 11.2492 120.843 10.466 120.843 9.61152C120.843 8.75707 121.043 7.97976 121.444 7.27958C121.856 6.56754 122.41 6.00977 123.105 5.60628C123.811 5.19093 124.589 4.98325 125.437 4.98325C126.285 4.98325 127.057 5.19093 127.752 5.60628C128.459 6.00977 129.012 6.56754 129.413 7.27958C129.825 7.97976 130.031 8.75707 130.031 9.61152C130.031 10.466 129.825 11.2492 129.413 11.9613C129.012 12.6614 128.459 13.2192 127.752 13.6346C127.057 14.038 126.285 14.2398 125.437 14.2398ZM125.437 13.8838C126.226 13.8838 126.945 13.6998 127.593 13.3319C128.241 12.9522 128.747 12.436 129.112 11.7832C129.489 11.1305 129.678 10.4066 129.678 9.61152C129.678 8.81641 129.489 8.0925 129.112 7.43979C128.747 6.78709 128.241 6.27679 127.593 5.9089C126.945 5.52915 126.226 5.33927 125.437 5.33927C124.648 5.33927 123.929 5.52915 123.281 5.9089C122.633 6.27679 122.121 6.78709 121.744 7.43979C121.379 8.0925 121.196 8.81641 121.196 9.61152C121.196 10.4066 121.379 11.1305 121.744 11.7832C122.121 12.436 122.633 12.9522 123.281 13.3319C123.929 13.6998 124.648 13.8838 125.437 13.8838Z"/>
<path d="M141.656 14.2398C140.843 14.2398 140.101 14.038 139.43 13.6346C138.758 13.2192 138.228 12.6614 137.839 11.9613C137.462 11.2492 137.274 10.466 137.274 9.61152C137.274 8.75707 137.462 7.97976 137.839 7.27958C138.228 6.56754 138.758 6.00977 139.43 5.60628C140.101 5.19093 140.843 4.98325 141.656 4.98325C142.622 4.98325 143.464 5.24433 144.183 5.76649C144.913 6.28866 145.438 6.9829 145.756 7.84922V1.42304H146.109V14.0618H145.756V11.3738C145.438 12.2401 144.913 12.9344 144.183 13.4565C143.464 13.9787 142.622 14.2398 141.656 14.2398ZM141.692 13.8838C142.445 13.8838 143.129 13.6998 143.741 13.3319C144.366 12.9522 144.855 12.436 145.208 11.7832C145.573 11.1305 145.756 10.4066 145.756 9.61152C145.756 8.81641 145.573 8.0925 145.208 7.43979C144.855 6.78709 144.366 6.27679 143.741 5.9089C143.129 5.52915 142.445 5.33927 141.692 5.33927C140.938 5.33927 140.248 5.52915 139.624 5.9089C139.012 6.27679 138.523 6.78709 138.158 7.43979C137.804 8.0925 137.627 8.81641 137.627 9.61152C137.627 10.4066 137.804 11.1305 138.158 11.7832C138.523 12.436 139.012 12.9522 139.624 13.3319C140.248 13.6998 140.938 13.8838 141.692 13.8838Z"/>
<path d="M159.08 14.2398C158.255 14.2398 157.542 14.0677 156.942 13.7236C156.353 13.3675 155.899 12.8572 155.581 12.1927C155.275 11.5162 155.122 10.7152 155.122 9.78953V5.16126H155.475V9.78953C155.475 11.0593 155.793 12.0621 156.429 12.7979C157.077 13.5218 157.961 13.8838 159.08 13.8838C159.751 13.8838 160.364 13.7058 160.917 13.3497C161.483 12.9937 161.925 12.5012 162.243 11.8723C162.561 11.2433 162.72 10.549 162.72 9.78953V5.16126H163.073V14.0618H162.72V11.5518C162.425 12.3707 161.954 13.0234 161.306 13.5099C160.658 13.9965 159.916 14.2398 159.08 14.2398Z"/>
<path d="M175.816 14.2398C174.968 14.2398 174.196 14.038 173.501 13.6346C172.818 13.2311 172.276 12.6792 171.876 11.9791C171.487 11.267 171.293 10.4778 171.293 9.61152C171.293 8.7452 171.487 7.96196 171.876 7.26178C172.276 6.54974 172.818 5.99197 173.501 5.58848C174.196 5.18499 174.968 4.98325 175.816 4.98325C176.582 4.98325 177.259 5.11972 177.848 5.39267C178.449 5.66562 178.944 6.05724 179.333 6.56754C179.721 7.07784 179.98 7.68307 180.11 8.38325H179.757C179.556 7.43386 179.109 6.69215 178.414 6.15812C177.719 5.61222 176.853 5.33927 175.816 5.33927C175.039 5.33927 174.332 5.52915 173.696 5.9089C173.06 6.27679 172.559 6.78709 172.194 7.43979C171.829 8.0925 171.646 8.81641 171.646 9.61152C171.646 10.4066 171.829 11.1305 172.194 11.7832C172.559 12.436 173.06 12.9522 173.696 13.3319C174.332 13.6998 175.039 13.8838 175.816 13.8838C176.853 13.8838 177.719 13.6168 178.414 13.0827C179.109 12.5368 179.556 11.7892 179.757 10.8398H180.11C179.98 11.54 179.721 12.1452 179.333 12.6555C178.944 13.1658 178.449 13.5574 177.848 13.8304C177.259 14.1033 176.582 14.2398 175.816 14.2398Z"/>
<path d="M191.736 14.2398C190.735 14.2398 189.993 14.0024 189.51 13.5277C189.027 13.0412 188.785 12.3291 188.785 11.3916V5.51728H186.488V5.16126H188.609C188.668 5.16126 188.709 5.14346 188.732 5.10785C188.768 5.07225 188.785 5.03072 188.785 4.98325V3.02513H189.174L189.139 5.16126H193.556V5.51728H189.139V11.3916C189.139 12.2461 189.351 12.875 189.775 13.2785C190.199 13.682 190.841 13.8838 191.701 13.8838C192.243 13.8838 192.861 13.771 193.556 13.5456V13.8838C193.297 13.9787 192.991 14.0618 192.638 14.133C192.284 14.2042 191.984 14.2398 191.736 14.2398Z"/>
<path d="M201.503 14.0618V5.16126H201.857V14.0618H201.503ZM201.503 2.22408L201.415 0.8H201.945L201.857 2.22408H201.503Z"/>
<path d="M214.672 14.2398C213.823 14.2398 213.046 14.038 212.339 13.6346C211.644 13.2192 211.09 12.6614 210.678 11.9613C210.278 11.2492 210.077 10.466 210.077 9.61152C210.077 8.75707 210.278 7.97976 210.678 7.27958C211.09 6.56754 211.644 6.00977 212.339 5.60628C213.046 5.19093 213.823 4.98325 214.672 4.98325C215.52 4.98325 216.291 5.19093 216.986 5.60628C217.693 6.00977 218.247 6.56754 218.647 7.27958C219.06 7.97976 219.266 8.75707 219.266 9.61152C219.266 10.466 219.06 11.2492 218.647 11.9613C218.247 12.6614 217.693 13.2192 216.986 13.6346C216.291 14.038 215.52 14.2398 214.672 14.2398ZM214.672 13.8838C215.461 13.8838 216.179 13.6998 216.827 13.3319C217.475 12.9522 217.982 12.436 218.347 11.7832C218.724 11.1305 218.912 10.4066 218.912 9.61152C218.912 8.81641 218.724 8.0925 218.347 7.43979C217.982 6.78709 217.475 6.27679 216.827 5.9089C216.179 5.52915 215.461 5.33927 214.672 5.33927C213.882 5.33927 213.164 5.52915 212.516 5.9089C211.868 6.27679 211.355 6.78709 210.979 7.43979C210.613 8.0925 210.431 8.81641 210.431 9.61152C210.431 10.4066 210.613 11.1305 210.979 11.7832C211.355 12.436 211.868 12.9522 212.516 13.3319C213.164 13.6998 213.882 13.8838 214.672 13.8838Z"/>
<path d="M227.48 14.0618V5.16126H227.834V7.6712C228.128 6.85236 228.6 6.19965 229.247 5.71309C229.895 5.22653 230.637 4.98325 231.474 4.98325C232.298 4.98325 233.005 5.16126 233.594 5.51728C234.195 5.86143 234.649 6.37173 234.955 7.04817C235.273 7.71274 235.432 8.50785 235.432 9.43351V14.0618H235.079V9.43351C235.079 8.1637 234.755 7.16684 234.107 6.44293C233.471 5.70716 232.593 5.33927 231.474 5.33927C230.802 5.33927 230.184 5.51728 229.618 5.8733C229.065 6.22932 228.629 6.72182 228.311 7.35079C227.993 7.97976 227.834 8.674 227.834 9.43351V14.0618H227.48Z"/>
<path d="M259.784 14.3288C258.571 14.3288 257.481 14.0558 256.515 13.5099C255.561 12.9522 254.813 12.1808 254.271 11.1958C253.729 10.2108 253.458 9.08936 253.458 7.83141C253.458 6.57347 253.729 5.45201 254.271 4.46702C254.813 3.48202 255.561 2.71658 256.515 2.17068C257.481 1.61291 258.571 1.33403 259.784 1.33403C260.833 1.33403 261.775 1.54171 262.612 1.95707C263.448 2.36056 264.131 2.93613 264.661 3.68377C265.203 4.43141 265.551 5.3096 265.704 6.31833H265.35C265.197 5.3808 264.867 4.56789 264.361 3.87958C263.866 3.17941 263.224 2.63944 262.435 2.25969C261.657 1.87993 260.774 1.69005 259.784 1.69005C258.63 1.69005 257.599 1.95113 256.692 2.4733C255.785 2.9836 255.078 3.7075 254.572 4.64503C254.065 5.57068 253.812 6.63281 253.812 7.83141C253.812 9.01815 254.065 10.0803 254.572 11.0178C255.078 11.9435 255.785 12.6674 256.692 13.1895C257.599 13.7117 258.63 13.9728 259.784 13.9728C260.774 13.9728 261.657 13.7829 262.435 13.4031C263.224 13.0234 263.866 12.4894 264.361 11.801C264.867 11.1009 265.197 10.282 265.35 9.3445H265.704C265.551 10.3532 265.203 11.2314 264.661 11.9791C264.131 12.7267 263.448 13.3082 262.612 13.7236C261.775 14.1271 260.833 14.3288 259.784 14.3288Z"/>
<path d="M277.722 14.2398C276.874 14.2398 276.096 14.038 275.389 13.6346C274.694 13.2192 274.141 12.6614 273.728 11.9613C273.328 11.2492 273.127 10.466 273.127 9.61152C273.127 8.75707 273.328 7.97976 273.728 7.27958C274.141 6.56754 274.694 6.00977 275.389 5.60628C276.096 5.19093 276.874 4.98325 277.722 4.98325C278.57 4.98325 279.342 5.19093 280.037 5.60628C280.743 6.00977 281.297 6.56754 281.698 7.27958C282.11 7.97976 282.316 8.75707 282.316 9.61152C282.316 10.466 282.11 11.2492 281.698 11.9613C281.297 12.6614 280.743 13.2192 280.037 13.6346C279.342 14.038 278.57 14.2398 277.722 14.2398ZM277.722 13.8838C278.511 13.8838 279.23 13.6998 279.878 13.3319C280.525 12.9522 281.032 12.436 281.397 11.7832C281.774 11.1305 281.963 10.4066 281.963 9.61152C281.963 8.81641 281.774 8.0925 281.397 7.43979C281.032 6.78709 280.525 6.27679 279.878 5.9089C279.23 5.52915 278.511 5.33927 277.722 5.33927C276.932 5.33927 276.214 5.52915 275.566 5.9089C274.918 6.27679 274.406 6.78709 274.029 7.43979C273.663 8.0925 273.481 8.81641 273.481 9.61152C273.481 10.4066 273.663 11.1305 274.029 11.7832C274.406 12.436 274.918 12.9522 275.566 13.3319C276.214 13.6998 276.932 13.8838 277.722 13.8838Z"/>
<path d="M290.531 14.0618V5.16126H290.884V7.6178C291.155 6.82269 291.597 6.18778 292.209 5.71309C292.822 5.22653 293.511 4.98325 294.277 4.98325C295.184 4.98325 295.926 5.23246 296.503 5.73089C297.092 6.22932 297.481 6.93543 297.669 7.84922C297.928 6.9829 298.37 6.28866 298.995 5.76649C299.631 5.24433 300.355 4.98325 301.168 4.98325C301.898 4.98325 302.523 5.14939 303.041 5.48168C303.571 5.80209 303.972 6.27086 304.243 6.88796C304.525 7.49319 304.667 8.22304 304.667 9.07749V14.0618H304.313V9.07749C304.313 7.91449 304.031 7.0007 303.465 6.33613C302.911 5.67155 302.146 5.33927 301.168 5.33927C300.544 5.33927 299.972 5.51728 299.454 5.8733C298.936 6.22932 298.523 6.72182 298.217 7.35079C297.923 7.97976 297.775 8.674 297.775 9.43351V14.0618H297.422V9.07749C297.422 7.91449 297.139 7.0007 296.574 6.33613C296.02 5.67155 295.254 5.33927 294.277 5.33927C293.652 5.33927 293.081 5.51728 292.563 5.8733C292.044 6.22932 291.632 6.72182 291.326 7.35079C291.031 7.97976 290.884 8.674 290.884 9.43351V14.0618H290.531Z"/>
<path d="M313.674 17.622V5.16126H314.028V7.84922C314.346 6.9829 314.864 6.28866 315.583 5.76649C316.313 5.24433 317.161 4.98325 318.127 4.98325C318.94 4.98325 319.682 5.19093 320.354 5.60628C321.025 6.00977 321.549 6.56754 321.926 7.27958C322.315 7.97976 322.51 8.75707 322.51 9.61152C322.51 10.466 322.315 11.2492 321.926 11.9613C321.549 12.6614 321.025 13.2192 320.354 13.6346C319.682 14.038 318.94 14.2398 318.127 14.2398C317.161 14.2398 316.313 13.9787 315.583 13.4565C314.864 12.9344 314.346 12.2401 314.028 11.3738V17.622H313.674ZM318.092 13.8838C318.846 13.8838 319.529 13.6998 320.142 13.3319C320.766 12.9522 321.255 12.436 321.608 11.7832C321.974 11.1305 322.156 10.4066 322.156 9.61152C322.156 8.81641 321.974 8.0925 321.608 7.43979C321.255 6.78709 320.766 6.27679 320.142 5.9089C319.529 5.52915 318.846 5.33927 318.092 5.33927C317.338 5.33927 316.649 5.52915 316.025 5.9089C315.412 6.27679 314.923 6.78709 314.558 7.43979C314.205 8.0925 314.028 8.81641 314.028 9.61152C314.028 10.4066 314.205 11.1305 314.558 11.7832C314.923 12.436 315.412 12.9522 316.025 13.3319C316.649 13.6998 317.338 13.8838 318.092 13.8838Z"/>
<path d="M332.671 14.2754C331.752 14.2754 331.051 14.0677 330.568 13.6524C330.085 13.237 329.843 12.6792 329.843 11.9791C329.843 11.3026 330.073 10.7745 330.532 10.3948C331.004 10.0031 331.569 9.73613 332.229 9.59372C332.888 9.43944 333.642 9.33264 334.491 9.2733C335.315 9.22583 335.94 9.14276 336.364 9.02408C336.799 8.90541 337.017 8.69773 337.017 8.40105C337.017 7.49913 336.717 6.76335 336.116 6.19372C335.527 5.62408 334.762 5.33927 333.819 5.33927C332.9 5.33927 332.14 5.60035 331.54 6.12251C330.951 6.64468 330.574 7.36859 330.409 8.29424H330.055C330.161 7.6178 330.379 7.03037 330.709 6.53194C331.051 6.03351 331.487 5.65375 332.017 5.39267C332.547 5.11972 333.148 4.98325 333.819 4.98325C334.526 4.98325 335.144 5.13159 335.674 5.42827C336.216 5.71309 336.635 6.12251 336.929 6.65655C337.224 7.19058 337.371 7.80768 337.371 8.50785V13.7058H338.784V14.0618H337.035V11.4806C336.729 12.3232 336.175 12.9997 335.374 13.5099C334.573 14.0202 333.672 14.2754 332.671 14.2754ZM332.671 13.9194C333.495 13.9194 334.237 13.7414 334.897 13.3853C335.557 13.0293 336.075 12.5487 336.452 11.9435C336.829 11.3382 337.017 10.6736 337.017 9.94974L337.035 9.05969C336.847 9.21396 336.57 9.33264 336.205 9.41571C335.839 9.49878 335.356 9.55812 334.756 9.59372C334.72 9.59372 334.679 9.59965 334.632 9.61152C334.597 9.61152 334.555 9.61152 334.508 9.61152C333 9.71832 331.905 9.96161 331.222 10.3414C330.538 10.7093 330.197 11.2551 330.197 11.9791C330.197 12.5962 330.415 13.0768 330.851 13.4209C331.298 13.7532 331.905 13.9194 332.671 13.9194Z"/>
<path d="M346.744 14.0618V5.16126H347.097V7.6712C347.392 6.85236 347.863 6.19965 348.511 5.71309C349.159 5.22653 349.901 4.98325 350.737 4.98325C351.562 4.98325 352.269 5.16126 352.858 5.51728C353.459 5.86143 353.912 6.37173 354.218 7.04817C354.536 7.71274 354.696 8.50785 354.696 9.43351V14.0618H354.342V9.43351C354.342 8.1637 354.018 7.16684 353.37 6.44293C352.734 5.70716 351.856 5.33927 350.737 5.33927C350.066 5.33927 349.447 5.51728 348.882 5.8733C348.328 6.22932 347.892 6.72182 347.574 7.35079C347.256 7.97976 347.097 8.674 347.097 9.43351V14.0618H346.744Z"/>
<path d="M364.527 17.8C364.032 17.8 363.596 17.6932 363.219 17.4796C362.854 17.266 362.566 16.9634 362.354 16.5717C362.153 16.192 362.053 15.741 362.053 15.2188V14.7382H362.407V15.2188C362.407 15.6698 362.495 16.0614 362.672 16.3937C362.848 16.726 363.096 16.9812 363.414 17.1592C363.732 17.349 364.103 17.444 364.527 17.444C365.175 17.444 365.687 17.2422 366.064 16.8387C366.453 16.4353 366.647 15.8953 366.647 15.2188V14.8984C366.647 14.5899 366.618 14.3169 366.559 14.0796C366.512 13.8422 366.418 13.599 366.276 13.3497L361.859 5.16126H362.265L366.594 13.1895C366.642 13.2845 366.683 13.3913 366.718 13.5099C366.765 13.6168 366.795 13.7354 366.807 13.866C366.83 13.7236 366.86 13.599 366.895 13.4921C366.93 13.3853 366.971 13.2726 367.019 13.1539L370.411 5.16126H370.8L367.337 13.3319C367.219 13.6049 367.13 13.8541 367.072 14.0796C367.024 14.3169 367.001 14.578 367.001 14.8628V15.2188C367.001 15.741 366.895 16.192 366.683 16.5717C366.483 16.9634 366.194 17.266 365.817 17.4796C365.452 17.6932 365.022 17.8 364.527 17.8Z"/>
</mask>
<path d="M0.8 14.0618V1.60105H1.36545L6.94923 13.7414L12.5153 1.60105H13.0631V14.0618H12.7097V1.99267L7.16127 14.0618H6.70185L1.1534 1.99267V14.0618H0.8Z" fill="var(--fill-0, #C21F1F)"/>
<path d="M26.3446 14.2398C25.5082 14.2398 24.7425 14.038 24.0475 13.6346C23.3525 13.2192 22.8047 12.6614 22.4042 11.9613C22.0036 11.2492 21.8034 10.466 21.8034 9.61152C21.8034 8.75707 22.0036 7.97976 22.4042 7.27958C22.8047 6.56754 23.3525 6.00977 24.0475 5.60628C24.7425 5.19093 25.5082 4.98325 26.3446 4.98325C27.181 4.98325 27.9467 5.19093 28.6418 5.60628C29.3368 6.00977 29.8787 6.56754 30.2674 7.27958C30.6679 7.97976 30.8682 8.75707 30.8682 9.61152C30.8682 9.63525 30.8682 9.66492 30.8682 9.70052C30.8682 9.73613 30.8682 9.76579 30.8682 9.78953H22.1568C22.1803 10.5609 22.3806 11.2611 22.7576 11.8901C23.1345 12.5072 23.6352 12.9937 24.2595 13.3497C24.8839 13.7058 25.5789 13.8838 26.3446 13.8838C27.2517 13.8838 28.0469 13.6702 28.7301 13.2429C29.4251 12.8038 29.8963 12.2283 30.1437 11.5162H30.5148C30.3499 12.0621 30.0613 12.5428 29.649 12.9581C29.2484 13.3616 28.7596 13.6761 28.1823 13.9016C27.6169 14.1271 27.0043 14.2398 26.3446 14.2398ZM30.5148 9.43351C30.4912 8.66213 30.291 7.96789 29.914 7.35079C29.5488 6.72182 29.0482 6.22932 28.412 5.8733C27.7877 5.51728 27.0986 5.33927 26.3446 5.33927C25.5789 5.33927 24.8839 5.51728 24.2595 5.8733C23.6352 6.22932 23.1345 6.72182 22.7576 7.35079C22.3806 7.96789 22.1803 8.66213 22.1568 9.43351H30.5148Z" fill="var(--fill-0, #C21F1F)"/>
<path d="M42.4097 14.2398C41.5969 14.2398 40.8548 14.038 40.1833 13.6346C39.5118 13.2192 38.9817 12.6614 38.593 11.9613C38.216 11.2492 38.0275 10.466 38.0275 9.61152C38.0275 8.75707 38.216 7.97976 38.593 7.27958C38.9817 6.56754 39.5118 6.00977 40.1833 5.60628C40.8548 5.19093 41.5969 4.98325 42.4097 4.98325C43.3757 4.98325 44.218 5.24433 44.9366 5.76649C45.6669 6.28866 46.1912 6.9829 46.5092 7.84922V1.42304H46.8626V14.0618H46.5092V11.3738C46.1912 12.2401 45.6669 12.9344 44.9366 13.4565C44.218 13.9787 43.3757 14.2398 42.4097 14.2398ZM42.4451 13.8838C43.199 13.8838 43.8823 13.6998 44.4948 13.3319C45.1192 12.9522 45.608 12.436 45.9614 11.7832C46.3266 11.1305 46.5092 10.4066 46.5092 9.61152C46.5092 8.81641 46.3266 8.0925 45.9614 7.43979C45.608 6.78709 45.1192 6.27679 44.4948 5.9089C43.8823 5.52915 43.199 5.33927 42.4451 5.33927C41.6911 5.33927 41.002 5.52915 40.3777 5.9089C39.7651 6.27679 39.2762 6.78709 38.911 7.43979C38.5576 8.0925 38.3809 8.81641 38.3809 9.61152C38.3809 10.4066 38.5576 11.1305 38.911 11.7832C39.2762 12.436 39.7651 12.9522 40.3777 13.3319C41.002 13.6998 41.6911 13.8838 42.4451 13.8838Z" fill="var(--fill-0, #C21F1F)"/>
<path d="M56.0518 14.0618V5.16126H56.4052V14.0618H56.0518ZM56.0518 2.22408L55.9635 0.8H56.4936L56.4052 2.22408H56.0518Z" fill="var(--fill-0, #C21F1F)"/>
<path d="M67.5416 14.2754C66.6227 14.2754 65.9218 14.0677 65.4388 13.6524C64.9559 13.237 64.7144 12.6792 64.7144 11.9791C64.7144 11.3026 64.9441 10.7745 65.4035 10.3948C65.8747 10.0031 66.4402 9.73613 67.0998 9.59372C67.7595 9.43944 68.5135 9.33264 69.3616 9.2733C70.1862 9.22583 70.8106 9.14276 71.2347 9.02408C71.6705 8.90541 71.8885 8.69773 71.8885 8.40105C71.8885 7.49913 71.5881 6.76335 70.9873 6.19372C70.3983 5.62408 69.6326 5.33927 68.6902 5.33927C67.7713 5.33927 67.0115 5.60035 66.4107 6.12251C65.8217 6.64468 65.4447 7.36859 65.2798 8.29424H64.9264C65.0324 7.6178 65.2504 7.03037 65.5802 6.53194C65.9218 6.03351 66.3577 5.65375 66.8878 5.39267C67.4179 5.11972 68.0187 4.98325 68.6902 4.98325C69.397 4.98325 70.0154 5.13159 70.5455 5.42827C71.0874 5.71309 71.5056 6.12251 71.8001 6.65655C72.0946 7.19058 72.2419 7.80768 72.2419 8.50785V13.7058H73.6555V14.0618H71.9061V11.4806C71.5998 12.3232 71.0462 12.9997 70.2451 13.5099C69.4441 14.0202 68.5429 14.2754 67.5416 14.2754ZM67.5416 13.9194C68.3662 13.9194 69.1084 13.7414 69.768 13.3853C70.4277 13.0293 70.9461 12.5487 71.323 11.9435C71.7 11.3382 71.8885 10.6736 71.8885 9.94974L71.9061 9.05969C71.7177 9.21396 71.4408 9.33264 71.0756 9.41571C70.7105 9.49878 70.2275 9.55812 69.6267 9.59372C69.5913 9.59372 69.5501 9.59965 69.503 9.61152C69.4676 9.61152 69.4264 9.61152 69.3793 9.61152C67.8714 9.71832 66.7759 9.96161 66.0926 10.3414C65.4094 10.7093 65.0678 11.2551 65.0678 11.9791C65.0678 12.5962 65.2857 13.0768 65.7216 13.4209C66.1692 13.7532 66.7759 13.9194 67.5416 13.9194Z" fill="var(--fill-0, #C21F1F)"/>
<path d="M91.8637 14.0618V1.60105H94.9913C96.3813 1.60105 97.471 1.92147 98.2603 2.5623C99.0613 3.19127 99.4618 4.05759 99.4618 5.16126C99.4618 6.26492 99.0613 7.13717 98.2603 7.77801C97.471 8.40698 96.3813 8.72147 94.9913 8.72147H92.2171V14.0618H91.8637ZM94.9913 8.36545C96.2871 8.36545 97.2943 8.08063 98.0129 7.511C98.7433 6.94136 99.1084 6.15812 99.1084 5.16126C99.1084 4.1644 98.7433 3.38115 98.0129 2.81152C97.2943 2.24189 96.2871 1.95707 94.9913 1.95707H92.2171V8.36545H94.9913Z" fill="var(--fill-0, #C21F1F)"/>
<path d="M107.592 14.0618V5.16126H107.946V7.72461C108.217 6.90576 108.652 6.24712 109.253 5.74869C109.854 5.23839 110.537 4.98325 111.303 4.98325C111.916 4.98325 112.44 5.10785 112.876 5.35707C113.311 5.60628 113.641 5.97417 113.865 6.46073C114.101 6.93543 114.219 7.511 114.219 8.18744V8.54346H113.865V8.18744C113.865 7.27365 113.641 6.57347 113.194 6.08691C112.758 5.58848 112.128 5.33927 111.303 5.33927C110.69 5.33927 110.125 5.52321 109.607 5.8911C109.1 6.25899 108.694 6.75742 108.387 7.38639C108.093 8.00349 107.946 8.68586 107.946 9.43351V14.0618H107.592Z" fill="var(--fill-0, #C21F1F)"/>
<path d="M125.437 14.2398C124.589 14.2398 123.811 14.038 123.105 13.6346C122.41 13.2192 121.856 12.6614 121.444 11.9613C121.043 11.2492 120.843 10.466 120.843 9.61152C120.843 8.75707 121.043 7.97976 121.444 7.27958C121.856 6.56754 122.41 6.00977 123.105 5.60628C123.811 5.19093 124.589 4.98325 125.437 4.98325C126.285 4.98325 127.057 5.19093 127.752 5.60628C128.459 6.00977 129.012 6.56754 129.413 7.27958C129.825 7.97976 130.031 8.75707 130.031 9.61152C130.031 10.466 129.825 11.2492 129.413 11.9613C129.012 12.6614 128.459 13.2192 127.752 13.6346C127.057 14.038 126.285 14.2398 125.437 14.2398ZM125.437 13.8838C126.226 13.8838 126.945 13.6998 127.593 13.3319C128.241 12.9522 128.747 12.436 129.112 11.7832C129.489 11.1305 129.678 10.4066 129.678 9.61152C129.678 8.81641 129.489 8.0925 129.112 7.43979C128.747 6.78709 128.241 6.27679 127.593 5.9089C126.945 5.52915 126.226 5.33927 125.437 5.33927C124.648 5.33927 123.929 5.52915 123.281 5.9089C122.633 6.27679 122.121 6.78709 121.744 7.43979C121.379 8.0925 121.196 8.81641 121.196 9.61152C121.196 10.4066 121.379 11.1305 121.744 11.7832C122.121 12.436 122.633 12.9522 123.281 13.3319C123.929 13.6998 124.648 13.8838 125.437 13.8838Z" fill="var(--fill-0, #C21F1F)"/>
<path d="M141.656 14.2398C140.843 14.2398 140.101 14.038 139.43 13.6346C138.758 13.2192 138.228 12.6614 137.839 11.9613C137.462 11.2492 137.274 10.466 137.274 9.61152C137.274 8.75707 137.462 7.97976 137.839 7.27958C138.228 6.56754 138.758 6.00977 139.43 5.60628C140.101 5.19093 140.843 4.98325 141.656 4.98325C142.622 4.98325 143.464 5.24433 144.183 5.76649C144.913 6.28866 145.438 6.9829 145.756 7.84922V1.42304H146.109V14.0618H145.756V11.3738C145.438 12.2401 144.913 12.9344 144.183 13.4565C143.464 13.9787 142.622 14.2398 141.656 14.2398ZM141.692 13.8838C142.445 13.8838 143.129 13.6998 143.741 13.3319C144.366 12.9522 144.855 12.436 145.208 11.7832C145.573 11.1305 145.756 10.4066 145.756 9.61152C145.756 8.81641 145.573 8.0925 145.208 7.43979C144.855 6.78709 144.366 6.27679 143.741 5.9089C143.129 5.52915 142.445 5.33927 141.692 5.33927C140.938 5.33927 140.248 5.52915 139.624 5.9089C139.012 6.27679 138.523 6.78709 138.158 7.43979C137.804 8.0925 137.627 8.81641 137.627 9.61152C137.627 10.4066 137.804 11.1305 138.158 11.7832C138.523 12.436 139.012 12.9522 139.624 13.3319C140.248 13.6998 140.938 13.8838 141.692 13.8838Z" fill="var(--fill-0, #C21F1F)"/>
<path d="M159.08 14.2398C158.255 14.2398 157.542 14.0677 156.942 13.7236C156.353 13.3675 155.899 12.8572 155.581 12.1927C155.275 11.5162 155.122 10.7152 155.122 9.78953V5.16126H155.475V9.78953C155.475 11.0593 155.793 12.0621 156.429 12.7979C157.077 13.5218 157.961 13.8838 159.08 13.8838C159.751 13.8838 160.364 13.7058 160.917 13.3497C161.483 12.9937 161.925 12.5012 162.243 11.8723C162.561 11.2433 162.72 10.549 162.72 9.78953V5.16126H163.073V14.0618H162.72V11.5518C162.425 12.3707 161.954 13.0234 161.306 13.5099C160.658 13.9965 159.916 14.2398 159.08 14.2398Z" fill="var(--fill-0, #C21F1F)"/>
<path d="M175.816 14.2398C174.968 14.2398 174.196 14.038 173.501 13.6346C172.818 13.2311 172.276 12.6792 171.876 11.9791C171.487 11.267 171.293 10.4778 171.293 9.61152C171.293 8.7452 171.487 7.96196 171.876 7.26178C172.276 6.54974 172.818 5.99197 173.501 5.58848C174.196 5.18499 174.968 4.98325 175.816 4.98325C176.582 4.98325 177.259 5.11972 177.848 5.39267C178.449 5.66562 178.944 6.05724 179.333 6.56754C179.721 7.07784 179.98 7.68307 180.11 8.38325H179.757C179.556 7.43386 179.109 6.69215 178.414 6.15812C177.719 5.61222 176.853 5.33927 175.816 5.33927C175.039 5.33927 174.332 5.52915 173.696 5.9089C173.06 6.27679 172.559 6.78709 172.194 7.43979C171.829 8.0925 171.646 8.81641 171.646 9.61152C171.646 10.4066 171.829 11.1305 172.194 11.7832C172.559 12.436 173.06 12.9522 173.696 13.3319C174.332 13.6998 175.039 13.8838 175.816 13.8838C176.853 13.8838 177.719 13.6168 178.414 13.0827C179.109 12.5368 179.556 11.7892 179.757 10.8398H180.11C179.98 11.54 179.721 12.1452 179.333 12.6555C178.944 13.1658 178.449 13.5574 177.848 13.8304C177.259 14.1033 176.582 14.2398 175.816 14.2398Z" fill="var(--fill-0, #C21F1F)"/>
<path d="M191.736 14.2398C190.735 14.2398 189.993 14.0024 189.51 13.5277C189.027 13.0412 188.785 12.3291 188.785 11.3916V5.51728H186.488V5.16126H188.609C188.668 5.16126 188.709 5.14346 188.732 5.10785C188.768 5.07225 188.785 5.03072 188.785 4.98325V3.02513H189.174L189.139 5.16126H193.556V5.51728H189.139V11.3916C189.139 12.2461 189.351 12.875 189.775 13.2785C190.199 13.682 190.841 13.8838 191.701 13.8838C192.243 13.8838 192.861 13.771 193.556 13.5456V13.8838C193.297 13.9787 192.991 14.0618 192.638 14.133C192.284 14.2042 191.984 14.2398 191.736 14.2398Z" fill="var(--fill-0, #C21F1F)"/>
<path d="M201.503 14.0618V5.16126H201.857V14.0618H201.503ZM201.503 2.22408L201.415 0.8H201.945L201.857 2.22408H201.503Z" fill="var(--fill-0, #C21F1F)"/>
<path d="M214.672 14.2398C213.823 14.2398 213.046 14.038 212.339 13.6346C211.644 13.2192 211.09 12.6614 210.678 11.9613C210.278 11.2492 210.077 10.466 210.077 9.61152C210.077 8.75707 210.278 7.97976 210.678 7.27958C211.09 6.56754 211.644 6.00977 212.339 5.60628C213.046 5.19093 213.823 4.98325 214.672 4.98325C215.52 4.98325 216.291 5.19093 216.986 5.60628C217.693 6.00977 218.247 6.56754 218.647 7.27958C219.06 7.97976 219.266 8.75707 219.266 9.61152C219.266 10.466 219.06 11.2492 218.647 11.9613C218.247 12.6614 217.693 13.2192 216.986 13.6346C216.291 14.038 215.52 14.2398 214.672 14.2398ZM214.672 13.8838C215.461 13.8838 216.179 13.6998 216.827 13.3319C217.475 12.9522 217.982 12.436 218.347 11.7832C218.724 11.1305 218.912 10.4066 218.912 9.61152C218.912 8.81641 218.724 8.0925 218.347 7.43979C217.982 6.78709 217.475 6.27679 216.827 5.9089C216.179 5.52915 215.461 5.33927 214.672 5.33927C213.882 5.33927 213.164 5.52915 212.516 5.9089C211.868 6.27679 211.355 6.78709 210.979 7.43979C210.613 8.0925 210.431 8.81641 210.431 9.61152C210.431 10.4066 210.613 11.1305 210.979 11.7832C211.355 12.436 211.868 12.9522 212.516 13.3319C213.164 13.6998 213.882 13.8838 214.672 13.8838Z" fill="var(--fill-0, #C21F1F)"/>
<path d="M227.48 14.0618V5.16126H227.834V7.6712C228.128 6.85236 228.6 6.19965 229.247 5.71309C229.895 5.22653 230.637 4.98325 231.474 4.98325C232.298 4.98325 233.005 5.16126 233.594 5.51728C234.195 5.86143 234.649 6.37173 234.955 7.04817C235.273 7.71274 235.432 8.50785 235.432 9.43351V14.0618H235.079V9.43351C235.079 8.1637 234.755 7.16684 234.107 6.44293C233.471 5.70716 232.593 5.33927 231.474 5.33927C230.802 5.33927 230.184 5.51728 229.618 5.8733C229.065 6.22932 228.629 6.72182 228.311 7.35079C227.993 7.97976 227.834 8.674 227.834 9.43351V14.0618H227.48Z" fill="var(--fill-0, #C21F1F)"/>
<path d="M259.784 14.3288C258.571 14.3288 257.481 14.0558 256.515 13.5099C255.561 12.9522 254.813 12.1808 254.271 11.1958C253.729 10.2108 253.458 9.08936 253.458 7.83141C253.458 6.57347 253.729 5.45201 254.271 4.46702C254.813 3.48202 255.561 2.71658 256.515 2.17068C257.481 1.61291 258.571 1.33403 259.784 1.33403C260.833 1.33403 261.775 1.54171 262.612 1.95707C263.448 2.36056 264.131 2.93613 264.661 3.68377C265.203 4.43141 265.551 5.3096 265.704 6.31833H265.35C265.197 5.3808 264.867 4.56789 264.361 3.87958C263.866 3.17941 263.224 2.63944 262.435 2.25969C261.657 1.87993 260.774 1.69005 259.784 1.69005C258.63 1.69005 257.599 1.95113 256.692 2.4733C255.785 2.9836 255.078 3.7075 254.572 4.64503C254.065 5.57068 253.812 6.63281 253.812 7.83141C253.812 9.01815 254.065 10.0803 254.572 11.0178C255.078 11.9435 255.785 12.6674 256.692 13.1895C257.599 13.7117 258.63 13.9728 259.784 13.9728C260.774 13.9728 261.657 13.7829 262.435 13.4031C263.224 13.0234 263.866 12.4894 264.361 11.801C264.867 11.1009 265.197 10.282 265.35 9.3445H265.704C265.551 10.3532 265.203 11.2314 264.661 11.9791C264.131 12.7267 263.448 13.3082 262.612 13.7236C261.775 14.1271 260.833 14.3288 259.784 14.3288Z" fill="var(--fill-0, #C21F1F)"/>
<path d="M277.722 14.2398C276.874 14.2398 276.096 14.038 275.389 13.6346C274.694 13.2192 274.141 12.6614 273.728 11.9613C273.328 11.2492 273.127 10.466 273.127 9.61152C273.127 8.75707 273.328 7.97976 273.728 7.27958C274.141 6.56754 274.694 6.00977 275.389 5.60628C276.096 5.19093 276.874 4.98325 277.722 4.98325C278.57 4.98325 279.342 5.19093 280.037 5.60628C280.743 6.00977 281.297 6.56754 281.698 7.27958C282.11 7.97976 282.316 8.75707 282.316 9.61152C282.316 10.466 282.11 11.2492 281.698 11.9613C281.297 12.6614 280.743 13.2192 280.037 13.6346C279.342 14.038 278.57 14.2398 277.722 14.2398ZM277.722 13.8838C278.511 13.8838 279.23 13.6998 279.878 13.3319C280.525 12.9522 281.032 12.436 281.397 11.7832C281.774 11.1305 281.963 10.4066 281.963 9.61152C281.963 8.81641 281.774 8.0925 281.397 7.43979C281.032 6.78709 280.525 6.27679 279.878 5.9089C279.23 5.52915 278.511 5.33927 277.722 5.33927C276.932 5.33927 276.214 5.52915 275.566 5.9089C274.918 6.27679 274.406 6.78709 274.029 7.43979C273.663 8.0925 273.481 8.81641 273.481 9.61152C273.481 10.4066 273.663 11.1305 274.029 11.7832C274.406 12.436 274.918 12.9522 275.566 13.3319C276.214 13.6998 276.932 13.8838 277.722 13.8838Z" fill="var(--fill-0, #C21F1F)"/>
<path d="M290.531 14.0618V5.16126H290.884V7.6178C291.155 6.82269 291.597 6.18778 292.209 5.71309C292.822 5.22653 293.511 4.98325 294.277 4.98325C295.184 4.98325 295.926 5.23246 296.503 5.73089C297.092 6.22932 297.481 6.93543 297.669 7.84922C297.928 6.9829 298.37 6.28866 298.995 5.76649C299.631 5.24433 300.355 4.98325 301.168 4.98325C301.898 4.98325 302.523 5.14939 303.041 5.48168C303.571 5.80209 303.972 6.27086 304.243 6.88796C304.525 7.49319 304.667 8.22304 304.667 9.07749V14.0618H304.313V9.07749C304.313 7.91449 304.031 7.0007 303.465 6.33613C302.911 5.67155 302.146 5.33927 301.168 5.33927C300.544 5.33927 299.972 5.51728 299.454 5.8733C298.936 6.22932 298.523 6.72182 298.217 7.35079C297.923 7.97976 297.775 8.674 297.775 9.43351V14.0618H297.422V9.07749C297.422 7.91449 297.139 7.0007 296.574 6.33613C296.02 5.67155 295.254 5.33927 294.277 5.33927C293.652 5.33927 293.081 5.51728 292.563 5.8733C292.044 6.22932 291.632 6.72182 291.326 7.35079C291.031 7.97976 290.884 8.674 290.884 9.43351V14.0618H290.531Z" fill="var(--fill-0, #C21F1F)"/>
<path d="M313.674 17.622V5.16126H314.028V7.84922C314.346 6.9829 314.864 6.28866 315.583 5.76649C316.313 5.24433 317.161 4.98325 318.127 4.98325C318.94 4.98325 319.682 5.19093 320.354 5.60628C321.025 6.00977 321.549 6.56754 321.926 7.27958C322.315 7.97976 322.51 8.75707 322.51 9.61152C322.51 10.466 322.315 11.2492 321.926 11.9613C321.549 12.6614 321.025 13.2192 320.354 13.6346C319.682 14.038 318.94 14.2398 318.127 14.2398C317.161 14.2398 316.313 13.9787 315.583 13.4565C314.864 12.9344 314.346 12.2401 314.028 11.3738V17.622H313.674ZM318.092 13.8838C318.846 13.8838 319.529 13.6998 320.142 13.3319C320.766 12.9522 321.255 12.436 321.608 11.7832C321.974 11.1305 322.156 10.4066 322.156 9.61152C322.156 8.81641 321.974 8.0925 321.608 7.43979C321.255 6.78709 320.766 6.27679 320.142 5.9089C319.529 5.52915 318.846 5.33927 318.092 5.33927C317.338 5.33927 316.649 5.52915 316.025 5.9089C315.412 6.27679 314.923 6.78709 314.558 7.43979C314.205 8.0925 314.028 8.81641 314.028 9.61152C314.028 10.4066 314.205 11.1305 314.558 11.7832C314.923 12.436 315.412 12.9522 316.025 13.3319C316.649 13.6998 317.338 13.8838 318.092 13.8838Z" fill="var(--fill-0, #C21F1F)"/>
<path d="M332.671 14.2754C331.752 14.2754 331.051 14.0677 330.568 13.6524C330.085 13.237 329.843 12.6792 329.843 11.9791C329.843 11.3026 330.073 10.7745 330.532 10.3948C331.004 10.0031 331.569 9.73613 332.229 9.59372C332.888 9.43944 333.642 9.33264 334.491 9.2733C335.315 9.22583 335.94 9.14276 336.364 9.02408C336.799 8.90541 337.017 8.69773 337.017 8.40105C337.017 7.49913 336.717 6.76335 336.116 6.19372C335.527 5.62408 334.762 5.33927 333.819 5.33927C332.9 5.33927 332.14 5.60035 331.54 6.12251C330.951 6.64468 330.574 7.36859 330.409 8.29424H330.055C330.161 7.6178 330.379 7.03037 330.709 6.53194C331.051 6.03351 331.487 5.65375 332.017 5.39267C332.547 5.11972 333.148 4.98325 333.819 4.98325C334.526 4.98325 335.144 5.13159 335.674 5.42827C336.216 5.71309 336.635 6.12251 336.929 6.65655C337.224 7.19058 337.371 7.80768 337.371 8.50785V13.7058H338.784V14.0618H337.035V11.4806C336.729 12.3232 336.175 12.9997 335.374 13.5099C334.573 14.0202 333.672 14.2754 332.671 14.2754ZM332.671 13.9194C333.495 13.9194 334.237 13.7414 334.897 13.3853C335.557 13.0293 336.075 12.5487 336.452 11.9435C336.829 11.3382 337.017 10.6736 337.017 9.94974L337.035 9.05969C336.847 9.21396 336.57 9.33264 336.205 9.41571C335.839 9.49878 335.356 9.55812 334.756 9.59372C334.72 9.59372 334.679 9.59965 334.632 9.61152C334.597 9.61152 334.555 9.61152 334.508 9.61152C333 9.71832 331.905 9.96161 331.222 10.3414C330.538 10.7093 330.197 11.2551 330.197 11.9791C330.197 12.5962 330.415 13.0768 330.851 13.4209C331.298 13.7532 331.905 13.9194 332.671 13.9194Z" fill="var(--fill-0, #C21F1F)"/>
<path d="M346.744 14.0618V5.16126H347.097V7.6712C347.392 6.85236 347.863 6.19965 348.511 5.71309C349.159 5.22653 349.901 4.98325 350.737 4.98325C351.562 4.98325 352.269 5.16126 352.858 5.51728C353.459 5.86143 353.912 6.37173 354.218 7.04817C354.536 7.71274 354.696 8.50785 354.696 9.43351V14.0618H354.342V9.43351C354.342 8.1637 354.018 7.16684 353.37 6.44293C352.734 5.70716 351.856 5.33927 350.737 5.33927C350.066 5.33927 349.447 5.51728 348.882 5.8733C348.328 6.22932 347.892 6.72182 347.574 7.35079C347.256 7.97976 347.097 8.674 347.097 9.43351V14.0618H346.744Z" fill="var(--fill-0, #C21F1F)"/>
<path d="M364.527 17.8C364.032 17.8 363.596 17.6932 363.219 17.4796C362.854 17.266 362.566 16.9634 362.354 16.5717C362.153 16.192 362.053 15.741 362.053 15.2188V14.7382H362.407V15.2188C362.407 15.6698 362.495 16.0614 362.672 16.3937C362.848 16.726 363.096 16.9812 363.414 17.1592C363.732 17.349 364.103 17.444 364.527 17.444C365.175 17.444 365.687 17.2422 366.064 16.8387C366.453 16.4353 366.647 15.8953 366.647 15.2188V14.8984C366.647 14.5899 366.618 14.3169 366.559 14.0796C366.512 13.8422 366.418 13.599 366.276 13.3497L361.859 5.16126H362.265L366.594 13.1895C366.642 13.2845 366.683 13.3913 366.718 13.5099C366.765 13.6168 366.795 13.7354 366.807 13.866C366.83 13.7236 366.86 13.599 366.895 13.4921C366.93 13.3853 366.971 13.2726 367.019 13.1539L370.411 5.16126H370.8L367.337 13.3319C367.219 13.6049 367.13 13.8541 367.072 14.0796C367.024 14.3169 367.001 14.578 367.001 14.8628V15.2188C367.001 15.741 366.895 16.192 366.683 16.5717C366.483 16.9634 366.194 17.266 365.817 17.4796C365.452 17.6932 365.022 17.8 364.527 17.8Z" fill="var(--fill-0, #C21F1F)"/>
<path d="M0.8 14.0618V1.60105H1.36545L6.94923 13.7414L12.5153 1.60105H13.0631V14.0618H12.7097V1.99267L7.16127 14.0618H6.70185L1.1534 1.99267V14.0618H0.8Z" stroke="var(--stroke-0, #C21F1F)" stroke-width="1.6" mask="url(#path-1-outside-1_0_165)"/>
<path d="M26.3446 14.2398C25.5082 14.2398 24.7425 14.038 24.0475 13.6346C23.3525 13.2192 22.8047 12.6614 22.4042 11.9613C22.0036 11.2492 21.8034 10.466 21.8034 9.61152C21.8034 8.75707 22.0036 7.97976 22.4042 7.27958C22.8047 6.56754 23.3525 6.00977 24.0475 5.60628C24.7425 5.19093 25.5082 4.98325 26.3446 4.98325C27.181 4.98325 27.9467 5.19093 28.6418 5.60628C29.3368 6.00977 29.8787 6.56754 30.2674 7.27958C30.6679 7.97976 30.8682 8.75707 30.8682 9.61152C30.8682 9.63525 30.8682 9.66492 30.8682 9.70052C30.8682 9.73613 30.8682 9.76579 30.8682 9.78953H22.1568C22.1803 10.5609 22.3806 11.2611 22.7576 11.8901C23.1345 12.5072 23.6352 12.9937 24.2595 13.3497C24.8839 13.7058 25.5789 13.8838 26.3446 13.8838C27.2517 13.8838 28.0469 13.6702 28.7301 13.2429C29.4251 12.8038 29.8963 12.2283 30.1437 11.5162H30.5148C30.3499 12.0621 30.0613 12.5428 29.649 12.9581C29.2484 13.3616 28.7596 13.6761 28.1823 13.9016C27.6169 14.1271 27.0043 14.2398 26.3446 14.2398ZM30.5148 9.43351C30.4912 8.66213 30.291 7.96789 29.914 7.35079C29.5488 6.72182 29.0482 6.22932 28.412 5.8733C27.7877 5.51728 27.0986 5.33927 26.3446 5.33927C25.5789 5.33927 24.8839 5.51728 24.2595 5.8733C23.6352 6.22932 23.1345 6.72182 22.7576 7.35079C22.3806 7.96789 22.1803 8.66213 22.1568 9.43351H30.5148Z" stroke="var(--stroke-0, #C21F1F)" stroke-width="1.6" mask="url(#path-1-outside-1_0_165)"/>
<path d="M42.4097 14.2398C41.5969 14.2398 40.8548 14.038 40.1833 13.6346C39.5118 13.2192 38.9817 12.6614 38.593 11.9613C38.216 11.2492 38.0275 10.466 38.0275 9.61152C38.0275 8.75707 38.216 7.97976 38.593 7.27958C38.9817 6.56754 39.5118 6.00977 40.1833 5.60628C40.8548 5.19093 41.5969 4.98325 42.4097 4.98325C43.3757 4.98325 44.218 5.24433 44.9366 5.76649C45.6669 6.28866 46.1912 6.9829 46.5092 7.84922V1.42304H46.8626V14.0618H46.5092V11.3738C46.1912 12.2401 45.6669 12.9344 44.9366 13.4565C44.218 13.9787 43.3757 14.2398 42.4097 14.2398ZM42.4451 13.8838C43.199 13.8838 43.8823 13.6998 44.4948 13.3319C45.1192 12.9522 45.608 12.436 45.9614 11.7832C46.3266 11.1305 46.5092 10.4066 46.5092 9.61152C46.5092 8.81641 46.3266 8.0925 45.9614 7.43979C45.608 6.78709 45.1192 6.27679 44.4948 5.9089C43.8823 5.52915 43.199 5.33927 42.4451 5.33927C41.6911 5.33927 41.002 5.52915 40.3777 5.9089C39.7651 6.27679 39.2762 6.78709 38.911 7.43979C38.5576 8.0925 38.3809 8.81641 38.3809 9.61152C38.3809 10.4066 38.5576 11.1305 38.911 11.7832C39.2762 12.436 39.7651 12.9522 40.3777 13.3319C41.002 13.6998 41.6911 13.8838 42.4451 13.8838Z" stroke="var(--stroke-0, #C21F1F)" stroke-width="1.6" mask="url(#path-1-outside-1_0_165)"/>
<path d="M56.0518 14.0618V5.16126H56.4052V14.0618H56.0518ZM56.0518 2.22408L55.9635 0.8H56.4936L56.4052 2.22408H56.0518Z" stroke="var(--stroke-0, #C21F1F)" stroke-width="1.6" mask="url(#path-1-outside-1_0_165)"/>
<path d="M67.5416 14.2754C66.6227 14.2754 65.9218 14.0677 65.4388 13.6524C64.9559 13.237 64.7144 12.6792 64.7144 11.9791C64.7144 11.3026 64.9441 10.7745 65.4035 10.3948C65.8747 10.0031 66.4402 9.73613 67.0998 9.59372C67.7595 9.43944 68.5135 9.33264 69.3616 9.2733C70.1862 9.22583 70.8106 9.14276 71.2347 9.02408C71.6705 8.90541 71.8885 8.69773 71.8885 8.40105C71.8885 7.49913 71.5881 6.76335 70.9873 6.19372C70.3983 5.62408 69.6326 5.33927 68.6902 5.33927C67.7713 5.33927 67.0115 5.60035 66.4107 6.12251C65.8217 6.64468 65.4447 7.36859 65.2798 8.29424H64.9264C65.0324 7.6178 65.2504 7.03037 65.5802 6.53194C65.9218 6.03351 66.3577 5.65375 66.8878 5.39267C67.4179 5.11972 68.0187 4.98325 68.6902 4.98325C69.397 4.98325 70.0154 5.13159 70.5455 5.42827C71.0874 5.71309 71.5056 6.12251 71.8001 6.65655C72.0946 7.19058 72.2419 7.80768 72.2419 8.50785V13.7058H73.6555V14.0618H71.9061V11.4806C71.5998 12.3232 71.0462 12.9997 70.2451 13.5099C69.4441 14.0202 68.5429 14.2754 67.5416 14.2754ZM67.5416 13.9194C68.3662 13.9194 69.1084 13.7414 69.768 13.3853C70.4277 13.0293 70.9461 12.5487 71.323 11.9435C71.7 11.3382 71.8885 10.6736 71.8885 9.94974L71.9061 9.05969C71.7177 9.21396 71.4408 9.33264 71.0756 9.41571C70.7105 9.49878 70.2275 9.55812 69.6267 9.59372C69.5913 9.59372 69.5501 9.59965 69.503 9.61152C69.4676 9.61152 69.4264 9.61152 69.3793 9.61152C67.8714 9.71832 66.7759 9.96161 66.0926 10.3414C65.4094 10.7093 65.0678 11.2551 65.0678 11.9791C65.0678 12.5962 65.2857 13.0768 65.7216 13.4209C66.1692 13.7532 66.7759 13.9194 67.5416 13.9194Z" stroke="var(--stroke-0, #C21F1F)" stroke-width="1.6" mask="url(#path-1-outside-1_0_165)"/>
<path d="M91.8637 14.0618V1.60105H94.9913C96.3813 1.60105 97.471 1.92147 98.2603 2.5623C99.0613 3.19127 99.4618 4.05759 99.4618 5.16126C99.4618 6.26492 99.0613 7.13717 98.2603 7.77801C97.471 8.40698 96.3813 8.72147 94.9913 8.72147H92.2171V14.0618H91.8637ZM94.9913 8.36545C96.2871 8.36545 97.2943 8.08063 98.0129 7.511C98.7433 6.94136 99.1084 6.15812 99.1084 5.16126C99.1084 4.1644 98.7433 3.38115 98.0129 2.81152C97.2943 2.24189 96.2871 1.95707 94.9913 1.95707H92.2171V8.36545H94.9913Z" stroke="var(--stroke-0, #C21F1F)" stroke-width="1.6" mask="url(#path-1-outside-1_0_165)"/>
<path d="M107.592 14.0618V5.16126H107.946V7.72461C108.217 6.90576 108.652 6.24712 109.253 5.74869C109.854 5.23839 110.537 4.98325 111.303 4.98325C111.916 4.98325 112.44 5.10785 112.876 5.35707C113.311 5.60628 113.641 5.97417 113.865 6.46073C114.101 6.93543 114.219 7.511 114.219 8.18744V8.54346H113.865V8.18744C113.865 7.27365 113.641 6.57347 113.194 6.08691C112.758 5.58848 112.128 5.33927 111.303 5.33927C110.69 5.33927 110.125 5.52321 109.607 5.8911C109.1 6.25899 108.694 6.75742 108.387 7.38639C108.093 8.00349 107.946 8.68586 107.946 9.43351V14.0618H107.592Z" stroke="var(--stroke-0, #C21F1F)" stroke-width="1.6" mask="url(#path-1-outside-1_0_165)"/>
<path d="M125.437 14.2398C124.589 14.2398 123.811 14.038 123.105 13.6346C122.41 13.2192 121.856 12.6614 121.444 11.9613C121.043 11.2492 120.843 10.466 120.843 9.61152C120.843 8.75707 121.043 7.97976 121.444 7.27958C121.856 6.56754 122.41 6.00977 123.105 5.60628C123.811 5.19093 124.589 4.98325 125.437 4.98325C126.285 4.98325 127.057 5.19093 127.752 5.60628C128.459 6.00977 129.012 6.56754 129.413 7.27958C129.825 7.97976 130.031 8.75707 130.031 9.61152C130.031 10.466 129.825 11.2492 129.413 11.9613C129.012 12.6614 128.459 13.2192 127.752 13.6346C127.057 14.038 126.285 14.2398 125.437 14.2398ZM125.437 13.8838C126.226 13.8838 126.945 13.6998 127.593 13.3319C128.241 12.9522 128.747 12.436 129.112 11.7832C129.489 11.1305 129.678 10.4066 129.678 9.61152C129.678 8.81641 129.489 8.0925 129.112 7.43979C128.747 6.78709 128.241 6.27679 127.593 5.9089C126.945 5.52915 126.226 5.33927 125.437 5.33927C124.648 5.33927 123.929 5.52915 123.281 5.9089C122.633 6.27679 122.121 6.78709 121.744 7.43979C121.379 8.0925 121.196 8.81641 121.196 9.61152C121.196 10.4066 121.379 11.1305 121.744 11.7832C122.121 12.436 122.633 12.9522 123.281 13.3319C123.929 13.6998 124.648 13.8838 125.437 13.8838Z" stroke="var(--stroke-0, #C21F1F)" stroke-width="1.6" mask="url(#path-1-outside-1_0_165)"/>
<path d="M141.656 14.2398C140.843 14.2398 140.101 14.038 139.43 13.6346C138.758 13.2192 138.228 12.6614 137.839 11.9613C137.462 11.2492 137.274 10.466 137.274 9.61152C137.274 8.75707 137.462 7.97976 137.839 7.27958C138.228 6.56754 138.758 6.00977 139.43 5.60628C140.101 5.19093 140.843 4.98325 141.656 4.98325C142.622 4.98325 143.464 5.24433 144.183 5.76649C144.913 6.28866 145.438 6.9829 145.756 7.84922V1.42304H146.109V14.0618H145.756V11.3738C145.438 12.2401 144.913 12.9344 144.183 13.4565C143.464 13.9787 142.622 14.2398 141.656 14.2398ZM141.692 13.8838C142.445 13.8838 143.129 13.6998 143.741 13.3319C144.366 12.9522 144.855 12.436 145.208 11.7832C145.573 11.1305 145.756 10.4066 145.756 9.61152C145.756 8.81641 145.573 8.0925 145.208 7.43979C144.855 6.78709 144.366 6.27679 143.741 5.9089C143.129 5.52915 142.445 5.33927 141.692 5.33927C140.938 5.33927 140.248 5.52915 139.624 5.9089C139.012 6.27679 138.523 6.78709 138.158 7.43979C137.804 8.0925 137.627 8.81641 137.627 9.61152C137.627 10.4066 137.804 11.1305 138.158 11.7832C138.523 12.436 139.012 12.9522 139.624 13.3319C140.248 13.6998 140.938 13.8838 141.692 13.8838Z" stroke="var(--stroke-0, #C21F1F)" stroke-width="1.6" mask="url(#path-1-outside-1_0_165)"/>
<path d="M159.08 14.2398C158.255 14.2398 157.542 14.0677 156.942 13.7236C156.353 13.3675 155.899 12.8572 155.581 12.1927C155.275 11.5162 155.122 10.7152 155.122 9.78953V5.16126H155.475V9.78953C155.475 11.0593 155.793 12.0621 156.429 12.7979C157.077 13.5218 157.961 13.8838 159.08 13.8838C159.751 13.8838 160.364 13.7058 160.917 13.3497C161.483 12.9937 161.925 12.5012 162.243 11.8723C162.561 11.2433 162.72 10.549 162.72 9.78953V5.16126H163.073V14.0618H162.72V11.5518C162.425 12.3707 161.954 13.0234 161.306 13.5099C160.658 13.9965 159.916 14.2398 159.08 14.2398Z" stroke="var(--stroke-0, #C21F1F)" stroke-width="1.6" mask="url(#path-1-outside-1_0_165)"/>
<path d="M175.816 14.2398C174.968 14.2398 174.196 14.038 173.501 13.6346C172.818 13.2311 172.276 12.6792 171.876 11.9791C171.487 11.267 171.293 10.4778 171.293 9.61152C171.293 8.7452 171.487 7.96196 171.876 7.26178C172.276 6.54974 172.818 5.99197 173.501 5.58848C174.196 5.18499 174.968 4.98325 175.816 4.98325C176.582 4.98325 177.259 5.11972 177.848 5.39267C178.449 5.66562 178.944 6.05724 179.333 6.56754C179.721 7.07784 179.98 7.68307 180.11 8.38325H179.757C179.556 7.43386 179.109 6.69215 178.414 6.15812C177.719 5.61222 176.853 5.33927 175.816 5.33927C175.039 5.33927 174.332 5.52915 173.696 5.9089C173.06 6.27679 172.559 6.78709 172.194 7.43979C171.829 8.0925 171.646 8.81641 171.646 9.61152C171.646 10.4066 171.829 11.1305 172.194 11.7832C172.559 12.436 173.06 12.9522 173.696 13.3319C174.332 13.6998 175.039 13.8838 175.816 13.8838C176.853 13.8838 177.719 13.6168 178.414 13.0827C179.109 12.5368 179.556 11.7892 179.757 10.8398H180.11C179.98 11.54 179.721 12.1452 179.333 12.6555C178.944 13.1658 178.449 13.5574 177.848 13.8304C177.259 14.1033 176.582 14.2398 175.816 14.2398Z" stroke="var(--stroke-0, #C21F1F)" stroke-width="1.6" mask="url(#path-1-outside-1_0_165)"/>
<path d="M191.736 14.2398C190.735 14.2398 189.993 14.0024 189.51 13.5277C189.027 13.0412 188.785 12.3291 188.785 11.3916V5.51728H186.488V5.16126H188.609C188.668 5.16126 188.709 5.14346 188.732 5.10785C188.768 5.07225 188.785 5.03072 188.785 4.98325V3.02513H189.174L189.139 5.16126H193.556V5.51728H189.139V11.3916C189.139 12.2461 189.351 12.875 189.775 13.2785C190.199 13.682 190.841 13.8838 191.701 13.8838C192.243 13.8838 192.861 13.771 193.556 13.5456V13.8838C193.297 13.9787 192.991 14.0618 192.638 14.133C192.284 14.2042 191.984 14.2398 191.736 14.2398Z" stroke="var(--stroke-0, #C21F1F)" stroke-width="1.6" mask="url(#path-1-outside-1_0_165)"/>
<path d="M201.503 14.0618V5.16126H201.857V14.0618H201.503ZM201.503 2.22408L201.415 0.8H201.945L201.857 2.22408H201.503Z" stroke="var(--stroke-0, #C21F1F)" stroke-width="1.6" mask="url(#path-1-outside-1_0_165)"/>
<path d="M214.672 14.2398C213.823 14.2398 213.046 14.038 212.339 13.6346C211.644 13.2192 211.09 12.6614 210.678 11.9613C210.278 11.2492 210.077 10.466 210.077 9.61152C210.077 8.75707 210.278 7.97976 210.678 7.27958C211.09 6.56754 211.644 6.00977 212.339 5.60628C213.046 5.19093 213.823 4.98325 214.672 4.98325C215.52 4.98325 216.291 5.19093 216.986 5.60628C217.693 6.00977 218.247 6.56754 218.647 7.27958C219.06 7.97976 219.266 8.75707 219.266 9.61152C219.266 10.466 219.06 11.2492 218.647 11.9613C218.247 12.6614 217.693 13.2192 216.986 13.6346C216.291 14.038 215.52 14.2398 214.672 14.2398ZM214.672 13.8838C215.461 13.8838 216.179 13.6998 216.827 13.3319C217.475 12.9522 217.982 12.436 218.347 11.7832C218.724 11.1305 218.912 10.4066 218.912 9.61152C218.912 8.81641 218.724 8.0925 218.347 7.43979C217.982 6.78709 217.475 6.27679 216.827 5.9089C216.179 5.52915 215.461 5.33927 214.672 5.33927C213.882 5.33927 213.164 5.52915 212.516 5.9089C211.868 6.27679 211.355 6.78709 210.979 7.43979C210.613 8.0925 210.431 8.81641 210.431 9.61152C210.431 10.4066 210.613 11.1305 210.979 11.7832C211.355 12.436 211.868 12.9522 212.516 13.3319C213.164 13.6998 213.882 13.8838 214.672 13.8838Z" stroke="var(--stroke-0, #C21F1F)" stroke-width="1.6" mask="url(#path-1-outside-1_0_165)"/>
<path d="M227.48 14.0618V5.16126H227.834V7.6712C228.128 6.85236 228.6 6.19965 229.247 5.71309C229.895 5.22653 230.637 4.98325 231.474 4.98325C232.298 4.98325 233.005 5.16126 233.594 5.51728C234.195 5.86143 234.649 6.37173 234.955 7.04817C235.273 7.71274 235.432 8.50785 235.432 9.43351V14.0618H235.079V9.43351C235.079 8.1637 234.755 7.16684 234.107 6.44293C233.471 5.70716 232.593 5.33927 231.474 5.33927C230.802 5.33927 230.184 5.51728 229.618 5.8733C229.065 6.22932 228.629 6.72182 228.311 7.35079C227.993 7.97976 227.834 8.674 227.834 9.43351V14.0618H227.48Z" stroke="var(--stroke-0, #C21F1F)" stroke-width="1.6" mask="url(#path-1-outside-1_0_165)"/>
<path d="M259.784 14.3288C258.571 14.3288 257.481 14.0558 256.515 13.5099C255.561 12.9522 254.813 12.1808 254.271 11.1958C253.729 10.2108 253.458 9.08936 253.458 7.83141C253.458 6.57347 253.729 5.45201 254.271 4.46702C254.813 3.48202 255.561 2.71658 256.515 2.17068C257.481 1.61291 258.571 1.33403 259.784 1.33403C260.833 1.33403 261.775 1.54171 262.612 1.95707C263.448 2.36056 264.131 2.93613 264.661 3.68377C265.203 4.43141 265.551 5.3096 265.704 6.31833H265.35C265.197 5.3808 264.867 4.56789 264.361 3.87958C263.866 3.17941 263.224 2.63944 262.435 2.25969C261.657 1.87993 260.774 1.69005 259.784 1.69005C258.63 1.69005 257.599 1.95113 256.692 2.4733C255.785 2.9836 255.078 3.7075 254.572 4.64503C254.065 5.57068 253.812 6.63281 253.812 7.83141C253.812 9.01815 254.065 10.0803 254.572 11.0178C255.078 11.9435 255.785 12.6674 256.692 13.1895C257.599 13.7117 258.63 13.9728 259.784 13.9728C260.774 13.9728 261.657 13.7829 262.435 13.4031C263.224 13.0234 263.866 12.4894 264.361 11.801C264.867 11.1009 265.197 10.282 265.35 9.3445H265.704C265.551 10.3532 265.203 11.2314 264.661 11.9791C264.131 12.7267 263.448 13.3082 262.612 13.7236C261.775 14.1271 260.833 14.3288 259.784 14.3288Z" stroke="var(--stroke-0, #C21F1F)" stroke-width="1.6" mask="url(#path-1-outside-1_0_165)"/>
<path d="M277.722 14.2398C276.874 14.2398 276.096 14.038 275.389 13.6346C274.694 13.2192 274.141 12.6614 273.728 11.9613C273.328 11.2492 273.127 10.466 273.127 9.61152C273.127 8.75707 273.328 7.97976 273.728 7.27958C274.141 6.56754 274.694 6.00977 275.389 5.60628C276.096 5.19093 276.874 4.98325 277.722 4.98325C278.57 4.98325 279.342 5.19093 280.037 5.60628C280.743 6.00977 281.297 6.56754 281.698 7.27958C282.11 7.97976 282.316 8.75707 282.316 9.61152C282.316 10.466 282.11 11.2492 281.698 11.9613C281.297 12.6614 280.743 13.2192 280.037 13.6346C279.342 14.038 278.57 14.2398 277.722 14.2398ZM277.722 13.8838C278.511 13.8838 279.23 13.6998 279.878 13.3319C280.525 12.9522 281.032 12.436 281.397 11.7832C281.774 11.1305 281.963 10.4066 281.963 9.61152C281.963 8.81641 281.774 8.0925 281.397 7.43979C281.032 6.78709 280.525 6.27679 279.878 5.9089C279.23 5.52915 278.511 5.33927 277.722 5.33927C276.932 5.33927 276.214 5.52915 275.566 5.9089C274.918 6.27679 274.406 6.78709 274.029 7.43979C273.663 8.0925 273.481 8.81641 273.481 9.61152C273.481 10.4066 273.663 11.1305 274.029 11.7832C274.406 12.436 274.918 12.9522 275.566 13.3319C276.214 13.6998 276.932 13.8838 277.722 13.8838Z" stroke="var(--stroke-0, #C21F1F)" stroke-width="1.6" mask="url(#path-1-outside-1_0_165)"/>
<path d="M290.531 14.0618V5.16126H290.884V7.6178C291.155 6.82269 291.597 6.18778 292.209 5.71309C292.822 5.22653 293.511 4.98325 294.277 4.98325C295.184 4.98325 295.926 5.23246 296.503 5.73089C297.092 6.22932 297.481 6.93543 297.669 7.84922C297.928 6.9829 298.37 6.28866 298.995 5.76649C299.631 5.24433 300.355 4.98325 301.168 4.98325C301.898 4.98325 302.523 5.14939 303.041 5.48168C303.571 5.80209 303.972 6.27086 304.243 6.88796C304.525 7.49319 304.667 8.22304 304.667 9.07749V14.0618H304.313V9.07749C304.313 7.91449 304.031 7.0007 303.465 6.33613C302.911 5.67155 302.146 5.33927 301.168 5.33927C300.544 5.33927 299.972 5.51728 299.454 5.8733C298.936 6.22932 298.523 6.72182 298.217 7.35079C297.923 7.97976 297.775 8.674 297.775 9.43351V14.0618H297.422V9.07749C297.422 7.91449 297.139 7.0007 296.574 6.33613C296.02 5.67155 295.254 5.33927 294.277 5.33927C293.652 5.33927 293.081 5.51728 292.563 5.8733C292.044 6.22932 291.632 6.72182 291.326 7.35079C291.031 7.97976 290.884 8.674 290.884 9.43351V14.0618H290.531Z" stroke="var(--stroke-0, #C21F1F)" stroke-width="1.6" mask="url(#path-1-outside-1_0_165)"/>
<path d="M313.674 17.622V5.16126H314.028V7.84922C314.346 6.9829 314.864 6.28866 315.583 5.76649C316.313 5.24433 317.161 4.98325 318.127 4.98325C318.94 4.98325 319.682 5.19093 320.354 5.60628C321.025 6.00977 321.549 6.56754 321.926 7.27958C322.315 7.97976 322.51 8.75707 322.51 9.61152C322.51 10.466 322.315 11.2492 321.926 11.9613C321.549 12.6614 321.025 13.2192 320.354 13.6346C319.682 14.038 318.94 14.2398 318.127 14.2398C317.161 14.2398 316.313 13.9787 315.583 13.4565C314.864 12.9344 314.346 12.2401 314.028 11.3738V17.622H313.674ZM318.092 13.8838C318.846 13.8838 319.529 13.6998 320.142 13.3319C320.766 12.9522 321.255 12.436 321.608 11.7832C321.974 11.1305 322.156 10.4066 322.156 9.61152C322.156 8.81641 321.974 8.0925 321.608 7.43979C321.255 6.78709 320.766 6.27679 320.142 5.9089C319.529 5.52915 318.846 5.33927 318.092 5.33927C317.338 5.33927 316.649 5.52915 316.025 5.9089C315.412 6.27679 314.923 6.78709 314.558 7.43979C314.205 8.0925 314.028 8.81641 314.028 9.61152C314.028 10.4066 314.205 11.1305 314.558 11.7832C314.923 12.436 315.412 12.9522 316.025 13.3319C316.649 13.6998 317.338 13.8838 318.092 13.8838Z" stroke="var(--stroke-0, #C21F1F)" stroke-width="1.6" mask="url(#path-1-outside-1_0_165)"/>
<path d="M332.671 14.2754C331.752 14.2754 331.051 14.0677 330.568 13.6524C330.085 13.237 329.843 12.6792 329.843 11.9791C329.843 11.3026 330.073 10.7745 330.532 10.3948C331.004 10.0031 331.569 9.73613 332.229 9.59372C332.888 9.43944 333.642 9.33264 334.491 9.2733C335.315 9.22583 335.94 9.14276 336.364 9.02408C336.799 8.90541 337.017 8.69773 337.017 8.40105C337.017 7.49913 336.717 6.76335 336.116 6.19372C335.527 5.62408 334.762 5.33927 333.819 5.33927C332.9 5.33927 332.14 5.60035 331.54 6.12251C330.951 6.64468 330.574 7.36859 330.409 8.29424H330.055C330.161 7.6178 330.379 7.03037 330.709 6.53194C331.051 6.03351 331.487 5.65375 332.017 5.39267C332.547 5.11972 333.148 4.98325 333.819 4.98325C334.526 4.98325 335.144 5.13159 335.674 5.42827C336.216 5.71309 336.635 6.12251 336.929 6.65655C337.224 7.19058 337.371 7.80768 337.371 8.50785V13.7058H338.784V14.0618H337.035V11.4806C336.729 12.3232 336.175 12.9997 335.374 13.5099C334.573 14.0202 333.672 14.2754 332.671 14.2754ZM332.671 13.9194C333.495 13.9194 334.237 13.7414 334.897 13.3853C335.557 13.0293 336.075 12.5487 336.452 11.9435C336.829 11.3382 337.017 10.6736 337.017 9.94974L337.035 9.05969C336.847 9.21396 336.57 9.33264 336.205 9.41571C335.839 9.49878 335.356 9.55812 334.756 9.59372C334.72 9.59372 334.679 9.59965 334.632 9.61152C334.597 9.61152 334.555 9.61152 334.508 9.61152C333 9.71832 331.905 9.96161 331.222 10.3414C330.538 10.7093 330.197 11.2551 330.197 11.9791C330.197 12.5962 330.415 13.0768 330.851 13.4209C331.298 13.7532 331.905 13.9194 332.671 13.9194Z" stroke="var(--stroke-0, #C21F1F)" stroke-width="1.6" mask="url(#path-1-outside-1_0_165)"/>
<path d="M346.744 14.0618V5.16126H347.097V7.6712C347.392 6.85236 347.863 6.19965 348.511 5.71309C349.159 5.22653 349.901 4.98325 350.737 4.98325C351.562 4.98325 352.269 5.16126 352.858 5.51728C353.459 5.86143 353.912 6.37173 354.218 7.04817C354.536 7.71274 354.696 8.50785 354.696 9.43351V14.0618H354.342V9.43351C354.342 8.1637 354.018 7.16684 353.37 6.44293C352.734 5.70716 351.856 5.33927 350.737 5.33927C350.066 5.33927 349.447 5.51728 348.882 5.8733C348.328 6.22932 347.892 6.72182 347.574 7.35079C347.256 7.97976 347.097 8.674 347.097 9.43351V14.0618H346.744Z" stroke="var(--stroke-0, #C21F1F)" stroke-width="1.6" mask="url(#path-1-outside-1_0_165)"/>
<path d="M364.527 17.8C364.032 17.8 363.596 17.6932 363.219 17.4796C362.854 17.266 362.566 16.9634 362.354 16.5717C362.153 16.192 362.053 15.741 362.053 15.2188V14.7382H362.407V15.2188C362.407 15.6698 362.495 16.0614 362.672 16.3937C362.848 16.726 363.096 16.9812 363.414 17.1592C363.732 17.349 364.103 17.444 364.527 17.444C365.175 17.444 365.687 17.2422 366.064 16.8387C366.453 16.4353 366.647 15.8953 366.647 15.2188V14.8984C366.647 14.5899 366.618 14.3169 366.559 14.0796C366.512 13.8422 366.418 13.599 366.276 13.3497L361.859 5.16126H362.265L366.594 13.1895C366.642 13.2845 366.683 13.3913 366.718 13.5099C366.765 13.6168 366.795 13.7354 366.807 13.866C366.83 13.7236 366.86 13.599 366.895 13.4921C366.93 13.3853 366.971 13.2726 367.019 13.1539L370.411 5.16126H370.8L367.337 13.3319C367.219 13.6049 367.13 13.8541 367.072 14.0796C367.024 14.3169 367.001 14.578 367.001 14.8628V15.2188C367.001 15.741 366.895 16.192 366.683 16.5717C366.483 16.9634 366.194 17.266 365.817 17.4796C365.452 17.6932 365.022 17.8 364.527 17.8Z" stroke="var(--stroke-0, #C21F1F)" stroke-width="1.6" mask="url(#path-1-outside-1_0_165)"/>
</g>
</svg>
