<svg preserveAspectRatio="none" width="100%" height="100%" overflow="visible" style="display: block;" viewBox="0 0 126 153" fill="none" xmlns="http://www.w3.org/2000/svg">
<path id="Lucas" d="M63 146.5C51.7 146.5 41.7638 144.02 33.1914 139.059C24.7489 133.969 18.1897 126.854 13.5138 117.717C8.83793 108.579 6.5 97.8753 6.5 85.6049V6.5H10.3965V85.6049C10.3965 97.0921 12.5396 107.143 16.8259 115.759C21.1121 124.374 27.2167 131.031 35.1397 135.731C43.0626 140.3 52.3494 142.584 63 142.584C73.6506 142.584 82.9374 140.3 90.8604 135.731C98.7833 131.031 104.888 124.374 109.174 115.759C113.46 107.143 115.603 97.0921 115.603 85.6049V6.5H119.5V85.6049C119.5 97.8753 117.162 108.579 112.486 117.717C107.81 126.854 101.186 133.969 92.6138 139.059C84.1713 144.02 74.3 146.5 63 146.5Z" fill="var(--fill-0, #C21F1F)" stroke="var(--stroke-0, #C21F1F)" stroke-width="13"/>
</svg>
