<svg width="1440" height="714" viewBox="0 0 1440 714" fill="none" xmlns="http://www.w3.org/2000/svg">
<path d="M346.065 328.659L319.691 243.699H332.031L356.832 326.11L357.921 328.659H346.065ZM346.065 328.659L346.67 326.11L370.261 243.699H382.722V244.67L357.921 328.659H346.065ZM293.801 328.659L269 244.67V243.699H281.461L305.052 326.11L305.657 328.659H293.801ZM293.801 328.659L294.769 326.11L319.691 243.699H332.031L305.657 328.659H293.801Z" fill="#F4F3EF"/>
<path d="M412.343 330.358C406.294 330.358 400.931 329.023 396.253 326.353C391.655 323.602 388.066 319.799 385.485 314.944C382.904 310.089 381.614 304.465 381.614 298.073C381.614 291.681 382.864 286.098 385.364 281.324C387.945 276.469 391.494 272.707 396.011 270.037C400.608 267.286 405.891 265.91 411.859 265.91C417.747 265.91 422.868 267.286 427.224 270.037C431.66 272.788 435.087 276.672 437.507 281.688C440.007 286.624 441.257 292.409 441.257 299.044V300.865L439.443 302.685H387.784V292.005H435.45L429.28 294.432C429.119 290.791 428.232 287.676 426.619 285.087C425.086 282.497 423.03 280.515 420.449 279.139C417.949 277.683 415.126 276.955 411.98 276.955C408.593 276.955 405.488 277.764 402.665 279.382C399.842 281 397.624 283.266 396.011 286.179C394.478 289.011 393.712 292.328 393.712 296.131V299.772C393.712 303.494 394.519 306.852 396.132 309.846C397.745 312.759 399.963 315.065 402.786 316.764C405.608 318.464 408.794 319.313 412.343 319.313C415.731 319.313 418.715 318.464 421.296 316.764C423.957 314.984 426.054 312.638 427.587 309.725H429.038L438.838 313.973C436.499 319.07 433.031 323.076 428.433 325.988C423.836 328.901 418.473 330.358 412.343 330.358Z" fill="#F4F3EF"/>
<path d="M478.124 328.659V317.007H500.869C506.514 317.007 511.313 315.712 515.265 313.123C519.217 310.534 522.242 306.933 524.339 302.321C526.517 297.709 527.605 292.328 527.605 286.179C527.605 279.949 526.517 274.527 524.339 269.915C522.242 265.303 519.217 261.743 515.265 259.235C511.313 256.645 506.514 255.351 500.869 255.351H478.124V243.699H500.869C508.934 243.699 515.87 245.52 521.677 249.161C527.484 252.721 531.961 257.697 535.106 264.089C538.252 270.401 539.824 277.764 539.824 286.179C539.824 294.594 538.252 301.998 535.106 308.39C531.961 314.701 527.484 319.677 521.677 323.318C515.87 326.879 508.934 328.659 500.869 328.659H478.124ZM471.228 328.659V243.699H483.327V328.659H471.228Z" fill="#F4F3EF"/>
<path d="M574.722 330.358C568.673 330.358 563.35 328.982 558.752 326.231C554.155 323.48 550.526 319.718 547.864 314.944C545.283 310.089 543.993 304.465 543.993 298.073C543.993 291.762 545.283 286.179 547.864 281.324C550.526 276.469 554.155 272.707 558.752 270.037C563.35 267.286 568.673 265.91 574.722 265.91C580.771 265.91 586.094 267.286 590.691 270.037C595.288 272.707 598.877 276.469 601.458 281.324C604.12 286.179 605.451 291.762 605.451 298.073C605.451 304.465 604.12 310.089 601.458 314.944C598.877 319.799 595.288 323.602 590.691 326.353C586.094 329.023 580.771 330.358 574.722 330.358ZM574.722 319.07C578.432 319.07 581.658 318.221 584.4 316.522C587.223 314.822 589.401 312.395 590.933 309.239C592.546 306.084 593.353 302.402 593.353 298.195C593.353 293.825 592.546 290.103 590.933 287.029C589.401 283.873 587.223 281.445 584.4 279.746C581.658 277.966 578.432 277.076 574.722 277.076C571.012 277.076 567.745 277.966 564.922 279.746C562.18 281.445 560.002 283.873 558.389 287.029C556.857 290.103 556.091 293.785 556.091 298.073C556.091 302.362 556.857 306.084 558.389 309.239C560.002 312.395 562.18 314.822 564.922 316.522C567.745 318.221 571.012 319.07 574.722 319.07Z" fill="#F4F3EF"/>
<path d="M690.788 328.659L635.379 246.976V243.699H647.477L703.007 325.382V328.659H690.788ZM635.379 328.659V243.699H647.477V328.659H635.379ZM690.788 328.659V243.699H703.007V328.659H690.788Z" fill="#F4F3EF"/>
<path d="M741.472 330.358C735.423 330.358 730.099 328.982 725.502 326.231C720.905 323.48 717.276 319.718 714.614 314.944C712.033 310.089 710.743 304.465 710.743 298.073C710.743 291.762 712.033 286.179 714.614 281.324C717.276 276.469 720.905 272.707 725.502 270.037C730.099 267.286 735.423 265.91 741.472 265.91C747.521 265.91 752.844 267.286 757.441 270.037C762.038 272.707 765.627 276.469 768.208 281.324C770.87 286.179 772.201 291.762 772.201 298.073C772.201 304.465 770.87 310.089 768.208 314.944C765.627 319.799 762.038 323.602 757.441 326.353C752.844 329.023 747.521 330.358 741.472 330.358ZM741.472 319.07C745.182 319.07 748.408 318.221 751.15 316.522C753.973 314.822 756.151 312.395 757.683 309.239C759.296 306.084 760.103 302.402 760.103 298.195C760.103 293.825 759.296 290.103 757.683 287.029C756.151 283.873 753.973 281.445 751.15 279.746C748.408 277.966 745.182 277.076 741.472 277.076C737.762 277.076 734.495 277.966 731.672 279.746C728.93 281.445 726.752 283.873 725.139 287.029C723.607 290.103 722.841 293.785 722.841 298.073C722.841 302.362 723.607 306.084 725.139 309.239C726.752 312.395 728.93 314.822 731.672 316.522C734.495 318.221 737.762 319.07 741.472 319.07Z" fill="#F4F3EF"/>
<path d="M800.202 328.659C794.637 328.659 790.12 326.879 786.652 323.318C783.265 319.758 781.571 314.944 781.571 308.875V251.467H793.669V307.783C793.669 311.1 794.435 313.568 795.968 315.187C797.581 316.724 800.041 317.493 803.348 317.493H810.122L810.727 318.828V328.659H800.202ZM771.167 278.775V267.609H810.727V278.775H771.167Z" fill="#F4F3EF"/>
<path d="M877.143 330.358C869.4 330.358 862.545 328.537 856.576 324.896C850.608 321.174 845.93 315.996 842.542 309.361C839.236 302.726 837.582 294.999 837.582 286.179C837.582 277.278 839.236 269.551 842.542 262.997C845.93 256.362 850.608 251.224 856.576 247.583C862.545 243.861 869.4 242 877.143 242C885.37 242 892.669 244.185 899.04 248.554C905.412 252.923 910.05 259.032 912.953 266.881L902.428 269.915L901.097 269.673C899 264.494 895.854 260.529 891.66 257.778C887.467 255.027 882.708 253.652 877.385 253.652C871.981 253.652 867.182 254.987 862.988 257.657C858.875 260.327 855.649 264.089 853.31 268.944C850.971 273.799 849.801 279.544 849.801 286.179C849.801 292.814 850.971 298.559 853.31 303.414C855.649 308.268 858.875 312.031 862.988 314.701C867.182 317.371 871.981 318.706 877.385 318.706C882.708 318.706 887.467 317.331 891.66 314.58C895.854 311.748 899 307.783 901.097 302.685L902.428 302.443L912.953 305.477C910.05 313.325 905.412 319.434 899.04 323.804C892.669 328.173 885.37 330.358 877.143 330.358Z" fill="#F4F3EF"/>
<path d="M919.254 328.659V267.609H930.747V283.994L927.48 282.902C929.093 278.209 931.835 274.487 935.707 271.736C939.659 268.985 944.176 267.609 949.257 267.609H955.185V278.775H947.321C944.095 278.775 941.272 279.544 938.852 281.081C936.513 282.538 934.658 284.601 933.287 287.271C931.997 289.941 931.352 293.097 931.352 296.738V328.659H919.254Z" fill="#F4F3EF"/>
<path d="M983.078 330.358C977.029 330.358 971.666 329.023 966.988 326.353C962.391 323.602 958.802 319.799 956.221 314.944C953.64 310.089 952.349 304.465 952.349 298.073C952.349 291.681 953.599 286.098 956.1 281.324C958.681 276.469 962.229 272.707 966.746 270.037C971.343 267.286 976.626 265.91 982.594 265.91C988.482 265.91 993.604 267.286 997.959 270.037C1002.39 272.788 1005.82 276.672 1008.24 281.688C1010.74 286.624 1011.99 292.409 1011.99 299.044V300.865L1010.18 302.685H958.519V292.005H1006.19L1000.02 294.432C999.854 290.791 998.967 287.676 997.354 285.087C995.822 282.497 993.765 280.515 991.184 279.139C988.684 277.683 985.861 276.955 982.715 276.955C979.328 276.955 976.223 277.764 973.4 279.382C970.577 281 968.359 283.266 966.746 286.179C965.214 289.011 964.447 292.328 964.447 296.131V299.772C964.447 303.494 965.254 306.852 966.867 309.846C968.48 312.759 970.698 315.065 973.521 316.764C976.344 318.464 979.53 319.313 983.078 319.313C986.466 319.313 989.45 318.464 992.031 316.764C994.692 314.984 996.789 312.638 998.322 309.725H999.774L1009.57 313.973C1007.23 319.07 1003.77 323.076 999.169 325.988C994.571 328.901 989.208 330.358 983.078 330.358Z" fill="#F4F3EF"/>
<path d="M1037.44 330.358C1033.33 330.358 1029.62 329.549 1026.31 327.93C1023.08 326.312 1020.54 324.087 1018.69 321.255C1016.83 318.342 1015.9 315.025 1015.9 311.303C1015.9 305.72 1017.84 301.269 1021.71 297.952C1025.58 294.553 1031.07 292.571 1038.17 292.005L1061.64 290.063V300.501L1040.22 302.2C1036.11 302.524 1033.08 303.414 1031.15 304.87C1029.21 306.326 1028.24 308.309 1028.24 310.817C1028.24 313.245 1029.29 315.267 1031.39 316.886C1033.49 318.423 1036.15 319.192 1039.37 319.192C1042.76 319.192 1045.83 318.383 1048.57 316.764C1051.39 315.146 1053.61 313.002 1055.22 310.332C1056.84 307.581 1057.64 304.627 1057.64 301.472V291.519C1057.64 287.231 1056.27 283.711 1053.53 280.96C1050.87 278.209 1047.32 276.833 1042.88 276.833C1039.17 276.833 1036.07 277.723 1033.57 279.504C1031.15 281.284 1029.54 283.63 1028.73 286.543H1027.4L1016.99 283.63C1018.61 278.209 1021.67 273.88 1026.19 270.643C1030.7 267.407 1036.27 265.789 1042.88 265.789C1051.35 265.789 1057.93 268.297 1062.6 273.314C1067.28 278.249 1069.62 285.208 1069.62 294.189V328.659H1058.49V310.939L1062.85 312.274C1061.88 315.591 1060.14 318.625 1057.64 321.376C1055.22 324.127 1052.28 326.312 1048.81 327.93C1045.34 329.549 1041.55 330.358 1037.44 330.358Z" fill="#F4F3EF"/>
<path d="M1098.49 328.659C1092.93 328.659 1088.41 326.879 1084.94 323.318C1081.56 319.758 1079.86 314.944 1079.86 308.875V251.467H1091.96V307.783C1091.96 311.1 1092.73 313.568 1094.26 315.187C1095.87 316.724 1098.33 317.493 1101.64 317.493H1108.42L1109.02 318.828V328.659H1098.49ZM1069.46 278.775V267.609H1109.02V278.775H1069.46Z" fill="#F4F3EF"/>
<path d="M1141.09 330.358C1135.04 330.358 1129.67 329.023 1125 326.353C1120.4 323.602 1116.81 319.799 1114.23 314.944C1111.65 310.089 1110.36 304.465 1110.36 298.073C1110.36 291.681 1111.61 286.098 1114.11 281.324C1116.69 276.469 1120.24 272.707 1124.75 270.037C1129.35 267.286 1134.63 265.91 1140.6 265.91C1146.49 265.91 1151.61 267.286 1155.97 270.037C1160.4 272.788 1163.83 276.672 1166.25 281.688C1168.75 286.624 1170 292.409 1170 299.044V300.865L1168.19 302.685H1116.53V292.005H1164.19L1158.02 294.432C1157.86 290.791 1156.97 287.676 1155.36 285.087C1153.83 282.497 1151.77 280.515 1149.19 279.139C1146.69 277.683 1143.87 276.955 1140.72 276.955C1137.34 276.955 1134.23 277.764 1131.41 279.382C1128.58 281 1126.37 283.266 1124.75 286.179C1123.22 289.011 1122.45 292.328 1122.45 296.131V299.772C1122.45 303.494 1123.26 306.852 1124.87 309.846C1126.49 312.759 1128.71 315.065 1131.53 316.764C1134.35 318.464 1137.54 319.313 1141.09 319.313C1144.47 319.313 1147.46 318.464 1150.04 316.764C1152.7 314.984 1154.8 312.638 1156.33 309.725H1157.78L1167.58 313.973C1165.24 319.07 1161.77 323.076 1157.18 325.988C1152.58 328.901 1147.22 330.358 1141.09 330.358Z" fill="#F4F3EF"/>
<path d="M457.803 449.192V437.541H480.548C486.194 437.541 490.992 436.246 494.944 433.657C498.896 431.068 501.921 427.467 504.018 422.855C506.196 418.243 507.284 412.862 507.284 406.713C507.284 400.482 506.196 395.061 504.018 390.449C501.921 385.837 498.896 382.277 494.944 379.768C490.992 377.179 486.194 375.884 480.548 375.884H457.803V364.233H480.548C488.613 364.233 495.549 366.053 501.356 369.694C507.163 373.255 511.64 378.231 514.785 384.623C517.931 390.934 519.504 398.298 519.504 406.713C519.504 415.128 517.931 422.531 514.785 428.923C511.64 435.235 507.163 440.211 501.356 443.852C495.549 447.412 488.613 449.192 480.548 449.192H457.803ZM450.908 449.192V364.233H463.006V449.192H450.908Z" fill="#F4F3EF"/>
<path d="M527.059 449.192V388.143H539.157V449.192H527.059ZM533.108 377.948C530.85 377.948 528.954 377.179 527.422 375.642C525.89 374.023 525.123 372.122 525.123 369.937C525.123 367.672 525.89 365.77 527.422 364.233C528.954 362.695 530.85 361.927 533.108 361.927C535.286 361.927 537.141 362.695 538.673 364.233C540.286 365.77 541.093 367.672 541.093 369.937C541.093 372.122 540.286 374.023 538.673 375.642C537.141 377.179 535.286 377.948 533.108 377.948Z" fill="#F4F3EF"/>
<path d="M570.058 450.891C563.525 450.891 558.001 449.354 553.484 446.279C548.967 443.124 545.983 438.795 544.531 433.293L555.541 430.501L556.992 430.865C557.799 433.697 559.452 435.922 561.953 437.541C564.533 439.078 567.518 439.847 570.905 439.847C574.212 439.847 577.035 439.119 579.374 437.662C581.713 436.206 582.882 434.264 582.882 431.836C582.882 429.813 582.197 428.236 580.826 427.103C579.454 425.889 577.398 424.959 574.656 424.311L563.283 421.763C557.557 420.468 553.282 418.364 550.459 415.451C547.637 412.457 546.225 408.857 546.225 404.649C546.225 401.008 547.233 397.852 549.25 395.182C551.266 392.431 554.008 390.287 557.476 388.75C561.025 387.212 565.017 386.444 569.453 386.444C575.744 386.444 581.067 388.021 585.423 391.177C589.778 394.252 592.641 398.621 594.012 404.285L583.366 406.591L582.035 406.348C581.309 403.597 579.696 401.453 577.196 399.916C574.776 398.298 572.034 397.488 568.969 397.488C565.985 397.488 563.445 398.136 561.348 399.43C559.331 400.644 558.323 402.262 558.323 404.285C558.323 405.903 558.968 407.319 560.259 408.533C561.549 409.666 563.525 410.515 566.187 411.082L577.68 413.752C583.487 415.047 587.802 417.11 590.625 419.942C593.528 422.774 594.98 426.496 594.98 431.108C594.98 435.154 593.891 438.673 591.714 441.667C589.617 444.58 586.673 446.846 582.882 448.464C579.172 450.082 574.897 450.891 570.058 450.891Z" fill="#F4F3EF"/>
<path d="M633.154 450.891C628.799 450.891 624.847 450.001 621.298 448.221C617.749 446.441 614.765 444.054 612.346 441.06C609.926 438.067 608.192 434.749 607.144 431.108V406.106C608.192 402.384 609.926 399.066 612.346 396.153C614.765 393.159 617.749 390.813 621.298 389.114C624.847 387.334 628.799 386.444 633.154 386.444C638.639 386.444 643.559 387.819 647.914 390.57C652.269 393.321 655.737 397.124 658.318 401.979C660.899 406.834 662.19 412.376 662.19 418.607C662.19 424.837 660.899 430.38 658.318 435.235C655.737 440.089 652.269 443.933 647.914 446.765C643.559 449.516 638.639 450.891 633.154 450.891ZM600.853 473.466V388.143H612.346V408.412L609.926 418.607L612.951 428.802V473.466H600.853ZM631.703 439.604C635.332 439.604 638.518 438.714 641.26 436.934C644.002 435.154 646.14 432.686 647.672 429.53C649.285 426.375 650.092 422.733 650.092 418.607C650.092 414.48 649.285 410.839 647.672 407.684C646.14 404.528 644.002 402.1 641.26 400.401C638.518 398.621 635.332 397.731 631.703 397.731C628.073 397.731 624.807 398.621 621.903 400.401C619.08 402.1 616.822 404.528 615.128 407.684C613.515 410.839 612.709 414.48 612.709 418.607C612.709 422.733 613.515 426.375 615.128 429.53C616.822 432.686 619.08 435.154 621.903 436.934C624.807 438.714 628.073 439.604 631.703 439.604Z" fill="#F4F3EF"/>
<path d="M696.104 450.891C690.055 450.891 684.732 449.516 680.135 446.765C675.537 444.014 671.908 440.251 669.246 435.477C666.665 430.623 665.375 424.999 665.375 418.607C665.375 412.296 666.665 406.713 669.246 401.858C671.908 397.003 675.537 393.24 680.135 390.57C684.732 387.819 690.055 386.444 696.104 386.444C702.153 386.444 707.476 387.819 712.073 390.57C716.671 393.24 720.26 397.003 722.841 401.858C725.502 406.713 726.833 412.296 726.833 418.607C726.833 424.999 725.502 430.623 722.841 435.477C720.26 440.332 716.671 444.135 712.073 446.886C707.476 449.556 702.153 450.891 696.104 450.891ZM696.104 439.604C699.814 439.604 703.04 438.754 705.782 437.055C708.605 435.356 710.783 432.929 712.315 429.773C713.928 426.617 714.735 422.936 714.735 418.728C714.735 414.359 713.928 410.637 712.315 407.562C710.783 404.406 708.605 401.979 705.782 400.28C703.04 398.5 699.814 397.61 696.104 397.61C692.394 397.61 689.127 398.5 686.305 400.28C683.562 401.979 681.385 404.406 679.772 407.562C678.239 410.637 677.473 414.318 677.473 418.607C677.473 422.895 678.239 426.617 679.772 429.773C681.385 432.929 683.562 435.356 686.305 437.055C689.127 438.754 692.394 439.604 696.104 439.604Z" fill="#F4F3EF"/>
<path d="M754.294 450.891C747.761 450.891 742.236 449.354 737.719 446.279C733.203 443.124 730.219 438.795 728.767 433.293L739.776 430.501L741.228 430.865C742.034 433.697 743.688 435.922 746.188 437.541C748.769 439.078 751.753 439.847 755.141 439.847C758.447 439.847 761.27 439.119 763.609 437.662C765.948 436.206 767.118 434.264 767.118 431.836C767.118 429.813 766.432 428.236 765.061 427.103C763.69 425.889 761.633 424.959 758.891 424.311L747.519 421.763C741.792 420.468 737.518 418.364 734.695 415.451C731.872 412.457 730.461 408.857 730.461 404.649C730.461 401.008 731.469 397.852 733.485 395.182C735.501 392.431 738.244 390.287 741.712 388.75C745.26 387.212 749.253 386.444 753.689 386.444C759.98 386.444 765.303 388.021 769.658 391.177C774.014 394.252 776.877 398.621 778.248 404.285L767.602 406.591L766.271 406.348C765.545 403.597 763.932 401.453 761.432 399.916C759.012 398.298 756.27 397.488 753.205 397.488C750.221 397.488 747.68 398.136 745.583 399.43C743.567 400.644 742.559 402.262 742.559 404.285C742.559 405.903 743.204 407.319 744.494 408.533C745.785 409.666 747.761 410.515 750.422 411.082L761.915 413.752C767.723 415.047 772.038 417.11 774.86 419.942C777.764 422.774 779.216 426.496 779.216 431.108C779.216 435.154 778.127 438.673 775.949 441.667C773.852 444.58 770.908 446.846 767.118 448.464C763.408 450.082 759.133 450.891 754.294 450.891Z" fill="#F4F3EF"/>
<path d="M803.961 450.891C799.848 450.891 796.138 450.082 792.831 448.464C789.605 446.846 787.064 444.621 785.209 441.789C783.354 438.876 782.426 435.558 782.426 431.836C782.426 426.253 784.362 421.803 788.233 418.485C792.105 415.087 797.589 413.105 804.687 412.538L828.157 410.596V421.034L806.744 422.733C802.63 423.057 799.606 423.947 797.67 425.404C795.734 426.86 794.766 428.842 794.766 431.351C794.766 433.778 795.815 435.801 797.912 437.419C800.009 438.957 802.67 439.725 805.897 439.725C809.284 439.725 812.349 438.916 815.091 437.298C817.914 435.68 820.132 433.535 821.745 430.865C823.358 428.114 824.165 425.161 824.165 422.005V412.053C824.165 407.764 822.794 404.245 820.051 401.494C817.39 398.743 813.841 397.367 809.405 397.367C805.695 397.367 802.59 398.257 800.09 400.037C797.67 401.817 796.057 404.164 795.25 407.077H793.92L783.515 404.164C785.128 398.743 788.193 394.414 792.71 391.177C797.226 387.941 802.791 386.322 809.405 386.322C817.874 386.322 824.447 388.831 829.125 393.847C833.803 398.783 836.142 405.742 836.142 414.723V449.192H825.012V431.472L829.367 432.807C828.399 436.125 826.665 439.159 824.165 441.91C821.745 444.661 818.801 446.846 815.333 448.464C811.865 450.082 808.074 450.891 803.961 450.891Z" fill="#F4F3EF"/>
<path d="M879.525 450.891C875.169 450.891 871.217 450.001 867.669 448.221C864.12 446.441 861.136 444.095 858.716 441.182C856.296 438.188 854.562 434.871 853.514 431.229V406.227C854.562 402.505 856.296 399.188 858.716 396.275C861.136 393.281 864.12 390.894 867.669 389.114C871.217 387.334 875.169 386.444 879.525 386.444C885.009 386.444 889.929 387.819 894.284 390.57C898.64 393.321 902.108 397.124 904.689 401.979C907.27 406.834 908.56 412.417 908.56 418.728C908.56 424.959 907.27 430.501 904.689 435.356C902.108 440.13 898.64 443.933 894.284 446.765C889.929 449.516 885.009 450.891 879.525 450.891ZM847.223 449.192V361.805L858.958 360.349L859.321 361.32V408.412L856.296 418.607L858.716 428.802V449.192H847.223ZM878.073 439.604C881.702 439.604 884.888 438.714 887.63 436.934C890.373 435.154 892.51 432.686 894.042 429.53C895.655 426.375 896.462 422.733 896.462 418.607C896.462 414.48 895.655 410.839 894.042 407.684C892.51 404.528 890.373 402.1 887.63 400.401C884.888 398.621 881.702 397.731 878.073 397.731C874.443 397.731 871.177 398.621 868.273 400.401C865.451 402.1 863.192 404.528 861.499 407.684C859.885 410.839 859.079 414.48 859.079 418.607C859.079 422.733 859.885 426.375 861.499 429.53C863.192 432.686 865.451 435.154 868.273 436.934C871.177 438.714 874.443 439.604 878.073 439.604Z" fill="#F4F3EF"/>
<path d="M915.723 449.192V361.805L927.458 360.349L927.821 361.32V449.192H915.723Z" fill="#F4F3EF"/>
<path d="M965.711 450.891C959.662 450.891 954.299 449.556 949.621 446.886C945.023 444.135 941.434 440.332 938.853 435.477C936.272 430.623 934.982 424.999 934.982 418.607C934.982 412.215 936.232 406.632 938.732 401.858C941.313 397.003 944.862 393.24 949.379 390.57C953.976 387.819 959.259 386.444 965.227 386.444C971.115 386.444 976.236 387.819 980.592 390.57C985.028 393.321 988.455 397.205 990.875 402.222C993.375 407.158 994.625 412.943 994.625 419.578V421.398L992.811 423.219H941.152V412.538H988.818L982.648 414.966C982.487 411.325 981.6 408.209 979.987 405.62C978.454 403.031 976.398 401.049 973.817 399.673C971.316 398.217 968.494 397.488 965.348 397.488C961.961 397.488 958.855 398.298 956.033 399.916C953.21 401.534 950.992 403.8 949.379 406.713C947.846 409.545 947.08 412.862 947.08 416.665V420.306C947.08 424.028 947.887 427.386 949.5 430.38C951.113 433.293 953.331 435.599 956.154 437.298C958.976 438.997 962.162 439.847 965.711 439.847C969.098 439.847 972.083 438.997 974.664 437.298C977.325 435.518 979.422 433.171 980.955 430.258H982.406L992.206 434.506C989.867 439.604 986.399 443.609 981.801 446.522C977.204 449.435 971.841 450.891 965.711 450.891Z" fill="#F4F3EF"/>
<path d="M501.219 569.726L470.611 487.315L469.885 484.766H481.983L514.164 568.755V569.726H501.219ZM437.705 569.726V568.755L469.885 484.766H481.983L481.016 487.315L450.408 569.726H437.705ZM451.012 548.729L454.642 537.077H498.316L501.945 548.729H451.012Z" fill="#F4F3EF"/>
<path d="M542.074 571.425C536.67 571.425 531.75 570.05 527.314 567.298C522.959 564.466 519.491 560.664 516.91 555.89C514.329 551.035 513.039 545.492 513.039 539.262C513.039 532.951 514.329 527.368 516.91 522.513C519.491 517.658 522.959 513.855 527.314 511.104C531.75 508.353 536.67 506.977 542.074 506.977C546.429 506.977 550.381 507.867 553.93 509.647C557.479 511.428 560.463 513.814 562.883 516.808C565.302 519.721 567.036 523.039 568.085 526.761V551.763C567.036 555.404 565.302 558.722 562.883 561.715C560.463 564.628 557.479 566.975 553.93 568.755C550.381 570.535 546.429 571.425 542.074 571.425ZM543.526 560.138C547.236 560.138 550.502 559.248 553.325 557.467C556.148 555.687 558.366 553.219 559.979 550.064C561.592 546.908 562.399 543.267 562.399 539.14C562.399 535.014 561.592 531.373 559.979 528.217C558.366 525.061 556.148 522.634 553.325 520.935C550.502 519.155 547.236 518.265 543.526 518.265C539.977 518.265 536.791 519.155 533.968 520.935C531.226 522.634 529.048 525.061 527.435 528.217C525.903 531.373 525.137 535.014 525.137 539.14C525.137 543.267 525.903 546.908 527.435 550.064C529.048 553.219 531.226 555.687 533.968 557.467C536.791 559.248 539.977 560.138 543.526 560.138ZM562.883 569.726V549.336L565.302 539.14L562.278 528.945V482.339L574.013 480.883L574.376 481.854V569.726H562.883Z" fill="#F4F3EF"/>
<path d="M604.283 569.726L605.13 562.322L626.423 508.676H638.884V509.647L614.325 569.726H604.283ZM602.469 569.726L577.91 509.647V508.676H590.371L611.663 562.322L612.51 569.726H602.469Z" fill="#F4F3EF"/>
<path d="M666.709 571.425C660.66 571.425 655.297 570.09 650.619 567.42C646.022 564.669 642.433 560.866 639.852 556.011C637.271 551.156 635.98 545.533 635.98 539.14C635.98 532.748 637.231 527.165 639.731 522.391C642.312 517.537 645.86 513.774 650.377 511.104C654.974 508.353 660.257 506.977 666.226 506.977C672.113 506.977 677.235 508.353 681.59 511.104C686.026 513.855 689.454 517.739 691.873 522.755C694.374 527.691 695.624 533.477 695.624 540.111V541.932L693.809 543.753H642.15V533.072H689.817L683.647 535.499C683.485 531.858 682.598 528.743 680.985 526.154C679.453 523.565 677.396 521.582 674.815 520.207C672.315 518.75 669.492 518.022 666.346 518.022C662.959 518.022 659.854 518.831 657.031 520.449C654.208 522.068 651.99 524.333 650.377 527.246C648.845 530.078 648.078 533.396 648.078 537.199V540.84C648.078 544.562 648.885 547.92 650.498 550.913C652.111 553.826 654.329 556.132 657.152 557.832C659.975 559.531 663.161 560.38 666.709 560.38C670.097 560.38 673.081 559.531 675.662 557.832C678.324 556.051 680.421 553.705 681.953 550.792H683.405L693.204 555.04C690.865 560.138 687.397 564.143 682.8 567.056C678.203 569.969 672.839 571.425 666.709 571.425Z" fill="#F4F3EF"/>
<path d="M702.197 569.726V508.676H713.691V525.061L710.424 523.969C712.037 519.276 714.779 515.554 718.651 512.803C722.603 510.052 727.119 508.676 732.201 508.676H738.129V519.843H730.265C727.039 519.843 724.216 520.611 721.796 522.149C719.457 523.605 717.602 525.668 716.231 528.338C714.941 531.009 714.295 534.164 714.295 537.805V569.726H702.197Z" fill="#F4F3EF"/>
<path d="M764.877 569.726C759.312 569.726 754.795 567.946 751.327 564.386C747.939 560.825 746.246 556.011 746.246 549.942V492.534H758.344V548.85C758.344 552.168 759.11 554.635 760.642 556.254C762.255 557.791 764.715 558.56 768.022 558.56H774.797L775.402 559.895V569.726H764.877ZM735.841 519.843V508.676H775.402V519.843H735.841Z" fill="#F4F3EF"/>
<path d="M782.489 569.726V508.676H794.587V569.726H782.489ZM788.538 498.481C786.28 498.481 784.384 497.713 782.852 496.175C781.319 494.557 780.553 492.656 780.553 490.471C780.553 488.205 781.319 486.304 782.852 484.766C784.384 483.229 786.28 482.46 788.538 482.46C790.715 482.46 792.57 483.229 794.103 484.766C795.716 486.304 796.523 488.205 796.523 490.471C796.523 492.656 795.716 494.557 794.103 496.175C792.57 497.713 790.715 498.481 788.538 498.481Z" fill="#F4F3EF"/>
<path d="M825.488 571.425C818.955 571.425 813.43 569.888 808.914 566.813C804.397 563.657 801.413 559.328 799.961 553.826L810.97 551.035L812.422 551.399C813.229 554.231 814.882 556.456 817.382 558.074C819.963 559.612 822.947 560.38 826.335 560.38C829.642 560.38 832.464 559.652 834.803 558.196C837.142 556.739 838.312 554.797 838.312 552.37C838.312 550.347 837.626 548.769 836.255 547.636C834.884 546.423 832.827 545.492 830.085 544.845L818.713 542.296C812.987 541.001 808.712 538.898 805.889 535.985C803.066 532.991 801.655 529.39 801.655 525.183C801.655 521.542 802.663 518.386 804.679 515.716C806.696 512.965 809.438 510.821 812.906 509.283C816.455 507.746 820.447 506.977 824.883 506.977C831.174 506.977 836.497 508.555 840.852 511.711C845.208 514.785 848.071 519.155 849.442 524.819L838.796 527.125L837.465 526.882C836.739 524.131 835.126 521.987 832.626 520.449C830.206 518.831 827.464 518.022 824.399 518.022C821.415 518.022 818.874 518.669 816.777 519.964C814.761 521.178 813.753 522.796 813.753 524.819C813.753 526.437 814.398 527.853 815.688 529.067C816.979 530.2 818.955 531.049 821.617 531.615L833.11 534.286C838.917 535.58 843.232 537.644 846.055 540.476C848.958 543.308 850.41 547.03 850.41 551.642C850.41 555.687 849.321 559.207 847.143 562.201C845.046 565.114 842.103 567.379 838.312 568.998C834.602 570.616 830.327 571.425 825.488 571.425Z" fill="#F4F3EF"/>
<path d="M856.282 569.726V508.676H868.38V569.726H856.282ZM862.331 498.481C860.073 498.481 858.178 497.713 856.645 496.175C855.113 494.557 854.347 492.656 854.347 490.471C854.347 488.205 855.113 486.304 856.645 484.766C858.178 483.229 860.073 482.46 862.331 482.46C864.509 482.46 866.364 483.229 867.896 484.766C869.509 486.304 870.316 488.205 870.316 490.471C870.316 492.656 869.509 494.557 867.896 496.175C866.364 497.713 864.509 498.481 862.331 498.481Z" fill="#F4F3EF"/>
<path d="M878.352 569.726V508.676H889.845V525.061L886.578 523.969C887.788 520.49 889.603 517.496 892.023 514.988C894.442 512.398 897.265 510.416 900.491 509.041C903.798 507.665 907.306 506.977 911.016 506.977C915.372 506.977 919.283 507.908 922.752 509.769C926.22 511.63 928.962 514.421 930.978 518.143C932.995 521.784 934.003 526.356 934.003 531.858V569.726H921.905V535.257C921.905 531.13 921.3 527.853 920.09 525.426C918.88 522.917 917.227 521.097 915.13 519.964C913.113 518.831 910.734 518.265 907.992 518.265C905.25 518.265 902.507 518.952 899.765 520.328C897.104 521.704 894.886 523.848 893.111 526.761C891.337 529.674 890.45 533.477 890.45 538.17V569.726H878.352Z" fill="#F4F3EF"/>
<path d="M962.817 594C954.752 594 948.461 592.382 943.944 589.145C939.427 585.909 937.169 581.539 937.169 576.037C937.169 572.396 938.056 569.24 939.831 566.57C941.686 563.819 944.388 561.715 947.936 560.259L953.985 565.721C952.292 566.449 950.961 567.582 949.993 569.119C949.025 570.575 948.541 572.194 948.541 573.974C948.541 576.644 949.59 578.91 951.687 580.771C953.864 582.713 957.131 583.684 961.486 583.684H969.955C974.391 583.684 977.819 582.955 980.238 581.499C982.738 580.123 983.989 578.06 983.989 575.309C983.989 573.205 983.142 571.546 981.448 570.333C979.835 569.2 977.456 568.634 974.31 568.634H958.583C955.195 568.634 952.13 568.067 949.388 566.934C946.727 565.721 944.63 564.062 943.097 561.958C941.565 559.854 940.798 557.427 940.798 554.676C940.798 551.763 941.645 549.174 943.339 546.908C945.113 544.562 947.735 542.701 951.203 541.325L957.736 546.908C955.719 547.151 954.187 547.879 953.138 549.093C952.171 550.307 951.687 551.601 951.687 552.977C951.687 554.757 952.372 556.132 953.743 557.103C955.195 558.074 957.252 558.56 959.913 558.56H975.278C981.408 558.56 986.247 560.097 989.796 563.172C993.425 566.166 995.24 570.171 995.24 575.188C995.24 580.932 992.941 585.504 988.344 588.902C983.747 592.301 977.577 594 969.834 594H962.817ZM966.688 550.428C961.768 550.428 957.453 549.497 953.743 547.636C950.033 545.775 947.13 543.227 945.033 539.99C943.016 536.673 942.008 532.91 942.008 528.703C942.008 524.414 943.016 520.652 945.033 517.415C947.13 514.098 950.033 511.549 953.743 509.769C957.453 507.908 961.768 506.977 966.688 506.977C971.608 506.977 975.883 507.908 979.512 509.769C983.222 511.549 986.126 514.098 988.223 517.415C990.32 520.652 991.368 524.414 991.368 528.703C991.368 532.91 990.32 536.673 988.223 539.99C986.126 543.227 983.222 545.775 979.512 547.636C975.883 549.497 971.608 550.428 966.688 550.428ZM966.688 540.354C970.64 540.354 973.826 539.302 976.246 537.199C978.746 535.014 979.996 532.182 979.996 528.703C979.996 525.223 978.746 522.432 976.246 520.328C973.826 518.143 970.64 517.051 966.688 517.051C962.656 517.051 959.429 518.143 957.01 520.328C954.59 522.432 953.38 525.223 953.38 528.703C953.38 532.182 954.59 535.014 957.01 537.199C959.429 539.302 962.656 540.354 966.688 540.354ZM983.868 516.93L976.004 512.682C976.004 509.364 976.689 506.411 978.061 503.822C979.432 501.151 981.246 499.088 983.505 497.632C985.844 496.094 988.425 495.326 991.247 495.326C992.054 495.326 992.82 495.366 993.546 495.447C994.353 495.447 994.957 495.528 995.361 495.69V506.249L994.756 507.584C993.949 507.341 992.941 507.22 991.731 507.22C989.15 507.22 987.174 508.15 985.803 510.012C984.513 511.792 983.868 514.098 983.868 516.93Z" fill="#F4F3EF"/>
</svg>
