<svg preserveAspectRatio="none" width="100%" height="100%" overflow="visible" style="display: block;" viewBox="0 0 36.8333 36.8333" fill="none" xmlns="http://www.w3.org/2000/svg">
<path id="Icon" d="M27.5833 9.25H27.6M10.0833 1.75H26.75C31.3524 1.75 35.0833 5.48096 35.0833 10.0833V26.75C35.0833 31.3524 31.3524 35.0833 26.75 35.0833H10.0833C5.48096 35.0833 1.75 31.3524 1.75 26.75V10.0833C1.75 5.48096 5.48096 1.75 10.0833 1.75ZM25.0833 17.3667C25.289 18.7537 25.0521 20.1704 24.4063 21.415C23.7604 22.6597 22.7386 23.669 21.486 24.2995C20.2335 24.9299 18.8141 25.1493 17.4296 24.9266C16.0452 24.7038 14.7663 24.0501 13.7747 23.0586C12.7832 22.0671 12.1296 20.7881 11.9068 19.4037C11.684 18.0193 11.9034 16.5998 12.5339 15.3473C13.1643 14.0948 14.1736 13.0729 15.4183 12.4271C16.663 11.7812 18.0796 11.5443 19.4667 11.75C20.8815 11.9598 22.1914 12.6191 23.2028 13.6305C24.2142 14.6419 24.8735 15.9518 25.0833 17.3667Z" stroke="var(--stroke-0, white)" stroke-width="3.5" stroke-linecap="round" stroke-linejoin="round"/>
</svg>
