<svg preserveAspectRatio="none" width="100%" height="100%" overflow="visible" style="display: block;" viewBox="0 0 48.0023 34.92" fill="none" xmlns="http://www.w3.org/2000/svg">
<g id="Icon">
<path d="M45.0811 6.84C44.8436 5.89082 44.3597 5.02114 43.6785 4.31881C42.9972 3.61648 42.1427 3.10637 41.2011 2.84C37.7611 2 24.0011 2 24.0011 2C24.0011 2 10.2411 2 6.80114 2.92C5.85964 3.18637 5.0051 3.69648 4.32384 4.39881C3.64258 5.10114 3.15872 5.97082 2.92114 6.92C2.29157 10.4111 1.98362 13.9526 2.00114 17.5C1.9787 21.0741 2.28668 24.6426 2.92114 28.16C3.18306 29.0797 3.67776 29.9163 4.35743 30.589C5.03711 31.2616 5.87878 31.7476 6.80114 32C10.2411 32.92 24.0011 32.92 24.0011 32.92C24.0011 32.92 37.7611 32.92 41.2011 32C42.1427 31.7336 42.9972 31.2235 43.6785 30.5212C44.3597 29.8189 44.8436 28.9492 45.0811 28C45.7059 24.5352 46.0138 21.0207 46.0011 17.5C46.0236 13.9259 45.7156 10.3574 45.0811 6.84Z" stroke="var(--stroke-0, #F4F3EF)" stroke-width="4" stroke-linecap="round" stroke-linejoin="round"/>
<path d="M19.5011 24.04L31.0011 17.5L19.5011 10.96V24.04Z" stroke="var(--stroke-0, #F4F3EF)" stroke-width="4" stroke-linecap="round" stroke-linejoin="round"/>
</g>
</svg>
