<svg width="126" height="126" viewBox="0 0 126 126" fill="none" xmlns="http://www.w3.org/2000/svg">
<path d="M56.5 2H116V26H106V61H56.5V26V2Z" fill="#645D45"/>
<path d="M57.937 26V2.9H59.752V26H57.937ZM58.894 26V24.251H71.797V26H58.894ZM79.6072 26.33C78.0672 26.33 76.7032 25.978 75.5152 25.274C74.3492 24.548 73.4252 23.547 72.7432 22.271C72.0832 20.973 71.7532 19.488 71.7532 17.816C71.7532 16.122 72.0832 14.637 72.7432 13.361C73.4032 12.063 74.3052 11.062 75.4492 10.358C76.6152 9.632 77.9572 9.269 79.4752 9.269C80.9712 9.269 82.2802 9.632 83.4022 10.358C84.5242 11.062 85.4042 12.052 86.0422 13.328C86.6802 14.582 86.9992 16.034 86.9992 17.684V17.981L86.5372 18.443H72.7762V16.694H85.9432L85.1512 17.123C85.1072 15.803 84.8212 14.692 84.2932 13.79C83.7872 12.888 83.1162 12.206 82.2802 11.744C81.4442 11.26 80.5092 11.018 79.4752 11.018C78.3752 11.018 77.3742 11.293 76.4722 11.843C75.5922 12.393 74.8882 13.163 74.3602 14.153C73.8322 15.143 73.5682 16.276 73.5682 17.552V17.981C73.5682 19.279 73.8212 20.423 74.3272 21.413C74.8552 22.403 75.5702 23.184 76.4722 23.756C77.3962 24.306 78.4412 24.581 79.6072 24.581C80.8172 24.581 81.8402 24.306 82.6762 23.756C83.5122 23.206 84.1722 22.447 84.6562 21.479H85.0192L86.4052 22.139C85.8112 23.415 84.9312 24.438 83.7652 25.208C82.6212 25.956 81.2352 26.33 79.6072 26.33ZM94.4324 26C93.0684 26 91.9794 25.604 91.1654 24.812C90.3514 23.998 89.9444 22.788 89.9444 21.182V5.342H91.7594V21.083C91.7594 22.249 91.9904 23.074 92.4524 23.558C92.9144 24.02 93.6624 24.251 94.6964 24.251H96.4784L96.6434 24.614V26H94.4324ZM87.1394 11.381V9.632H96.6434V11.381H87.1394ZM98.4339 9.665V8.147C99.0499 8.015 99.5449 7.74 99.9189 7.322C100.293 6.882 100.48 6.365 100.48 5.771C100.48 5.419 100.436 5.111 100.348 4.847L101.206 4.352C101.25 4.44 101.272 4.528 101.272 4.616C101.294 4.704 101.305 4.792 101.305 4.88C101.305 5.166 101.228 5.397 101.074 5.573C100.92 5.727 100.744 5.848 100.546 5.936C100.348 6.002 100.172 6.035 100.018 6.035C99.5559 6.035 99.1599 5.881 98.8299 5.573C98.4999 5.243 98.3349 4.836 98.3349 4.352C98.3349 3.89 98.4889 3.494 98.7969 3.164C99.1269 2.834 99.5449 2.669 100.051 2.669C100.469 2.669 100.821 2.801 101.107 3.065C101.415 3.307 101.646 3.637 101.8 4.055C101.976 4.451 102.064 4.891 102.064 5.375C102.064 5.837 101.987 6.299 101.833 6.761C101.701 7.223 101.481 7.663 101.173 8.081C100.887 8.477 100.513 8.818 100.051 9.104C99.5889 9.39 99.0499 9.577 98.4339 9.665ZM108.777 26.33C107.127 26.33 105.741 25.934 104.619 25.142C103.497 24.328 102.76 23.173 102.408 21.677L103.959 21.314L104.322 21.38C104.586 22.392 105.136 23.184 105.972 23.756C106.808 24.306 107.809 24.581 108.975 24.581C110.163 24.581 111.153 24.295 111.945 23.723C112.759 23.151 113.166 22.414 113.166 21.512C113.166 20.786 112.935 20.203 112.473 19.763C112.011 19.323 111.285 18.982 110.295 18.74L107.292 18.08C105.818 17.75 104.729 17.2 104.025 16.43C103.343 15.66 103.002 14.758 103.002 13.724C103.002 12.844 103.233 12.074 103.695 11.414C104.179 10.754 104.839 10.237 105.675 9.863C106.533 9.467 107.501 9.269 108.579 9.269C110.229 9.269 111.593 9.698 112.671 10.556C113.749 11.414 114.442 12.569 114.75 14.021L113.199 14.351L112.836 14.285C112.616 13.207 112.088 12.393 111.252 11.843C110.416 11.293 109.492 11.018 108.48 11.018C107.446 11.018 106.577 11.26 105.873 11.744C105.191 12.228 104.85 12.855 104.85 13.625C104.85 14.351 105.103 14.934 105.609 15.374C106.137 15.814 106.863 16.133 107.787 16.331L110.79 17.024C112.198 17.332 113.254 17.86 113.958 18.608C114.662 19.334 115.014 20.247 115.014 21.347C115.014 22.359 114.739 23.239 114.189 23.987C113.661 24.735 112.935 25.318 112.011 25.736C111.087 26.132 110.009 26.33 108.777 26.33ZM63.151 59V35.9H64.966V59H63.151ZM55.891 37.649V35.9H72.193V37.649H55.891ZM75.247 59.33C74.125 59.33 73.135 59.121 72.277 58.703C71.419 58.263 70.737 57.669 70.231 56.921C69.747 56.173 69.505 55.326 69.505 54.38C69.505 53.06 69.967 51.96 70.891 51.08C71.837 50.178 73.201 49.661 74.983 49.529L81.649 49.034V50.75L75.445 51.212C74.037 51.322 73.003 51.663 72.343 52.235C71.705 52.785 71.386 53.489 71.386 54.347C71.386 55.315 71.76 56.096 72.508 56.69C73.256 57.284 74.202 57.581 75.346 57.581C76.402 57.581 77.37 57.328 78.25 56.822C79.152 56.294 79.867 55.601 80.395 54.743C80.945 53.863 81.22 52.906 81.22 51.872V49.232C81.22 47.648 80.791 46.383 79.933 45.437C79.097 44.491 77.92 44.018 76.402 44.018C75.28 44.018 74.312 44.293 73.498 44.843C72.684 45.393 72.09 46.185 71.716 47.219H71.353L69.868 46.658C70.396 45.228 71.232 44.139 72.376 43.391C73.52 42.643 74.873 42.269 76.435 42.269C78.547 42.269 80.175 42.918 81.319 44.216C82.463 45.492 83.035 47.318 83.035 49.694V59H81.253V54.215L81.88 54.71C81.616 55.59 81.154 56.382 80.494 57.086C79.856 57.768 79.086 58.318 78.184 58.736C77.282 59.132 76.303 59.33 75.247 59.33ZM86.9241 59V35.24L88.6401 35.009L88.7391 35.273V59H86.9241ZM93.3808 55.073V52.697L103.875 42.632H105.987V42.896L93.3808 55.073ZM92.6218 59V35.24L94.3378 35.009L94.4368 35.273V59H92.6218ZM104.04 59L97.6048 50.123L98.7928 48.869L106.02 58.736V59H104.04Z" fill="#F4F3EF"/>
</svg>
