<svg width="126" height="126" viewBox="0 0 126 126" fill="none" xmlns="http://www.w3.org/2000/svg">
<g style="mix-blend-mode:difference">
<path d="M56.5 2.2041H116V26.2041H106V61.2041H56.5V26.2041V2.2041Z" fill="#645D45"/>
<path d="M57.937 26.2041V3.1041H59.752V26.2041H57.937ZM58.894 26.2041V24.4551H71.797V26.2041H58.894ZM79.6072 26.5341C78.0672 26.5341 76.7032 26.1821 75.5152 25.4781C74.3492 24.7521 73.4252 23.7511 72.7432 22.4751C72.0832 21.1771 71.7532 19.6921 71.7532 18.0201C71.7532 16.3261 72.0832 14.8411 72.7432 13.5651C73.4032 12.2671 74.3052 11.2661 75.4492 10.5621C76.6152 9.8361 77.9572 9.4731 79.4752 9.4731C80.9712 9.4731 82.2802 9.8361 83.4022 10.5621C84.5242 11.2661 85.4042 12.2561 86.0422 13.5321C86.6802 14.7861 86.9992 16.2381 86.9992 17.8881V18.1851L86.5372 18.6471H72.7762V16.8981H85.9432L85.1512 17.3271C85.1072 16.0071 84.8212 14.8961 84.2932 13.9941C83.7872 13.0921 83.1162 12.4101 82.2802 11.9481C81.4442 11.4641 80.5092 11.2221 79.4752 11.2221C78.3752 11.2221 77.3742 11.4971 76.4722 12.0471C75.5922 12.5971 74.8882 13.3671 74.3602 14.3571C73.8322 15.3471 73.5682 16.4801 73.5682 17.7561V18.1851C73.5682 19.4831 73.8212 20.6271 74.3272 21.6171C74.8552 22.6071 75.5702 23.3881 76.4722 23.9601C77.3962 24.5101 78.4412 24.7851 79.6072 24.7851C80.8172 24.7851 81.8402 24.5101 82.6762 23.9601C83.5122 23.4101 84.1722 22.6511 84.6562 21.6831H85.0192L86.4052 22.3431C85.8112 23.6191 84.9312 24.6421 83.7652 25.4121C82.6212 26.1601 81.2352 26.5341 79.6072 26.5341ZM94.4324 26.2041C93.0684 26.2041 91.9794 25.8081 91.1654 25.0161C90.3514 24.2021 89.9444 22.9921 89.9444 21.3861V5.5461H91.7594V21.2871C91.7594 22.4531 91.9904 23.2781 92.4524 23.7621C92.9144 24.2241 93.6624 24.4551 94.6964 24.4551H96.4784L96.6434 24.8181V26.2041H94.4324ZM87.1394 11.5851V9.8361H96.6434V11.5851H87.1394ZM98.4339 9.8691V8.3511C99.0499 8.2191 99.5449 7.9441 99.9189 7.5261C100.293 7.0861 100.48 6.5691 100.48 5.9751C100.48 5.6231 100.436 5.3151 100.348 5.0511L101.206 4.5561C101.25 4.6441 101.272 4.7321 101.272 4.8201C101.294 4.9081 101.305 4.9961 101.305 5.0841C101.305 5.3701 101.228 5.6011 101.074 5.7771C100.92 5.9311 100.744 6.0521 100.546 6.1401C100.348 6.2061 100.172 6.2391 100.018 6.2391C99.5559 6.2391 99.1599 6.0851 98.8299 5.7771C98.4999 5.4471 98.3349 5.0401 98.3349 4.5561C98.3349 4.0941 98.4889 3.6981 98.7969 3.3681C99.1269 3.0381 99.5449 2.8731 100.051 2.8731C100.469 2.8731 100.821 3.0051 101.107 3.2691C101.415 3.5111 101.646 3.8411 101.8 4.2591C101.976 4.6551 102.064 5.0951 102.064 5.5791C102.064 6.0411 101.987 6.5031 101.833 6.9651C101.701 7.4271 101.481 7.8671 101.173 8.2851C100.887 8.6811 100.513 9.0221 100.051 9.3081C99.5889 9.5941 99.0499 9.7811 98.4339 9.8691ZM108.777 26.5341C107.127 26.5341 105.741 26.1381 104.619 25.3461C103.497 24.5321 102.76 23.3771 102.408 21.8811L103.959 21.5181L104.322 21.5841C104.586 22.5961 105.136 23.3881 105.972 23.9601C106.808 24.5101 107.809 24.7851 108.975 24.7851C110.163 24.7851 111.153 24.4991 111.945 23.9271C112.759 23.3551 113.166 22.6181 113.166 21.7161C113.166 20.9901 112.935 20.4071 112.473 19.9671C112.011 19.5271 111.285 19.1861 110.295 18.9441L107.292 18.2841C105.818 17.9541 104.729 17.4041 104.025 16.6341C103.343 15.8641 103.002 14.9621 103.002 13.9281C103.002 13.0481 103.233 12.2781 103.695 11.6181C104.179 10.9581 104.839 10.4411 105.675 10.0671C106.533 9.6711 107.501 9.4731 108.579 9.4731C110.229 9.4731 111.593 9.9021 112.671 10.7601C113.749 11.6181 114.442 12.7731 114.75 14.2251L113.199 14.5551L112.836 14.4891C112.616 13.4111 112.088 12.5971 111.252 12.0471C110.416 11.4971 109.492 11.2221 108.48 11.2221C107.446 11.2221 106.577 11.4641 105.873 11.9481C105.191 12.4321 104.85 13.0591 104.85 13.8291C104.85 14.5551 105.103 15.1381 105.609 15.5781C106.137 16.0181 106.863 16.3371 107.787 16.5351L110.79 17.2281C112.198 17.5361 113.254 18.0641 113.958 18.8121C114.662 19.5381 115.014 20.4511 115.014 21.5511C115.014 22.5631 114.739 23.4431 114.189 24.1911C113.661 24.9391 112.935 25.5221 112.011 25.9401C111.087 26.3361 110.009 26.5341 108.777 26.5341ZM63.151 59.2041V36.1041H64.966V59.2041H63.151ZM55.891 37.8531V36.1041H72.193V37.8531H55.891ZM75.247 59.5341C74.125 59.5341 73.135 59.3251 72.277 58.9071C71.419 58.4671 70.737 57.8731 70.231 57.1251C69.747 56.3771 69.505 55.5301 69.505 54.5841C69.505 53.2641 69.967 52.1641 70.891 51.2841C71.837 50.3821 73.201 49.8651 74.983 49.7331L81.649 49.2381V50.9541L75.445 51.4161C74.037 51.5261 73.003 51.8671 72.343 52.4391C71.705 52.9891 71.386 53.6931 71.386 54.5511C71.386 55.5191 71.76 56.3001 72.508 56.8941C73.256 57.4881 74.202 57.7851 75.346 57.7851C76.402 57.7851 77.37 57.5321 78.25 57.0261C79.152 56.4981 79.867 55.8051 80.395 54.9471C80.945 54.0671 81.22 53.1101 81.22 52.0761V49.4361C81.22 47.8521 80.791 46.5871 79.933 45.6411C79.097 44.6951 77.92 44.2221 76.402 44.2221C75.28 44.2221 74.312 44.4971 73.498 45.0471C72.684 45.5971 72.09 46.3891 71.716 47.4231H71.353L69.868 46.8621C70.396 45.4321 71.232 44.3431 72.376 43.5951C73.52 42.8471 74.873 42.4731 76.435 42.4731C78.547 42.4731 80.175 43.1221 81.319 44.4201C82.463 45.6961 83.035 47.5221 83.035 49.8981V59.2041H81.253V54.4191L81.88 54.9141C81.616 55.7941 81.154 56.5861 80.494 57.2901C79.856 57.9721 79.086 58.5221 78.184 58.9401C77.282 59.3361 76.303 59.5341 75.247 59.5341ZM86.9241 59.2041V35.4441L88.6401 35.2131L88.7391 35.4771V59.2041H86.9241ZM93.3808 55.2771V52.9011L103.875 42.8361H105.987V43.1001L93.3808 55.2771ZM92.6218 59.2041V35.4441L94.3378 35.2131L94.4368 35.4771V59.2041H92.6218ZM104.04 59.2041L97.6048 50.3271L98.7928 49.0731L106.02 58.9401V59.2041H104.04Z" fill="#F4F3EF"/>
<line x1="29" y1="124" x2="29" y2="114" stroke="#F4F3EF" stroke-width="10"/>
<line x1="29" y1="98" x2="29" y2="88" stroke="#F4F3EF" stroke-width="10"/>
<path d="M82.9972 121.762C90.3302 119.918 97.0106 116.083 102.3 110.679C107.589 105.275 111.28 98.5143 112.967 91.1434C114.653 83.7725 114.268 76.0789 111.854 68.9131C109.441 61.7473 105.093 55.3885 99.2909 50.5397L94.731 55.996C99.5268 60.0038 103.121 65.2598 105.116 71.1828C107.111 77.1058 107.429 83.4651 106.035 89.5576C104.641 95.6502 101.59 101.239 97.2179 105.705C92.8462 110.172 87.3244 113.342 81.2632 114.866L82.9972 121.762Z" fill="#F4F3EF" stroke="#F4F3EF" stroke-width="3"/>
</g>
</svg>
