<svg width="336" height="241" viewBox="0 0 336 241" fill="none" xmlns="http://www.w3.org/2000/svg">
<path d="M158.265 39.3904C156.105 39.3904 154.155 39.0004 152.415 38.2204C150.675 37.4404 149.22 36.3454 148.05 34.9354C146.91 33.5254 146.145 31.8754 145.755 29.9854L149.85 28.9504L150.345 29.0404C150.735 30.2104 151.305 31.2604 152.055 32.1904C152.835 33.0904 153.765 33.8104 154.845 34.3504C155.925 34.8604 157.095 35.1154 158.355 35.1154C159.645 35.1154 160.77 34.9054 161.73 34.4854C162.72 34.0654 163.5 33.4954 164.07 32.7754C164.64 32.0254 164.925 31.1704 164.925 30.2104C164.925 28.9504 164.565 27.9754 163.845 27.2854C163.125 26.5954 162.075 26.0704 160.695 25.7104L154.845 24.0904C152.265 23.4004 150.3 22.2904 148.95 20.7604C147.6 19.2004 146.925 17.4004 146.925 15.3604C146.925 13.6504 147.36 12.1504 148.23 10.8604C149.13 9.54044 150.375 8.50544 151.965 7.75544C153.555 7.00544 155.385 6.63043 157.455 6.63043C159.465 6.63043 161.265 7.00544 162.855 7.75544C164.475 8.47544 165.81 9.49544 166.86 10.8154C167.94 12.1354 168.645 13.7104 168.975 15.5404L165.015 16.3954L164.52 16.3054C164.13 14.6254 163.305 13.3054 162.045 12.3454C160.785 11.3854 159.24 10.9054 157.41 10.9054C155.67 10.9054 154.275 11.3254 153.225 12.1654C152.175 12.9754 151.65 14.0404 151.65 15.3604C151.65 16.4704 152.025 17.3854 152.775 18.1054C153.555 18.8254 154.665 19.3954 156.105 19.8154L161.955 21.3904C164.445 22.0504 166.35 23.1154 167.67 24.5854C169.02 26.0554 169.695 27.8554 169.695 29.9854C169.695 31.8754 169.215 33.5254 168.255 34.9354C167.295 36.3454 165.96 37.4404 164.25 38.2204C162.54 39.0004 160.545 39.3904 158.265 39.3904ZM182.619 39.3904C180.369 39.3904 178.374 38.8954 176.634 37.9054C174.924 36.8854 173.589 35.4754 172.629 33.6754C171.669 31.8754 171.189 29.7904 171.189 27.4204C171.189 25.0504 171.654 22.9804 172.584 21.2104C173.544 19.4104 174.864 18.0154 176.544 17.0254C178.254 16.0054 180.219 15.4954 182.439 15.4954C184.629 15.4954 186.534 16.0054 188.154 17.0254C189.804 18.0454 191.079 19.4854 191.979 21.3454C192.909 23.1754 193.374 25.3204 193.374 27.7804V28.4554L192.699 29.1304H173.484V25.1704H191.214L188.919 26.0704C188.859 24.7204 188.529 23.5654 187.929 22.6054C187.359 21.6454 186.594 20.9104 185.634 20.4004C184.704 19.8604 183.654 19.5904 182.484 19.5904C181.224 19.5904 180.069 19.8904 179.019 20.4904C177.969 21.0904 177.144 21.9304 176.544 23.0104C175.974 24.0604 175.689 25.2904 175.689 26.7004V28.0504C175.689 29.4304 175.989 30.6754 176.589 31.7854C177.189 32.8654 178.014 33.7204 179.064 34.3504C180.114 34.9804 181.299 35.2954 182.619 35.2954C183.879 35.2954 184.989 34.9804 185.949 34.3504C186.939 33.6904 187.719 32.8204 188.289 31.7404H188.829L192.474 33.3154C191.604 35.2054 190.314 36.6904 188.604 37.7704C186.894 38.8504 184.899 39.3904 182.619 39.3904ZM205.99 39.3904C203.74 39.3904 201.745 38.8954 200.005 37.9054C198.295 36.8854 196.96 35.4754 196 33.6754C195.04 31.8754 194.56 29.7904 194.56 27.4204C194.56 25.0504 195.025 22.9804 195.955 21.2104C196.915 19.4104 198.235 18.0154 199.915 17.0254C201.625 16.0054 203.59 15.4954 205.81 15.4954C208 15.4954 209.905 16.0054 211.525 17.0254C213.175 18.0454 214.45 19.4854 215.35 21.3454C216.28 23.1754 216.745 25.3204 216.745 27.7804V28.4554L216.07 29.1304H196.855V25.1704H214.585L212.29 26.0704C212.23 24.7204 211.9 23.5654 211.3 22.6054C210.73 21.6454 209.965 20.9104 209.005 20.4004C208.075 19.8604 207.025 19.5904 205.855 19.5904C204.595 19.5904 203.44 19.8904 202.39 20.4904C201.34 21.0904 200.515 21.9304 199.915 23.0104C199.345 24.0604 199.06 25.2904 199.06 26.7004V28.0504C199.06 29.4304 199.36 30.6754 199.96 31.7854C200.56 32.8654 201.385 33.7204 202.435 34.3504C203.485 34.9804 204.67 35.2954 205.99 35.2954C207.25 35.2954 208.36 34.9804 209.32 34.3504C210.31 33.6904 211.09 32.8204 211.66 31.7404H212.2L215.845 33.3154C214.975 35.2054 213.685 36.6904 211.975 37.7704C210.265 38.8504 208.27 39.3904 205.99 39.3904ZM154.62 83.7604V52.2604H159.12V83.7604H154.62ZM145.035 56.5804V52.2604H168.705V56.5804H145.035ZM170.697 83.7604V51.3604L175.062 50.8204L175.197 51.1804V67.2004L173.757 66.7954C174.207 65.5054 174.882 64.3954 175.782 63.4654C176.682 62.5054 177.732 61.7704 178.932 61.2604C180.162 60.7504 181.467 60.4954 182.847 60.4954C184.467 60.4954 185.922 60.8404 187.212 61.5304C188.502 62.2204 189.522 63.2554 190.272 64.6354C191.022 65.9854 191.397 67.6804 191.397 69.7204V83.7604H186.897V70.9804C186.897 69.4504 186.672 68.2354 186.222 67.3354C185.772 66.4054 185.157 65.7304 184.377 65.3104C183.627 64.8904 182.742 64.6804 181.722 64.6804C180.702 64.6804 179.682 64.9354 178.662 65.4454C177.672 65.9554 176.847 66.7504 176.187 67.8304C175.527 68.9104 175.197 70.3204 175.197 72.0604V83.7604H170.697ZM204.979 84.3904C202.729 84.3904 200.734 83.8954 198.994 82.9054C197.284 81.8854 195.949 80.4754 194.989 78.6754C194.029 76.8754 193.549 74.7904 193.549 72.4204C193.549 70.0504 194.014 67.9804 194.944 66.2104C195.904 64.4104 197.224 63.0154 198.904 62.0254C200.614 61.0054 202.579 60.4954 204.799 60.4954C206.989 60.4954 208.894 61.0054 210.514 62.0254C212.164 63.0454 213.439 64.4854 214.339 66.3454C215.269 68.1754 215.734 70.3204 215.734 72.7804V73.4554L215.059 74.1304H195.844V70.1704H213.574L211.279 71.0704C211.219 69.7204 210.889 68.5654 210.289 67.6054C209.719 66.6454 208.954 65.9104 207.994 65.4004C207.064 64.8604 206.014 64.5904 204.844 64.5904C203.584 64.5904 202.429 64.8904 201.379 65.4904C200.329 66.0904 199.504 66.9304 198.904 68.0104C198.334 69.0604 198.049 70.2904 198.049 71.7004V73.0504C198.049 74.4304 198.349 75.6754 198.949 76.7854C199.549 77.8654 200.374 78.7204 201.424 79.3504C202.474 79.9804 203.659 80.2954 204.979 80.2954C206.239 80.2954 207.349 79.9804 208.309 79.3504C209.299 78.6904 210.079 77.8204 210.649 76.7404H211.189L214.834 78.3154C213.964 80.2054 212.674 81.6904 210.964 82.7704C209.254 83.8504 207.259 84.3904 204.979 84.3904ZM173.655 128.76L163.845 97.2604H168.435L177.66 127.815L178.065 128.76H173.655ZM173.655 128.76L173.88 127.815L182.655 97.2604H187.29V97.6204L178.065 128.76H173.655ZM154.215 128.76L144.99 97.6204V97.2604H149.625L158.4 127.815L158.625 128.76H154.215ZM154.215 128.76L154.575 127.815L163.845 97.2604H168.435L158.625 128.76H154.215ZM198.308 129.39C196.058 129.39 194.078 128.88 192.368 127.86C190.658 126.84 189.308 125.445 188.318 123.675C187.358 121.875 186.878 119.79 186.878 117.42C186.878 115.08 187.358 113.01 188.318 111.21C189.308 109.41 190.658 108.015 192.368 107.025C194.078 106.005 196.058 105.495 198.308 105.495C200.558 105.495 202.538 106.005 204.248 107.025C205.958 108.015 207.293 109.41 208.253 111.21C209.243 113.01 209.738 115.08 209.738 117.42C209.738 119.79 209.243 121.875 208.253 123.675C207.293 125.475 205.958 126.885 204.248 127.905C202.538 128.895 200.558 129.39 198.308 129.39ZM198.308 125.205C199.688 125.205 200.888 124.89 201.908 124.26C202.958 123.63 203.768 122.73 204.338 121.56C204.938 120.39 205.238 119.025 205.238 117.465C205.238 115.845 204.938 114.465 204.338 113.325C203.768 112.155 202.958 111.255 201.908 110.625C200.888 109.965 199.688 109.635 198.308 109.635C196.928 109.635 195.713 109.965 194.663 110.625C193.643 111.255 192.833 112.155 192.233 113.325C191.663 114.465 191.378 115.83 191.378 117.42C191.378 119.01 191.663 120.39 192.233 121.56C192.833 122.73 193.643 123.63 194.663 124.26C195.713 124.89 196.928 125.205 198.308 125.205ZM212.167 128.76V106.125H216.442V112.2L215.227 111.795C215.827 110.055 216.847 108.675 218.287 107.655C219.757 106.635 221.437 106.125 223.327 106.125H225.532V110.265H222.607C221.407 110.265 220.357 110.55 219.457 111.12C218.587 111.66 217.897 112.425 217.387 113.415C216.907 114.405 216.667 115.575 216.667 116.925V128.76H212.167ZM229.271 124.575V118.545L241.646 106.125H247.136V106.485L229.271 124.575ZM226.841 128.76V96.3604L231.206 95.8204L231.341 96.1804V128.76H226.841ZM242.186 128.76L234.176 117.24L237.281 114.315L247.181 128.4V128.76H242.186ZM255.311 129.39C252.881 129.39 250.826 128.82 249.146 127.68C247.466 126.51 246.356 124.905 245.816 122.865L249.911 121.83L250.451 121.965C250.751 123.015 251.366 123.84 252.296 124.44C253.256 125.01 254.366 125.295 255.626 125.295C256.856 125.295 257.906 125.025 258.776 124.485C259.646 123.945 260.081 123.225 260.081 122.325C260.081 121.575 259.826 120.99 259.316 120.57C258.806 120.12 258.041 119.775 257.021 119.535L252.791 118.59C250.661 118.11 249.071 117.33 248.021 116.25C246.971 115.14 246.446 113.805 246.446 112.245C246.446 110.895 246.821 109.725 247.571 108.735C248.321 107.715 249.341 106.92 250.631 106.35C251.951 105.78 253.436 105.495 255.086 105.495C257.426 105.495 259.406 106.08 261.026 107.25C262.646 108.39 263.711 110.01 264.221 112.11L260.261 112.965L259.766 112.875C259.496 111.855 258.896 111.06 257.966 110.49C257.066 109.89 256.046 109.59 254.906 109.59C253.796 109.59 252.851 109.83 252.071 110.31C251.321 110.76 250.946 111.36 250.946 112.11C250.946 112.71 251.186 113.235 251.666 113.685C252.146 114.105 252.881 114.42 253.871 114.63L258.146 115.62C260.306 116.1 261.911 116.865 262.961 117.915C264.041 118.965 264.581 120.345 264.581 122.055C264.581 123.555 264.176 124.86 263.366 125.97C262.586 127.05 261.491 127.89 260.081 128.49C258.701 129.09 257.111 129.39 255.311 129.39Z" fill="#FF281B"/>
<path d="M139.336 183.76V169.76H141.336V183.76H139.336ZM140.356 177.72V175.8H147.536V177.72H140.356ZM140.356 171.68V169.76H148.136V171.68H140.356ZM153.36 184.04C152.36 184.04 151.48 183.814 150.72 183.36C149.96 182.907 149.36 182.287 148.92 181.5C148.493 180.7 148.28 179.774 148.28 178.72C148.28 177.68 148.493 176.76 148.92 175.96C149.36 175.16 149.96 174.54 150.72 174.1C151.48 173.647 152.36 173.42 153.36 173.42C154.36 173.42 155.24 173.647 156 174.1C156.76 174.54 157.353 175.16 157.78 175.96C158.22 176.76 158.44 177.68 158.44 178.72C158.44 179.774 158.22 180.7 157.78 181.5C157.353 182.3 156.76 182.927 156 183.38C155.24 183.82 154.36 184.04 153.36 184.04ZM153.36 182.18C153.973 182.18 154.506 182.04 154.96 181.76C155.426 181.48 155.786 181.08 156.04 180.56C156.306 180.04 156.44 179.434 156.44 178.74C156.44 178.02 156.306 177.407 156.04 176.9C155.786 176.38 155.426 175.98 154.96 175.7C154.506 175.407 153.973 175.26 153.36 175.26C152.746 175.26 152.206 175.407 151.74 175.7C151.286 175.98 150.926 176.38 150.66 176.9C150.406 177.407 150.28 178.014 150.28 178.72C150.28 179.427 150.406 180.04 150.66 180.56C150.926 181.08 151.286 181.48 151.74 181.76C152.206 182.04 152.746 182.18 153.36 182.18ZM168.619 173.7V183.76H166.719V181.06L167.259 181.22C167.059 181.794 166.759 182.294 166.359 182.72C165.959 183.134 165.486 183.46 164.939 183.7C164.406 183.927 163.826 184.04 163.199 184.04C162.493 184.04 161.853 183.887 161.279 183.58C160.706 183.26 160.253 182.8 159.919 182.2C159.586 181.587 159.419 180.834 159.419 179.94V173.7H161.419V179.38C161.419 180.047 161.513 180.587 161.699 181C161.899 181.414 162.173 181.714 162.519 181.9C162.866 182.074 163.266 182.16 163.719 182.16C164.173 182.16 164.619 182.047 165.059 181.82C165.513 181.594 165.886 181.24 166.179 180.76C166.473 180.28 166.619 179.66 166.619 178.9V173.7H168.619ZM170.238 183.76V173.7H172.138V176.4L171.598 176.22C171.798 175.647 172.098 175.154 172.498 174.74C172.898 174.314 173.365 173.987 173.898 173.76C174.445 173.534 175.025 173.42 175.638 173.42C176.358 173.42 177.005 173.574 177.578 173.88C178.151 174.187 178.605 174.647 178.938 175.26C179.271 175.86 179.438 176.614 179.438 177.52V183.76H177.438V178.08C177.438 177.4 177.338 176.86 177.138 176.46C176.938 176.047 176.665 175.747 176.318 175.56C175.985 175.374 175.591 175.28 175.138 175.28C174.685 175.28 174.231 175.394 173.778 175.62C173.338 175.847 172.971 176.2 172.678 176.68C172.385 177.16 172.238 177.787 172.238 178.56V183.76H170.238ZM185.197 184.04C184.303 184.04 183.49 183.814 182.757 183.36C182.037 182.894 181.463 182.267 181.037 181.48C180.61 180.68 180.397 179.767 180.397 178.74C180.397 177.7 180.61 176.78 181.037 175.98C181.463 175.18 182.037 174.554 182.757 174.1C183.49 173.647 184.303 173.42 185.197 173.42C185.917 173.42 186.57 173.567 187.157 173.86C187.743 174.154 188.237 174.547 188.637 175.04C189.037 175.52 189.323 176.067 189.497 176.68V180.8C189.323 181.4 189.037 181.947 188.637 182.44C188.237 182.92 187.743 183.307 187.157 183.6C186.57 183.894 185.917 184.04 185.197 184.04ZM185.437 182.18C186.05 182.18 186.59 182.034 187.057 181.74C187.523 181.447 187.89 181.04 188.157 180.52C188.423 180 188.557 179.4 188.557 178.72C188.557 178.04 188.423 177.44 188.157 176.92C187.89 176.4 187.523 176 187.057 175.72C186.59 175.427 186.05 175.28 185.437 175.28C184.85 175.28 184.323 175.427 183.857 175.72C183.403 176 183.043 176.4 182.777 176.92C182.523 177.44 182.397 178.04 182.397 178.72C182.397 179.4 182.523 180 182.777 180.52C183.043 181.04 183.403 181.447 183.857 181.74C184.323 182.034 184.85 182.18 185.437 182.18ZM188.637 183.76V180.4L189.037 178.72L188.537 177.04V169.36L190.477 169.12L190.537 169.28V183.76H188.637ZM196.801 184.04C195.801 184.04 194.914 183.82 194.141 183.38C193.381 182.927 192.788 182.3 192.361 181.5C191.934 180.7 191.721 179.774 191.721 178.72C191.721 177.667 191.928 176.747 192.341 175.96C192.768 175.16 193.354 174.54 194.101 174.1C194.861 173.647 195.734 173.42 196.721 173.42C197.694 173.42 198.541 173.647 199.261 174.1C199.994 174.554 200.561 175.194 200.961 176.02C201.374 176.834 201.581 177.787 201.581 178.88V179.18L201.281 179.48H192.741V177.72H200.621L199.601 178.12C199.574 177.52 199.428 177.007 199.161 176.58C198.908 176.154 198.568 175.827 198.141 175.6C197.728 175.36 197.261 175.24 196.741 175.24C196.181 175.24 195.668 175.374 195.201 175.64C194.734 175.907 194.368 176.28 194.101 176.76C193.848 177.227 193.721 177.774 193.721 178.4V179C193.721 179.614 193.854 180.167 194.121 180.66C194.388 181.14 194.754 181.52 195.221 181.8C195.688 182.08 196.214 182.22 196.801 182.22C197.361 182.22 197.854 182.08 198.281 181.8C198.721 181.507 199.068 181.12 199.321 180.64H199.561L201.181 181.34C200.794 182.18 200.221 182.84 199.461 183.32C198.701 183.8 197.814 184.04 196.801 184.04ZM202.668 183.76V173.7H204.568V176.4L204.028 176.22C204.294 175.447 204.748 174.834 205.388 174.38C206.041 173.927 206.788 173.7 207.628 173.7H208.608V175.54H207.308C206.774 175.54 206.308 175.667 205.908 175.92C205.521 176.16 205.214 176.5 204.988 176.94C204.774 177.38 204.668 177.9 204.668 178.5V183.76H202.668ZM221.512 183.76L212.352 170.3V169.76H214.352L223.532 183.22V183.76H221.512ZM212.352 183.76V169.76H214.352V183.76H212.352ZM221.512 183.76V169.76H223.532V183.76H221.512ZM228.295 184.04C227.615 184.04 227.002 183.907 226.455 183.64C225.922 183.374 225.502 183.007 225.195 182.54C224.889 182.06 224.735 181.514 224.735 180.9C224.735 179.98 225.055 179.247 225.695 178.7C226.335 178.14 227.242 177.814 228.415 177.72L232.295 177.4V179.12L228.755 179.4C228.075 179.454 227.575 179.6 227.255 179.84C226.935 180.08 226.775 180.407 226.775 180.82C226.775 181.22 226.949 181.554 227.295 181.82C227.642 182.074 228.082 182.2 228.615 182.2C229.175 182.2 229.682 182.067 230.135 181.8C230.602 181.534 230.969 181.18 231.235 180.74C231.502 180.287 231.635 179.8 231.635 179.28V177.64C231.635 176.934 231.409 176.354 230.955 175.9C230.515 175.447 229.929 175.22 229.195 175.22C228.582 175.22 228.069 175.367 227.655 175.66C227.255 175.954 226.989 176.34 226.855 176.82H226.635L224.915 176.34C225.182 175.447 225.689 174.734 226.435 174.2C227.182 173.667 228.102 173.4 229.195 173.4C230.595 173.4 231.682 173.814 232.455 174.64C233.229 175.454 233.615 176.6 233.615 178.08V183.76H231.775V180.84L232.495 181.06C232.335 181.607 232.049 182.107 231.635 182.56C231.235 183.014 230.749 183.374 230.175 183.64C229.602 183.907 228.975 184.04 228.295 184.04ZM235.152 183.76V173.7H237.052V176.4L236.512 176.22C236.779 175.447 237.232 174.834 237.872 174.38C238.525 173.927 239.272 173.7 240.112 173.7H241.092V175.54H239.792C239.259 175.54 238.792 175.667 238.392 175.92C238.005 176.16 237.699 176.5 237.472 176.94C237.259 177.38 237.152 177.9 237.152 178.5V183.76H235.152ZM241.574 183.76V173.7H243.474V176.4L242.934 176.22C243.201 175.447 243.654 174.834 244.294 174.38C244.947 173.927 245.694 173.7 246.534 173.7H247.514V175.54H246.214C245.681 175.54 245.214 175.667 244.814 175.92C244.427 176.16 244.121 176.5 243.894 176.94C243.681 177.38 243.574 177.9 243.574 178.5V183.76H241.574ZM250.725 184.04C250.045 184.04 249.432 183.907 248.885 183.64C248.352 183.374 247.932 183.007 247.625 182.54C247.318 182.06 247.165 181.514 247.165 180.9C247.165 179.98 247.485 179.247 248.125 178.7C248.765 178.14 249.672 177.814 250.845 177.72L254.725 177.4V179.12L251.185 179.4C250.505 179.454 250.005 179.6 249.685 179.84C249.365 180.08 249.205 180.407 249.205 180.82C249.205 181.22 249.378 181.554 249.725 181.82C250.072 182.074 250.512 182.2 251.045 182.2C251.605 182.2 252.112 182.067 252.565 181.8C253.032 181.534 253.398 181.18 253.665 180.74C253.932 180.287 254.065 179.8 254.065 179.28V177.64C254.065 176.934 253.838 176.354 253.385 175.9C252.945 175.447 252.358 175.22 251.625 175.22C251.012 175.22 250.498 175.367 250.085 175.66C249.685 175.954 249.418 176.34 249.285 176.82H249.065L247.345 176.34C247.612 175.447 248.118 174.734 248.865 174.2C249.612 173.667 250.532 173.4 251.625 173.4C253.025 173.4 254.112 173.814 254.885 174.64C255.658 175.454 256.045 176.6 256.045 178.08V183.76H254.205V180.84L254.925 181.06C254.765 181.607 254.478 182.107 254.065 182.56C253.665 183.014 253.178 183.374 252.605 183.64C252.032 183.907 251.405 184.04 250.725 184.04ZM260.819 183.76C259.899 183.76 259.152 183.467 258.579 182.88C258.019 182.294 257.739 181.5 257.739 180.5V171.04H259.739V180.32C259.739 180.867 259.865 181.274 260.119 181.54C260.385 181.794 260.792 181.92 261.339 181.92H262.459L262.559 182.14V183.76H260.819ZM256.019 175.54V173.7H262.559V175.54H256.019ZM263.73 183.76V173.7H265.73V183.76H263.73ZM264.73 172.02C264.357 172.02 264.043 171.894 263.79 171.64C263.537 171.374 263.41 171.06 263.41 170.7C263.41 170.327 263.537 170.014 263.79 169.76C264.043 169.507 264.357 169.38 264.73 169.38C265.09 169.38 265.397 169.507 265.65 169.76C265.917 170.014 266.05 170.327 266.05 170.7C266.05 171.06 265.917 171.374 265.65 171.64C265.397 171.894 265.09 172.02 264.73 172.02ZM270.188 183.76L270.328 182.54L273.848 173.7H275.908V173.86L271.848 183.76H270.188ZM269.888 183.76L265.828 173.86V173.7H267.888L271.408 182.54L271.548 183.76H269.888ZM280.508 184.04C279.508 184.04 278.621 183.82 277.848 183.38C277.088 182.927 276.495 182.3 276.068 181.5C275.641 180.7 275.428 179.774 275.428 178.72C275.428 177.667 275.635 176.747 276.048 175.96C276.475 175.16 277.061 174.54 277.808 174.1C278.568 173.647 279.441 173.42 280.428 173.42C281.401 173.42 282.248 173.647 282.968 174.1C283.701 174.554 284.268 175.194 284.668 176.02C285.081 176.834 285.288 177.787 285.288 178.88V179.18L284.988 179.48H276.448V177.72H284.328L283.308 178.12C283.281 177.52 283.135 177.007 282.868 176.58C282.615 176.154 282.275 175.827 281.848 175.6C281.435 175.36 280.968 175.24 280.448 175.24C279.888 175.24 279.375 175.374 278.908 175.64C278.441 175.907 278.075 176.28 277.808 176.76C277.555 177.227 277.428 177.774 277.428 178.4V179C277.428 179.614 277.561 180.167 277.828 180.66C278.095 181.14 278.461 181.52 278.928 181.8C279.395 182.08 279.921 182.22 280.508 182.22C281.068 182.22 281.561 182.08 281.988 181.8C282.428 181.507 282.775 181.12 283.028 180.64H283.268L284.888 181.34C284.501 182.18 283.928 182.84 283.168 183.32C282.408 183.8 281.521 184.04 280.508 184.04ZM285.055 185.66L291.875 168.48H293.995L287.175 185.66H285.055ZM91.1997 208.76V194.76H93.1597V208.76H91.1997ZM92.2397 203.2V201.34H96.5197C97.3064 201.34 97.913 201.134 98.3397 200.72C98.7797 200.294 98.9997 199.714 98.9997 198.98H101.08C101.08 200.26 100.68 201.287 99.8797 202.06C99.0797 202.82 97.9997 203.2 96.6397 203.2H92.2397ZM98.9997 198.98C98.9997 198.247 98.7797 197.674 98.3397 197.26C97.913 196.847 97.3064 196.64 96.5197 196.64H92.2397V194.76H96.6397C97.9997 194.76 99.0797 195.147 99.8797 195.92C100.68 196.68 101.08 197.7 101.08 198.98H98.9997ZM98.9597 208.76L95.6597 202.68L97.5397 202.04L101.14 208.6V208.76H98.9597ZM106.297 209.04C105.297 209.04 104.41 208.82 103.637 208.38C102.877 207.927 102.284 207.3 101.857 206.5C101.43 205.7 101.217 204.774 101.217 203.72C101.217 202.667 101.424 201.747 101.837 200.96C102.264 200.16 102.85 199.54 103.597 199.1C104.357 198.647 105.23 198.42 106.217 198.42C107.19 198.42 108.037 198.647 108.757 199.1C109.49 199.554 110.057 200.194 110.457 201.02C110.87 201.834 111.077 202.787 111.077 203.88V204.18L110.777 204.48H102.237V202.72H110.117L109.097 203.12C109.07 202.52 108.924 202.007 108.657 201.58C108.404 201.154 108.064 200.827 107.637 200.6C107.224 200.36 106.757 200.24 106.237 200.24C105.677 200.24 105.164 200.374 104.697 200.64C104.23 200.907 103.864 201.28 103.597 201.76C103.344 202.227 103.217 202.774 103.217 203.4V204C103.217 204.614 103.35 205.167 103.617 205.66C103.884 206.14 104.25 206.52 104.717 206.8C105.184 207.08 105.71 207.22 106.297 207.22C106.857 207.22 107.35 207.08 107.777 206.8C108.217 206.507 108.564 206.12 108.817 205.64H109.057L110.677 206.34C110.29 207.18 109.717 207.84 108.957 208.32C108.197 208.8 107.31 209.04 106.297 209.04ZM115.284 209.04C114.604 209.04 113.99 208.907 113.444 208.64C112.91 208.374 112.49 208.007 112.184 207.54C111.877 207.06 111.724 206.514 111.724 205.9C111.724 204.98 112.044 204.247 112.684 203.7C113.324 203.14 114.23 202.814 115.404 202.72L119.284 202.4V204.12L115.744 204.4C115.064 204.454 114.564 204.6 114.244 204.84C113.924 205.08 113.764 205.407 113.764 205.82C113.764 206.22 113.937 206.554 114.284 206.82C114.63 207.074 115.07 207.2 115.604 207.2C116.164 207.2 116.67 207.067 117.124 206.8C117.59 206.534 117.957 206.18 118.224 205.74C118.49 205.287 118.624 204.8 118.624 204.28V202.64C118.624 201.934 118.397 201.354 117.944 200.9C117.504 200.447 116.917 200.22 116.184 200.22C115.57 200.22 115.057 200.367 114.644 200.66C114.244 200.954 113.977 201.34 113.844 201.82H113.624L111.904 201.34C112.17 200.447 112.677 199.734 113.424 199.2C114.17 198.667 115.09 198.4 116.184 198.4C117.584 198.4 118.67 198.814 119.444 199.64C120.217 200.454 120.604 201.6 120.604 203.08V208.76H118.764V205.84L119.484 206.06C119.324 206.607 119.037 207.107 118.624 207.56C118.224 208.014 117.737 208.374 117.164 208.64C116.59 208.907 115.964 209.04 115.284 209.04ZM122.436 208.76V194.36L124.376 194.12L124.436 194.28V208.76H122.436ZM126.179 208.76V198.7H128.179V208.76H126.179ZM127.179 197.02C126.806 197.02 126.493 196.894 126.239 196.64C125.986 196.374 125.859 196.06 125.859 195.7C125.859 195.327 125.986 195.014 126.239 194.76C126.493 194.507 126.806 194.38 127.179 194.38C127.539 194.38 127.846 194.507 128.099 194.76C128.366 195.014 128.499 195.327 128.499 195.7C128.499 196.06 128.366 196.374 128.099 196.64C127.846 196.894 127.539 197.02 127.179 197.02ZM133.065 208.76C132.145 208.76 131.398 208.467 130.825 207.88C130.265 207.294 129.985 206.5 129.985 205.5V196.04H131.985V205.32C131.985 205.867 132.111 206.274 132.365 206.54C132.631 206.794 133.038 206.92 133.585 206.92H134.705L134.805 207.14V208.76H133.065ZM128.265 200.54V198.7H134.805V200.54H128.265ZM137.196 212.76V212.6L138.836 208.76L139.556 207.22L143.016 198.7H145.076V198.86L139.236 212.76H137.196ZM138.836 208.76L134.816 198.86V198.7H136.876L140.356 207.54V208.76H138.836ZM153.645 209.04C152.685 209.04 151.818 208.867 151.045 208.52C150.271 208.174 149.625 207.687 149.105 207.06C148.598 206.434 148.258 205.7 148.085 204.86L149.905 204.4L150.125 204.44C150.298 204.96 150.551 205.427 150.885 205.84C151.231 206.24 151.645 206.56 152.125 206.8C152.605 207.027 153.125 207.14 153.685 207.14C154.258 207.14 154.758 207.047 155.185 206.86C155.625 206.674 155.971 206.42 156.225 206.1C156.478 205.767 156.605 205.387 156.605 204.96C156.605 204.4 156.445 203.967 156.125 203.66C155.805 203.354 155.338 203.12 154.725 202.96L152.125 202.24C150.978 201.934 150.105 201.44 149.505 200.76C148.905 200.067 148.605 199.267 148.605 198.36C148.605 197.6 148.798 196.934 149.185 196.36C149.585 195.774 150.138 195.314 150.845 194.98C151.551 194.647 152.365 194.48 153.285 194.48C154.178 194.48 154.978 194.647 155.685 194.98C156.405 195.3 156.998 195.754 157.465 196.34C157.945 196.927 158.258 197.627 158.405 198.44L156.645 198.82L156.425 198.78C156.251 198.034 155.885 197.447 155.325 197.02C154.765 196.594 154.078 196.38 153.265 196.38C152.491 196.38 151.871 196.567 151.405 196.94C150.938 197.3 150.705 197.774 150.705 198.36C150.705 198.854 150.871 199.26 151.205 199.58C151.551 199.9 152.045 200.154 152.685 200.34L155.285 201.04C156.391 201.334 157.238 201.807 157.825 202.46C158.425 203.114 158.725 203.914 158.725 204.86C158.725 205.7 158.511 206.434 158.085 207.06C157.658 207.687 157.065 208.174 156.305 208.52C155.545 208.867 154.658 209.04 153.645 209.04ZM160.049 208.76V194.36L161.989 194.12L162.049 194.28V201.4L161.409 201.22C161.609 200.647 161.909 200.154 162.309 199.74C162.709 199.314 163.176 198.987 163.709 198.76C164.256 198.534 164.836 198.42 165.449 198.42C166.169 198.42 166.816 198.574 167.389 198.88C167.962 199.187 168.416 199.647 168.749 200.26C169.082 200.86 169.249 201.614 169.249 202.52V208.76H167.249V203.08C167.249 202.4 167.149 201.86 166.949 201.46C166.749 201.047 166.476 200.747 166.129 200.56C165.796 200.374 165.402 200.28 164.949 200.28C164.496 200.28 164.042 200.394 163.589 200.62C163.149 200.847 162.782 201.2 162.489 201.68C162.196 202.16 162.049 202.787 162.049 203.56V208.76H160.049ZM175.285 209.04C174.285 209.04 173.405 208.814 172.645 208.36C171.885 207.907 171.285 207.287 170.845 206.5C170.419 205.7 170.205 204.774 170.205 203.72C170.205 202.68 170.419 201.76 170.845 200.96C171.285 200.16 171.885 199.54 172.645 199.1C173.405 198.647 174.285 198.42 175.285 198.42C176.285 198.42 177.165 198.647 177.925 199.1C178.685 199.54 179.279 200.16 179.705 200.96C180.145 201.76 180.365 202.68 180.365 203.72C180.365 204.774 180.145 205.7 179.705 206.5C179.279 207.3 178.685 207.927 177.925 208.38C177.165 208.82 176.285 209.04 175.285 209.04ZM175.285 207.18C175.899 207.18 176.432 207.04 176.885 206.76C177.352 206.48 177.712 206.08 177.965 205.56C178.232 205.04 178.365 204.434 178.365 203.74C178.365 203.02 178.232 202.407 177.965 201.9C177.712 201.38 177.352 200.98 176.885 200.7C176.432 200.407 175.899 200.26 175.285 200.26C174.672 200.26 174.132 200.407 173.665 200.7C173.212 200.98 172.852 201.38 172.585 201.9C172.332 202.407 172.205 203.014 172.205 203.72C172.205 204.427 172.332 205.04 172.585 205.56C172.852 206.08 173.212 206.48 173.665 206.76C174.132 207.04 174.672 207.18 175.285 207.18ZM183.294 208.76L179.994 198.86V198.7H181.994L184.814 207.72L185.214 208.76H183.294ZM183.294 208.76L183.754 207.72L186.674 198.7H188.634L188.454 198.86L185.214 208.76H183.294ZM190.094 208.76L186.854 198.86L186.674 198.7H188.634L191.554 207.72L192.014 208.76H190.094ZM190.094 208.76L190.494 207.72L193.314 198.7H195.314V198.86L192.014 208.76H190.094ZM199.157 208.76V194.76H201.157V208.76H199.157ZM202.996 208.76V198.7H204.896V201.4L204.356 201.22C204.556 200.647 204.856 200.154 205.256 199.74C205.656 199.314 206.122 198.987 206.656 198.76C207.202 198.534 207.782 198.42 208.396 198.42C209.116 198.42 209.762 198.574 210.336 198.88C210.909 199.187 211.362 199.647 211.696 200.26C212.029 200.86 212.196 201.614 212.196 202.52V208.76H210.196V203.08C210.196 202.4 210.096 201.86 209.896 201.46C209.696 201.047 209.422 200.747 209.076 200.56C208.742 200.374 208.349 200.28 207.896 200.28C207.442 200.28 206.989 200.394 206.536 200.62C206.096 200.847 205.729 201.2 205.436 201.68C205.142 202.16 204.996 202.787 204.996 203.56V208.76H202.996ZM216.951 208.76C216.031 208.76 215.285 208.467 214.711 207.88C214.151 207.294 213.871 206.5 213.871 205.5V196.04H215.871V205.32C215.871 205.867 215.998 206.274 216.251 206.54C216.518 206.794 216.925 206.92 217.471 206.92H218.591L218.691 207.14V208.76H216.951ZM212.151 200.54V198.7H218.691V200.54H212.151ZM223.992 209.04C222.992 209.04 222.106 208.82 221.332 208.38C220.572 207.927 219.979 207.3 219.552 206.5C219.126 205.7 218.912 204.774 218.912 203.72C218.912 202.667 219.119 201.747 219.532 200.96C219.959 200.16 220.546 199.54 221.292 199.1C222.052 198.647 222.926 198.42 223.912 198.42C224.886 198.42 225.732 198.647 226.452 199.1C227.186 199.554 227.752 200.194 228.152 201.02C228.566 201.834 228.772 202.787 228.772 203.88V204.18L228.472 204.48H219.932V202.72H227.812L226.792 203.12C226.766 202.52 226.619 202.007 226.352 201.58C226.099 201.154 225.759 200.827 225.332 200.6C224.919 200.36 224.452 200.24 223.932 200.24C223.372 200.24 222.859 200.374 222.392 200.64C221.926 200.907 221.559 201.28 221.292 201.76C221.039 202.227 220.912 202.774 220.912 203.4V204C220.912 204.614 221.046 205.167 221.312 205.66C221.579 206.14 221.946 206.52 222.412 206.8C222.879 207.08 223.406 207.22 223.992 207.22C224.552 207.22 225.046 207.08 225.472 206.8C225.912 206.507 226.259 206.12 226.512 205.64H226.752L228.372 206.34C227.986 207.18 227.412 207.84 226.652 208.32C225.892 208.8 225.006 209.04 223.992 209.04ZM233.104 212.76C231.77 212.76 230.73 212.494 229.984 211.96C229.237 211.427 228.864 210.707 228.864 209.8C228.864 209.2 229.01 208.68 229.304 208.24C229.61 207.787 230.057 207.44 230.644 207.2L231.644 208.1C231.364 208.22 231.144 208.407 230.984 208.66C230.824 208.9 230.744 209.167 230.744 209.46C230.744 209.9 230.917 210.274 231.264 210.58C231.624 210.9 232.164 211.06 232.884 211.06H234.284C235.017 211.06 235.584 210.94 235.984 210.7C236.397 210.474 236.604 210.134 236.604 209.68C236.604 209.334 236.464 209.06 236.184 208.86C235.917 208.674 235.524 208.58 235.004 208.58H232.404C231.844 208.58 231.337 208.487 230.884 208.3C230.444 208.1 230.097 207.827 229.844 207.48C229.59 207.134 229.464 206.734 229.464 206.28C229.464 205.8 229.604 205.374 229.884 205C230.177 204.614 230.61 204.307 231.184 204.08L232.264 205C231.93 205.04 231.677 205.16 231.504 205.36C231.344 205.56 231.264 205.774 231.264 206C231.264 206.294 231.377 206.52 231.604 206.68C231.844 206.84 232.184 206.92 232.624 206.92H235.164C236.177 206.92 236.977 207.174 237.564 207.68C238.164 208.174 238.464 208.834 238.464 209.66C238.464 210.607 238.084 211.36 237.324 211.92C236.564 212.48 235.544 212.76 234.264 212.76H233.104ZM233.744 205.58C232.93 205.58 232.217 205.427 231.604 205.12C230.99 204.814 230.51 204.394 230.164 203.86C229.83 203.314 229.664 202.694 229.664 202C229.664 201.294 229.83 200.674 230.164 200.14C230.51 199.594 230.99 199.174 231.604 198.88C232.217 198.574 232.93 198.42 233.744 198.42C234.557 198.42 235.264 198.574 235.864 198.88C236.477 199.174 236.957 199.594 237.304 200.14C237.65 200.674 237.824 201.294 237.824 202C237.824 202.694 237.65 203.314 237.304 203.86C236.957 204.394 236.477 204.814 235.864 205.12C235.264 205.427 234.557 205.58 233.744 205.58ZM233.744 203.92C234.397 203.92 234.924 203.747 235.324 203.4C235.737 203.04 235.944 202.574 235.944 202C235.944 201.427 235.737 200.967 235.324 200.62C234.924 200.26 234.397 200.08 233.744 200.08C233.077 200.08 232.544 200.26 232.144 200.62C231.744 200.967 231.544 201.427 231.544 202C231.544 202.574 231.744 203.04 232.144 203.4C232.544 203.747 233.077 203.92 233.744 203.92ZM236.584 200.06L235.284 199.36C235.284 198.814 235.397 198.327 235.624 197.9C235.85 197.46 236.15 197.12 236.524 196.88C236.91 196.627 237.337 196.5 237.804 196.5C237.937 196.5 238.064 196.507 238.184 196.52C238.317 196.52 238.417 196.534 238.484 196.56V198.3L238.384 198.52C238.25 198.48 238.084 198.46 237.884 198.46C237.457 198.46 237.13 198.614 236.904 198.92C236.69 199.214 236.584 199.594 236.584 200.06ZM239.172 208.76V198.7H241.072V201.4L240.532 201.22C240.798 200.447 241.252 199.834 241.892 199.38C242.545 198.927 243.292 198.7 244.132 198.7H245.112V200.54H243.812C243.278 200.54 242.812 200.667 242.412 200.92C242.025 201.16 241.718 201.5 241.492 201.94C241.278 202.38 241.172 202.9 241.172 203.5V208.76H239.172ZM248.323 209.04C247.643 209.04 247.029 208.907 246.483 208.64C245.949 208.374 245.529 208.007 245.223 207.54C244.916 207.06 244.763 206.514 244.763 205.9C244.763 204.98 245.083 204.247 245.723 203.7C246.363 203.14 247.269 202.814 248.443 202.72L252.323 202.4V204.12L248.783 204.4C248.103 204.454 247.603 204.6 247.283 204.84C246.963 205.08 246.803 205.407 246.803 205.82C246.803 206.22 246.976 206.554 247.323 206.82C247.669 207.074 248.109 207.2 248.643 207.2C249.203 207.2 249.709 207.067 250.163 206.8C250.629 206.534 250.996 206.18 251.263 205.74C251.529 205.287 251.663 204.8 251.663 204.28V202.64C251.663 201.934 251.436 201.354 250.983 200.9C250.543 200.447 249.956 200.22 249.223 200.22C248.609 200.22 248.096 200.367 247.683 200.66C247.283 200.954 247.016 201.34 246.883 201.82H246.663L244.943 201.34C245.209 200.447 245.716 199.734 246.463 199.2C247.209 198.667 248.129 198.4 249.223 198.4C250.623 198.4 251.709 198.814 252.483 199.64C253.256 200.454 253.643 201.6 253.643 203.08V208.76H251.803V205.84L252.523 206.06C252.363 206.607 252.076 207.107 251.663 207.56C251.263 208.014 250.776 208.374 250.203 208.64C249.629 208.907 249.003 209.04 248.323 209.04ZM258.416 208.76C257.496 208.76 256.75 208.467 256.176 207.88C255.616 207.294 255.336 206.5 255.336 205.5V196.04H257.336V205.32C257.336 205.867 257.463 206.274 257.716 206.54C257.983 206.794 258.39 206.92 258.936 206.92H260.056L260.156 207.14V208.76H258.416ZM253.616 200.54V198.7H260.156V200.54H253.616ZM261.328 208.76V198.7H263.328V208.76H261.328ZM262.328 197.02C261.954 197.02 261.641 196.894 261.388 196.64C261.134 196.374 261.008 196.06 261.008 195.7C261.008 195.327 261.134 195.014 261.388 194.76C261.641 194.507 261.954 194.38 262.328 194.38C262.688 194.38 262.994 194.507 263.248 194.76C263.514 195.014 263.648 195.327 263.648 195.7C263.648 196.06 263.514 196.374 263.248 196.64C262.994 196.894 262.688 197.02 262.328 197.02ZM269.496 209.04C268.496 209.04 267.616 208.814 266.856 208.36C266.096 207.907 265.496 207.287 265.056 206.5C264.63 205.7 264.416 204.774 264.416 203.72C264.416 202.68 264.63 201.76 265.056 200.96C265.496 200.16 266.096 199.54 266.856 199.1C267.616 198.647 268.496 198.42 269.496 198.42C270.496 198.42 271.376 198.647 272.136 199.1C272.896 199.54 273.49 200.16 273.916 200.96C274.356 201.76 274.576 202.68 274.576 203.72C274.576 204.774 274.356 205.7 273.916 206.5C273.49 207.3 272.896 207.927 272.136 208.38C271.376 208.82 270.496 209.04 269.496 209.04ZM269.496 207.18C270.11 207.18 270.643 207.04 271.096 206.76C271.563 206.48 271.923 206.08 272.176 205.56C272.443 205.04 272.576 204.434 272.576 203.74C272.576 203.02 272.443 202.407 272.176 201.9C271.923 201.38 271.563 200.98 271.096 200.7C270.643 200.407 270.11 200.26 269.496 200.26C268.883 200.26 268.343 200.407 267.876 200.7C267.423 200.98 267.063 201.38 266.796 201.9C266.543 202.407 266.416 203.014 266.416 203.72C266.416 204.427 266.543 205.04 266.796 205.56C267.063 206.08 267.423 206.48 267.876 206.76C268.343 207.04 268.883 207.18 269.496 207.18ZM275.656 208.76V198.7H277.556V201.4L277.016 201.22C277.216 200.647 277.516 200.154 277.916 199.74C278.316 199.314 278.783 198.987 279.316 198.76C279.863 198.534 280.443 198.42 281.056 198.42C281.776 198.42 282.423 198.574 282.996 198.88C283.569 199.187 284.023 199.647 284.356 200.26C284.689 200.86 284.856 201.614 284.856 202.52V208.76H282.856V203.08C282.856 202.4 282.756 201.86 282.556 201.46C282.356 201.047 282.083 200.747 281.736 200.56C281.403 200.374 281.009 200.28 280.556 200.28C280.103 200.28 279.649 200.394 279.196 200.62C278.756 200.847 278.389 201.2 278.096 201.68C277.803 202.16 277.656 202.787 277.656 203.56V208.76H275.656ZM285.055 210.66L291.875 193.48H293.995L287.175 210.66H285.055ZM187.782 233.76V219.76H189.782V233.76H187.782ZM188.802 227.72V225.8H195.982V227.72H188.802ZM188.802 221.68V219.76H196.582V221.68H188.802ZM206.326 223.7V233.76H204.426V231.06L204.966 231.22C204.766 231.794 204.466 232.294 204.066 232.72C203.666 233.134 203.193 233.46 202.646 233.7C202.113 233.927 201.533 234.04 200.906 234.04C200.2 234.04 199.56 233.887 198.986 233.58C198.413 233.26 197.96 232.8 197.626 232.2C197.293 231.587 197.126 230.834 197.126 229.94V223.7H199.126V229.38C199.126 230.047 199.22 230.587 199.406 231C199.606 231.414 199.88 231.714 200.226 231.9C200.573 232.074 200.973 232.16 201.426 232.16C201.88 232.16 202.326 232.047 202.766 231.82C203.22 231.594 203.593 231.24 203.886 230.76C204.18 230.28 204.326 229.66 204.326 228.9V223.7H206.326ZM211.885 233.76C210.965 233.76 210.218 233.467 209.645 232.88C209.085 232.294 208.805 231.5 208.805 230.5V221.04H210.805V230.32C210.805 230.867 210.932 231.274 211.185 231.54C211.452 231.794 211.858 231.92 212.405 231.92H213.525L213.625 232.14V233.76H211.885ZM207.085 225.54V223.7H213.625V225.54H207.085ZM223.506 223.7V233.76H221.606V231.06L222.146 231.22C221.946 231.794 221.646 232.294 221.246 232.72C220.846 233.134 220.373 233.46 219.826 233.7C219.293 233.927 218.713 234.04 218.086 234.04C217.379 234.04 216.739 233.887 216.166 233.58C215.593 233.26 215.139 232.8 214.806 232.2C214.473 231.587 214.306 230.834 214.306 229.94V223.7H216.306V229.38C216.306 230.047 216.399 230.587 216.586 231C216.786 231.414 217.059 231.714 217.406 231.9C217.753 232.074 218.153 232.16 218.606 232.16C219.059 232.16 219.506 232.047 219.946 231.82C220.399 231.594 220.773 231.24 221.066 230.76C221.359 230.28 221.506 229.66 221.506 228.9V223.7H223.506ZM225.125 233.76V223.7H227.025V226.4L226.485 226.22C226.751 225.447 227.205 224.834 227.845 224.38C228.498 223.927 229.245 223.7 230.085 223.7H231.065V225.54H229.765C229.231 225.54 228.765 225.667 228.365 225.92C227.978 226.16 227.671 226.5 227.445 226.94C227.231 227.38 227.125 227.9 227.125 228.5V233.76H225.125ZM235.676 234.04C234.676 234.04 233.789 233.82 233.016 233.38C232.256 232.927 231.663 232.3 231.236 231.5C230.809 230.7 230.596 229.774 230.596 228.72C230.596 227.667 230.803 226.747 231.216 225.96C231.643 225.16 232.229 224.54 232.976 224.1C233.736 223.647 234.609 223.42 235.596 223.42C236.569 223.42 237.416 223.647 238.136 224.1C238.869 224.554 239.436 225.194 239.836 226.02C240.249 226.834 240.456 227.787 240.456 228.88V229.18L240.156 229.48H231.616V227.72H239.496L238.476 228.12C238.449 227.52 238.303 227.007 238.036 226.58C237.783 226.154 237.443 225.827 237.016 225.6C236.603 225.36 236.136 225.24 235.616 225.24C235.056 225.24 234.543 225.374 234.076 225.64C233.609 225.907 233.243 226.28 232.976 226.76C232.723 227.227 232.596 227.774 232.596 228.4V229C232.596 229.614 232.729 230.167 232.996 230.66C233.263 231.14 233.629 231.52 234.096 231.8C234.563 232.08 235.089 232.22 235.676 232.22C236.236 232.22 236.729 232.08 237.156 231.8C237.596 231.507 237.943 231.12 238.196 230.64H238.436L240.056 231.34C239.669 232.18 239.096 232.84 238.336 233.32C237.576 233.8 236.689 234.04 235.676 234.04ZM245.411 233.76V219.76H247.411V233.76H245.411ZM246.431 233.76V231.84H254.311V233.76H246.431ZM254.992 233.76V223.7H256.992V233.76H254.992ZM255.992 222.02C255.619 222.02 255.305 221.894 255.052 221.64C254.799 221.374 254.672 221.06 254.672 220.7C254.672 220.327 254.799 220.014 255.052 219.76C255.305 219.507 255.619 219.38 255.992 219.38C256.352 219.38 256.659 219.507 256.912 219.76C257.179 220.014 257.312 220.327 257.312 220.7C257.312 221.06 257.179 221.374 256.912 221.64C256.659 221.894 256.352 222.02 255.992 222.02ZM261.45 233.76L261.59 232.54L265.11 223.7H267.17V223.86L263.11 233.76H261.45ZM261.15 233.76L257.09 223.86V223.7H259.15L262.67 232.54L262.81 233.76H261.15ZM267.64 233.76V223.7H269.64V233.76H267.64ZM268.64 222.02C268.267 222.02 267.954 221.894 267.7 221.64C267.447 221.374 267.32 221.06 267.32 220.7C267.32 220.327 267.447 220.014 267.7 219.76C267.954 219.507 268.267 219.38 268.64 219.38C269 219.38 269.307 219.507 269.56 219.76C269.827 220.014 269.96 220.327 269.96 220.7C269.96 221.06 269.827 221.374 269.56 221.64C269.307 221.894 269 222.02 268.64 222.02ZM271.289 233.76V223.7H273.189V226.4L272.649 226.22C272.849 225.647 273.149 225.154 273.549 224.74C273.949 224.314 274.415 223.987 274.949 223.76C275.495 223.534 276.075 223.42 276.689 223.42C277.409 223.42 278.055 223.574 278.629 223.88C279.202 224.187 279.655 224.647 279.989 225.26C280.322 225.86 280.489 226.614 280.489 227.52V233.76H278.489V228.08C278.489 227.4 278.389 226.86 278.189 226.46C277.989 226.047 277.715 225.747 277.369 225.56C277.035 225.374 276.642 225.28 276.189 225.28C275.735 225.28 275.282 225.394 274.829 225.62C274.389 225.847 274.022 226.2 273.729 226.68C273.435 227.16 273.289 227.787 273.289 228.56V233.76H271.289ZM285.252 237.76C283.919 237.76 282.879 237.494 282.132 236.96C281.386 236.427 281.012 235.707 281.012 234.8C281.012 234.2 281.159 233.68 281.452 233.24C281.759 232.787 282.206 232.44 282.792 232.2L283.792 233.1C283.512 233.22 283.292 233.407 283.132 233.66C282.972 233.9 282.892 234.167 282.892 234.46C282.892 234.9 283.066 235.274 283.412 235.58C283.772 235.9 284.312 236.06 285.032 236.06H286.432C287.166 236.06 287.732 235.94 288.132 235.7C288.546 235.474 288.752 235.134 288.752 234.68C288.752 234.334 288.612 234.06 288.332 233.86C288.066 233.674 287.672 233.58 287.152 233.58H284.552C283.992 233.58 283.486 233.487 283.032 233.3C282.592 233.1 282.246 232.827 281.992 232.48C281.739 232.134 281.612 231.734 281.612 231.28C281.612 230.8 281.752 230.374 282.032 230C282.326 229.614 282.759 229.307 283.332 229.08L284.412 230C284.079 230.04 283.826 230.16 283.652 230.36C283.492 230.56 283.412 230.774 283.412 231C283.412 231.294 283.526 231.52 283.752 231.68C283.992 231.84 284.332 231.92 284.772 231.92H287.312C288.326 231.92 289.126 232.174 289.712 232.68C290.312 233.174 290.612 233.834 290.612 234.66C290.612 235.607 290.232 236.36 289.472 236.92C288.712 237.48 287.692 237.76 286.412 237.76H285.252ZM285.892 230.58C285.079 230.58 284.366 230.427 283.752 230.12C283.139 229.814 282.659 229.394 282.312 228.86C281.979 228.314 281.812 227.694 281.812 227C281.812 226.294 281.979 225.674 282.312 225.14C282.659 224.594 283.139 224.174 283.752 223.88C284.366 223.574 285.079 223.42 285.892 223.42C286.706 223.42 287.412 223.574 288.012 223.88C288.626 224.174 289.106 224.594 289.452 225.14C289.799 225.674 289.972 226.294 289.972 227C289.972 227.694 289.799 228.314 289.452 228.86C289.106 229.394 288.626 229.814 288.012 230.12C287.412 230.427 286.706 230.58 285.892 230.58ZM285.892 228.92C286.546 228.92 287.072 228.747 287.472 228.4C287.886 228.04 288.092 227.574 288.092 227C288.092 226.427 287.886 225.967 287.472 225.62C287.072 225.26 286.546 225.08 285.892 225.08C285.226 225.08 284.692 225.26 284.292 225.62C283.892 225.967 283.692 226.427 283.692 227C283.692 227.574 283.892 228.04 284.292 228.4C284.692 228.747 285.226 228.92 285.892 228.92ZM288.732 225.06L287.432 224.36C287.432 223.814 287.546 223.327 287.772 222.9C287.999 222.46 288.299 222.12 288.672 221.88C289.059 221.627 289.486 221.5 289.952 221.5C290.086 221.5 290.212 221.507 290.332 221.52C290.466 221.52 290.566 221.534 290.632 221.56V223.3L290.532 223.52C290.399 223.48 290.232 223.46 290.032 223.46C289.606 223.46 289.279 223.614 289.052 223.92C288.839 224.214 288.732 224.594 288.732 225.06ZM292.52 233.94C292.12 233.94 291.787 233.807 291.52 233.54C291.253 233.274 291.12 232.947 291.12 232.56C291.12 232.16 291.253 231.827 291.52 231.56C291.787 231.294 292.12 231.16 292.52 231.16C292.893 231.16 293.213 231.294 293.48 231.56C293.747 231.827 293.88 232.16 293.88 232.56C293.88 232.947 293.747 233.274 293.48 233.54C293.213 233.807 292.893 233.94 292.52 233.94Z" fill="#F4F3EF"/>
<path d="M4 1.76044L124 122.76M124 122.76L124 1.76045M124 122.76L4 122.76" stroke="#FF281B" stroke-width="5" stroke-linejoin="round"/>
<path d="M24.9932 237.76C20.5743 237.76 16.7635 236.541 13.5608 234.103C10.3986 231.705 7.82432 228.46 5.83784 224.371C3.85135 220.281 2.37162 215.68 1.39865 210.568C0.466216 205.456 0 200.207 0 194.819C0 189.432 0.466216 184.182 1.39865 179.07C2.37162 173.919 3.85135 169.299 5.83784 165.209C7.82432 161.08 10.3986 157.816 13.5608 155.418C16.7635 152.979 20.5743 151.76 24.9932 151.76C25.6824 151.76 26.1892 151.957 26.5135 152.35C26.8378 152.744 27 153.176 27 153.648C27 154.12 26.8378 154.552 26.5135 154.946C26.1892 155.339 25.6824 155.535 24.9932 155.535C21.3041 155.535 18.1622 156.637 15.5676 158.839C13.0135 161.041 10.9257 164.029 9.30405 167.804C7.72297 171.54 6.56757 175.748 5.83784 180.427C5.10811 185.067 4.74324 189.845 4.74324 194.76C4.74324 199.676 5.10811 204.473 5.83784 209.153C6.56757 213.793 7.72297 218 9.30405 221.776C10.9257 225.511 13.0135 228.48 15.5676 230.682C18.1622 232.884 21.3041 233.985 24.9932 233.985C25.6824 233.985 26.1892 234.182 26.5135 234.575C26.8378 234.968 27 235.401 27 235.873C27 236.345 26.8378 236.777 26.5135 237.171C26.1892 237.564 25.6824 237.76 24.9932 237.76Z" fill="#FF281B"/>
<path d="M311.007 151.76C315.426 151.76 319.236 152.979 322.439 155.418C325.601 157.816 328.176 161.06 330.162 165.15C332.149 169.24 333.628 173.84 334.601 178.952C335.534 184.065 336 189.314 336 194.701C336 200.089 335.534 205.338 334.601 210.45C333.628 215.602 332.149 220.222 330.162 224.312C328.176 228.441 325.601 231.705 322.439 234.103C319.236 236.541 315.426 237.76 311.007 237.76C310.318 237.76 309.811 237.564 309.486 237.171C309.162 236.777 309 236.345 309 235.873C309 235.401 309.162 234.968 309.486 234.575C309.811 234.182 310.318 233.985 311.007 233.985C314.696 233.985 317.838 232.884 320.432 230.682C322.986 228.48 325.074 225.492 326.696 221.717C328.277 217.981 329.432 213.773 330.162 209.094C330.892 204.454 331.257 199.676 331.257 194.76C331.257 189.845 330.892 185.048 330.162 180.368C329.432 175.728 328.277 171.52 326.696 167.745C325.074 164.01 322.986 161.041 320.432 158.839C317.838 156.637 314.696 155.535 311.007 155.535C310.318 155.535 309.811 155.339 309.486 154.946C309.162 154.552 309 154.12 309 153.648C309 153.176 309.162 152.744 309.486 152.35C309.811 151.957 310.318 151.76 311.007 151.76Z" fill="#FF281B"/>
</svg>
