<svg width="2259" height="2625" viewBox="0 0 2259 2625" fill="none" xmlns="http://www.w3.org/2000/svg">
<path d="M1825.15 1H1853V1239.34L1973.77 155.449H1871.39V0H2258.75V155.449H2124.81L1927.42 1874.81L1928.49 1883.61H1926.41L1843.59 2605H1691.67L1373.05 155.449H1248V0H1825.15V1Z" fill="#FF1100"/>
<path fill-rule="evenodd" clip-rule="evenodd" d="M1127 2H1227.67V709.619H1127V710H789.474C803.246 748.084 820.319 788.207 840.843 830.4C878.413 905.67 927.898 992.808 989.646 1092.02C1047.26 1180.47 1099.08 1271.31 1145.08 1364.53C1192.95 1458.44 1230.97 1554.95 1259.02 1654.01C1287.75 1755.43 1302 1860.78 1302 1969.81C1302 2064.88 1291.91 2152.39 1270.78 2231.66C1250.01 2309.58 1220.72 2378.57 1181.66 2437.06C1142.85 2495.17 1095.62 2542.02 1039.25 2574.97C983.78 2607.94 923.434 2624.96 859.494 2624.96C816.224 2624.96 774.644 2618.05 735.578 2603.23C702.536 2591.73 671.751 2578.03 643.531 2561.9C640.765 2560.32 638.041 2558.76 635.359 2557.22C633.636 2558.34 631.905 2559.44 630.165 2560.54V2610.77H509.396C484.303 2616.24 458.548 2619 432.212 2619C388.198 2619 345.944 2612.17 306.234 2597.54C272.436 2586.12 240.957 2572.52 212.104 2556.5C205.937 2553.08 199.973 2549.76 194.214 2546.53V2604.83H11.7578V1900H11V1190H157.92C141.228 1157.24 126.133 1125.84 112.659 1095.81L112.514 1095.49L112.37 1095.16C71.6474 1002.15 42.27 915.432 25.2246 835.348L25.2002 835.229L25.1748 835.112C8.45312 755.34 4.39972e-06 676.318 0 598.137C0 476.909 17.0445 370.135 54.5771 280.69L54.6602 280.494L54.7441 280.298C91.8282 193.26 141.868 122.137 207.896 73.1504C271.854 25.6988 343.244 0.000101579 420.453 0C453.233 0 484.895 3.40847 515 10.7822V0H1127V2ZM866.443 2546.88C864.903 2546.92 863.36 2546.94 861.814 2546.96C862.588 2546.95 863.36 2546.94 864.132 2546.93C864.903 2546.91 865.674 2546.9 866.443 2546.88ZM849.652 2546.82C851.4 2546.87 853.155 2546.91 854.917 2546.93C853.062 2546.91 851.214 2546.86 849.375 2546.81C849.467 2546.81 849.56 2546.81 849.652 2546.82ZM880.229 2546.19C879.468 2546.25 878.705 2546.3 877.942 2546.35L880.229 2546.19C880.991 2546.13 881.753 2546.07 882.513 2546.01L880.229 2546.19ZM889.337 2545.35C888.581 2545.43 887.824 2545.51 887.066 2545.59L889.337 2545.35C890.093 2545.27 890.849 2545.18 891.604 2545.09L889.337 2545.35ZM802.707 2541.58C803.208 2541.68 803.709 2541.78 804.211 2541.87C805.215 2542.07 806.222 2542.26 807.232 2542.44C808.242 2542.62 809.254 2542.8 810.27 2542.97C807.606 2542.52 804.963 2542.03 802.338 2541.5C802.461 2541.53 802.584 2541.55 802.707 2541.58ZM920.245 2540.09C920.391 2540.06 920.538 2540.03 920.685 2540C920.8 2539.97 920.916 2539.94 921.031 2539.91C920.769 2539.97 920.507 2540.03 920.245 2540.09ZM926.701 2538.51C926.899 2538.46 927.097 2538.41 927.295 2538.36C927.358 2538.34 927.42 2538.33 927.482 2538.31C927.222 2538.38 926.962 2538.45 926.701 2538.51ZM929.489 2537.78C929.482 2537.78 929.475 2537.78 929.468 2537.78C930.206 2537.58 930.944 2537.38 931.681 2537.17L929.489 2537.78ZM777.777 2535.29C778.073 2535.38 778.369 2535.47 778.665 2535.56C778.016 2535.36 777.368 2535.16 776.721 2534.96C777.073 2535.07 777.425 2535.18 777.777 2535.29ZM774.4 2534.22C775.049 2534.43 775.698 2534.64 776.349 2534.84C776.381 2534.85 776.413 2534.86 776.445 2534.87C775.762 2534.66 775.081 2534.44 774.4 2534.22ZM770.676 2532.98C771.007 2533.1 771.339 2533.21 771.671 2533.32C771.035 2533.1 770.401 2532.89 769.768 2532.67C770.07 2532.77 770.373 2532.88 770.676 2532.98ZM953.199 2530.16C950.39 2531.21 947.57 2532.21 944.738 2533.16L946.9 2532.42C947.62 2532.18 948.339 2531.92 949.058 2531.67C949.776 2531.41 950.494 2531.16 951.211 2530.89C951.875 2530.65 952.537 2530.41 953.199 2530.16ZM769.269 2532.5C769.359 2532.53 769.45 2532.56 769.541 2532.59C768.951 2532.38 768.362 2532.18 767.774 2531.97C768.272 2532.14 768.769 2532.32 769.269 2532.5ZM968.117 2524.08L968.286 2524.01C968.457 2523.94 968.627 2523.86 968.798 2523.78C968.571 2523.88 968.344 2523.98 968.117 2524.08ZM740.672 2521.96C742.429 2522.65 744.197 2523.34 745.977 2524.01L743.316 2522.99C742.432 2522.65 741.551 2522.3 740.672 2521.96ZM406.123 2499.67C406.293 2499.7 406.464 2499.73 406.635 2499.76C406.348 2499.71 406.061 2499.66 405.774 2499.61L406.123 2499.67ZM128.436 2449.4C128.075 2450.2 127.722 2451.02 127.378 2451.88L127.9 2450.62C128.077 2450.2 128.255 2449.8 128.436 2449.4ZM129.219 2447.74C129.05 2448.08 128.883 2448.43 128.718 2448.78L129.004 2448.18C129.075 2448.03 129.147 2447.88 129.219 2447.74ZM180.384 2448.68L180.286 2448.63C179.94 2448.42 179.595 2448.23 179.252 2448.03C179.628 2448.24 180.005 2448.46 180.384 2448.68ZM148.344 2436.02C148.281 2436.01 148.218 2436 148.155 2436L148.1 2435.99C148.181 2436 148.262 2436.01 148.344 2436.02ZM141.042 2435.76C140.775 2435.81 140.51 2435.87 140.247 2435.95L140.643 2435.85C140.775 2435.81 140.908 2435.79 141.042 2435.76ZM836.955 1636.15C838.231 1640.38 839.489 1644.62 840.727 1648.86C870.315 1750.3 885 1855.7 885 1964.77C885 2059.87 874.603 2147.44 852.822 2226.79C836.425 2286.52 814.879 2340.98 787.628 2389.47C795.327 2397.54 803.058 2404.68 810.791 2410.96C829.221 2425.24 844.932 2429.81 859.494 2429.81C897.848 2429.81 917.616 2418.72 930.251 2404.37C950.268 2380.33 966.513 2346.35 975.946 2298.6C986.293 2246.23 991.621 2189.47 991.621 2128.14C991.621 2056.92 979.009 1983.12 952.898 1906.41L952.72 1905.89L952.55 1905.36C926.299 1824.5 892.228 1743.25 850.185 1661.61C845.799 1653.09 841.388 1644.6 836.955 1636.15ZM191 1898.67H193.287L197.053 1972.71C198.733 2005.74 204.284 2044.21 214.297 2088.46C224.127 2130.78 237.581 2173.36 254.757 2216.22C271.57 2258.18 291.225 2295.93 313.555 2329.7C335.124 2362.32 357.419 2386.72 379.863 2404.41C399.126 2418.91 416.056 2423.91 432.212 2423.91C438.003 2423.91 443.4 2423.67 448.436 2423.23V1903.72H531.101C530.922 1903.21 530.745 1902.7 530.564 1902.18L530.378 1901.65L530.198 1901.11C503.239 1820.48 468.24 1739.43 425.032 1657.96C380.844 1574.64 334.291 1494.16 285.379 1416.52L285.032 1415.97L284.695 1415.41C250.007 1358.26 218.754 1304.06 191 1252.86V1898.67ZM695.367 1479.93C696.646 1482.77 697.915 1485.62 699.174 1488.46L697.278 1484.2C696.644 1482.77 696.006 1481.35 695.367 1479.93ZM673.773 1433.99C673.651 1433.74 673.529 1433.49 673.406 1433.24C673.216 1432.85 673.024 1432.47 672.833 1432.08C673.147 1432.72 673.461 1433.35 673.773 1433.99ZM673.086 1183.77C673.447 1184.48 673.809 1185.19 674.172 1185.9C673.002 1183.61 671.84 1181.32 670.686 1179.04L673.086 1183.77ZM588.471 993.696C588.966 995.027 589.464 996.36 589.965 997.695C589.339 996.027 588.718 994.361 588.101 992.698L588.471 993.696ZM423.394 193.396C401.443 193.396 376.879 202.56 348.55 239.419C326.412 268.373 307.385 328.803 307.385 438.356C307.385 499.524 315.309 560.938 331.342 622.746C347.293 684.238 373.441 752.044 410.666 826.351C436.825 877.237 468.611 933.566 506.131 995.402C486.748 940.418 471.791 887.955 461.485 838.089L461.462 837.975L461.438 837.859C445.203 758.095 437 679.105 437 600.974C437 479.785 453.542 373.139 489.938 283.814L490.096 283.428C495.314 270.815 500.801 258.532 506.562 246.596C499.926 238.133 493.083 230.445 486.062 223.484L485.206 222.636L484.377 221.763C464.573 200.88 445.354 193.396 423.394 193.396ZM586.993 989.708C587.32 990.595 587.649 991.482 587.979 992.37C587.458 990.968 586.942 989.567 586.428 988.169C586.616 988.682 586.804 989.195 586.993 989.708ZM585.533 985.732C585.715 986.23 585.898 986.727 586.081 987.225C585.633 986.003 585.188 984.783 584.744 983.565C585.007 984.287 585.269 985.01 585.533 985.732ZM341.087 861.604C342.342 864.048 343.609 866.502 344.889 868.968C344.249 867.735 343.613 866.505 342.979 865.278C342.346 864.051 341.715 862.826 341.087 861.604ZM257.525 648.721C257.571 648.892 257.619 649.063 257.665 649.234C257.332 647.995 257.002 646.758 256.676 645.522L257.525 648.721ZM262.303 233.796C262.077 234.308 261.852 234.821 261.628 235.337L262.303 233.796C262.529 233.284 262.757 232.774 262.985 232.267L262.303 233.796ZM331.429 146.787C331.087 147.042 330.745 147.299 330.404 147.558L331.429 146.787C331.77 146.532 332.113 146.278 332.456 146.026L331.429 146.787ZM362.162 128.509C361.98 128.591 361.797 128.674 361.615 128.758C361.797 128.675 361.979 128.592 362.161 128.51L362.162 128.509ZM389.077 119.321C388.984 119.343 388.891 119.367 388.798 119.389C389.274 119.276 389.75 119.164 390.228 119.056L389.077 119.321Z" fill="#FF1100"/>
</svg>
