<svg width="946" height="581" viewBox="0 0 946 581" fill="none" xmlns="http://www.w3.org/2000/svg">
<path d="M19.7199 123.08L19.7199 118.32L57.7999 118.32C67.4332 118.32 74.7999 115.713 79.8999 110.5C85.1133 105.287 87.7199 98.3167 87.7199 89.5901C87.7199 81.0901 85.0566 74.4034 79.73 69.5301C74.5166 64.6567 67.32 62.2201 58.14 62.2201L19.72 62.2201L19.72 57.4601L55.08 57.4601C60.52 57.4601 65.2233 56.3834 69.19 54.2301C73.1566 52.0767 76.2166 49.1867 78.37 45.5601C80.5233 41.8201 81.6 37.7967 81.6 33.4901C81.6 26.2367 79.3333 20.3434 74.8 15.8101C70.2667 11.1634 63.58 8.84007 54.74 8.84007L19.72 8.84007L19.72 4.08007L54.74 4.08007C64.8267 4.08007 72.6467 6.85674 78.2 12.4101C83.8667 17.8501 86.7 24.8767 86.7 33.4901C86.7 37.7967 85.7367 41.7634 83.81 45.3901C81.9966 49.0167 79.5033 52.1334 76.33 54.7401C73.1566 57.2334 69.5866 59.0467 65.62 60.1801L65.62 58.6501C71.5133 59.3301 76.4433 61.1434 80.41 64.0901C84.49 67.0367 87.55 70.7201 89.59 75.1401C91.7433 79.5601 92.8199 84.3767 92.8199 89.5901C92.8199 99.5634 89.7033 107.667 83.4699 113.9C77.3499 120.02 68.7932 123.08 57.7999 123.08L19.7199 123.08ZM16.9999 123.08L17 4.08007L22.1 4.08007L22.0999 123.08L16.9999 123.08ZM174.18 39.4401L174.18 123.08L169.08 123.08L169.08 102L171.63 101.49C169.93 106.703 167.323 111.01 163.81 114.41C160.41 117.81 156.5 120.36 152.08 122.06C147.66 123.647 143.183 124.44 138.65 124.44C132.416 124.44 126.976 123.193 122.33 120.7C117.796 118.093 114.283 114.297 111.79 109.31C109.296 104.323 108.05 98.2601 108.05 91.1201L108.05 39.4401L113.15 39.4401L113.15 90.4401C113.15 97.1267 114.17 102.623 116.21 106.93C118.363 111.237 121.423 114.467 125.39 116.62C129.356 118.66 134.06 119.68 139.5 119.68C144.713 119.68 149.53 118.49 153.95 116.11C158.483 113.617 162.11 110.103 164.83 105.57C167.663 100.923 169.08 95.4834 169.08 89.2501L169.08 39.4401L174.18 39.4401ZM196.357 123.08L196.357 39.4401L201.457 39.4401L201.457 123.08L196.357 123.08ZM198.907 15.8101C197.433 15.8101 196.187 15.3001 195.167 14.2801C194.147 13.2601 193.637 12.0134 193.637 10.5401C193.637 9.06673 194.147 7.82007 195.167 6.80007C196.187 5.78007 197.433 5.27007 198.907 5.27007C200.38 5.27007 201.627 5.78007 202.647 6.80007C203.667 7.82007 204.177 9.06673 204.177 10.5401C204.177 12.0134 203.667 13.2601 202.647 14.2801C201.627 15.3001 200.38 15.8101 198.907 15.8101ZM226.06 123.08L226.06 0.680064L230.65 6.22059e-05L231.16 1.36006L231.16 123.08L226.06 123.08ZM280.754 123.08C273.614 123.08 268.174 121.267 264.434 117.64C260.694 114.013 258.824 107.723 258.824 98.7701L258.824 18.7001L263.924 18.7001L263.924 98.6001C263.924 105.853 265.284 110.953 268.004 113.9C270.724 116.847 274.974 118.32 280.754 118.32L288.404 118.32L289.084 120.02L289.084 123.08L280.754 123.08ZM244.714 44.2001L244.714 39.4401L289.084 39.4401L289.084 44.2001L244.714 44.2001ZM336.286 123.08L336.287 24.9901C336.287 16.0367 338.157 9.74673 341.897 6.12006C345.637 2.49339 351.077 0.680059 358.217 0.680058L363.997 0.680058L363.997 3.74006L363.317 5.44006L358.217 5.44006C352.21 5.44006 347.903 6.91339 345.297 9.86006C342.69 12.6934 341.387 17.7934 341.387 25.1601L341.386 123.08L336.286 123.08ZM322.177 44.2001L322.177 39.4401L363.997 39.4401L363.997 44.2001L322.177 44.2001ZM403.491 124.44C395.784 124.44 388.871 122.627 382.751 119C376.744 115.373 372.041 110.33 368.641 103.87C365.241 97.2967 363.541 89.7601 363.541 81.2601C363.541 72.6467 365.241 65.1101 368.641 58.6501C372.041 52.1901 376.744 47.1467 382.751 43.5201C388.871 39.8934 395.784 38.0801 403.491 38.0801C411.311 38.0801 418.224 39.8934 424.231 43.5201C430.238 47.1467 434.941 52.1901 438.341 58.6501C441.741 65.1101 443.441 72.6467 443.441 81.2601C443.441 89.7601 441.741 97.2967 438.341 103.87C434.941 110.33 430.238 115.373 424.231 119C418.224 122.627 411.311 124.44 403.491 124.44ZM403.661 119.68C410.348 119.68 416.298 118.093 421.511 114.92C426.724 111.633 430.804 107.1 433.751 101.32C436.811 95.5401 438.341 88.8534 438.341 81.2601C438.341 73.5534 436.811 66.8667 433.751 61.2001C430.804 55.4201 426.724 50.9434 421.511 47.7701C416.298 44.4834 410.291 42.8401 403.491 42.8401C396.804 42.8401 390.798 44.4834 385.471 47.7701C380.258 50.9434 376.121 55.4201 373.061 61.2001C370.114 66.8667 368.641 73.5534 368.641 81.2601C368.641 88.8534 370.114 95.5401 373.061 101.32C376.121 107.1 380.258 111.633 385.471 114.92C390.798 118.093 396.861 119.68 403.661 119.68ZM458.794 123.08L458.794 39.4401L463.894 39.4401L463.894 60.5201L461.344 61.0301C463.611 53.6634 467.407 48.2234 472.734 44.7101C478.174 41.1967 484.067 39.4401 490.414 39.4401L497.724 39.4401L497.724 44.2001L490.074 44.2001C485.314 44.2001 480.951 45.3334 476.984 47.6001C473.017 49.8667 469.844 53.0967 467.464 57.2901C465.084 61.3701 463.894 66.3001 463.894 72.0801L463.894 123.08L458.794 123.08ZM54.7398 265.44C46.5798 265.44 39.3831 263.967 33.1498 261.02C27.0298 257.96 22.0431 253.767 18.1898 248.44C14.3364 243.113 11.6731 236.993 10.1998 230.08L13.5998 229.23L15.2998 229.57C16.6598 236.143 19.2098 241.753 22.9498 246.4C26.6898 251.047 31.2798 254.617 36.7198 257.11C42.2731 259.49 48.2231 260.68 54.5698 260.68C61.5964 260.68 67.8298 259.547 73.2698 257.28C78.7098 255.013 82.9598 251.84 86.0198 247.76C89.1931 243.567 90.7798 238.693 90.7798 233.14C90.7798 225.887 88.5131 220.39 83.9798 216.65C79.5598 212.91 73.4965 210.02 65.7898 207.98L42.4998 201.69C33.8865 199.31 27.3132 195.627 22.7798 190.64C18.2465 185.653 15.9798 179.76 15.9798 172.96C15.9799 167.18 17.5099 162.137 20.5699 157.83C23.7432 153.41 28.0499 149.953 33.4899 147.46C39.0432 144.967 45.3332 143.72 52.3599 143.72C59.3865 143.72 65.6765 145.08 71.2299 147.8C76.8965 150.52 81.5432 154.373 85.1699 159.36C88.7965 164.233 91.1765 170.013 92.3099 176.7L89.0799 177.38L87.3798 177.04C85.6799 168.2 81.6565 161.23 75.3099 156.13C69.0765 151.03 61.4265 148.48 52.3599 148.48C43.0665 148.48 35.5299 150.747 29.7499 155.28C23.9699 159.7 21.0799 165.65 21.0798 173.13C21.0798 179.023 23.1765 184.01 27.3698 188.09C31.5632 192.057 37.7965 195.173 46.0698 197.44L69.3598 203.73C77.7465 205.883 84.2631 209.453 88.9098 214.44C93.5565 219.313 95.8798 225.32 95.8798 232.46C95.8798 239.033 94.1231 244.813 90.6098 249.8C87.2098 254.673 82.3931 258.527 76.1598 261.36C70.0398 264.08 62.8998 265.44 54.7398 265.44ZM113.714 264.08L113.714 180.44L118.814 180.44L118.814 264.08L113.714 264.08ZM116.264 156.81C114.791 156.81 113.544 156.3 112.524 155.28C111.504 154.26 110.994 153.013 110.994 151.54C110.994 150.067 111.504 148.82 112.524 147.8C113.544 146.78 114.791 146.27 116.264 146.27C117.737 146.27 118.984 146.78 120.004 147.8C121.024 148.82 121.534 150.067 121.534 151.54C121.534 153.013 121.024 154.26 120.004 155.28C118.984 156.3 117.737 156.81 116.264 156.81ZM143.417 264.08L143.417 141.68L148.007 141L148.517 142.36L148.517 264.08L143.417 264.08ZM171.421 264.08L171.421 180.44L176.521 180.44L176.521 264.08L171.421 264.08ZM173.971 156.81C172.498 156.81 171.251 156.3 170.231 155.28C169.211 154.26 168.701 153.013 168.701 151.54C168.701 150.067 169.211 148.82 170.231 147.8C171.251 146.78 172.498 146.27 173.971 146.27C175.444 146.27 176.691 146.78 177.711 147.8C178.731 148.82 179.241 150.067 179.241 151.54C179.241 153.013 178.731 154.26 177.711 155.28C176.691 156.3 175.444 156.81 173.971 156.81ZM231.084 265.44C223.264 265.44 216.408 263.627 210.514 260C204.621 256.373 200.031 251.33 196.744 244.87C193.458 238.297 191.814 230.76 191.814 222.26C191.814 213.647 193.458 206.11 196.744 199.65C200.031 193.19 204.621 188.147 210.514 184.52C216.408 180.893 223.264 179.08 231.084 179.08C237.771 179.08 243.438 180.27 248.084 182.65C252.844 185.03 256.754 188.147 259.814 192C262.874 195.853 265.311 200.047 267.124 204.58L264.234 205.77L262.364 205.77C259.871 199.877 256.131 194.777 251.144 190.47C246.158 186.05 239.471 183.84 231.084 183.84C223.944 183.84 217.824 185.54 212.724 188.94C207.624 192.34 203.714 196.93 200.994 202.71C198.274 208.49 196.914 215.007 196.914 222.26C196.914 229.4 198.274 235.917 200.994 241.81C203.714 247.59 207.624 252.18 212.724 255.58C217.824 258.98 223.944 260.68 231.084 260.68C236.978 260.68 241.964 259.66 246.044 257.62C250.238 255.58 253.694 252.917 256.414 249.63C259.248 246.23 261.458 242.603 263.044 238.75L264.914 238.75L267.804 239.94C265.991 244.36 263.554 248.553 260.494 252.52C257.434 256.373 253.468 259.49 248.594 261.87C243.834 264.25 237.998 265.44 231.084 265.44ZM315.403 265.44C307.696 265.44 300.783 263.627 294.663 260C288.656 256.373 283.953 251.33 280.553 244.87C277.153 238.297 275.453 230.76 275.453 222.26C275.453 213.647 277.153 206.11 280.553 199.65C283.953 193.19 288.656 188.147 294.663 184.52C300.783 180.893 307.696 179.08 315.403 179.08C323.223 179.08 330.136 180.893 336.143 184.52C342.15 188.147 346.853 193.19 350.253 199.65C353.653 206.11 355.353 213.647 355.353 222.26C355.353 230.76 353.653 238.297 350.253 244.87C346.853 251.33 342.15 256.373 336.143 260C330.136 263.627 323.223 265.44 315.403 265.44ZM315.573 260.68C322.26 260.68 328.21 259.093 333.423 255.92C338.636 252.633 342.716 248.1 345.663 242.32C348.723 236.54 350.253 229.853 350.253 222.26C350.253 214.553 348.723 207.867 345.663 202.2C342.716 196.42 338.636 191.943 333.423 188.77C328.21 185.483 322.203 183.84 315.403 183.84C308.716 183.84 302.71 185.483 297.383 188.77C292.17 191.943 288.033 196.42 284.973 202.2C282.026 207.867 280.553 214.553 280.553 222.26C280.553 229.853 282.026 236.54 284.973 242.32C288.033 248.1 292.17 252.633 297.383 255.92C302.71 259.093 308.773 260.68 315.573 260.68ZM370.706 264.08L370.706 180.44L375.806 180.44L375.806 201.52L373.256 202.03C374.956 196.817 377.506 192.51 380.906 189.11C384.419 185.71 388.386 183.217 392.806 181.63C397.226 179.93 401.703 179.08 406.236 179.08C412.469 179.08 417.853 180.383 422.386 182.99C427.033 185.483 430.603 189.223 433.096 194.21C435.589 199.197 436.836 205.26 436.836 212.4L436.836 264.08L431.736 264.08L431.736 213.08C431.736 206.393 430.659 200.897 428.506 196.59C426.466 192.283 423.463 189.11 419.496 187.07C415.643 184.917 410.939 183.84 405.386 183.84C400.286 183.84 395.469 185.087 390.936 187.58C386.403 189.96 382.719 193.417 379.886 197.95C377.166 202.483 375.806 207.923 375.806 214.27L375.806 264.08L370.706 264.08ZM515.57 264.08L517.27 261.7L562.32 145.08L567.08 145.08L567.08 146.44L521.52 264.08L515.57 264.08ZM515.57 264.08L470.01 146.44L470.01 145.08L474.94 145.08L519.99 261.7L521.52 264.08L515.57 264.08ZM591.123 265.44C585.57 265.44 580.64 264.363 576.333 262.21C572.14 259.943 568.796 256.997 566.303 253.37C563.923 249.63 562.733 245.493 562.733 240.96C562.733 234.953 564.83 229.683 569.023 225.15C573.33 220.617 579.96 218.01 588.913 217.33L625.463 214.61L625.463 219.54L590.613 222.09C582.566 222.657 576.73 224.753 573.103 228.38C569.59 231.893 567.833 235.973 567.833 240.62C567.833 246.74 570.1 251.613 574.633 255.24C579.28 258.867 584.833 260.68 591.293 260.68C596.96 260.68 602.23 259.207 607.103 256.26C611.976 253.313 615.943 249.403 619.003 244.53C622.063 239.657 623.593 234.33 623.593 228.55L623.593 215.12C623.593 205.373 621.27 197.723 616.623 192.17C611.976 186.617 605.233 183.84 596.393 183.84C589.933 183.84 584.436 185.483 579.903 188.77C575.37 191.943 571.913 196.42 569.533 202.2L567.663 202.2L564.433 201.01C567.04 193.983 571.12 188.6 576.673 184.86C582.34 181.007 588.97 179.08 596.563 179.08C606.65 179.08 614.526 182.31 620.193 188.77C625.86 195.117 628.693 204.183 628.693 215.97L628.693 264.08L623.593 264.08L623.593 239.6L625.123 241.3C623.763 245.72 621.44 249.743 618.153 253.37C614.866 256.997 610.9 259.943 606.253 262.21C601.606 264.363 596.563 265.44 591.123 265.44ZM652.488 264.08L652.488 141.68L657.078 141L657.588 142.36L657.588 264.08L652.488 264.08ZM681.341 264.08L681.341 141.68L685.931 141L686.441 142.36L686.441 264.08L681.341 264.08ZM741.815 265.44C733.995 265.44 727.138 263.627 721.245 260C715.351 256.373 710.761 251.33 707.475 244.87C704.188 238.297 702.545 230.76 702.545 222.26C702.545 213.647 704.131 206.11 707.305 199.65C710.591 193.19 715.068 188.147 720.735 184.52C726.515 180.893 733.145 179.08 740.625 179.08C748.105 179.08 754.621 180.837 760.175 184.35C765.841 187.863 770.205 192.68 773.265 198.8C776.438 204.807 778.025 211.777 778.025 219.71L778.025 221.24L775.645 223.45L704.925 223.45L704.925 218.69L774.965 218.69L772.925 220.56C772.925 212.513 771.451 205.77 768.505 200.33C765.671 194.89 761.818 190.81 756.945 188.09C752.071 185.257 746.631 183.84 740.625 183.84C734.391 183.84 728.781 185.427 723.795 188.6C718.808 191.773 714.841 196.193 711.895 201.86C709.061 207.413 707.645 213.76 707.645 220.9L707.645 223.11C707.645 230.477 709.061 236.993 711.895 242.66C714.841 248.327 718.865 252.747 723.965 255.92C729.178 259.093 735.128 260.68 741.815 260.68C748.841 260.68 754.735 259.093 759.495 255.92C764.255 252.747 767.995 248.44 770.715 243L772.585 243L775.475 244.7C772.528 250.933 768.221 255.977 762.555 259.83C757.001 263.57 750.088 265.44 741.815 265.44ZM797.985 298.08L797.985 296.72L811.755 264.08L814.135 258.64L846.775 180.44L851.365 180.44L851.365 181.8L802.575 298.08L797.985 298.08ZM811.755 264.08L777.245 181.8L777.245 180.44L782.005 180.44L814.645 258.64L814.645 264.08L811.755 264.08ZM852.471 265.1C850.658 265.1 849.128 264.477 847.881 263.23C846.748 261.983 846.181 260.453 846.181 258.64C846.181 256.827 846.748 255.297 847.881 254.05C849.128 252.803 850.658 252.18 852.471 252.18C854.285 252.18 855.758 252.803 856.891 254.05C858.138 255.297 858.761 256.827 858.761 258.64C858.761 260.453 858.138 261.983 856.891 263.23C855.758 264.477 854.285 265.1 852.471 265.1ZM16.9996 405.08L16.9997 286.08L22.0997 286.08L22.0996 405.08L16.9996 405.08ZM45.9793 405.08L45.9794 321.44L51.0794 321.44L51.0794 342.52L48.5294 343.03C50.2294 337.817 52.7794 333.51 56.1794 330.11C59.6927 326.71 63.6594 324.217 68.0794 322.63C72.4994 320.93 76.976 320.08 81.5094 320.08C87.7427 320.08 93.126 321.383 97.6594 323.99C102.306 326.483 105.876 330.223 108.369 335.21C110.863 340.197 112.109 346.26 112.109 353.4L112.109 405.08L107.009 405.08L107.009 354.08C107.009 347.393 105.933 341.897 103.779 337.59C101.739 333.283 98.736 330.11 94.7694 328.07C90.916 325.917 86.2127 324.84 80.6594 324.84C75.5594 324.84 70.7427 326.087 66.2094 328.58C61.676 330.96 57.9927 334.417 55.1594 338.95C52.4394 343.483 51.0794 348.923 51.0793 355.27L51.0793 405.08L45.9793 405.08ZM157.066 406.44C149.02 406.44 142.22 404.4 136.666 400.32C131.113 396.24 127.486 390.46 125.786 382.98L129.186 382.13L131.056 382.47C132.643 388.59 135.76 393.35 140.406 396.75C145.166 400.037 150.946 401.68 157.746 401.68C165 401.68 170.836 399.923 175.256 396.41C179.79 392.783 182.056 388.193 182.056 382.64C182.056 378.22 180.753 374.707 178.146 372.1C175.54 369.493 171.29 367.51 165.396 366.15L150.266 362.75C143.013 361.163 137.63 358.443 134.116 354.59C130.716 350.623 129.016 346.203 129.016 341.33C129.016 337.023 130.15 333.283 132.416 330.11C134.796 326.937 137.97 324.5 141.936 322.8C146.016 320.987 150.606 320.08 155.706 320.08C164.093 320.08 170.836 322.347 175.936 326.88C181.036 331.3 184.266 337.023 185.626 344.05L182.226 344.73L180.526 344.39C179.28 337.703 176.22 332.773 171.346 329.6C166.473 326.427 161.033 324.84 155.026 324.84C149.133 324.84 144.146 326.313 140.066 329.26C136.1 332.093 134.116 335.947 134.116 340.82C134.116 345.693 135.816 349.49 139.216 352.21C142.616 354.817 146.81 356.687 151.796 357.82L166.926 361.22C173.386 362.693 178.373 365.243 181.886 368.87C185.4 372.383 187.156 376.69 187.156 381.79C187.156 386.777 185.91 391.14 183.416 394.88C180.923 398.507 177.41 401.34 172.876 403.38C168.456 405.42 163.186 406.44 157.066 406.44ZM241.906 406.44C235.332 406.44 229.439 405.137 224.226 402.53C219.012 399.81 214.649 396.07 211.136 391.31C207.736 386.55 205.356 380.883 203.996 374.31L203.996 352.21C205.356 345.637 207.736 339.97 211.136 335.21C214.649 330.45 219.012 326.767 224.226 324.16C229.439 321.44 235.332 320.08 241.906 320.08C249.612 320.08 256.469 321.893 262.476 325.52C268.482 329.147 273.186 334.19 276.586 340.65C279.986 347.11 281.686 354.647 281.686 363.26C281.686 371.76 279.986 379.297 276.586 385.87C273.186 392.33 268.482 397.373 262.476 401C256.469 404.627 249.612 406.44 241.906 406.44ZM202.466 439.08L202.466 321.44L207.566 321.44L207.566 349.49L205.186 363.26L207.566 377.03L207.566 439.08L202.466 439.08ZM241.906 401.68C248.706 401.68 254.712 400.093 259.926 396.92C265.139 393.633 269.219 389.1 272.166 383.32C275.112 377.54 276.586 370.853 276.586 363.26C276.586 355.553 275.112 348.867 272.166 343.2C269.219 337.42 265.139 332.943 259.926 329.77C254.712 326.483 248.706 324.84 241.906 324.84C235.219 324.84 229.212 326.483 223.886 329.77C218.672 332.943 214.592 337.42 211.646 343.2C208.699 348.867 207.226 355.553 207.226 363.26C207.226 370.853 208.699 377.54 211.646 383.32C214.592 389.1 218.672 393.633 223.886 396.92C229.212 400.093 235.219 401.68 241.906 401.68ZM297.061 405.08L297.061 321.44L302.161 321.44L302.161 405.08L297.061 405.08ZM299.611 297.81C298.138 297.81 296.891 297.3 295.871 296.28C294.851 295.26 294.341 294.013 294.341 292.54C294.341 291.067 294.851 289.82 295.871 288.8C296.891 287.78 298.138 287.27 299.611 287.27C301.085 287.27 302.331 287.78 303.351 288.8C304.371 289.82 304.881 291.067 304.881 292.54C304.881 294.013 304.371 295.26 303.351 296.28C302.331 297.3 301.085 297.81 299.611 297.81ZM324.255 405.08L324.255 321.44L329.355 321.44L329.355 342.52L326.805 343.03C329.071 335.663 332.868 330.223 338.195 326.71C343.635 323.197 349.528 321.44 355.875 321.44L363.185 321.44L363.185 326.2L355.535 326.2C350.775 326.2 346.411 327.333 342.445 329.6C338.478 331.867 335.305 335.097 332.925 339.29C330.545 343.37 329.355 348.3 329.355 354.08L329.355 405.08L324.255 405.08ZM401.682 406.44C393.862 406.44 387.005 404.627 381.112 401C375.218 397.373 370.628 392.33 367.342 385.87C364.055 379.297 362.412 371.76 362.412 363.26C362.412 354.647 363.998 347.11 367.172 340.65C370.458 334.19 374.935 329.147 380.602 325.52C386.382 321.893 393.012 320.08 400.492 320.08C407.972 320.08 414.488 321.837 420.042 325.35C425.708 328.863 430.072 333.68 433.132 339.8C436.305 345.807 437.892 352.777 437.892 360.71L437.892 362.24L435.512 364.45L364.792 364.45L364.792 359.69L434.832 359.69L432.792 361.56C432.792 353.513 431.318 346.77 428.372 341.33C425.538 335.89 421.685 331.81 416.812 329.09C411.938 326.257 406.498 324.84 400.492 324.84C394.258 324.84 388.648 326.427 383.662 329.6C378.675 332.773 374.708 337.193 371.762 342.86C368.928 348.413 367.512 354.76 367.512 361.9L367.512 364.11C367.512 371.477 368.928 377.993 371.762 383.66C374.708 389.327 378.732 393.747 383.832 396.92C389.045 400.093 394.995 401.68 401.682 401.68C408.708 401.68 414.602 400.093 419.362 396.92C424.122 393.747 427.862 389.44 430.582 384L432.452 384L435.342 385.7C432.395 391.933 428.088 396.977 422.422 400.83C416.868 404.57 409.955 406.44 401.682 406.44ZM486.162 406.44C478.456 406.44 471.599 404.627 465.592 401C459.586 397.373 454.882 392.33 451.482 385.87C448.082 379.297 446.382 371.76 446.382 363.26C446.382 354.647 448.082 347.11 451.482 340.65C454.882 334.19 459.586 329.147 465.593 325.52C471.599 321.893 478.456 320.08 486.163 320.08C492.736 320.08 498.629 321.44 503.843 324.16C509.056 326.767 513.362 330.45 516.762 335.21C520.276 339.97 522.712 345.637 524.072 352.21L524.072 374.31C522.712 380.883 520.276 386.55 516.762 391.31C513.362 396.07 509.056 399.81 503.842 402.53C498.629 405.137 492.736 406.44 486.162 406.44ZM486.162 401.68C492.962 401.68 498.969 400.093 504.182 396.92C509.396 393.633 513.476 389.1 516.422 383.32C519.369 377.54 520.842 370.853 520.842 363.26C520.842 355.553 519.369 348.867 516.422 343.2C513.476 337.42 509.396 332.943 504.182 329.77C498.969 326.483 492.963 324.84 486.163 324.84C479.476 324.84 473.469 326.483 468.142 329.77C462.929 332.943 458.849 337.42 455.902 343.2C452.956 348.867 451.482 355.553 451.482 363.26C451.482 370.853 452.956 377.54 455.902 383.32C458.849 389.1 462.929 393.633 468.142 396.92C473.469 400.093 479.476 401.68 486.162 401.68ZM520.502 405.08L520.502 377.03L522.882 363.26L520.502 349.49L520.503 282.68L525.093 282L525.603 283.36L525.602 405.08L520.502 405.08ZM616.092 406.44C609.518 406.44 603.625 405.137 598.412 402.53C593.198 399.81 588.835 396.07 585.322 391.31C581.922 386.55 579.542 380.883 578.182 374.31L578.182 352.21C579.542 345.637 581.922 339.97 585.322 335.21C588.835 330.45 593.198 326.767 598.412 324.16C603.625 321.44 609.518 320.08 616.092 320.08C623.798 320.08 630.655 321.893 636.662 325.52C642.668 329.147 647.372 334.19 650.772 340.65C654.172 347.11 655.872 354.647 655.872 363.26C655.872 371.76 654.172 379.297 650.772 385.87C647.372 392.33 642.668 397.373 636.662 401C630.655 404.627 623.798 406.44 616.092 406.44ZM576.652 405.08L576.652 282.68L581.242 282L581.752 283.36L581.752 349.49L579.372 363.26L581.752 377.03L581.752 405.08L576.652 405.08ZM616.092 401.68C622.892 401.68 628.898 400.093 634.112 396.92C639.325 393.633 643.405 389.1 646.352 383.32C649.298 377.54 650.772 370.853 650.772 363.26C650.772 355.553 649.298 348.867 646.352 343.2C643.405 337.42 639.325 332.943 634.112 329.77C628.898 326.483 622.892 324.84 616.092 324.84C609.405 324.84 603.398 326.483 598.072 329.77C592.858 332.943 588.778 337.42 585.832 343.2C582.885 348.867 581.412 355.553 581.412 363.26C581.412 370.853 582.885 377.54 585.832 383.32C588.778 389.1 592.858 393.633 598.072 396.92C603.398 400.093 609.405 401.68 616.092 401.68ZM675.897 439.08L675.897 437.72L689.667 405.08L692.047 399.64L724.687 321.44L729.277 321.44L729.277 322.8L680.487 439.08L675.897 439.08ZM689.667 405.08L655.157 322.8L655.157 321.44L659.917 321.44L692.557 399.64L692.557 405.08L689.667 405.08ZM16.1495 546.08L16.1496 423.68L20.7396 423L21.2496 424.36L21.2495 483.52L18.6995 484.03C20.3995 478.817 22.9495 474.51 26.3495 471.11C29.8629 467.71 33.8295 465.217 38.2495 463.63C42.6695 461.93 47.1462 461.08 51.6795 461.08C57.9129 461.08 63.2962 462.383 67.8295 464.99C72.4762 467.483 76.0462 471.223 78.5395 476.21C81.0329 481.197 82.2795 487.26 82.2795 494.4L82.2795 546.08L77.1795 546.08L77.1795 495.08C77.1795 488.393 76.1029 482.897 73.9495 478.59C71.9095 474.283 68.9062 471.11 64.9395 469.07C61.0862 466.917 56.3829 465.84 50.8295 465.84C45.7295 465.84 40.9129 467.087 36.3795 469.58C31.8462 471.96 28.1629 475.417 25.3295 479.95C22.6095 484.483 21.2495 489.923 21.2495 496.27L21.2495 546.08L16.1495 546.08ZM168.867 462.44L168.867 546.08L163.767 546.08L163.767 525L166.317 524.49C164.617 529.703 162.01 534.01 158.497 537.41C155.097 540.81 151.187 543.36 146.767 545.06C142.347 546.647 137.87 547.44 133.337 547.44C127.103 547.44 121.663 546.193 117.017 543.7C112.483 541.093 108.97 537.297 106.477 532.31C103.983 527.323 102.737 521.26 102.737 514.12L102.737 462.44L107.837 462.44L107.837 513.44C107.837 520.127 108.857 525.623 110.897 529.93C113.05 534.237 116.11 537.467 120.077 539.62C124.043 541.66 128.747 542.68 134.187 542.68C139.4 542.68 144.217 541.49 148.637 539.11C153.17 536.617 156.797 533.103 159.517 528.57C162.35 523.923 163.767 518.483 163.767 512.25L163.767 462.44L168.867 462.44ZM191.044 546.08L191.044 462.44L196.144 462.44L196.144 485.73L193.764 483.35C195.464 478.25 198.014 474.057 201.414 470.77C204.814 467.483 208.554 465.047 212.634 463.46C216.827 461.873 220.907 461.08 224.874 461.08C232.354 461.08 238.644 463.347 243.744 467.88C248.957 472.413 252.13 478.59 253.264 486.41L250.374 486.41C251.847 480.63 254.284 475.87 257.684 472.13C261.197 468.39 265.164 465.613 269.584 463.8C274.004 461.987 278.31 461.08 282.504 461.08C288.17 461.08 293.157 462.383 297.464 464.99C301.884 467.483 305.284 471.223 307.664 476.21C310.157 481.197 311.404 487.26 311.404 494.4L311.404 546.08L306.304 546.08L306.304 495.08C306.304 488.393 305.284 482.897 303.244 478.59C301.204 474.283 298.314 471.11 294.574 469.07C290.947 466.917 286.64 465.84 281.654 465.84C277.12 465.84 272.7 467.03 268.394 469.41C264.2 471.79 260.687 475.247 257.854 479.78C255.134 484.313 253.774 489.81 253.774 496.27L253.774 546.08L248.674 546.08L248.674 495.08C248.674 488.393 247.654 482.897 245.614 478.59C243.574 474.283 240.684 471.11 236.944 469.07C233.317 466.917 229.01 465.84 224.024 465.84C219.49 465.84 215.07 467.03 210.764 469.41C206.57 471.79 203.057 475.247 200.224 479.78C197.504 484.313 196.144 489.81 196.144 496.27L196.144 546.08L191.044 546.08ZM355.912 547.44C350.358 547.44 345.428 546.363 341.122 544.21C336.928 541.943 333.585 538.997 331.092 535.37C328.712 531.63 327.522 527.493 327.522 522.96C327.522 516.953 329.618 511.683 333.812 507.15C338.118 502.617 344.748 500.01 353.702 499.33L390.252 496.61L390.252 501.54L355.402 504.09C347.355 504.657 341.518 506.753 337.892 510.38C334.378 513.893 332.622 517.973 332.622 522.62C332.622 528.74 334.888 533.613 339.422 537.24C344.068 540.867 349.622 542.68 356.082 542.68C361.748 542.68 367.018 541.207 371.892 538.26C376.765 535.313 380.732 531.403 383.792 526.53C386.852 521.657 388.382 516.33 388.382 510.55L388.382 497.12C388.382 487.373 386.058 479.723 381.412 474.17C376.765 468.617 370.022 465.84 361.182 465.84C354.722 465.84 349.225 467.483 344.692 470.77C340.158 473.943 336.702 478.42 334.322 484.2L332.452 484.2L329.222 483.01C331.828 475.983 335.908 470.6 341.462 466.86C347.128 463.007 353.758 461.08 361.352 461.08C371.438 461.08 379.315 464.31 384.982 470.77C390.648 477.117 393.482 486.183 393.482 497.97L393.482 546.08L388.382 546.08L388.382 521.6L389.912 523.3C388.552 527.72 386.228 531.743 382.942 535.37C379.655 538.997 375.688 541.943 371.042 544.21C366.395 546.363 361.352 547.44 355.912 547.44ZM414.766 546.08L414.766 462.44L419.866 462.44L419.866 483.52L417.316 484.03C419.016 478.817 421.566 474.51 424.966 471.11C428.48 467.71 432.446 465.217 436.866 463.63C441.286 461.93 445.763 461.08 450.296 461.08C456.53 461.08 461.913 462.383 466.446 464.99C471.093 467.483 474.663 471.223 477.156 476.21C479.65 481.197 480.896 487.26 480.896 494.4L480.896 546.08L475.796 546.08L475.796 495.08C475.796 488.393 474.72 482.897 472.566 478.59C470.526 474.283 467.523 471.11 463.556 469.07C459.703 466.917 455 465.84 449.446 465.84C444.346 465.84 439.53 467.087 434.996 469.58C430.463 471.96 426.78 475.417 423.946 479.95C421.226 484.483 419.866 489.923 419.866 496.27L419.866 546.08L414.766 546.08ZM502.223 546.08L502.223 462.44L507.323 462.44L507.323 546.08L502.223 546.08ZM504.773 438.81C503.3 438.81 502.053 438.3 501.033 437.28C500.013 436.26 499.503 435.013 499.503 433.54C499.503 432.067 500.013 430.82 501.033 429.8C502.053 428.78 503.3 428.27 504.773 428.27C506.247 428.27 507.493 428.78 508.513 429.8C509.533 430.82 510.043 432.067 510.043 433.54C510.043 435.013 509.533 436.26 508.513 437.28C507.493 438.3 506.247 438.81 504.773 438.81ZM550.13 546.08C542.99 546.08 537.55 544.267 533.81 540.64C530.07 537.013 528.2 530.723 528.2 521.77L528.2 441.7L533.3 441.7L533.3 521.6C533.3 528.853 534.66 533.953 537.38 536.9C540.1 539.847 544.35 541.32 550.13 541.32L557.78 541.32L558.46 543.02L558.46 546.08L550.13 546.08ZM514.09 467.2L514.09 462.44L558.46 462.44L558.46 467.2L514.09 467.2ZM581.7 580.08L581.7 578.72L595.47 546.08L597.85 540.64L630.49 462.44L635.08 462.44L635.08 463.8L586.29 580.08L581.7 580.08ZM595.47 546.08L560.96 463.8L560.96 462.44L565.72 462.44L598.36 540.64L598.36 546.08L595.47 546.08ZM636.186 547.1C634.373 547.1 632.843 546.477 631.596 545.23C630.463 543.983 629.896 542.453 629.896 540.64C629.896 538.827 630.463 537.297 631.596 536.05C632.843 534.803 634.373 534.18 636.186 534.18C637.999 534.18 639.473 534.803 640.606 536.05C641.853 537.297 642.476 538.827 642.476 540.64C642.476 542.453 641.853 543.983 640.606 545.23C639.473 546.477 637.999 547.1 636.186 547.1Z" fill="#FF1100"/>
</svg>
