<svg width="1439" height="756" viewBox="0 0 1439 756" fill="none" xmlns="http://www.w3.org/2000/svg">
<g clip-path="url(#clip0_805_923)">
<g style="mix-blend-mode:exclusion">
<path d="M1367.13 62.4119L1366.97 62.3494L1354.97 57.5574L1354.63 57.4207L1354.63 59.1677L1354.78 59.2302L1366.78 64.0222L1367.13 64.1589L1367.13 62.4119Z" fill="#929EC6" stroke="#929EC6" stroke-width="0.5"/>
<path d="M1367.25 52.6221L1367.09 52.5596L1355.09 47.7676L1354.75 47.6309L1354.75 49.3779L1354.91 49.4404L1366.91 54.2324L1367.25 54.3691L1367.25 52.6221Z" fill="#929EC6" stroke="#929EC6" stroke-width="0.5"/>
<path d="M1367.13 57.4119L1366.97 57.3494L1354.97 52.5574L1354.63 52.4207L1354.63 54.1677L1354.78 54.2302L1366.78 59.0222L1367.13 59.1589L1367.13 57.4119Z" fill="#929EC6" stroke="#929EC6" stroke-width="0.5"/>
</g>
<path d="M1007.42 59L1005.31 52H1006.69L1008.69 58.79L1008.77 59H1007.42ZM1007.42 59L1007.48 58.79L1009.51 52H1010.88V52.08L1008.77 59H1007.42ZM1003.23 59L1001.12 52.08V52H1002.49L1004.52 58.79L1004.58 59H1003.23ZM1003.23 59L1003.31 58.79L1005.31 52H1006.69L1004.58 59H1003.23ZM1014.69 59.16C1014.02 59.16 1013.43 59.01 1012.92 58.71C1012.4 58.4033 1012 57.9767 1011.72 57.43C1011.43 56.8767 1011.29 56.2333 1011.29 55.5C1011.29 54.7667 1011.43 54.1267 1011.72 53.58C1012 53.0267 1012.4 52.6 1012.92 52.3C1013.43 51.9933 1014.02 51.84 1014.69 51.84C1015.36 51.84 1015.95 51.9933 1016.46 52.3C1016.97 52.6 1017.37 53.0267 1017.66 53.58C1017.94 54.1267 1018.09 54.7667 1018.09 55.5C1018.09 56.2333 1017.94 56.8767 1017.66 57.43C1017.37 57.9767 1016.97 58.4033 1016.46 58.71C1015.95 59.01 1015.36 59.16 1014.69 59.16ZM1014.69 57.88C1015.09 57.88 1015.44 57.7833 1015.75 57.59C1016.06 57.3967 1016.3 57.1233 1016.48 56.77C1016.65 56.41 1016.74 55.9867 1016.74 55.5C1016.74 55.0067 1016.65 54.5833 1016.48 54.23C1016.3 53.8767 1016.06 53.6033 1015.75 53.41C1015.44 53.2167 1015.09 53.12 1014.69 53.12C1014.29 53.12 1013.93 53.2167 1013.62 53.41C1013.31 53.6033 1013.07 53.8767 1012.9 54.23C1012.72 54.5833 1012.64 55.0067 1012.64 55.5C1012.64 55.9867 1012.72 56.41 1012.9 56.77C1013.07 57.1233 1013.31 57.3967 1013.62 57.59C1013.93 57.7833 1014.29 57.88 1014.69 57.88ZM1019.18 59V52H1020.48V59H1019.18ZM1019.84 56.34V55.13H1022.02C1022.37 55.13 1022.64 55.0467 1022.82 54.88C1023.01 54.7067 1023.1 54.47 1023.1 54.17H1024.45C1024.45 54.83 1024.25 55.3567 1023.83 55.75C1023.43 56.1433 1022.87 56.34 1022.15 56.34H1019.84ZM1023.1 54.17C1023.1 53.87 1023.01 53.6367 1022.82 53.47C1022.64 53.2967 1022.37 53.21 1022.02 53.21H1019.84V52H1022.15C1022.87 52 1023.43 52.1967 1023.83 52.59C1024.25 52.9833 1024.45 53.51 1024.45 54.17H1023.1ZM1023 59L1021.46 55.96L1022.77 55.64L1024.45 58.92V59H1023ZM1026.15 57.68V55.81L1029.42 52H1031.07V52.08L1026.15 57.68ZM1025.45 59V52H1026.8V59H1025.45ZM1029.64 59L1027.31 55.53L1028.32 54.65L1031.18 58.92V59H1029.64ZM1033.95 59.16C1033.45 59.16 1033 59.0733 1032.6 58.9C1032.21 58.7267 1031.88 58.4833 1031.61 58.17C1031.35 57.85 1031.18 57.48 1031.09 57.06L1032.32 56.74L1032.43 56.76C1032.52 56.9933 1032.65 57.1967 1032.8 57.37C1032.95 57.5433 1033.13 57.6767 1033.34 57.77C1033.55 57.8633 1033.77 57.91 1034.01 57.91C1034.24 57.91 1034.45 57.8733 1034.62 57.8C1034.8 57.7267 1034.94 57.6267 1035.04 57.5C1035.15 57.3667 1035.2 57.2167 1035.2 57.05C1035.2 56.8567 1035.13 56.6967 1035 56.57C1034.87 56.4433 1034.67 56.3433 1034.38 56.27L1033.18 55.96C1032.56 55.8 1032.09 55.5367 1031.76 55.17C1031.43 54.8033 1031.27 54.3767 1031.27 53.89C1031.27 53.4833 1031.37 53.1267 1031.58 52.82C1031.79 52.5133 1032.07 52.2733 1032.44 52.1C1032.81 51.9267 1033.24 51.84 1033.73 51.84C1034.2 51.84 1034.61 51.92 1034.98 52.08C1035.35 52.24 1035.66 52.47 1035.9 52.77C1036.15 53.0633 1036.31 53.4167 1036.39 53.83L1035.25 54.08L1035.14 54.06C1035.06 53.7467 1034.9 53.5067 1034.65 53.34C1034.4 53.1733 1034.09 53.09 1033.72 53.09C1033.4 53.09 1033.14 53.1667 1032.95 53.32C1032.76 53.4733 1032.67 53.66 1032.67 53.88C1032.67 54.08 1032.74 54.25 1032.88 54.39C1033.03 54.5233 1033.24 54.6267 1033.53 54.7L1034.73 55.01C1035.35 55.17 1035.82 55.42 1036.13 55.76C1036.44 56.0933 1036.6 56.5067 1036.6 57C1036.6 57.4333 1036.49 57.8133 1036.27 58.14C1036.05 58.4667 1035.74 58.72 1035.34 58.9C1034.95 59.0733 1034.48 59.16 1033.95 59.16Z" fill="#929EC6"/>
<path d="M1094.07 59.16C1093.57 59.16 1093.12 59.0733 1092.72 58.9C1092.32 58.7267 1091.99 58.4833 1091.73 58.17C1091.47 57.85 1091.29 57.48 1091.21 57.06L1092.44 56.74L1092.55 56.76C1092.64 56.9933 1092.76 57.1967 1092.92 57.37C1093.07 57.5433 1093.25 57.6767 1093.46 57.77C1093.66 57.8633 1093.89 57.91 1094.13 57.91C1094.36 57.91 1094.56 57.8733 1094.74 57.8C1094.92 57.7267 1095.06 57.6267 1095.16 57.5C1095.26 57.3667 1095.32 57.2167 1095.32 57.05C1095.32 56.8567 1095.25 56.6967 1095.12 56.57C1094.99 56.4433 1094.78 56.3433 1094.5 56.27L1093.3 55.96C1092.68 55.8 1092.2 55.5367 1091.88 55.17C1091.55 54.8033 1091.39 54.3767 1091.39 53.89C1091.39 53.4833 1091.49 53.1267 1091.7 52.82C1091.9 52.5133 1092.19 52.2733 1092.56 52.1C1092.93 51.9267 1093.36 51.84 1093.85 51.84C1094.31 51.84 1094.73 51.92 1095.1 52.08C1095.47 52.24 1095.78 52.47 1096.02 52.77C1096.26 53.0633 1096.43 53.4167 1096.51 53.83L1095.37 54.08L1095.26 54.06C1095.18 53.7467 1095.01 53.5067 1094.77 53.34C1094.52 53.1733 1094.21 53.09 1093.84 53.09C1093.52 53.09 1093.26 53.1667 1093.07 53.32C1092.88 53.4733 1092.79 53.66 1092.79 53.88C1092.79 54.08 1092.86 54.25 1093 54.39C1093.14 54.5233 1093.36 54.6267 1093.65 54.7L1094.85 55.01C1095.47 55.17 1095.93 55.42 1096.25 55.76C1096.56 56.0933 1096.72 56.5067 1096.72 57C1096.72 57.4333 1096.61 57.8133 1096.39 58.14C1096.17 58.4667 1095.86 58.72 1095.46 58.9C1095.06 59.0733 1094.6 59.16 1094.07 59.16ZM1100.28 59.16C1099.78 59.16 1099.33 59.0733 1098.93 58.9C1098.54 58.7267 1098.21 58.4833 1097.94 58.17C1097.68 57.85 1097.51 57.48 1097.42 57.06L1098.65 56.74L1098.76 56.76C1098.85 56.9933 1098.98 57.1967 1099.13 57.37C1099.28 57.5433 1099.46 57.6767 1099.67 57.77C1099.88 57.8633 1100.1 57.91 1100.34 57.91C1100.57 57.91 1100.78 57.8733 1100.95 57.8C1101.13 57.7267 1101.27 57.6267 1101.37 57.5C1101.48 57.3667 1101.53 57.2167 1101.53 57.05C1101.53 56.8567 1101.46 56.6967 1101.33 56.57C1101.2 56.4433 1101 56.3433 1100.71 56.27L1099.51 55.96C1098.89 55.8 1098.42 55.5367 1098.09 55.17C1097.76 54.8033 1097.6 54.3767 1097.6 53.89C1097.6 53.4833 1097.7 53.1267 1097.91 52.82C1098.12 52.5133 1098.4 52.2733 1098.77 52.1C1099.14 51.9267 1099.57 51.84 1100.06 51.84C1100.53 51.84 1100.94 51.92 1101.31 52.08C1101.68 52.24 1101.99 52.47 1102.23 52.77C1102.48 53.0633 1102.64 53.4167 1102.72 53.83L1101.58 54.08L1101.47 54.06C1101.39 53.7467 1101.23 53.5067 1100.98 53.34C1100.73 53.1733 1100.42 53.09 1100.05 53.09C1099.73 53.09 1099.47 53.1667 1099.28 53.32C1099.09 53.4733 1099 53.66 1099 53.88C1099 54.08 1099.07 54.25 1099.21 54.39C1099.36 54.5233 1099.57 54.6267 1099.86 54.7L1101.06 55.01C1101.68 55.17 1102.15 55.42 1102.46 55.76C1102.77 56.0933 1102.93 56.5067 1102.93 57C1102.93 57.4333 1102.82 57.8133 1102.6 58.14C1102.38 58.4667 1102.07 58.72 1101.67 58.9C1101.28 59.0733 1100.81 59.16 1100.28 59.16ZM1105.89 59L1105.97 58.79L1108.55 52H1109.95V52.08L1107.24 59H1105.89ZM1105.89 59L1103.18 52.08V52H1104.6L1107.18 58.79L1107.24 59H1105.89Z" fill="#FF281B"/>
<path d="M1168.35 59L1165.82 52.21L1165.76 52H1167.11L1169.77 58.92V59H1168.35ZM1163.1 59V58.92L1165.76 52H1167.11L1167.02 52.21L1164.49 59H1163.1ZM1164.38 57.43L1164.68 56.15H1168.29L1168.59 57.43H1164.38ZM1171.13 59V57.81H1173.21C1173.56 57.81 1173.82 57.7233 1174.01 57.55C1174.2 57.3767 1174.29 57.1367 1174.29 56.83C1174.29 56.53 1174.19 56.2967 1173.99 56.13C1173.8 55.9567 1173.54 55.87 1173.21 55.87H1171.13V54.72H1173.08C1173.27 54.72 1173.43 54.69 1173.56 54.63C1173.7 54.5633 1173.81 54.4733 1173.89 54.36C1173.97 54.24 1174.01 54.1033 1174.01 53.95C1174.01 53.7167 1173.92 53.5333 1173.75 53.4C1173.58 53.26 1173.36 53.19 1173.08 53.19H1171.13V52H1173.08C1173.76 52 1174.29 52.1733 1174.68 52.52C1175.07 52.8667 1175.26 53.31 1175.26 53.85C1175.26 54.11 1175.2 54.35 1175.08 54.57C1174.96 54.7833 1174.8 54.96 1174.59 55.1C1174.38 55.24 1174.15 55.3233 1173.9 55.35V55.11C1174.21 55.1167 1174.5 55.2033 1174.75 55.37C1175.01 55.53 1175.21 55.7467 1175.36 56.02C1175.51 56.2867 1175.59 56.59 1175.59 56.93C1175.59 57.5567 1175.39 58.06 1174.99 58.44C1174.59 58.8133 1174.04 59 1173.34 59H1171.13ZM1170.47 59V52H1171.77V59H1170.47ZM1179.69 59.16C1179.03 59.16 1178.44 59.01 1177.92 58.71C1177.41 58.4033 1177.01 57.9767 1176.72 57.43C1176.44 56.8767 1176.29 56.2333 1176.29 55.5C1176.29 54.7667 1176.44 54.1267 1176.72 53.58C1177.01 53.0267 1177.41 52.6 1177.92 52.3C1178.44 51.9933 1179.03 51.84 1179.69 51.84C1180.37 51.84 1180.96 51.9933 1181.46 52.3C1181.98 52.6 1182.38 53.0267 1182.66 53.58C1182.95 54.1267 1183.09 54.7667 1183.09 55.5C1183.09 56.2333 1182.95 56.8767 1182.66 57.43C1182.38 57.9767 1181.98 58.4033 1181.46 58.71C1180.96 59.01 1180.37 59.16 1179.69 59.16ZM1179.69 57.88C1180.09 57.88 1180.45 57.7833 1180.75 57.59C1181.07 57.3967 1181.31 57.1233 1181.48 56.77C1181.66 56.41 1181.74 55.9867 1181.74 55.5C1181.74 55.0067 1181.66 54.5833 1181.48 54.23C1181.31 53.8767 1181.07 53.6033 1180.75 53.41C1180.45 53.2167 1180.09 53.12 1179.69 53.12C1179.29 53.12 1178.94 53.2167 1178.62 53.41C1178.32 53.6033 1178.08 53.8767 1177.9 54.23C1177.73 54.5833 1177.64 55.0067 1177.64 55.5C1177.64 55.9867 1177.73 56.41 1177.9 56.77C1178.08 57.1233 1178.32 57.3967 1178.62 57.59C1178.94 57.7833 1179.29 57.88 1179.69 57.88ZM1186.83 59.16C1186.27 59.16 1185.78 59.05 1185.37 58.83C1184.96 58.61 1184.65 58.3 1184.42 57.9C1184.2 57.4933 1184.09 57.0133 1184.09 56.46V52H1185.44V56.48C1185.44 56.9267 1185.56 57.2733 1185.8 57.52C1186.04 57.76 1186.38 57.88 1186.83 57.88C1187.28 57.88 1187.63 57.76 1187.86 57.52C1188.1 57.2733 1188.22 56.9267 1188.22 56.48V52H1189.57V56.46C1189.57 57.0133 1189.46 57.4933 1189.23 57.9C1189.01 58.3 1188.69 58.61 1188.28 58.83C1187.87 59.05 1187.39 59.16 1186.83 59.16ZM1192.41 59V52H1193.76V59H1192.41ZM1190.37 53.28V52H1195.8V53.28H1190.37Z" fill="#929EC6"/>
<path d="M1253.54 59.16C1252.87 59.16 1252.28 59.0067 1251.77 58.7C1251.26 58.3933 1250.87 57.9667 1250.59 57.42C1250.32 56.8667 1250.18 56.2267 1250.18 55.5C1250.18 54.7667 1250.32 54.1267 1250.59 53.58C1250.87 53.0333 1251.26 52.6067 1251.77 52.3C1252.28 51.9933 1252.87 51.84 1253.54 51.84C1254.23 51.84 1254.84 52.02 1255.37 52.38C1255.9 52.74 1256.27 53.2333 1256.48 53.86L1255.29 54.21L1255.18 54.19C1255.05 53.8567 1254.84 53.5967 1254.54 53.41C1254.25 53.2167 1253.91 53.12 1253.54 53.12C1253.13 53.12 1252.77 53.22 1252.47 53.42C1252.17 53.6133 1251.94 53.89 1251.77 54.25C1251.61 54.6033 1251.53 55.02 1251.53 55.5C1251.53 55.98 1251.61 56.4 1251.77 56.76C1251.94 57.1133 1252.17 57.39 1252.47 57.59C1252.77 57.7833 1253.13 57.88 1253.54 57.88C1253.91 57.88 1254.25 57.7867 1254.54 57.6C1254.84 57.4067 1255.05 57.1433 1255.18 56.81L1255.29 56.79L1256.48 57.14C1256.27 57.7667 1255.9 58.26 1255.37 58.62C1254.84 58.98 1254.23 59.16 1253.54 59.16ZM1260.53 59.16C1259.87 59.16 1259.28 59.01 1258.76 58.71C1258.25 58.4033 1257.85 57.9767 1257.56 57.43C1257.28 56.8767 1257.13 56.2333 1257.13 55.5C1257.13 54.7667 1257.28 54.1267 1257.56 53.58C1257.85 53.0267 1258.25 52.6 1258.76 52.3C1259.28 51.9933 1259.87 51.84 1260.53 51.84C1261.21 51.84 1261.8 51.9933 1262.3 52.3C1262.82 52.6 1263.22 53.0267 1263.5 53.58C1263.79 54.1267 1263.93 54.7667 1263.93 55.5C1263.93 56.2333 1263.79 56.8767 1263.5 57.43C1263.22 57.9767 1262.82 58.4033 1262.3 58.71C1261.8 59.01 1261.21 59.16 1260.53 59.16ZM1260.53 57.88C1260.93 57.88 1261.29 57.7833 1261.59 57.59C1261.91 57.3967 1262.15 57.1233 1262.32 56.77C1262.5 56.41 1262.58 55.9867 1262.58 55.5C1262.58 55.0067 1262.5 54.5833 1262.32 54.23C1262.15 53.8767 1261.91 53.6033 1261.59 53.41C1261.29 53.2167 1260.93 53.12 1260.53 53.12C1260.13 53.12 1259.78 53.2167 1259.46 53.41C1259.16 53.6033 1258.92 53.8767 1258.74 54.23C1258.57 54.5833 1258.48 55.0067 1258.48 55.5C1258.48 55.9867 1258.57 56.41 1258.74 56.77C1258.92 57.1233 1259.16 57.3967 1259.46 57.59C1259.78 57.7833 1260.13 57.88 1260.53 57.88ZM1269.61 59L1265.03 52.36V52H1266.38L1270.97 58.64V59H1269.61ZM1265.03 59V52H1266.38V59H1265.03ZM1269.61 59V52H1270.97V59H1269.61ZM1273.91 59V52H1275.26V59H1273.91ZM1271.87 53.28V52H1277.3V53.28H1271.87ZM1282.05 59L1279.52 52.21L1279.46 52H1280.81L1283.47 58.92V59H1282.05ZM1276.8 59V58.92L1279.46 52H1280.81L1280.72 52.21L1278.19 59H1276.8ZM1278.08 57.43L1278.38 56.15H1281.99L1282.29 57.43H1278.08ZM1286.93 59.16C1286.25 59.16 1285.66 59.0067 1285.16 58.7C1284.65 58.3933 1284.26 57.9667 1283.98 57.42C1283.7 56.8667 1283.57 56.2267 1283.57 55.5C1283.57 54.7667 1283.7 54.1267 1283.98 53.58C1284.26 53.0333 1284.65 52.6067 1285.16 52.3C1285.66 51.9933 1286.25 51.84 1286.93 51.84C1287.62 51.84 1288.23 52.02 1288.76 52.38C1289.28 52.74 1289.65 53.2333 1289.87 53.86L1288.68 54.21L1288.57 54.19C1288.44 53.8567 1288.23 53.5967 1287.93 53.41C1287.63 53.2167 1287.3 53.12 1286.93 53.12C1286.51 53.12 1286.16 53.22 1285.86 53.42C1285.56 53.6133 1285.32 53.89 1285.16 54.25C1285 54.6033 1284.92 55.02 1284.92 55.5C1284.92 55.98 1285 56.4 1285.16 56.76C1285.32 57.1133 1285.56 57.39 1285.86 57.59C1286.16 57.7833 1286.51 57.88 1286.93 57.88C1287.3 57.88 1287.63 57.7867 1287.93 57.6C1288.23 57.4067 1288.44 57.1433 1288.57 56.81L1288.68 56.79L1289.87 57.14C1289.65 57.7667 1289.28 58.26 1288.76 58.62C1288.23 58.98 1287.62 59.16 1286.93 59.16ZM1292.41 59V52H1293.76V59H1292.41ZM1290.37 53.28V52H1295.8V53.28H1290.37Z" fill="#929EC6"/>
</g>
<defs>
<clipPath id="clip0_805_923">
<rect width="1440" height="756" fill="white" transform="translate(-1)"/>
</clipPath>
</defs>
</svg>
