<svg width="293" height="66" viewBox="0 0 293 66" fill="none" xmlns="http://www.w3.org/2000/svg">
<path d="M87.54 26.396C85.45 26.396 83.58 25.901 81.93 24.911C80.28 23.899 78.982 22.502 78.036 20.72C77.112 18.916 76.65 16.826 76.65 14.45C76.65 12.074 77.112 9.995 78.036 8.213C78.982 6.409 80.28 5.012 81.93 4.022C83.58 3.01 85.45 2.504 87.54 2.504C89.652 2.504 91.522 3.01 93.15 4.022C94.8 5.012 96.087 6.409 97.011 8.213C97.957 9.995 98.43 12.074 98.43 14.45C98.43 16.826 97.957 18.916 97.011 20.72C96.087 22.502 94.8 23.899 93.15 24.911C91.522 25.901 89.652 26.396 87.54 26.396ZM87.54 23.987C89.124 23.987 90.543 23.591 91.797 22.799C93.073 22.007 94.074 20.896 94.8 19.466C95.526 18.036 95.889 16.364 95.889 14.45C95.889 12.514 95.526 10.831 94.8 9.401C94.074 7.971 93.073 6.871 91.797 6.101C90.543 5.309 89.124 4.913 87.54 4.913C85.956 4.913 84.537 5.309 83.283 6.101C82.029 6.871 81.028 7.971 80.28 9.401C79.554 10.831 79.191 12.514 79.191 14.45C79.191 16.364 79.554 18.036 80.28 19.466C81.028 20.896 82.029 22.007 83.283 22.799C84.537 23.591 85.956 23.987 87.54 23.987ZM102.085 26V7.124C102.085 5.628 102.525 4.44 103.405 3.56C104.285 2.68 105.407 2.24 106.771 2.24H108.586V4.286L108.421 4.649H107.2C106.254 4.649 105.572 4.847 105.154 5.243C104.758 5.639 104.56 6.321 104.56 7.289V26H102.085ZM99.2473 11.909V9.5H108.586V11.909H99.2473ZM111.747 26V7.124C111.747 5.628 112.187 4.44 113.067 3.56C113.947 2.68 115.069 2.24 116.433 2.24H118.248V4.286L118.083 4.649H116.862C115.916 4.649 115.234 4.847 114.816 5.243C114.42 5.639 114.222 6.321 114.222 7.289V26H111.747ZM108.909 11.909V9.5H118.248V11.909H108.909ZM119.737 26V2.24L122.113 1.943L122.212 2.207V26H119.737ZM125.334 26V9.5H127.809V26H125.334ZM126.588 6.266C126.082 6.266 125.653 6.09 125.301 5.738C124.949 5.386 124.773 4.957 124.773 4.451C124.773 3.945 124.949 3.516 125.301 3.164C125.653 2.812 126.082 2.636 126.588 2.636C127.094 2.636 127.523 2.812 127.875 3.164C128.227 3.516 128.403 3.945 128.403 4.451C128.403 4.957 128.227 5.386 127.875 5.738C127.523 6.09 127.094 6.266 126.588 6.266ZM130.774 26V9.5H133.183V14.285L132.457 13.658C132.743 12.734 133.216 11.931 133.876 11.249C134.536 10.567 135.306 10.039 136.186 9.665C137.088 9.291 138.045 9.104 139.057 9.104C140.245 9.104 141.301 9.357 142.225 9.863C143.149 10.369 143.864 11.117 144.37 12.107C144.898 13.097 145.162 14.329 145.162 15.803V26H142.687V16.364C142.687 15.11 142.5 14.142 142.126 13.46C141.752 12.756 141.246 12.261 140.608 11.975C139.992 11.689 139.288 11.546 138.496 11.546C137.594 11.546 136.736 11.766 135.922 12.206C135.13 12.646 134.481 13.284 133.975 14.12C133.491 14.934 133.249 15.924 133.249 17.09V26H130.774ZM155.005 26.396C153.443 26.396 152.057 26.033 150.847 25.307C149.637 24.581 148.691 23.569 148.009 22.271C147.327 20.973 146.986 19.466 146.986 17.75C146.986 16.034 147.316 14.527 147.976 13.229C148.658 11.931 149.593 10.919 150.781 10.193C151.991 9.467 153.377 9.104 154.939 9.104C156.479 9.104 157.821 9.478 158.965 10.226C160.131 10.952 161.044 11.986 161.704 13.328C162.364 14.648 162.694 16.188 162.694 17.948V18.245L162.199 18.707H148.438V16.298H161.242L160.153 16.76C160.065 15.66 159.779 14.725 159.295 13.955C158.811 13.163 158.195 12.558 157.447 12.14C156.699 11.722 155.863 11.513 154.939 11.513C153.927 11.513 153.003 11.766 152.167 12.272C151.331 12.756 150.671 13.449 150.187 14.351C149.703 15.253 149.461 16.298 149.461 17.486V17.915C149.461 19.103 149.692 20.159 150.154 21.083C150.638 21.985 151.298 22.7 152.134 23.228C152.97 23.734 153.927 23.987 155.005 23.987C156.083 23.987 157.007 23.734 157.777 23.228C158.547 22.722 159.152 22.029 159.592 21.149H159.955L162.034 22.073C161.418 23.393 160.494 24.449 159.262 25.241C158.052 26.011 156.633 26.396 155.005 26.396ZM77.64 59V35.9H80.115V59H77.64ZM78.927 59V56.591H92.193V59H78.927ZM78.927 48.506V46.097H91.533V48.506H78.927ZM78.927 38.309V35.9H92.193V38.309H78.927ZM103.951 59L92.3675 42.764V42.5H95.1725L106.756 58.736V59H103.951ZM92.3675 59V58.736L98.9015 49.628L100.42 51.542L95.1725 59H92.3675ZM100.618 51.608L99.0995 49.628L104.05 42.5H106.756V42.764L100.618 51.608ZM115.84 59.396C114.718 59.396 113.684 59.176 112.738 58.736C111.792 58.274 110.978 57.636 110.296 56.822C109.614 56.008 109.108 55.062 108.778 53.984V47.516C109.108 46.416 109.614 45.47 110.296 44.678C110.978 43.864 111.792 43.237 112.738 42.797C113.684 42.335 114.718 42.104 115.84 42.104C117.314 42.104 118.634 42.478 119.8 43.226C120.966 43.974 121.89 44.997 122.572 46.295C123.276 47.593 123.628 49.078 123.628 50.75C123.628 52.422 123.276 53.907 122.572 55.205C121.89 56.503 120.966 57.526 119.8 58.274C118.634 59.022 117.314 59.396 115.84 59.396ZM107.59 65.6V42.5H109.999V48.671L109.603 50.75L110.065 52.829V65.6H107.59ZM115.741 56.987C116.797 56.987 117.732 56.723 118.546 56.195C119.36 55.667 119.998 54.941 120.46 54.017C120.922 53.071 121.153 51.982 121.153 50.75C121.153 49.518 120.922 48.44 120.46 47.516C119.998 46.57 119.36 45.833 118.546 45.305C117.732 44.777 116.797 44.513 115.741 44.513C114.663 44.513 113.695 44.777 112.837 45.305C111.979 45.833 111.297 46.57 110.791 47.516C110.307 48.44 110.065 49.518 110.065 50.75C110.065 51.982 110.307 53.071 110.791 54.017C111.297 54.941 111.979 55.667 112.837 56.195C113.695 56.723 114.663 56.987 115.741 56.987ZM132.627 59.396C131.065 59.396 129.679 59.033 128.469 58.307C127.259 57.581 126.313 56.569 125.631 55.271C124.949 53.973 124.608 52.466 124.608 50.75C124.608 49.034 124.938 47.527 125.598 46.229C126.28 44.931 127.215 43.919 128.403 43.193C129.613 42.467 130.999 42.104 132.561 42.104C134.101 42.104 135.443 42.478 136.587 43.226C137.753 43.952 138.666 44.986 139.326 46.328C139.986 47.648 140.316 49.188 140.316 50.948V51.245L139.821 51.707H126.06V49.298H138.864L137.775 49.76C137.687 48.66 137.401 47.725 136.917 46.955C136.433 46.163 135.817 45.558 135.069 45.14C134.321 44.722 133.485 44.513 132.561 44.513C131.549 44.513 130.625 44.766 129.789 45.272C128.953 45.756 128.293 46.449 127.809 47.351C127.325 48.253 127.083 49.298 127.083 50.486V50.915C127.083 52.103 127.314 53.159 127.776 54.083C128.26 54.985 128.92 55.7 129.756 56.228C130.592 56.734 131.549 56.987 132.627 56.987C133.705 56.987 134.629 56.734 135.399 56.228C136.169 55.722 136.774 55.029 137.214 54.149H137.577L139.656 55.073C139.04 56.393 138.116 57.449 136.884 58.241C135.674 59.011 134.255 59.396 132.627 59.396ZM142.285 59V42.5H144.694V47.285L143.968 46.658C144.342 45.382 145.057 44.37 146.113 43.622C147.191 42.874 148.401 42.5 149.743 42.5H151.459V44.909H149.347C148.445 44.909 147.642 45.129 146.938 45.569C146.256 46.009 145.717 46.614 145.321 47.384C144.947 48.154 144.76 49.056 144.76 50.09V59H142.285ZM152.462 59V42.5H154.937V59H152.462ZM153.716 39.266C153.21 39.266 152.781 39.09 152.429 38.738C152.077 38.386 151.901 37.957 151.901 37.451C151.901 36.945 152.077 36.516 152.429 36.164C152.781 35.812 153.21 35.636 153.716 35.636C154.222 35.636 154.651 35.812 155.003 36.164C155.355 36.516 155.531 36.945 155.531 37.451C155.531 37.957 155.355 38.386 155.003 38.738C154.651 39.09 154.222 39.266 153.716 39.266ZM164.931 59.396C163.369 59.396 161.983 59.033 160.773 58.307C159.563 57.581 158.617 56.569 157.935 55.271C157.253 53.973 156.912 52.466 156.912 50.75C156.912 49.034 157.242 47.527 157.902 46.229C158.584 44.931 159.519 43.919 160.707 43.193C161.917 42.467 163.303 42.104 164.865 42.104C166.405 42.104 167.747 42.478 168.891 43.226C170.057 43.952 170.97 44.986 171.63 46.328C172.29 47.648 172.62 49.188 172.62 50.948V51.245L172.125 51.707H158.364V49.298H171.168L170.079 49.76C169.991 48.66 169.705 47.725 169.221 46.955C168.737 46.163 168.121 45.558 167.373 45.14C166.625 44.722 165.789 44.513 164.865 44.513C163.853 44.513 162.929 44.766 162.093 45.272C161.257 45.756 160.597 46.449 160.113 47.351C159.629 48.253 159.387 49.298 159.387 50.486V50.915C159.387 52.103 159.618 53.159 160.08 54.083C160.564 54.985 161.224 55.7 162.06 56.228C162.896 56.734 163.853 56.987 164.931 56.987C166.009 56.987 166.933 56.734 167.703 56.228C168.473 55.722 169.078 55.029 169.518 54.149H169.881L171.96 55.073C171.344 56.393 170.42 57.449 169.188 58.241C167.978 59.011 166.559 59.396 164.931 59.396ZM174.589 59V42.5H176.998V47.285L176.272 46.658C176.558 45.734 177.031 44.931 177.691 44.249C178.351 43.567 179.121 43.039 180.001 42.665C180.903 42.291 181.86 42.104 182.872 42.104C184.06 42.104 185.116 42.357 186.04 42.863C186.964 43.369 187.679 44.117 188.185 45.107C188.713 46.097 188.977 47.329 188.977 48.803V59H186.502V49.364C186.502 48.11 186.315 47.142 185.941 46.46C185.567 45.756 185.061 45.261 184.423 44.975C183.807 44.689 183.103 44.546 182.311 44.546C181.409 44.546 180.551 44.766 179.737 45.206C178.945 45.646 178.296 46.284 177.79 47.12C177.306 47.934 177.064 48.924 177.064 50.09V59H174.589ZM199.019 59.396C197.413 59.396 195.983 59.033 194.729 58.307C193.497 57.581 192.529 56.569 191.825 55.271C191.143 53.973 190.802 52.466 190.802 50.75C190.802 49.034 191.143 47.527 191.825 46.229C192.529 44.931 193.497 43.919 194.729 43.193C195.983 42.467 197.413 42.104 199.019 42.104C200.251 42.104 201.362 42.335 202.352 42.797C203.342 43.237 204.189 43.875 204.893 44.711C205.619 45.525 206.158 46.504 206.51 47.648L204.299 48.275H203.936C203.54 47.109 202.913 46.196 202.055 45.536C201.197 44.854 200.185 44.513 199.019 44.513C197.853 44.513 196.841 44.777 195.983 45.305C195.125 45.833 194.454 46.57 193.97 47.516C193.508 48.44 193.277 49.518 193.277 50.75C193.277 51.96 193.508 53.038 193.97 53.984C194.454 54.93 195.125 55.667 195.983 56.195C196.841 56.723 197.853 56.987 199.019 56.987C199.833 56.987 200.559 56.844 201.197 56.558C201.857 56.25 202.429 55.821 202.913 55.271C203.397 54.699 203.782 54.017 204.068 53.225H204.431L206.642 53.852C206.246 55.018 205.674 56.019 204.926 56.855C204.2 57.691 203.342 58.329 202.352 58.769C201.362 59.187 200.251 59.396 199.019 59.396ZM215.475 59.396C213.913 59.396 212.527 59.033 211.317 58.307C210.107 57.581 209.161 56.569 208.479 55.271C207.797 53.973 207.456 52.466 207.456 50.75C207.456 49.034 207.786 47.527 208.446 46.229C209.128 44.931 210.063 43.919 211.251 43.193C212.461 42.467 213.847 42.104 215.409 42.104C216.949 42.104 218.291 42.478 219.435 43.226C220.601 43.952 221.514 44.986 222.174 46.328C222.834 47.648 223.164 49.188 223.164 50.948V51.245L222.669 51.707H208.908V49.298H221.712L220.623 49.76C220.535 48.66 220.249 47.725 219.765 46.955C219.281 46.163 218.665 45.558 217.917 45.14C217.169 44.722 216.333 44.513 215.409 44.513C214.397 44.513 213.473 44.766 212.637 45.272C211.801 45.756 211.141 46.449 210.657 47.351C210.173 48.253 209.931 49.298 209.931 50.486V50.915C209.931 52.103 210.162 53.159 210.624 54.083C211.108 54.985 211.768 55.7 212.604 56.228C213.44 56.734 214.397 56.987 215.475 56.987C216.553 56.987 217.477 56.734 218.247 56.228C219.017 55.722 219.622 55.029 220.062 54.149H220.425L222.504 55.073C221.888 56.393 220.964 57.449 219.732 58.241C218.522 59.011 217.103 59.396 215.475 59.396Z" fill="#F4F3EF"/>
<path d="M55 5C23.95 16.157 35.875 50.7438 0.999998 59M0.999998 59L0.999997 5.00001M0.999998 59L55 59" stroke="#F4F3EF" stroke-width="2" stroke-linejoin="round"/>
</svg>
