<svg width="196" height="66" viewBox="0 0 196 66" fill="none" xmlns="http://www.w3.org/2000/svg">
<path d="M75.209 26L67.817 2.9H70.358L77.255 25.307L77.552 26H75.209ZM75.209 26L75.341 25.307L81.578 2.9H84.185V3.164L77.552 26H75.209ZM60.623 26L53.99 3.164V2.9H56.597L62.834 25.307L62.966 26H60.623ZM60.623 26L60.92 25.307L67.817 2.9H70.358L62.966 26H60.623ZM90.0371 26.396C88.9151 26.396 87.9031 26.176 87.0011 25.736C86.1211 25.296 85.4281 24.691 84.9221 23.921C84.4161 23.151 84.1631 22.26 84.1631 21.248C84.1631 19.818 84.6691 18.663 85.6811 17.783C86.7151 16.881 88.1341 16.364 89.9381 16.232L96.2741 15.77V18.08L90.4991 18.509C89.2231 18.597 88.2661 18.872 87.6281 19.334C87.0121 19.796 86.7041 20.434 86.7041 21.248C86.7041 22.04 87.0231 22.7 87.6611 23.228C88.3211 23.734 89.1681 23.987 90.2021 23.987C91.2361 23.987 92.1711 23.756 93.0071 23.294C93.8651 22.81 94.5361 22.172 95.0201 21.38C95.5261 20.566 95.7791 19.664 95.7791 18.674V16.001C95.7791 14.681 95.3721 13.603 94.5581 12.767C93.7661 11.909 92.6881 11.48 91.3241 11.48C90.2901 11.48 89.3991 11.733 88.6511 12.239C87.9031 12.723 87.3751 13.438 87.0671 14.384H86.7041L84.5261 13.592C85.0541 12.118 85.9121 10.996 87.1001 10.226C88.2881 9.456 89.7071 9.071 91.3571 9.071C93.5791 9.071 95.2841 9.742 96.4721 11.084C97.6601 12.404 98.2541 14.285 98.2541 16.727V26H95.8451V21.215L96.7031 21.842C96.4391 22.722 95.9771 23.514 95.3171 24.218C94.6571 24.9 93.8761 25.439 92.9741 25.835C92.0721 26.209 91.0931 26.396 90.0371 26.396ZM105.938 26C104.574 26 103.452 25.56 102.572 24.68C101.692 23.8 101.252 22.612 101.252 21.116V5.012H103.727V20.951C103.727 21.919 103.925 22.601 104.321 22.997C104.739 23.393 105.421 23.591 106.367 23.591H108.413L108.578 23.954V26H105.938ZM98.4137 11.909V9.5H108.578V11.909H98.4137ZM117.303 26.396C115.697 26.396 114.267 26.033 113.013 25.307C111.781 24.581 110.813 23.569 110.109 22.271C109.427 20.973 109.086 19.466 109.086 17.75C109.086 16.034 109.427 14.527 110.109 13.229C110.813 11.931 111.781 10.919 113.013 10.193C114.267 9.467 115.697 9.104 117.303 9.104C118.535 9.104 119.646 9.335 120.636 9.797C121.626 10.237 122.473 10.875 123.177 11.711C123.903 12.525 124.442 13.504 124.794 14.648L122.583 15.275H122.22C121.824 14.109 121.197 13.196 120.339 12.536C119.481 11.854 118.469 11.513 117.303 11.513C116.137 11.513 115.125 11.777 114.267 12.305C113.409 12.833 112.738 13.57 112.254 14.516C111.792 15.44 111.561 16.518 111.561 17.75C111.561 18.96 111.792 20.038 112.254 20.984C112.738 21.93 113.409 22.667 114.267 23.195C115.125 23.723 116.137 23.987 117.303 23.987C118.117 23.987 118.843 23.844 119.481 23.558C120.141 23.25 120.713 22.821 121.197 22.271C121.681 21.699 122.066 21.017 122.352 20.225H122.715L124.926 20.852C124.53 22.018 123.958 23.019 123.21 23.855C122.484 24.691 121.626 25.329 120.636 25.769C119.646 26.187 118.535 26.396 117.303 26.396ZM126.896 26V2.24L129.272 1.943L129.371 2.207V14.285L128.579 13.658C128.865 12.734 129.338 11.931 129.998 11.249C130.658 10.567 131.428 10.039 132.308 9.665C133.21 9.291 134.167 9.104 135.179 9.104C136.367 9.104 137.423 9.357 138.347 9.863C139.271 10.369 139.986 11.117 140.492 12.107C141.02 13.097 141.284 14.329 141.284 15.803V26H138.809V16.364C138.809 15.11 138.622 14.142 138.248 13.46C137.874 12.756 137.368 12.261 136.73 11.975C136.114 11.689 135.41 11.546 134.618 11.546C133.716 11.546 132.858 11.766 132.044 12.206C131.252 12.646 130.603 13.284 130.097 14.12C129.613 14.934 129.371 15.924 129.371 17.09V26H126.896ZM55.64 59V35.9H58.115V59H55.64ZM56.927 59V56.591H70.193V59H56.927ZM56.927 48.506V46.097H69.533V48.506H56.927ZM56.927 38.309V35.9H70.193V38.309H56.927ZM80.7625 59.396C79.6405 59.396 78.6065 59.176 77.6605 58.736C76.7145 58.274 75.9005 57.636 75.2185 56.822C74.5365 56.008 74.0305 55.062 73.7005 53.984V47.516C74.0305 46.416 74.5365 45.47 75.2185 44.678C75.9005 43.864 76.7145 43.237 77.6605 42.797C78.6065 42.335 79.6405 42.104 80.7625 42.104C82.2365 42.104 83.5565 42.478 84.7225 43.226C85.8885 43.974 86.8125 44.997 87.4945 46.295C88.1985 47.593 88.5505 49.078 88.5505 50.75C88.5505 52.422 88.1985 53.907 87.4945 55.205C86.8125 56.503 85.8885 57.526 84.7225 58.274C83.5565 59.022 82.2365 59.396 80.7625 59.396ZM72.5125 65.6V42.5H74.9215V48.671L74.5255 50.75L74.9875 52.829V65.6H72.5125ZM80.6635 56.987C81.7195 56.987 82.6545 56.723 83.4685 56.195C84.2825 55.667 84.9205 54.941 85.3825 54.017C85.8445 53.071 86.0755 51.982 86.0755 50.75C86.0755 49.518 85.8445 48.44 85.3825 47.516C84.9205 46.57 84.2825 45.833 83.4685 45.305C82.6545 44.777 81.7195 44.513 80.6635 44.513C79.5855 44.513 78.6175 44.777 77.7595 45.305C76.9015 45.833 76.2195 46.57 75.7135 47.516C75.2295 48.44 74.9875 49.518 74.9875 50.75C74.9875 51.982 75.2295 53.071 75.7135 54.017C76.2195 54.941 76.9015 55.667 77.7595 56.195C78.6175 56.723 79.5855 56.987 80.6635 56.987ZM90.5207 59V42.5H92.9957V59H90.5207ZM91.7747 39.266C91.2687 39.266 90.8397 39.09 90.4877 38.738C90.1357 38.386 89.9597 37.957 89.9597 37.451C89.9597 36.945 90.1357 36.516 90.4877 36.164C90.8397 35.812 91.2687 35.636 91.7747 35.636C92.2807 35.636 92.7097 35.812 93.0617 36.164C93.4137 36.516 93.5897 36.945 93.5897 37.451C93.5897 37.957 93.4137 38.386 93.0617 38.738C92.7097 39.09 92.2807 39.266 91.7747 39.266ZM101.241 59.396C99.5466 59.396 98.1166 58.989 96.9506 58.175C95.7846 57.339 95.0146 56.173 94.6406 54.677L96.9176 54.116L97.2806 54.182C97.5226 55.062 98.0286 55.755 98.7986 56.261C99.5686 56.745 100.471 56.987 101.505 56.987C102.539 56.987 103.419 56.756 104.145 56.294C104.893 55.81 105.267 55.183 105.267 54.413C105.267 53.775 105.047 53.269 104.607 52.895C104.189 52.499 103.551 52.202 102.693 52.004L99.6566 51.311C98.1166 50.959 96.9836 50.398 96.2576 49.628C95.5536 48.836 95.2016 47.901 95.2016 46.823C95.2016 45.899 95.4546 45.085 95.9606 44.381C96.4666 43.677 97.1596 43.127 98.0396 42.731C98.9416 42.313 99.9646 42.104 101.109 42.104C102.781 42.104 104.189 42.522 105.333 43.358C106.477 44.194 107.236 45.371 107.61 46.889L105.3 47.384L104.937 47.318C104.717 46.416 104.233 45.723 103.485 45.239C102.759 44.755 101.945 44.513 101.043 44.513C100.097 44.513 99.3046 44.722 98.6666 45.14C98.0506 45.558 97.7426 46.086 97.7426 46.724C97.7426 47.274 97.9406 47.736 98.3366 48.11C98.7546 48.462 99.4146 48.737 100.317 48.935L103.386 49.628C104.904 49.98 106.015 50.541 106.719 51.311C107.445 52.081 107.808 53.06 107.808 54.248C107.808 55.304 107.522 56.217 106.95 56.987C106.378 57.757 105.597 58.351 104.607 58.769C103.639 59.187 102.517 59.396 101.241 59.396ZM116.714 59.396C115.13 59.396 113.722 59.033 112.49 58.307C111.28 57.581 110.323 56.569 109.619 55.271C108.937 53.973 108.596 52.466 108.596 50.75C108.596 49.034 108.937 47.527 109.619 46.229C110.323 44.931 111.28 43.919 112.49 43.193C113.722 42.467 115.13 42.104 116.714 42.104C118.32 42.104 119.728 42.467 120.938 43.193C122.148 43.919 123.094 44.931 123.776 46.229C124.48 47.527 124.832 49.034 124.832 50.75C124.832 52.466 124.48 53.973 123.776 55.271C123.094 56.569 122.148 57.581 120.938 58.307C119.728 59.033 118.32 59.396 116.714 59.396ZM116.714 56.987C117.814 56.987 118.782 56.734 119.618 56.228C120.476 55.7 121.147 54.974 121.631 54.05C122.115 53.104 122.357 52.004 122.357 50.75C122.357 49.474 122.115 48.374 121.631 47.45C121.147 46.526 120.476 45.811 119.618 45.305C118.782 44.777 117.814 44.513 116.714 44.513C115.614 44.513 114.635 44.777 113.777 45.305C112.941 45.811 112.281 46.526 111.797 47.45C111.313 48.374 111.071 49.474 111.071 50.75C111.071 52.004 111.313 53.104 111.797 54.05C112.281 54.974 112.941 55.7 113.777 56.228C114.635 56.734 115.614 56.987 116.714 56.987ZM133.619 59.396C132.167 59.396 130.847 59.022 129.659 58.274C128.493 57.526 127.558 56.503 126.854 55.205C126.172 53.907 125.831 52.422 125.831 50.75C125.831 49.078 126.172 47.593 126.854 46.295C127.558 44.997 128.493 43.974 129.659 43.226C130.847 42.478 132.167 42.104 133.619 42.104C134.741 42.104 135.775 42.335 136.721 42.797C137.667 43.237 138.481 43.864 139.163 44.678C139.845 45.47 140.351 46.416 140.681 47.516V53.984C140.351 55.062 139.845 56.008 139.163 56.822C138.481 57.636 137.667 58.274 136.721 58.736C135.775 59.176 134.741 59.396 133.619 59.396ZM133.718 56.987C134.818 56.987 135.786 56.723 136.622 56.195C137.48 55.667 138.151 54.941 138.635 54.017C139.141 53.071 139.394 51.982 139.394 50.75C139.394 49.518 139.141 48.44 138.635 47.516C138.151 46.57 137.48 45.833 136.622 45.305C135.786 44.777 134.818 44.513 133.718 44.513C132.684 44.513 131.749 44.777 130.913 45.305C130.099 45.833 129.461 46.57 128.999 47.516C128.537 48.44 128.306 49.518 128.306 50.75C128.306 51.982 128.537 53.071 128.999 54.017C129.461 54.941 130.099 55.667 130.913 56.195C131.749 56.723 132.684 56.987 133.718 56.987ZM139.46 59V52.829L139.856 50.75L139.394 48.671V35.24L141.77 34.943L141.869 35.207V59H139.46ZM152.019 59.396C150.457 59.396 149.071 59.033 147.861 58.307C146.651 57.581 145.705 56.569 145.023 55.271C144.341 53.973 144 52.466 144 50.75C144 49.034 144.33 47.527 144.99 46.229C145.672 44.931 146.607 43.919 147.795 43.193C149.005 42.467 150.391 42.104 151.953 42.104C153.493 42.104 154.835 42.478 155.979 43.226C157.145 43.952 158.058 44.986 158.718 46.328C159.378 47.648 159.708 49.188 159.708 50.948V51.245L159.213 51.707H145.452V49.298H158.256L157.167 49.76C157.079 48.66 156.793 47.725 156.309 46.955C155.825 46.163 155.209 45.558 154.461 45.14C153.713 44.722 152.877 44.513 151.953 44.513C150.941 44.513 150.017 44.766 149.181 45.272C148.345 45.756 147.685 46.449 147.201 47.351C146.717 48.253 146.475 49.298 146.475 50.486V50.915C146.475 52.103 146.706 53.159 147.168 54.083C147.652 54.985 148.312 55.7 149.148 56.228C149.984 56.734 150.941 56.987 152.019 56.987C153.097 56.987 154.021 56.734 154.791 56.228C155.561 55.722 156.166 55.029 156.606 54.149H156.969L159.048 55.073C158.432 56.393 157.508 57.449 156.276 58.241C155.066 59.011 153.647 59.396 152.019 59.396ZM166.957 59.396C165.263 59.396 163.833 58.989 162.667 58.175C161.501 57.339 160.731 56.173 160.357 54.677L162.634 54.116L162.997 54.182C163.239 55.062 163.745 55.755 164.515 56.261C165.285 56.745 166.187 56.987 167.221 56.987C168.255 56.987 169.135 56.756 169.861 56.294C170.609 55.81 170.983 55.183 170.983 54.413C170.983 53.775 170.763 53.269 170.323 52.895C169.905 52.499 169.267 52.202 168.409 52.004L165.373 51.311C163.833 50.959 162.7 50.398 161.974 49.628C161.27 48.836 160.918 47.901 160.918 46.823C160.918 45.899 161.171 45.085 161.677 44.381C162.183 43.677 162.876 43.127 163.756 42.731C164.658 42.313 165.681 42.104 166.825 42.104C168.497 42.104 169.905 42.522 171.049 43.358C172.193 44.194 172.952 45.371 173.326 46.889L171.016 47.384L170.653 47.318C170.433 46.416 169.949 45.723 169.201 45.239C168.475 44.755 167.661 44.513 166.759 44.513C165.813 44.513 165.021 44.722 164.383 45.14C163.767 45.558 163.459 46.086 163.459 46.724C163.459 47.274 163.657 47.736 164.053 48.11C164.471 48.462 165.131 48.737 166.033 48.935L169.102 49.628C170.62 49.98 171.731 50.541 172.435 51.311C173.161 52.081 173.524 53.06 173.524 54.248C173.524 55.304 173.238 56.217 172.666 56.987C172.094 57.757 171.313 58.351 170.323 58.769C169.355 59.187 168.233 59.396 166.957 59.396Z" fill="#F4F3EF"/>
<path d="M1 60L1.00001 6L36 33L1 60Z" stroke="#F4F3EF" stroke-width="2" stroke-linejoin="round"/>
</svg>
