<svg width="152" height="45" viewBox="0 0 152 45" fill="none" xmlns="http://www.w3.org/2000/svg">
<path d="M21.6287 0C21.7316 0.119016 21.838 0.122322 21.941 0H25.0572C25.1842 0.135546 25.3421 0.138852 25.4725 0H25.9907C25.9324 0.320681 26.1589 0.171912 26.3545 0.195054C29.5394 0.571937 33.4073 1.76871 35.995 3.61676C36.3347 3.85809 36.9182 4.15233 36.8976 4.59533C36.6814 4.797 34.3819 3.42831 33.9907 3.24318C26.001 -0.538876 16.8788 0.0925679 9.52748 4.89287L9.93589 4.43334C10.5193 4.04984 11.065 3.61676 11.6656 3.2564C14.3735 1.62324 17.5721 0.588467 20.7467 0.195054C20.9423 0.171912 21.1688 0.320681 21.1104 0H21.6287Z" fill="#002676"/>
<path d="M152 36.0683C150.905 36.3229 150.912 35.3774 150.236 34.8683V36.0683H149.402V33.4698C150.511 33.2285 150.545 34.1013 151.166 34.6699V33.4698H151.997V36.0683H152Z" fill="#002676"/>
<path d="M29.6289 9.59073L25.7576 7.37241C25.4418 7.25009 25.0712 7.26001 24.7451 7.34266L14.9914 12.748C14.2638 13.1083 13.1107 14.9167 13.1107 15.6374V40.7663C12.5959 40.6836 12.0331 40.277 11.58 39.9893C-3.08485 30.7326 -0.29808 9.03202 16.1755 3.3953C33.8193 -2.64144 50.461 14.3646 43.1509 30.9408C39.0325 40.2803 28.1325 45.3616 17.8949 42.7598C17.8915 35.5825 17.8812 28.4051 17.8949 21.2278C17.8983 19.1252 17.6272 17.1482 19.5011 15.5911L26.5126 11.6933C26.2758 13.8918 27.024 15.8721 25.6855 17.9384C24.5152 19.7467 21.0798 20.679 19.3569 22.0411C18.9382 22.6031 18.6568 23.261 19.4153 23.6643L23.8116 26.0777C23.8425 26.2959 24.0759 26.5835 24.3333 26.4381L28.7983 23.9817C28.5135 26.6397 29.5431 29.6085 26.7528 31.4566C24.8515 32.7162 22.432 33.7873 20.4174 34.9543C20.2801 35.0337 19.5525 35.4271 19.5525 35.5196L24.3813 38.1611L31.5508 34.1708C32.4191 33.6154 33.1295 32.6335 33.4178 31.6715C33.8502 30.2234 33.8468 25.1487 33.6477 23.5552C33.5276 22.5833 33.1707 21.8097 32.0141 21.9783C31.8116 21.7204 30.4869 20.9336 30.2603 21.0923C30.2329 21.1088 30.1059 21.4626 29.9412 21.6345C29.7352 21.8461 29.4126 22.018 29.1587 22.1833C27.5628 23.218 25.7438 23.985 24.1171 24.9768C24.1171 24.9702 24.0038 24.957 24.1034 24.8281C24.2235 24.6793 24.474 24.5404 24.6456 24.4346C26.8386 23.0461 30.2054 22.1171 31.0806 19.5352C31.5645 18.1136 31.5542 12.867 31.3757 11.2503C31.2968 10.5362 31.0566 9.80893 30.25 9.63371C30.1162 9.60396 29.7009 9.54445 29.622 9.58743" fill="#002676"/>
<path d="M51.8305 9.11467L73.3148 9.09153C74.4473 8.99235 74.4611 10.5429 74.5091 11.3396C74.6155 13.0951 74.6635 15.9184 74.5091 17.6408C74.4027 18.8277 73.3628 20.0145 75.0273 20.7319C75.5318 20.9501 75.8785 20.7385 75.9643 21.4295C75.7892 23.7768 76.1908 26.4182 75.9643 28.7291C75.827 30.1441 74.7459 29.6746 73.7335 29.6713C66.3753 29.6251 59 29.754 51.6486 29.6317C51.4324 29.549 51.2677 29.3903 51.1819 29.1821L51.1304 10.037C51.1064 9.60396 51.4187 9.25022 51.834 9.11467M71.3894 25.0793V22.1304C71.3894 22.1304 71.2453 21.9816 71.235 21.9816H59.9129C59.5765 21.9816 59.3637 21.3138 59.3363 21.0394C59.2608 20.2856 59.2436 18.3715 59.35 17.6474C59.3809 17.4259 59.7207 16.7879 59.9129 16.7879H71.235C71.235 16.7879 71.3894 16.649 71.3894 16.6391V13.8422C71.3894 13.8422 71.2453 13.6935 71.235 13.6935H55.6023V25.0826H71.3929L71.3894 25.0793Z" fill="#002676"/>
<path d="M107.85 13.5876H78.4005C78.0504 13.5876 77.6146 13.1579 77.5425 12.814C77.4224 12.2454 77.4464 9.73285 77.7793 9.29315C77.9406 9.07826 78.349 8.9361 78.6167 8.89974C80.2297 8.68816 82.9101 8.87329 84.6364 8.88652C96.5591 8.98569 108.55 9.12124 120.473 8.89313C121.486 8.87329 123.088 8.62865 123.305 9.86509C123.401 10.4172 123.418 11.5181 123.438 12.133C123.48 13.3364 122.985 13.5215 121.829 13.5909C119.416 13.7397 116.616 13.2868 114.134 13.4818C113.88 13.5017 113.616 13.5248 113.407 13.6802L113.314 29.4762C113.204 29.7672 112.985 29.8399 112.686 29.873C111.859 29.9655 109.336 29.9788 108.523 29.873C108.276 29.8432 107.854 29.5192 107.854 29.3176V13.581L107.85 13.5876Z" fill="#002676"/>
<path d="M134.445 14.186L123.278 30.1738C123.024 30.4383 122.842 30.5804 122.444 30.5804C121.836 30.5804 120.587 30.4482 119.962 30.3622C119.31 30.2697 118.682 29.8366 118.775 29.1489C123.281 22.5634 127.996 16.0936 132.571 9.54109C132.726 9.36257 132.908 9.31629 133.141 9.28984C133.635 9.23364 136.94 9.24025 137.222 9.36588C141.896 15.8324 146.406 22.451 151.001 28.9836C151.536 29.4101 150.943 30.2829 150.445 30.4284C150.02 30.554 146.903 30.5375 146.334 30.4746C146.131 30.4515 145.963 30.4184 145.815 30.2763L134.737 14.4571L134.445 14.1893V14.186Z" fill="#002676"/>
<path d="M78.2151 25.4991L102.39 25.4826C102.747 25.5355 103.008 25.7867 103.066 26.1306C103.149 26.6496 103.152 28.6993 103.066 29.2151C103.004 29.5886 102.675 29.8167 102.297 29.8763L78.3009 29.8663C77.714 29.7407 77.563 29.3473 77.5116 28.8249C77.4532 28.2233 77.412 26.1702 77.769 25.7669C77.8719 25.6512 78.0572 25.5289 78.2117 25.4958" fill="#002676"/>
<path d="M78.8398 17.3068L102.074 17.2936C102.521 17.3432 102.919 17.6474 103.025 18.0771C103.131 18.5135 103.138 20.3583 103.063 20.8244C102.998 21.2443 102.648 21.6311 102.191 21.684L78.7163 21.6741C78.3902 21.6278 78.0264 21.317 77.9544 21.0096C77.8686 20.6393 77.8857 18.2094 78.0093 17.9085C78.1225 17.6408 78.5309 17.3498 78.8398 17.3068Z" fill="#002676"/>
<path d="M24.1242 24.9768C24.0453 25.3735 23.9595 25.2512 23.9252 25.3537C23.8703 25.5157 23.7913 25.9157 23.8119 26.0744L19.4155 23.661C18.6571 23.2577 18.9385 22.5998 19.3572 22.0378C21.08 20.6757 24.5189 19.7401 25.6858 17.9351C27.0242 15.8655 26.2761 13.8852 26.5129 11.6867C26.5198 11.6107 26.4957 11.528 26.53 11.4553C27.4292 10.7511 28.5172 10.2751 29.5536 9.78578C29.6669 9.73289 29.622 9.59404 29.6289 9.59073C29.7112 9.54445 30.1233 9.60726 30.2572 9.63701C31.0637 9.81223 31.3039 10.5395 31.3829 11.2536C31.5613 12.8703 31.5716 18.1136 31.0877 19.5385C30.2091 22.1204 26.8458 23.0494 24.6527 24.4379C24.4846 24.5437 24.2306 24.6826 24.1105 24.8314C24.011 24.957 24.1277 24.9702 24.1242 24.9768Z" fill="#FDB515"/>
<path d="M139.953 29.9721C139.898 29.7506 139.771 29.463 139.857 29.2382C139.922 29.063 140.54 29.0068 140.365 28.7753C140.341 28.7423 139.754 28.6067 139.565 28.4943C139.346 28.3687 139.037 27.972 138.858 27.972C138.45 27.972 137.575 29.4729 137.046 29.6283C136.823 29.6944 135.639 29.7242 135.443 29.658C135.183 29.5721 135.31 29.2117 135.272 29.1721C135.203 29.0993 133.36 30.1572 133.607 29.139C133.676 28.858 135.059 28.7753 133.81 27.9323C132.924 27.3339 133.024 27.9918 132.475 28.5274C132.011 28.977 129.791 30.3523 129.3 29.5754C128.998 29.096 129.825 28.9109 130.131 28.6729C130.814 28.1439 131.39 27.3604 131.328 26.4777C131.133 26.2892 128.892 27.486 128.37 27.4794C127.831 27.4728 128.679 26.7289 128.524 26.5769C128.123 26.6331 127.629 26.9967 127.279 26.6231C127.21 26.3983 127.704 26.0049 127.821 25.747C127.914 25.5355 127.89 25.304 127.986 25.1057C128.634 23.7436 129.056 24.0544 130.258 23.4957C131.298 23.013 132.087 22.246 133.329 22.4047C133.851 22.4708 134.489 22.8576 134.915 22.8841C135.327 22.9105 135.821 22.7022 136.26 22.6725C138.038 22.5535 139.912 22.9535 140.869 24.5437C141.381 25.3933 141.127 25.8198 141.213 26.7124C141.264 27.248 141.892 28.9704 141.81 29.2051C141.741 29.4035 140.053 30.0349 139.956 29.9688M136.295 28.858C136.487 28.7423 136.356 27.7637 136.26 27.5753C136.126 27.3141 135.739 27.3703 135.481 27.3769C135.409 27.6777 135.78 27.843 135.766 28.1075C135.749 28.4381 135.32 28.7059 135.375 29.0729C135.563 28.9406 136.219 28.901 136.291 28.858" fill="#FDB515"/>
<path d="M18.3066 44.3598C18.2826 44.1812 18.54 44.2639 18.6567 44.2738C19.3087 44.33 19.9883 44.5052 20.6438 44.5614C35.1577 45.7483 47.0667 34.6137 46.2464 20.636C46.1709 19.3731 45.8208 18.1499 45.6527 16.9101C45.6389 16.801 45.5394 16.5663 45.7282 16.5894C45.989 17.5349 46.2704 18.4937 46.4283 19.4623C47.3721 25.228 46.0165 31.0631 42.4918 35.8006C37.0281 43.1465 27.4872 46.5087 18.3066 44.3598Z" fill="#002676"/>
<path d="M5.63222 36.8684C5.4366 36.9114 5.38512 36.7626 5.26843 36.67C4.30061 35.9064 3.30877 34.3988 2.70474 33.3409C-1.26607 26.3586 -0.795892 17.5482 3.66226 10.8899C3.8922 10.8932 3.71031 11.0585 3.66569 11.1445C3.20581 12.004 2.70817 12.8603 2.33408 13.7595C-0.25707 19.9979 0.14104 26.8876 3.32936 32.8384C3.87161 33.85 5.24097 35.5129 5.57731 36.3725C5.64252 36.5411 5.64938 36.6932 5.63222 36.8684Z" fill="#002676"/>
<path d="M127.172 35.7676C127.382 36.1643 126.527 36.1379 126.301 36.0751C126.174 36.0387 126.397 35.5428 125.456 35.6618C125.158 35.6982 125.292 35.9891 125.185 36.0552C125.055 36.1379 124.475 36.0255 124.265 36.0684C124.372 35.7378 125.096 33.5592 125.216 33.4865C125.274 33.4501 126.157 33.4501 126.222 33.4865C126.404 33.5956 126.973 35.599 127.069 35.6684C127.289 35.8205 127.512 35.2089 127.649 35.1758C127.756 35.1527 128.35 35.5196 128.624 35.3676C128.456 34.832 127.739 35.1725 127.457 34.5444C126.97 33.4468 128.792 33.0335 129.513 33.6683C129.582 33.7609 129.341 34.0749 129.249 34.1212C129.026 34.2303 128.295 33.9625 128.315 34.2204C128.329 34.389 129.321 34.4716 129.506 34.8717C130.028 35.9858 128.641 36.2271 127.787 36.0255C127.54 35.966 127.413 35.7808 127.172 35.7676ZM125.923 35.07L125.769 34.4716C125.498 34.8452 125.295 35.1824 125.923 35.07Z" fill="#002676"/>
<path d="M70.1435 33.4699C70.1675 33.4864 70.2224 33.9294 70.4043 33.9691C70.6789 34.0286 70.6994 33.4963 70.8367 33.4666C71.0873 33.4071 71.5231 33.5162 71.8046 33.4699C71.4099 34.4055 70.6068 34.9212 70.871 36.0684H70.0405C70.2258 35.027 69.7179 34.3228 69.0521 33.5691C68.9114 33.6649 69.0624 34.1112 69.0006 34.1674C68.9594 34.2071 68.1358 34.1377 67.9607 34.1674V34.465H68.7947V35.0667H67.9607V35.3642H69.0006V36.0651H67.0272V33.4666C67.4699 33.5525 69.9719 33.3542 70.1435 33.4666" fill="#002676"/>
<path d="M78.4524 33.4699V36.0684H77.6219V34.8684L76.9492 35.4734L76.2731 34.8684V36.0684C76.0981 36.0684 75.3362 36.1246 75.3362 35.9197V33.4732C76.3383 33.2848 76.4035 33.7576 76.9458 34.3692C77.4606 33.8071 77.488 33.2848 78.4524 33.4732" fill="#002676"/>
<path d="M88.6315 33.4699C89.7057 33.255 89.8292 33.8798 90.344 34.5708L90.3955 33.4699H91.3325V36.0684C90.3578 36.28 90.0763 35.5526 89.6679 34.8716C89.4963 34.8452 89.5719 35.0072 89.565 35.1196C89.5478 35.4369 89.5787 35.7576 89.565 36.0717C89.3934 36.0717 88.6315 36.1279 88.6315 35.9229V33.4699Z" fill="#002676"/>
<path d="M105.98 33.4699C106.938 33.265 107.151 33.9361 107.59 34.5708L107.641 33.4699H108.578V36.0684C107.501 36.3131 107.435 35.4238 106.814 34.8684V36.0684H105.984V33.4699H105.98Z" fill="#002676"/>
<path d="M133.48 33.3939C136.171 32.8583 136.054 36.8056 133.295 36.0221C131.984 35.6519 132.149 33.6583 133.48 33.3939ZM133.686 34.1906C133.024 34.379 133.281 35.4568 133.954 35.3543C134.85 35.2188 134.64 33.9195 133.686 34.1906Z" fill="#002676"/>
<path d="M115.507 33.3938C117.903 32.9707 118.171 36.2667 115.686 36.0717C113.98 35.9395 113.973 33.6616 115.507 33.3938ZM115.607 34.1873C115.226 34.3129 115.174 35.1791 115.744 35.3278C116.709 35.5824 116.818 33.7873 115.607 34.1873Z" fill="#002676"/>
<path d="M110.109 33.3938C112.474 33.007 112.755 36.2336 110.287 36.0717C108.554 35.9559 108.537 33.6517 110.109 33.3938ZM110.943 34.293C110.442 33.8104 109.35 34.5311 110.081 35.1691C110.785 35.7807 111.372 34.7063 110.943 34.293Z" fill="#002676"/>
<path d="M147.089 33.3939C149.498 32.9707 149.728 36.2635 147.267 36.0717C145.562 35.9395 145.555 33.6617 147.089 33.3939ZM147.185 34.1873C146.804 34.3129 146.752 35.1791 147.322 35.3279C148.287 35.5824 148.396 33.7873 147.185 34.1873Z" fill="#002676"/>
<path d="M58.454 33.4699C58.9482 33.5724 59.1335 34.2468 58.9791 34.6766C58.8898 34.9311 58.653 34.9443 58.6256 34.984C58.454 35.2683 59.2605 35.708 59.2296 36.0684C58.2137 36.2138 58.1142 35.9527 57.5685 35.2683C57.5376 35.4138 57.6063 36.032 57.5685 36.0684C57.5308 36.1047 56.7998 36.0419 56.635 36.0684V33.4699C57.1635 33.5426 57.9632 33.3707 58.454 33.4699ZM57.5719 34.5708C58.2789 34.66 58.2927 33.9856 57.5719 34.0716V34.5708Z" fill="#002676"/>
<path d="M83.178 33.4699C83.6722 33.5724 83.8575 34.2468 83.7031 34.6766C83.6138 34.9311 83.377 34.9443 83.3496 34.984C83.178 35.2683 83.9845 35.708 83.9536 36.0684C82.9377 36.2138 82.8382 35.9527 82.2925 35.2683C82.2616 35.4138 82.3303 36.032 82.2925 36.0684C82.2548 36.1047 81.5237 36.0419 81.359 36.0684V33.4699C81.8875 33.5426 82.6872 33.3707 83.178 33.4699ZM82.2959 34.5708C83.0029 34.66 83.0167 33.9856 82.2959 34.0716V34.5708Z" fill="#002676"/>
<path d="M94.6583 34.4683C94.7063 35.0336 94.3906 35.9064 93.7523 36.0452C90.7493 36.6965 91.1783 32.326 94.1366 33.5691C94.1916 33.6352 93.7728 34.1906 93.7214 34.2236C93.5532 34.3261 92.8188 33.8765 92.6231 34.5675C92.4584 35.1493 93.2752 35.5692 93.6218 35.07C93.035 35.1559 93.2203 34.9377 93.2066 34.4683H94.6617H94.6583Z" fill="#002676"/>
<path d="M102.967 33.4698H103.904L103.962 34.3691H104.525V33.4665H105.462V36.065H104.525L104.466 35.0633H103.904C103.959 35.9626 103.989 36.1708 102.97 36.065V33.4665L102.967 33.4698Z" fill="#002676"/>
<path d="M85.9303 35.07C85.3469 35.156 85.5288 34.9378 85.5151 34.4683H86.8673C86.9805 35.2981 86.7163 35.9725 85.7759 36.0651C83.2568 36.3197 83.5005 33.0996 85.7656 33.3773C86.0161 33.4071 86.4143 33.4831 86.3285 33.7939C86.1328 34.5113 85.6729 34.0683 85.2748 34.184C84.4477 34.422 85.2131 35.8535 85.9303 35.0667" fill="#002676"/>
<path d="M120.106 33.5724C119.91 34.3824 119.674 34.141 119.128 34.1741C118.294 34.2237 118.575 35.6254 119.584 35.2684C119.684 34.9477 119.341 35.1262 119.286 35.0634C119.224 34.994 119.3 34.6105 119.275 34.4683H120.628C120.985 36.8156 117.148 36.5213 117.769 34.2666C118.026 33.3344 119.334 33.1691 120.109 33.5724" fill="#002676"/>
<path d="M59.545 33.4699C59.7098 33.4963 60.4408 33.4335 60.482 33.4699C60.5335 33.5195 60.403 34.1641 60.5335 34.1708C60.8767 33.3542 61.3125 33.4302 62.1431 33.4699L61.2164 34.703L62.2495 36.0155C61.1993 36.3163 61.038 35.8171 60.482 35.1659V36.0651H59.545V33.4666V33.4699Z" fill="#002676"/>
<path d="M53.1584 33.4698C54.0095 33.6451 53.3746 34.6104 53.4192 34.6666C53.4329 34.6831 53.6972 34.6964 53.783 34.865C54.0164 35.3212 53.6972 36.065 53.1584 36.065H51.4458V33.4665C51.9469 33.536 52.6985 33.3707 53.1584 33.4665M52.2764 34.4716C52.9834 34.5608 52.9971 33.8864 52.2764 33.9723V34.4716ZM52.2764 35.47C53.2305 35.5295 53.2133 34.8418 52.2764 34.8716V35.47Z" fill="#002676"/>
<path d="M142.544 36.0684C142.287 36.0354 141.909 36.1312 141.676 36.0552C141.425 35.9725 141.556 35.5395 140.718 35.6651C140.437 35.7081 140.64 35.9758 140.403 36.0585C140.183 36.1345 139.782 36.0354 139.531 36.0684L140.475 33.4798C140.753 33.4897 141.388 33.374 141.556 33.5691L142.541 36.0651L142.544 36.0684ZM141.196 35.07L140.99 34.3724C140.921 34.8254 140.465 35.1725 141.196 35.07Z" fill="#002676"/>
<path d="M56.3261 33.4699V34.1707C56.1407 34.2005 55.2038 34.1046 55.1832 34.2203C55.0974 34.6931 55.8319 34.3889 56.1201 34.4683V35.07C56.0824 35.1063 54.7817 34.9708 55.1866 35.2683C56.0103 35.2683 56.4805 35.06 56.3295 36.0684H54.2531V33.4699H56.3295H56.3261Z" fill="#002676"/>
<path d="M81.0501 33.4699V34.1707C80.8647 34.2005 79.9278 34.1046 79.9072 34.2203C79.8214 34.6931 80.5559 34.3889 80.8441 34.4683V35.07C80.8064 35.1063 79.5057 34.9708 79.9106 35.2683C80.7343 35.2683 81.2045 35.06 81.0535 36.0684H78.9771V33.4699H81.0535H81.0501Z" fill="#002676"/>
<path d="M75.0238 33.4699V34.1707C74.8384 34.2005 73.9015 34.1046 73.8809 34.2203C73.7951 34.6931 74.5295 34.3889 74.8178 34.4683V35.07C74.7801 35.1063 73.4794 34.9708 73.8843 35.2683C74.708 35.2683 75.1782 35.06 75.0272 36.0684H72.9508V33.4699H75.0272H75.0238Z" fill="#002676"/>
<path d="M132.053 33.5724C132.139 33.6881 131.803 34.2336 131.679 34.2633C131.624 34.2765 130.9 33.8765 130.914 34.2203C130.921 34.4485 132.204 34.346 132.167 35.3179C132.146 35.8006 131.738 36.0188 131.278 36.0717C130.842 36.1246 129.603 36.1147 129.929 35.4733C130.238 34.865 130.904 35.5857 131.12 35.3708C131.13 35.3609 131.13 35.0832 131.12 35.0733C130.986 34.9377 129.96 35.2022 129.967 34.2203C129.974 33.2616 131.367 33.2352 132.053 33.5757" fill="#002676"/>
<path d="M100.06 33.4699V34.1707C99.8814 34.2005 99.0406 34.1046 99.02 34.2203C98.9342 34.6832 99.5691 34.3988 99.854 34.4683V35.07H99.0234V35.3675H100.063V36.0684H98.0899V33.4699H100.063H100.06Z" fill="#002676"/>
<path d="M64.532 33.4699V34.1707H63.3892V34.4683H64.3261V35.07C62.6719 34.9609 63.4544 35.5196 64.532 35.3675V36.0684H62.5586V33.4699H64.532Z" fill="#002676"/>
<path d="M138.08 33.5724C137.829 34.6369 137.507 34.0485 137.012 34.184C136.59 34.303 136.518 35.027 136.937 35.2188C137.373 35.4205 137.661 34.9179 137.984 35.6122C138.131 35.9296 137.939 36.0056 137.606 36.0618C134.699 36.5313 135.341 32.336 138.08 33.5724Z" fill="#002676"/>
<path d="M102.654 33.5724C102.716 33.6518 102.335 34.1807 102.239 34.227C102.023 34.3295 101.179 33.8733 101.196 34.7196C101.216 35.642 102.03 35.0634 102.294 35.2585C102.696 35.5527 102.802 35.9593 102.181 36.0618C99.2808 36.5313 99.8643 32.3261 102.654 33.5724Z" fill="#002676"/>
<path d="M122.08 34.0683C122.234 33.3542 122.797 33.3872 123.432 33.5195C122.811 34.3691 122.286 34.941 122.498 36.0684H121.561C121.795 34.9047 121.194 34.3724 120.628 33.4699C120.916 33.5062 121.338 33.4004 121.599 33.4831C121.836 33.5591 121.819 33.9955 122.083 34.0683" fill="#002676"/>
<path d="M113.355 33.4699V35.2683C113.582 35.2948 114.117 35.1857 114.244 35.3609C114.354 35.513 114.303 36.0684 114.135 36.0684H112.473C112.473 36.0684 112.319 35.9295 112.319 35.9196V33.4732H113.359L113.355 33.4699Z" fill="#002676"/>
<path d="M65.8846 33.4699V35.2683C66.1111 35.2948 66.6465 35.1857 66.7735 35.3609C66.8833 35.513 66.8318 36.0684 66.6637 36.0684H65.0026C65.0026 36.0684 64.8482 35.9295 64.8482 35.9196V33.4732H65.8881L65.8846 33.4699Z" fill="#002676"/>
<path d="M144.415 33.4699C144.426 34.1542 144.577 34.2435 143.791 34.1707V36.0684H142.857V34.1707C142.071 34.2435 142.226 34.1575 142.232 33.4699H144.415Z" fill="#002676"/>
<path d="M97.8773 33.4699C97.8876 34.1542 98.0386 34.2435 97.2526 34.1707V35.9196C97.2526 36.1279 96.4907 36.0684 96.3191 36.0684V34.1707C95.5332 34.2435 95.6877 34.1575 95.6945 33.4699H97.8773Z" fill="#002676"/>
<path d="M145.558 33.4699H144.624V36.0684H145.558V33.4699Z" fill="#002676"/>
<path d="M139.325 33.4699H138.392V36.0684H139.325V33.4699Z" fill="#002676"/>
<path d="M88.2161 33.4699H87.2826V36.0684H88.2161V33.4699Z" fill="#002676"/>
<path d="M45.6249 16.4837H45.5219C45.4704 16.0671 45.6764 16.0671 45.6249 16.4837Z" fill="#002676"/>
<path d="M9.32209 4.89623C9.39153 4.92968 9.39153 4.96312 9.32209 4.99657V4.89623Z" fill="#002676"/>
<path d="M32.0171 21.9815C33.1736 21.8129 33.5306 22.5865 33.6507 23.5585C33.8497 25.152 33.8532 30.2234 33.4207 31.6747C33.1324 32.64 32.422 33.6186 31.5537 34.174L24.3843 38.1644L19.5555 35.5196C19.5555 35.427 20.2831 35.0336 20.4204 34.9542C22.4349 33.7872 24.8545 32.7161 26.7558 31.4565C29.546 29.6085 28.5164 26.6397 28.8013 23.9817C28.815 23.856 28.7738 23.7271 28.9042 23.6345C29.7451 23.3337 31.2208 22.1005 32.0205 21.9848" fill="#FDB515"/>
<path d="M52.2764 34.8716V35.47C53.2305 35.5328 53.2133 34.8451 52.2764 34.8716Z" fill="#002676"/>
<path d="M52.2764 33.9723V34.4716C52.9834 34.5608 52.9971 33.8864 52.2764 33.9723Z" fill="#002676"/>
<path d="M140.99 34.3724C140.921 34.8254 140.465 35.1725 141.196 35.07L140.99 34.3724Z" fill="#002676"/>
</svg>
