<svg width="82" height="78" viewBox="0 0 82 78" fill="none" xmlns="http://www.w3.org/2000/svg">
<path d="M68.895 53.1296L11.6073 53.1304V0L68.8942 0.000824128L68.8947 53.1299L68.895 53.1296ZM67.8013 52.031V1.11889H12.7243V52.0321L67.8013 52.0308V52.031Z" fill="#201D13"/>
<path d="M42.071 72.6704C42.5497 72.9873 43.4454 71.3683 43.5069 71.2938C43.5268 71.2699 43.5989 71.3059 43.6161 71.3321C43.6333 71.3582 43.6221 71.4423 43.6068 71.4695C43.218 72.161 42.7294 72.7506 42.0625 73.1665C41.3956 73.5824 40.6263 73.7652 39.8576 73.6143C38.707 73.3883 37.9394 72.3433 38.1712 71.1743L38.4744 69.6447L37.2531 69.9827L36.516 73.4939L32.5754 73.4911L35.2907 60.5947C35.2669 60.5095 33.9441 60.6431 34.1197 60.4856L34.2344 60.3828C34.6181 60.3606 35.0012 60.4463 35.3647 60.3724L39.46 59.5362L37.3096 69.7554C37.9476 69.5487 38.4487 69.2447 38.9124 68.8418C39.4501 68.3437 39.7841 67.7195 39.9799 67.0087C40.1664 66.2545 40.2123 65.5112 40.2216 64.7004L43.9954 65.6968C42.822 67.65 41.0351 68.7115 38.9214 69.4943C39.6588 69.5834 40.3885 69.6584 41.1141 69.8615C42.997 70.3887 41.4385 72.2518 42.0707 72.6704H42.071Z" fill="#201D13"/>
<path d="M23.045 73.1775C21.6399 73.9936 19.7075 73.8073 19.0887 72.3362C18.8919 71.8683 18.9198 71.3957 18.9732 70.8792C18.2963 72.2132 17.1047 73.5083 15.5197 73.6559C14.526 73.7483 13.6377 73.242 13.2297 72.3376C12.5194 70.7631 13.1346 68.464 13.9518 67.0185C14.437 66.2171 15.0423 65.5475 15.8636 65.1126C17.3293 64.3048 19.0382 64.6171 20.1706 65.8043L24.3126 64.6232L22.7105 72.1939C22.667 72.4003 22.6997 72.696 22.8824 72.7838C23.0651 72.8715 23.3083 72.7357 23.4646 72.6174C23.9073 72.2822 24.2252 71.8291 24.5079 71.3551C24.5198 71.3353 24.5718 71.2572 24.5889 71.2696L24.7123 71.3596C24.3291 72.0951 23.7814 72.7498 23.0455 73.1772L23.045 73.1775ZM18.5522 71.2208C18.9669 70.4794 19.252 69.6953 19.4289 68.8511L20.0317 65.9715C19.8598 65.7375 19.546 65.5756 19.2782 65.5508C18.5123 65.4796 17.9489 66.5139 17.6938 67.1631C17.2375 68.3244 16.9601 69.5268 16.8466 70.7744C16.811 71.1656 16.8336 72.134 17.2775 72.2584C17.7737 72.3972 18.3161 71.6423 18.552 71.2208H18.5522Z" fill="#201D13"/>
<path d="M54.6296 65.9879C54.9048 69.0316 53.6752 73.2977 50.069 73.5482C49.4095 76.2817 46.5991 77.8943 43.9611 77.9999C43.9315 78.001 43.859 77.995 43.8468 77.9797C43.611 77.6836 44.5015 77.981 45.2897 77.4334C45.7338 77.1248 46.0087 76.644 46.1203 76.1013C46.2563 75.4391 46.2943 74.7752 46.2359 74.0713L45.537 65.6454L44.501 65.6329C44.4638 65.6324 44.3443 65.6223 44.3598 65.5972L44.4445 65.4585C44.8953 65.4326 45.3133 65.5188 45.7482 65.4465L49.5568 64.8141L50.1621 71.9976C50.2012 72.4628 50.1781 72.8475 50.141 73.34C51.5839 73.2183 52.6517 72.4797 52.8189 70.9735C52.9074 70.1506 52.7372 69.3626 52.4769 68.574C52.0898 67.4567 51.5518 66.4788 50.8768 65.4165L54.3877 64.8116C54.5104 65.2001 54.5739 65.5767 54.6296 65.9887V65.9879Z" fill="#201D13"/>
<path d="M10.5296 60.8676C11.8504 61.2149 13.1366 61.0753 14.4155 60.523L10.9451 64.8351L4.89066 73.5832C4.84581 73.6478 4.76244 73.677 4.72914 73.6634C4.68484 73.6454 4.62678 73.5745 4.60724 73.4971L1.38505 60.6628L0.0716853 60.6497C0.0447191 60.6497 -0.02022 60.526 0.00619589 60.5167C0.0326118 60.5074 0.10498 60.4783 0.143779 60.4783H7.11758C7.15198 60.478 7.24361 60.5074 7.237 60.5303L7.20288 60.6522L5.47649 60.659L7.63242 69.2593L10.5701 64.9903L9.43613 60.4995L10.5296 60.8678V60.8676Z" fill="#201D13"/>
<path d="M31.6107 71.2762C32.1128 71.0049 30.3052 74.3565 27.5663 73.5374C26.5804 73.2425 25.8368 72.2625 26.0639 71.165L28.2533 60.578L27.199 60.5711C27.1635 60.5711 27.078 60.5168 27.0974 60.4962L27.1927 60.3951C27.5476 60.3578 27.925 60.4602 28.2766 60.3874L32.3881 59.5362L29.7575 72.1173C29.7123 72.3328 29.7278 72.6057 29.8699 72.7323C30.012 72.8589 30.2629 72.7705 30.4118 72.6694C31.1619 72.1598 31.4366 71.3707 31.611 71.2765L31.6107 71.2762Z" fill="#201D13"/>
<path d="M78.1217 73.0742C79.4904 73.2132 80.8037 72.3798 81.5451 71.3549C81.5695 71.3211 81.6776 71.3576 81.7036 71.3978C80.2461 73.4574 77.4777 74.131 75.1504 73.3522C73.7425 72.8809 72.6943 71.7713 72.6422 70.2131C72.595 68.7994 73.1217 67.473 74.0827 66.4475C75.7163 64.7043 78.1181 64.3386 80.3694 64.814C80.7453 64.8934 81.1023 65.0479 81.4086 65.2589C82.3691 65.9209 82.0351 67.2891 81.2912 68.0821C80.1411 69.3083 78.1009 69.8557 76.4599 70.0176C76.3606 71.3039 76.5312 72.8779 78.1217 73.0736V73.0742ZM79.4241 65.6534C79.3056 64.7198 78.1806 64.7902 77.4859 64.8987L76.4585 69.8075C78.7035 69.5683 79.695 67.785 79.4241 65.6534Z" fill="#201D13"/>
<path d="M61.0351 68.6666L59.979 73.4769L55.9772 73.4783L57.6773 65.6387L56.5577 65.6211C56.5247 65.6205 56.4473 65.546 56.4623 65.5308C56.6315 65.3617 57.36 65.5029 57.7475 65.4433L61.8539 64.8116L61.181 67.9536C61.7171 67.1758 62.2846 66.4842 63.0415 65.9078C63.5895 65.4991 64.1378 65.1379 64.7763 64.8284L63.9104 68.8344C63.4134 68.3951 62.9635 68.0718 62.3939 67.9162C61.7637 67.7441 61.2626 68.0341 61.0349 68.6666H61.0351Z" fill="#201D13"/>
<path d="M71.6822 71.3221C71.9243 71.4925 70.0471 74.3142 67.4504 73.529C66.435 73.2221 65.7137 72.264 65.9419 71.1924L67.1251 65.6362L66.0488 65.6226C66.0243 65.6224 65.9375 65.6077 65.9433 65.5846L65.9747 65.4593C66.3702 65.4199 66.8023 65.5051 67.2231 65.4408L71.3402 64.8116L69.7276 72.1796C69.6864 72.3682 69.7237 72.649 69.8559 72.7475C70.034 72.8802 70.2769 72.7695 70.4483 72.6542C71.2225 72.1329 71.5411 71.2223 71.6828 71.3221H71.6822Z" fill="#201D13"/>
<path d="M69.2826 64.0574C68.2403 64.083 67.4888 63.2713 67.5944 62.2684C67.7234 61.0418 68.7792 60.0231 70.0276 59.9199C70.5746 59.8747 71.0721 60.0556 71.4151 60.397C71.7827 60.7632 71.9546 61.2849 71.8686 61.8355C71.6774 63.0618 70.5612 64.0257 69.2826 64.0571V64.0574Z" fill="#201D13"/>
<path d="M67.0229 51.4348L13.4795 51.4342V1.88461L67.0229 1.88406V51.4348ZM45.9771 41.5155L37.5903 11.432C37.2672 9.93054 37.1515 8.52683 38.449 7.42484L23.4238 7.42567C24.3112 7.99992 24.8895 8.77322 25.2565 9.73481L36.3916 46.3301L44.7216 46.3259L45.9773 41.5155H45.9771ZM57.7672 7.43062L50.5586 7.43227C52.8263 8.54858 53.5816 10.3564 53.776 12.8104C54.5779 10.559 55.6764 8.57638 57.7672 7.43062Z" fill="#201D13"/>
</svg>
